<?xml version="1.0" encoding="utf-8"?>
<!-- Generator: Adobe Illustrator 27.4.1, SVG Export Plug-In . SVG Version: 6.00 Build 0)  -->
<svg version="1.1" id="Layer_1" xmlns="http://www.w3.org/2000/svg" xmlns:xlink="http://www.w3.org/1999/xlink" x="0px" y="0px"
	 viewBox="0 0 419.6 419.6" style="enable-background:new 0 0 419.6 419.6;" xml:space="preserve">
<style type="text/css">
	.st0{fill:url(#SVGID_1_);}
	.st1{fill:#FFFFFF;}
</style>
<g>
	<radialGradient id="SVGID_1_" cx="209.7842" cy="209.7842" r="209.7842" gradientUnits="userSpaceOnUse">
		<stop  offset="0.1809" style="stop-color:#ED2583"/>
		<stop  offset="0.3892" style="stop-color:#BB1E72"/>
		<stop  offset="1" style="stop-color:#27083F"/>
	</radialGradient>
	<circle class="st0" cx="209.8" cy="209.8" r="209.8"/>
	<g>
		<path class="st1" d="M53.1,264.5l51.2-120.9c5.4-12.2,13.6-18.2,24.8-18.2c11.5,0,19.6,6.1,24.5,18.2l50.3,119
			c1.6,4.2,2.6,7.7,2.6,10.8c0,10.5-7.2,18-17.8,18c-8.7,0-14.5-4.4-17.8-13.6l-8.9-22H93.5l-8.7,21.7c-3.5,9.1-9.1,13.8-17.1,13.8
			c-10.1,0-17.3-7.2-17.3-16.8C50.5,271.9,51.4,268.7,53.1,264.5z M104,227.5h47.5l-23.6-60.8L104,227.5z"/>
		<path class="st1" d="M210.2,148.7c0-13.3,9.6-23.4,23.4-23.4c8.2,0,15,4,20.3,11.7l68.7,96.8v-91.2c0-10.1,7.2-17.3,17.5-17.3
			c10.3,0,17.3,7.2,17.3,17.3v126.7c0,12.9-8.9,22-21.7,22c-8.2,0-15-4-20.3-11.9L245,180.1v93.8c0,10.3-7,17.5-17.3,17.5
			c-10.5,0-17.5-7.2-17.5-17.5V148.7z"/>
	</g>
</g>
</svg>
