<?xml version="1.0" encoding="utf-8"?>
<!-- Generator: Adobe Illustrator 27.2.0, SVG Export Plug-In . SVG Version: 6.00 Build 0)  -->
<svg version="1.1" id="Layer_1" xmlns="http://www.w3.org/2000/svg" xmlns:xlink="http://www.w3.org/1999/xlink" x="0px" y="0px"
	 viewBox="0 0 3363.3 2036.3" style="enable-background:new 0 0 3363.3 2036.3;" xml:space="preserve">
<style type="text/css">
	.st0{opacity:0.25;fill:#371A45;}
	.st1{fill:#FFFFFF;}
	.st2{opacity:0.25;}
	.st3{fill:#371A45;}
	.st4{opacity:0.35;}
	.st5{fill:#101928;}
	.st6{opacity:0.5;}
	.st7{fill:#FFFDF9;}
	.st8{fill:#C2C2C8;}
	.st9{opacity:0.6;}
	.st10{opacity:0.2;}
	.st11{fill:#02BAF3;}
	.st12{fill:#B0B9BB;}
	.st13{fill:#6D6C80;}
	.st14{opacity:0.3;}
	.st15{fill:#B7C6D7;}
	.st16{filter:url(#Adobe_OpacityMaskFilter);}
	.st17{filter:url(#Adobe_OpacityMaskFilter_00000096778055400324995740000007615503760136091548_);}
	.st18{mask:url(#SVGID_1_);fill:url(#SVGID_00000111159202459695201850000011633190651844535214_);}
	.st19{opacity:0.6;fill:url(#SVGID_00000137813211290326834120000009516111206817109173_);}
	.st20{filter:url(#Adobe_OpacityMaskFilter_00000023252793680720969970000001346671741730790563_);}
	.st21{filter:url(#Adobe_OpacityMaskFilter_00000139983873620341753040000002583463965918509955_);}
	
		.st22{mask:url(#SVGID_00000083775387010556484380000014539324543965198250_);fill:url(#SVGID_00000149344998842168892040000012461198013761572519_);}
	.st23{opacity:0.6;fill:url(#SVGID_00000047037583984045781870000007669164468123677347_);}
	.st24{fill:#BFCBCD;}
</style>
<g>
	<g>
		<ellipse class="st0" cx="1681.7" cy="1993.2" rx="1681.7" ry="43.1"/>
		<g>
			<g>
				<g>
					<path class="st1" d="M1386.8,1308.4H409.3c-88.2-288.1,59.3-327.6,59.3-327.6h858.8C1327.4,980.9,1475,1020.4,1386.8,1308.4z"
						/>
				</g>
				<g class="st2">
					<path class="st3" d="M1386.8,1308.4h-121.9c-127.2-32-234-81.2-79.7-81.1c211.9,0.1,168.4-175.5,142.2-246.4h0.1
						C1327.4,980.9,1475,1020.4,1386.8,1308.4z"/>
				</g>
				<g>
					<path class="st3" d="M1386.8,1323.1H409.3c-6.4,0-12.1-4.2-14-10.4c-37.6-122.8-38.5-217.7-2.8-282.3
						c28.6-51.5,70.5-63.3,72.3-63.8c7.8-2.1,15.9,2.5,18,10.4c2.1,7.8-2.5,15.8-10.3,17.9c-1.5,0.4-32.7,9.8-54.9,50.7
						c-20.9,38.5-37,112.5,2.6,248.1h955.6c39.6-135.6,23.5-209.6,2.6-248.1c-22.3-41-53.6-50.3-54.9-50.7
						c-7.7-2.2-12.3-10.3-10.2-18c2.1-7.8,10.1-12.3,17.9-10.3c1.8,0.5,43.7,12.2,72.3,63.8c35.8,64.5,34.8,159.5-2.8,282.3
						C1398.9,1318.9,1393.2,1323.1,1386.8,1323.1z"/>
				</g>
				<g>
					<path class="st1" d="M1508.3,1940.5c-15,15.9-36,24.9-57.9,24.9H325c-21.9,0-42.8-9-57.9-24.9
						c-64.3-68-101.3-126.8-119.1-175.5c0,0,0,0,0,0c-60.1-164.2,98.1-212.8,165.5-105.5c0,0,69.6-73.9,211.3-113h725.8
						c141.7,39.1,211.3,113,211.3,113C1549.4,1520.3,1789.5,1643.3,1508.3,1940.5z"/>
				</g>
				<g class="st2">
					<path class="st3" d="M610.3,1963.5c-0.2,0.6-0.5,1.2-0.6,1.9H325c-21.9,0-42.8-9-57.9-24.9c-64.3-68-101.3-126.8-119.1-175.5
						c115.4,200.3,262.4,137.3,187.3-71.2c1.8,4.2,60.5,137.4,88.1,153.1c28.1,15.9,58.6-26.9,58.6-26.9S626.2,1924.9,610.3,1963.5z
						"/>
				</g>
				<g class="st2">
					<path class="st3" d="M1157.7,1963.5c0.2,0.6,0.5,1.2,0.6,1.9H1443c21.9,0,42.8-9,57.9-24.9c64.3-68,101.3-126.8,119.1-175.5
						c-115.4,200.3-262.4,137.3-187.3-71.2c-1.8,4.2-60.5,137.4-88.1,153.1c-28.1,15.9-58.6-26.9-58.6-26.9
						S1141.8,1924.9,1157.7,1963.5z"/>
				</g>
				<g>
					<path class="st3" d="M312.5,1975.7c-4.3,0-9.1-0.6-14.5-2.2c-6.5-1.8-10.3-8.5-8.5-15c1.8-6.5,8.6-10.3,15-8.5
						c12.6,3.5,14.6-0.9,15.9-3.5c19.3-41.1-69.3-240.9-138.2-288.5c-18.4-12.7-24.6-6.4-27-3.9c-4.7,4.8-12.4,4.9-17.3,0.2
						c-4.8-4.7-4.9-12.4-0.2-17.3c8.6-8.8,27.6-20.4,58.4,0.9c69.3,47.9,174.3,259.5,146.4,319
						C339.6,1963.2,331.3,1975.7,312.5,1975.7z"/>
				</g>
				<g>
					<path class="st3" d="M325.6,1651.1c28.7,49.1,52.9,100.4,73,153.5c2.1,5.7-6.1,9.4-8.9,3.9c-25.5-49.2-55-96.7-88.2-140.8
						C289.3,1651.1,314.4,1633.8,325.6,1651.1L325.6,1651.1z"/>
				</g>
				<g>
					<g>
						<path class="st3" d="M1450.4,1980.1H325c-25.8,0-50.8-10.7-68.5-29.5c-109.4-115.7-156.4-224.6-128.9-298.8
							c13.3-35.9,43.7-59.7,81.2-63.6c39.6-4.1,79.2,14.5,106.9,49.1c26.6-23.3,94.3-74.4,205.2-105c7.8-2.2,15.9,2.4,18,10.2
							c2.2,7.8-2.4,15.9-10.2,18c-135.5,37.4-203.9,108.2-204.6,109c-3.1,3.3-7.6,5-12.1,4.5c-4.5-0.4-8.6-2.9-11-6.8
							c-21.5-34.2-55.7-53.4-89.3-49.9c-26.6,2.7-47.2,19-56.7,44.6c-11.1,30-21.4,116.1,122.7,268.4c12.2,12.9,29.4,20.3,47.2,20.3
							h1125.4c17.8,0,35-7.4,47.2-20.3c144.1-152.3,133.8-238.5,122.7-268.4c-9.5-25.6-30.2-41.9-56.7-44.6
							c-33.5-3.4-67.7,15.6-89.3,49.9c-2.4,3.8-6.5,6.3-11,6.8c-4.5,0.4-9-1.2-12.1-4.5c-0.7-0.7-69-71.5-204.5-108.9
							c-7.8-2.2-12.4-10.2-10.2-18c2.2-7.8,10.2-12.4,18-10.2c110.9,30.6,178.6,81.7,205.2,105c27.7-34.6,67.3-53.1,106.9-49.1
							c37.5,3.9,67.9,27.7,81.2,63.6c27.5,74.2-19.5,183.1-128.9,298.8C1501.2,1969.3,1476.3,1980.1,1450.4,1980.1z"/>
					</g>
				</g>
				<g>
					<path class="st3" d="M1462.9,1975.7c-18.8,0-27-12.5-30-18.8c-27.9-59.5,77.1-271.1,146.4-319c30.8-21.3,49.8-9.7,58.4-0.9
						c4.7,4.8,4.6,12.6-0.2,17.3c-4.8,4.7-12.6,4.6-17.3-0.2c-2.3-2.4-8.6-8.8-27,3.9c-68.9,47.6-157.5,247.4-138.2,288.5
						c1.2,2.6,3.3,7,15.9,3.5c6.5-1.8,13.2,2,15,8.5c1.8,6.5-2,13.2-8.5,15C1472,1975.1,1467.2,1975.7,1462.9,1975.7z"/>
				</g>
				<g>
					<path class="st3" d="M1474.1,1667.7c-33.2,44.2-62.7,91.7-88.3,140.9c-2.7,5.3-11.1,1.7-8.9-4c14.9-39.6,32.5-78.4,52.2-116
						c6.6-12.6,13.3-24.9,20.8-37.5c4.1-7,13.2-9.3,20.1-5.1C1477.6,1650.5,1479.5,1660.9,1474.1,1667.7L1474.1,1667.7z"/>
				</g>
				<g>
					<path class="st1" d="M1864.8,1436.4c-62.3,87.9-288.3,35.5-288.3,35.5c-113.6,36.6-232.5,17.7-232.5,17.7
						s-94.9,36.5-220.1,83.5c-232.9,87.3-570.6,210.5-597.1,201c-40.7-14.7-190.6-115.6-179.2-315.9
						c11.4-200.3,248.5-359.9,248.5-359.9h554.5c23.3,16.4,47.1,32.4,71.7,47.7c100.8,62.6,213.3,112.1,345,120.2
						c34.2-17.1,84.3-54.4,119.1-47.1s11,84.3,11,84.3c73-10,134.5,4.3,165.4,33.4C1888.8,1361.2,1893.2,1396.3,1864.8,1436.4z"/>
				</g>
				<g class="st2">
					<path class="st3" d="M1222.3,1145.9c-353.4,197.6-612-26.6-612-26.6l25.2-21.1h515.1
						C1173.9,1114.7,1197.8,1130.7,1222.3,1145.9z"/>
				</g>
				<g class="st2">
					<path class="st3" d="M606.3,1216.7c0,0-27.2,132.7,88.3,128.6l-103.2,15.5l-90.4,3.9C501,1364.6,529.7,1276,606.3,1216.7z"/>
				</g>
				<g class="st2">
					<path class="st3" d="M1864.8,1436.4c-62.3,87.9-288.3,35.5-288.3,35.5c-113.6,36.6-232.5,17.7-232.5,17.7
						s-94.9,36.5-220.1,83.5c-140.6-49.2-251.7-109.5-139.9-110.9c194.2-2.4,174.4-245.5,174.4-245.5l21.6,65.9
						c91.4,142.1,390.7,118.2,390.7,118.2c265.6,67.9,290.9-30.1,292-64C1888.8,1361.2,1893.2,1396.3,1864.8,1436.4z"/>
				</g>
				<g>
					<path class="st3" d="M530.6,1789.3c-4.6,0-6.8-0.8-8.7-1.5c-40.4-14.5-200.9-119-188.8-330.6c11.7-205.2,245-364.5,254.9-371.2
						c6.7-4.5,15.8-2.7,20.3,4c4.5,6.7,2.7,15.8-4,20.3c-2.3,1.6-231.2,157.9-242,348.5c-10.9,192.1,131,286.8,168.6,301
						c0.3,0,0.7,0,1.1,0c50.4,0,519.3-173.3,806.7-284c2.4-0.9,5-1.2,7.6-0.8c1.2,0.2,116.9,17.9,225.7-17.1
						c2.5-0.8,5.2-0.9,7.8-0.3c60.2,13.9,226.6,35.7,273-29.7c12.6-17.8,24.7-44.1,10.1-68.2c-21.1-34.9-88.4-52.1-163.5-41.9
						c-4.9,0.7-9.9-1.2-13.2-5s-4.3-9-2.8-13.8c5.8-18.9,10.9-50.8,4-62.6c-1.2-2.1-2.4-2.7-4-3c-21.1-4.5-55.1,15.1-82.4,30.8
						c-9.6,5.5-18.7,10.8-27.1,15c-2.3,1.2-4.9,1.7-7.5,1.5c-176.9-10.8-319.6-96.8-424.3-170.5c-6.6-4.7-8.2-13.8-3.5-20.4
						c4.7-6.6,13.8-8.2,20.4-3.5c100.7,70.9,237.5,153.5,405.2,164.9c6.8-3.5,14.3-7.9,22.1-12.4c33.3-19.2,70.9-40.8,103.1-34.1
						c10,2.1,18,7.9,23.2,16.9c10.5,17.8,7.8,45.5,4,65c79.7-6.2,145.6,15.7,171.3,58c17.8,29.4,13.8,65-11.2,100.3
						c-63.2,89.1-267.3,49.2-299.6,42.2c-104,32.4-209.5,20.6-231.5,17.6c-27.5,10.6-207.7,79.7-390,146.4
						C624.2,1772.5,551.7,1789.3,530.6,1789.3z M531.8,1760.2L531.8,1760.2L531.8,1760.2z"/>
				</g>
				<g>
					<g>
						<path class="st1" d="M1481.3,598.3c0,214.1-115.2,401.2-287.1,502.7c-86.9,51.4-188.3,80.9-296.6,80.9
							c-322.3,0-583.7-261.3-583.7-583.6c0-322.4,261.4-583.7,583.7-583.7c277.3,0,509.5,193.4,568.9,452.6v0
							C1476.2,509.5,1481.3,553.3,1481.3,598.3z"/>
					</g>
					<g class="st2">
						<path class="st3" d="M1481.3,598.3c0,214.1-115.2,401.2-287.1,502.7c-86.9,51.4-188.3,80.9-296.6,80.9
							c-322.3,0-583.7-261.3-583.7-583.6c0-7.6,0.1-15.2,0.5-22.8c11.9,311.8,268.5,560.8,583.2,560.8
							c108.3,0,209.7-29.5,296.6-80.9c165.7-97.9,278.7-275.4,286.6-480C1481.1,583.1,1481.3,590.7,1481.3,598.3z"/>
					</g>
					<g>
						<g>
							<path class="st3" d="M1481.3,598.3c0,214.1-115.2,401.2-287.1,502.7l-41.9-30.6l-254.7,11.4l-49.9,37.4
								c-348.5-96.1-434.9-364.8-434.9-364.8l33-249.1c357.9-358.4,890.5-226,1020.7-38.1v0C1476.2,509.5,1481.3,553.3,1481.3,598.3
								z"/>
						</g>
					</g>
					<g class="st4">
						<g>
							<path class="st5" d="M1481.3,598.3c0,214.1-115.2,401.2-287.1,502.7l-41.9-30.6l-254.7,11.4l-49.9,37.4
								c-348.5-96.1-434.9-364.8-434.9-364.8l6.1-46.2c96.4,181.1,283.7,304,498.8,304c280,0,512.6-208.1,559.6-481.9
								C1479.9,552.7,1481.3,575.3,1481.3,598.3z"/>
						</g>
					</g>
					<g>
						<path class="st3" d="M897.6,1196.7c-329.9,0-598.3-268.4-598.3-598.3S567.7,0,897.6,0s598.3,268.4,598.3,598.3
							S1227.5,1196.7,897.6,1196.7z M897.6,29.3c-313.8,0-569,255.3-569,569c0,313.8,255.3,569,569,569s569-255.3,569-569
							C1466.6,284.6,1211.3,29.3,897.6,29.3z"/>
					</g>
					<g>
						<g>
							<ellipse class="st1" cx="337.3" cy="605.9" rx="131.3" ry="178.3"/>
						</g>
						<g class="st2">
							<path class="st3" d="M468.6,605.9c0,98.5-58.8,178.3-131.3,178.3c-51.1,0-95.4-39.6-117.1-97.5
								c23.7,32.1,56.5,51.9,92.6,51.9c72.5,0,131.3-79.8,131.3-178.3c0-29.1-5.1-56.6-14.3-80.9
								C453.8,511.7,468.6,556.4,468.6,605.9z"/>
						</g>
						<g>
							<path class="st3" d="M337.3,798.9c-80.5,0-146-86.6-146-193s65.5-193,146-193s146,86.6,146,193S417.8,798.9,337.3,798.9z
								 M337.3,442.2c-64.3,0-116.7,73.4-116.7,163.7S273,769.6,337.3,769.6c64.3,0,116.7-73.4,116.7-163.7S401.6,442.2,337.3,442.2
								z"/>
						</g>
						<g>
							<path class="st3" d="M287.6,735.1c-49.5,0-89.8-54.8-89.8-122.2s40.3-122.1,89.8-122.1s89.8,54.8,89.8,122.1
								S337.1,735.1,287.6,735.1z M287.6,520.1c-32.8,0-60.5,42.5-60.5,92.8c0,50.3,27.7,92.8,60.5,92.8s60.5-42.5,60.5-92.8
								C348,562.6,320.3,520.1,287.6,520.1z"/>
						</g>
					</g>
					<g>
						<path class="st3" d="M456.2,515.8l-20.7-20.7C661.2,269,927.6,256.2,1066.4,268.7c178.9,16.1,344.5,92.6,412.1,190.3
							l-24.1,16.7c-63-91-220-162.5-390.7-177.8C930.1,285.8,673.5,298.2,456.2,515.8z"/>
					</g>
					<g>
						<path class="st3" d="M847.7,1134c-1.3,0-2.6-0.2-3.9-0.5C660.1,1082.8,549,984.1,488.3,910.2
							c-66.2-80.4-88.4-148.4-89.4-151.2c-2.5-7.7,1.8-16,9.5-18.4c7.7-2.5,16,1.8,18.4,9.5c0.3,0.9,22.1,66.5,85,142.6
							c57.3,69.3,161.3,161.6,332.9,210.6l44.1-33.1c2.4-1.8,5.2-2.8,8.1-2.9l254.7-11.4c3.3-0.1,6.6,0.8,9.3,2.8l42,30.6
							c6.5,4.8,8,13.9,3.2,20.5c-4.8,6.5-13.9,8-20.5,3.2l-37.8-27.6l-245,11l-46.3,34.7C853.9,1133,850.8,1134,847.7,1134z"/>
					</g>
					<g>
						<path class="st3" d="M393.6,459.4c-3.5,0-7.1-1.3-9.9-3.8c-6-5.5-6.4-14.7-0.9-20.7c8.9-9.8,221.9-239.2,551.2-267.4
							c5-0.4,10,1.8,13,5.9l16.9,22.7c36.3,2.7,203.2,17.4,314.5,66.2l16-17.9c4.6-5.1,12.1-6.4,18.1-3c3.2,1.8,79.1,45.2,125.9,102
							c5.1,6.2,4.2,15.5-2,20.6c-6.2,5.1-15.5,4.2-20.6-2c-33.7-40.9-85.9-75.6-107.6-89.1l-15.1,16.9c-4.3,4.8-11.3,6.2-17.2,3.5
							c-116.9-55.3-318.6-68.4-320.6-68.5c-4.3-0.3-8.3-2.4-10.8-5.9l-16-21.5c-313.5,30.4-521.9,255-524,257.2
							C401.5,457.8,397.6,459.4,393.6,459.4z"/>
					</g>
					<g class="st6">
						<ellipse class="st7" cx="917.7" cy="428.3" rx="74.1" ry="68.8"/>
					</g>
					<g class="st6">
						<path class="st7" d="M1347.2,555.5c-32.6-25.7-74.2-36.2-115.6-32.5c-147.9,13.2-255.2-158-102.1-171.6
							c0,0,353.3,19.8,297.7,303.7C1427.2,655.1,1402.5,599.1,1347.2,555.5z"/>
					</g>
				</g>
				<g>
					<path class="st3" d="M1700.1,1317.8l-57.9,3c-8.6,0.4-10.7-11.9-2.6-14.4c0,0,55.3-17.4,55.3-17.4
						C1716.2,1283.4,1722,1315.6,1700.1,1317.8L1700.1,1317.8z"/>
				</g>
				<g>
					<path class="st3" d="M1376.2,1505.2c-1.6,0-3.2-0.3-4.7-0.9c-6.2-2.6-9.2-9.8-6.6-16c65.1-155.5-3.1-258.5-3.8-259.5
						c-3.8-5.6-2.4-13.2,3.2-17c5.6-3.8,13.2-2.4,17,3.2c3.1,4.6,76.3,115.1,6.2,282.7C1385.5,1502.3,1381,1505.2,1376.2,1505.2z"/>
				</g>
				<g>
					<path class="st3" d="M366.6,1606.2c-1,0-1.9-0.1-2.9-0.4c-6.5-1.6-10.5-8.1-9-14.6c0.6-2.4,14.7-58,93.5-83.9
						c6.4-2.1,13.3,1.4,15.4,7.8c2.1,6.4-1.4,13.3-7.8,15.4c-65.1,21.5-76.9,64.7-77.4,66.5C377.1,1602.5,372.1,1606.2,366.6,1606.2
						z"/>
				</g>
				<g>
					<path class="st3" d="M564,1358.7c-0.4-40.4,9.5-80.3,24.8-117.4c5-12.2,10.9-23.8,17.1-35.3c1.3-2.4,4.3-3.3,6.6-2
						c2.2,1.2,3.2,3.9,2.2,6.2c-4.6,11.8-8.8,23.7-12.1,35.9c-9.6,35.4-14.2,73-9.5,109.5C595.9,1376,565.7,1379.4,564,1358.7
						L564,1358.7z"/>
				</g>
				<g>
					<path class="st3" d="M1171.8,1355.5c6.1-49.1-3.6-99.5-21.6-145.3c-2.3-5.6,5.8-9.6,8.8-4.2c25.5,46.6,42.2,99.1,41.9,152.7
						C1199.3,1379.3,1169,1376.1,1171.8,1355.5L1171.8,1355.5z"/>
				</g>
				<g>
					<path class="st3" d="M1075.7,1369.3H710.9c-4.6,0-8.8-2.6-10.9-6.7c-2.1-4.1-1.7-9,1-12.7l45.2-62.3c2.3-3.2,6-5,9.9-5h274.4
						c3.9,0,7.6,1.9,9.9,5l45.2,62.3c2.7,3.7,3.1,8.6,1,12.7C1084.5,1366.7,1080.3,1369.3,1075.7,1369.3z M734.9,1344.9h316.9
						l-27.5-37.9H762.3L734.9,1344.9z"/>
				</g>
				<g>
					<path class="st3" d="M1021.2,1374.4H766.1c-3.8,0-7.2-2.2-8.8-5.6c-1.6-3.4-1.1-7.5,1.3-10.4l31.6-38.7
						c1.9-2.3,4.6-3.6,7.6-3.6h191.9c2.9,0,5.7,1.3,7.6,3.6l31.6,38.7c2.4,2.9,2.9,7,1.3,10.4
						C1028.4,1372.2,1024.9,1374.4,1021.2,1374.4z M786.7,1354.9h213.9l-15.6-19.1H802.3L786.7,1354.9z"/>
				</g>
				<g>
					<g>
						<path class="st8" d="M1350.6,1437.8l-48.9,387.3c-4.4,35-34.2,61.3-69.5,61.3H560.1c-32,0-59.5-21.6-67.6-51.7h0
							c-0.8-3.1-1.5-6.3-1.9-9.5l-48.9-387.3c-5.4-42.8,27.9-80.7,71.1-80.7h766.5c20.5,0,38.7,8.5,51.6,22
							C1345.6,1394.1,1353.4,1415.2,1350.6,1437.8z"/>
					</g>
					<g class="st2">
						<path class="st3" d="M1350.6,1437.8l-48.9,387.3c-4.4,35-34.2,61.3-69.5,61.3H560.1c-32,0-59.5-21.6-67.6-51.7
							c362.4,4.8,581.4-8.5,698.8-98.7c90-69.2,113-186.7,139.8-356.7C1345.6,1394.1,1353.4,1415.2,1350.6,1437.8z"/>
					</g>
					<g class="st9">
						<path class="st7" d="M1350.6,1437.8l-0.8,6.7c-6.6-32.3-35.2-57.2-70.3-57.2H513c-35.1,0-63.7,24.9-70.3,57.2l-0.8-6.7
							c-5.4-42.8,27.9-80.7,71.1-80.7h766.5C1322.7,1357.1,1356,1395,1350.6,1437.8z"/>
					</g>
					<g>
						<path class="st8" d="M1235.5,1965.4H557c-26,0-48.7-17.7-54.9-43l-3.4-13.6c-2.8-11.4,5.8-22.5,17.6-22.5h759.9
							c11.8,0,20.4,11.1,17.6,22.5l-3.4,13.6C1284.1,1947.7,1261.5,1965.4,1235.5,1965.4z"/>
					</g>
					<g class="st2">
						<path class="st3" d="M1293.7,1908.8l-3.4,13.6c-6.2,25.3-28.9,43-54.9,43H557c-20.2,0-38.4-10.7-48.4-27.3
							c3.6,0.7,7.2,1.1,10.9,1.1H1198c26,0,48.7-17.8,54.9-43l2.4-9.9h20.8C1287.9,1886.3,1296.6,1897.3,1293.7,1908.8z"/>
					</g>
					<g>
						<path class="st3" d="M1232.3,1901H560.2c-42.6,0-78.7-31.9-84-74.1l-48.9-387.3c-3.1-24.6,4.5-49.3,20.9-67.9
							c16.4-18.6,40-29.2,64.8-29.2h766.6c24.8,0,48.4,10.7,64.8,29.2c16.4,18.6,24,43.3,20.9,67.9l-48.9,387.3
							C1311,1869.1,1274.8,1901,1232.3,1901z M512.9,1371.8c-16.4,0-32,7-42.8,19.3c-10.8,12.3-15.9,28.6-13.8,44.9l48.9,387.3
							c3.5,27.6,27.1,48.4,54.9,48.4h672.1c27.8,0,51.5-20.8,54.9-48.4l48.9-387.3c2-16.2-3-32.6-13.8-44.9
							c-10.8-12.3-26.4-19.3-42.8-19.3H512.9z"/>
					</g>
					<g>
						<path class="st3" d="M1235.5,1980.1H557c-32.8,0-61.3-22.3-69.2-54.1l-3.4-13.6c-2.4-9.9-0.2-20.1,6-28.1
							c6.3-8,15.7-12.6,25.8-12.6h759.9c10.2,0,19.6,4.6,25.8,12.6c6.3,8,8.5,18.2,6,28.1l-3.4,13.6
							C1296.7,1957.8,1268.3,1980.1,1235.5,1980.1z M516.3,1901c-1.4,0-2.3,0.7-2.7,1.3c-0.5,0.6-1,1.6-0.6,3l3.4,13.6
							c4.6,18.8,21.4,31.9,40.7,31.9h678.5c19.3,0,36.1-13.1,40.7-31.9l3.4-13.6c0.3-1.4-0.2-2.4-0.6-3c-0.5-0.6-1.3-1.3-2.7-1.3
							H516.3z"/>
					</g>
					<g>
						<path class="st8" d="M695.8,1912.5h-53.7c-15.5,0-29-10.8-32.3-25.9l-2.2-10c-1.9-8.5,4.6-16.5,13.3-16.5h96.2
							c8.7,0,15.2,8.1,13.3,16.5l-2.2,10C724.8,1901.7,711.4,1912.5,695.8,1912.5z"/>
					</g>
					<g>
						<path class="st8" d="M1150.2,1912.5h-53.7c-15.5,0-29-10.8-32.3-25.9l-2.2-10c-1.9-8.5,4.6-16.5,13.3-16.5h96.2
							c8.7,0,15.2,8.1,13.3,16.5l-2.2,10C1179.2,1901.7,1165.8,1912.5,1150.2,1912.5z"/>
					</g>
					<g>
						<path class="st3" d="M695.8,1924.7h-53.7c-21.4,0-39.6-14.6-44.2-35.5l-2.2-10c-1.7-7.7,0.1-15.6,5.1-21.7
							c4.9-6.1,12.3-9.7,20.1-9.7h96.2c7.9,0,15.2,3.5,20.1,9.7c4.9,6.1,6.8,14.1,5.1,21.7l-2.2,10
							C735.4,1910.1,717.3,1924.7,695.8,1924.7z M620.9,1872.3c-0.2,0-0.7,0-1.1,0.5c-0.4,0.5-0.3,1-0.3,1.2l2.2,10
							c2.1,9.6,10.5,16.4,20.4,16.4h53.7c9.9,0,18.3-6.7,20.4-16.4l2.2-10c0-0.2,0.1-0.6-0.3-1.2s-0.9-0.5-1.1-0.5H620.9z"/>
					</g>
					<g>
						<path class="st3" d="M1150.2,1924.7h-53.7c-21.4,0-39.6-14.6-44.2-35.5l-2.2-10c-1.7-7.7,0.1-15.6,5.1-21.7
							c4.9-6.1,12.3-9.7,20.1-9.7h96.2c7.9,0,15.2,3.5,20.1,9.7c4.9,6.1,6.8,14.1,5.1,21.7l-2.2,10
							C1189.8,1910.1,1171.6,1924.7,1150.2,1924.7z M1075.3,1872.3c-0.2,0-0.7,0-1.1,0.5c-0.4,0.5-0.3,1-0.3,1.2l2.2,10
							c2.1,9.6,10.5,16.4,20.4,16.4h53.7c9.9,0,18.3-6.7,20.4-16.4l2.2-10c0-0.2,0.1-0.6-0.3-1.2s-0.9-0.5-1.1-0.5H1075.3z"/>
					</g>
					<g>
						<path class="st1" d="M974.6,1644h-12.4c-1.5-5-3.8-9.7-6.7-14.1l8.8-7.6c3.7-3.2,3.7-8.5,0-11.7l-11.6-10.1
							c-3.8-3.3-9.8-3.3-13.6,0l-8.8,7.6c-5-2.5-10.5-4.5-16.2-5.9v-10.8c0-4.6-4.3-8.3-9.6-8.3H888c-5.3,0-9.5,3.7-9.5,8.3v10.8
							c-5.8,1.3-11.2,3.3-16.3,5.9l-8.8-7.6c-3.7-3.3-9.8-3.3-13.5,0l-11.6,10.1c-3.7,3.2-3.7,8.5,0,11.7l8.8,7.6
							c-2.9,4.4-5.2,9.1-6.8,14.1h-12.4c-5.3,0-9.6,3.7-9.6,8.3v14.3c0,4.6,4.3,8.3,9.6,8.3h12.4c1.6,5,3.9,9.7,6.8,14.1l-8.8,7.6
							c-3.7,3.2-3.7,8.5,0,11.7l11.6,10.1c3.7,3.2,9.8,3.2,13.5,0l8.8-7.6c5.1,2.5,10.5,4.5,16.3,5.9v10.8c0,4.6,4.3,8.3,9.5,8.3
							h16.4c5.3,0,9.6-3.7,9.6-8.3v-10.8c5.7-1.3,11.2-3.3,16.2-5.9l8.8,7.6c3.8,3.2,9.8,3.2,13.6,0l11.6-10.1
							c3.7-3.2,3.7-8.5,0-11.7l-8.8-7.6c2.9-4.4,5.2-9.1,6.7-14.1h12.4c5.3,0,9.5-3.7,9.5-8.3v-14.3
							C984.1,1647.7,979.8,1644,974.6,1644z M915.8,1676.5c-5,4.4-12,7.1-19.6,7.1c-15.2,0-27.7-10.8-27.7-24.1
							c0-6.6,3.1-12.7,8.1-17c5-4.4,12-7.1,19.6-7.1s14.6,2.7,19.6,7.1c5,4.4,8.1,10.4,8.1,17
							C923.9,1666.1,920.8,1672.1,915.8,1676.5z"/>
					</g>
					<g class="st10">
						<path class="st1" d="M573.4,1444.5h36.4c29.7,0,54.6,22.4,57.8,51.9l20,184c3.7,34.4-23.2,64.4-57.8,64.4h-36.2
							c-29.6,0-54.5-22.3-57.8-51.8l-20.2-184C511.9,1474.5,538.8,1444.5,573.4,1444.5z"/>
					</g>
				</g>
			</g>
			<g>
				<g>
					<rect x="2181.9" y="599.8" class="st11" width="334.7" height="240.8"/>
				</g>
				<g>
					<path class="st3" d="M2516.6,855.2h-334.7c-8.1,0-14.7-6.6-14.7-14.7V599.8c0-8.1,6.6-14.7,14.7-14.7h334.7
						c8.1,0,14.7,6.6,14.7,14.7v240.8C2531.2,848.7,2524.7,855.2,2516.6,855.2z M2196.5,825.9h305.4V614.4h-305.4V825.9z"/>
				</g>
				<g>
					<path class="st3" d="M2164.4,1311.9c-9.4,0-17.1-7.7-17.1-17.1v-695c0-9.4,7.7-17.1,17.1-17.1s17.1,7.7,17.1,17.1v695
						C2181.5,1304.2,2173.8,1311.9,2164.4,1311.9z"/>
				</g>
				<g>
					<path class="st3" d="M2164.4,877c-25.1,0-45.5-20.4-45.5-45.5V612.3c0-25.1,20.4-45.5,45.5-45.5s45.5,20.4,45.5,45.5v219.3
						C2209.9,856.6,2189.5,877,2164.4,877z M2164.4,601c-6.2,0-11.3,5.1-11.3,11.3v219.3c0,6.2,5.1,11.3,11.3,11.3
						s11.3-5.1,11.3-11.3V612.3C2175.7,606.1,2170.6,601,2164.4,601z"/>
				</g>
				<g>
					<g>
						<path class="st12" d="M2285,1250.8c-1.2,0-2.4-0.1-3.7-0.2c-17.4-2-29.9-17.8-27.9-35.2c11.1-96.1-70.2-184.7-156.1-222.4
							c-89.9-39.5-176-25.6-230.2,37.2c-11.5,13.3-31.5,14.7-44.8,3.3c-13.3-11.5-14.7-31.5-3.3-44.8
							c72.3-83.7,188.7-104.3,303.8-53.8c127.2,55.8,206.8,174.2,193.7,287.9C2314.7,1238.8,2301,1250.8,2285,1250.8z"/>
					</g>
					<g class="st9">
						<path class="st7" d="M2191.6,976.6c16.1,32.1-12.2,51.2-41.4,46.5c-23.7-28.6-96-46.5-96-46.5c-25.7-14-32.4-34.8-21.4-51.3
							c11-16.5,50.7,0,50.7,0S2139.6,939.3,2191.6,976.6z"/>
					</g>
					<g>
						<g>
							<path class="st3" d="M2285,1265.4c-1.8,0-3.6-0.1-5.4-0.3c-12.3-1.4-23.3-7.5-31-17.3c-7.7-9.7-11.2-21.8-9.7-34.2
								c10.3-89.1-66.4-171.7-147.5-207.3c-83.7-36.8-163.4-24.3-213.2,33.3c-8.1,9.4-19.4,15-31.7,16c-12.3,0.9-24.3-3.1-33.7-11.2
								c-9.4-8.1-15-19.4-16-31.7c-0.9-12.4,3.1-24.3,11.2-33.7c76.7-88.8,199.6-110.8,320.8-57.6c133,58.4,216.2,183,202.4,303
								C2328.4,1247.8,2308.6,1265.4,2285,1265.4z M1998.8,956.1c33.3,0,68.6,7.7,104.4,23.5c90.9,39.9,176.7,134.3,164.8,237.5
								c-0.5,4.5,0.7,9,3.6,12.6c2.8,3.6,6.9,5.8,11.4,6.4c0.7,0.1,1.4,0.1,2,0.1c8.7,0,16-6.5,17-15.1
								c12.4-107.3-63.7-219.5-185-272.7c-109-47.8-218.9-28.7-286.8,50c-3,3.5-4.4,7.9-4.1,12.4c0.3,4.6,2.4,8.7,5.9,11.7
								c3.5,3,7.9,4.4,12.4,4.1c4.6-0.3,8.7-2.4,11.7-5.9C1892.8,978,1942.8,956.1,1998.8,956.1z"/>
						</g>
					</g>
					<g>
						<path class="st3" d="M1923.2,997c-4.9,0-9.1-3.6-9.7-8.5c-3.7-29.2-31.3-39.5-32.5-39.9c-5.1-1.8-7.7-7.4-5.9-12.5
							c1.8-5.1,7.3-7.7,12.4-5.9c1.6,0.6,40.1,14.5,45.3,55.9c0.7,5.4-3.1,10.2-8.5,10.9C1924,997,1923.6,997,1923.2,997z"/>
					</g>
					<g>
						<path class="st3" d="M1983.9,973.1c-0.9,0-1.8-0.1-2.8-0.4c-5.2-1.5-8.1-6.9-6.6-12.1c6.5-22.3-2.4-40.1-5.3-45.9
							c-0.6-1.2-1-2-1.2-2.5c-2-5,0.4-10.7,5.4-12.7c5-2,10.6,0.4,12.7,5.3c0.1,0.3,0.3,0.6,0.5,1.1c10.2,20.2,12.4,40.5,6.6,60.2
							C1992,970.3,1988.1,973.1,1983.9,973.1z"/>
					</g>
					<g>
						<path class="st3" d="M2064.6,986.4c-1.3,0-2.6-0.3-3.9-0.8c-4.9-2.1-7.2-7.9-5.1-12.9c11.3-26,0.9-45.5,0.4-46.3
							c-2.6-4.7-0.9-10.6,3.8-13.3c4.7-2.6,10.6-1,13.2,3.7c0.6,1.1,15.8,28.5,0.5,63.7C2072,984.2,2068.4,986.4,2064.6,986.4z"/>
					</g>
					<g>
						<path class="st3" d="M2136,1019.1c-2.4,0-4.7-0.9-6.6-2.6c-4-3.7-4.2-9.8-0.6-13.8c20.5-22.2,14.3-45.9,14.3-46.1
							c-1.4-5.2,1.6-10.6,6.8-12c5.2-1.4,10.6,1.6,12,6.8c0.4,1.4,9.1,34.4-18.7,64.6C2141.2,1018.1,2138.6,1019.1,2136,1019.1z"/>
					</g>
					<g>
						<path class="st3" d="M2199.5,1068.8c-2.8,0-5.5-1.2-7.5-3.5c-3.5-4.1-3-10.3,1.2-13.8c23.2-19.6,17.7-45.2,17.7-45.5
							c-1.7-5.1,1.1-10.4,6.3-12.1c5.1-1.7,10.7,1.3,12.4,6.4c2.5,7.6,5.9,41.1-23.7,66.1C2204,1068.1,2201.7,1068.8,2199.5,1068.8z
							"/>
					</g>
					<g>
						<path class="st3" d="M2245.3,1137.2c-4,0-7.8-2.5-9.2-6.5c-1.8-5.1,0.8-10.7,5.9-12.5c25-8.9,32.2-18,34.2-22.7
							c1.7-3.8,0.7-6.2,0.6-6.5l8.8-4.3l8.6-4.6c0.5,1,5.1,10,0.5,21.8c-5.4,14-20.9,25.7-46.1,34.7
							C2247.5,1137,2246.4,1137.2,2245.3,1137.2z"/>
					</g>
				</g>
				<g>
					<g>
						<g>
							<ellipse class="st13" cx="2316.8" cy="1857.5" rx="121.6" ry="128.3"/>
						</g>
						<g class="st2">
							<path class="st3" d="M2441.8,1855.7c0,70.8-54.4,128.3-121.6,128.3c-51.9,0-96.3-34.4-113.6-82.8
								c21.9,33.3,58.4,55.1,99.8,55.1c67.1,0,121.6-57.5,121.6-128.3c0-16-2.8-31.3-7.9-45.4
								C2433.8,1803.4,2441.8,1828.6,2441.8,1855.7z"/>
						</g>
						<g class="st14">
							<path class="st1" d="M2222.7,1776.3c0,0,55.8-24.1,66.3,24.1c0,0,11.4,43.1-20.6,65.4c-2.7,1.9-62.3,25-67.2-18.3"/>
						</g>
						<g>
							<path class="st3" d="M2316.8,2000.4c-75.1,0-136.2-64.1-136.2-142.9c0-78.8,61.1-142.9,136.2-142.9s136.2,64.1,136.2,142.9
								C2453,1936.3,2391.9,2000.4,2316.8,2000.4z M2316.8,1743.9c-58.9,0-106.9,51-106.9,113.6c0,62.6,48,113.6,106.9,113.6
								s106.9-51,106.9-113.6C2423.7,1794.9,2375.7,1743.9,2316.8,1743.9z"/>
						</g>
						<g>
							<ellipse class="st11" cx="2332.9" cy="1857.5" rx="68" ry="74.9"/>
						</g>
						<g>
							<path class="st3" d="M2332.9,1942.2c-42.9,0-77.7-38-77.7-84.6c0-46.7,34.9-84.6,77.7-84.6s77.7,38,77.7,84.6
								C2410.7,1904.2,2375.8,1942.2,2332.9,1942.2z M2332.9,1792.4c-32.1,0-58.2,29.2-58.2,65.1c0,35.9,26.1,65.1,58.2,65.1
								s58.2-29.2,58.2-65.1C2391.1,1821.6,2365,1792.4,2332.9,1792.4z"/>
						</g>
					</g>
					<g>
						<g>
							<ellipse class="st13" cx="2066.2" cy="1857.5" rx="121.6" ry="128.3"/>
						</g>
						<g class="st2">
							<path class="st3" d="M2191.2,1855.7c0,70.8-54.4,128.3-121.6,128.3c-51.9,0-96.3-34.4-113.6-82.8
								c21.9,33.3,58.4,55.1,99.8,55.1c67.1,0,121.6-57.5,121.6-128.3c0-16-2.8-31.3-7.9-45.4
								C2183.3,1803.4,2191.2,1828.6,2191.2,1855.7z"/>
						</g>
						<g class="st14">
							<path class="st1" d="M1972.1,1776.3c0,0,55.8-24.1,66.3,24.1c0,0,11.4,43.1-20.6,65.4c-2.7,1.9-62.3,25-67.2-18.3"/>
						</g>
						<g>
							<path class="st3" d="M2066.2,2000.4c-75.1,0-136.2-64.1-136.2-142.9c0-78.8,61.1-142.9,136.2-142.9s136.2,64.1,136.2,142.9
								C2202.4,1936.3,2141.3,2000.4,2066.2,2000.4z M2066.2,1743.9c-58.9,0-106.9,51-106.9,113.6c0,62.6,48,113.6,106.9,113.6
								c58.9,0,106.9-51,106.9-113.6C2173.1,1794.9,2125.1,1743.9,2066.2,1743.9z"/>
						</g>
						<g>
							<ellipse class="st11" cx="2082.4" cy="1857.5" rx="68" ry="74.9"/>
						</g>
						<g>
							<path class="st3" d="M2082.4,1942.2c-42.9,0-77.7-38-77.7-84.6c0-46.7,34.9-84.6,77.7-84.6s77.7,38,77.7,84.6
								C2160.1,1904.2,2125.2,1942.2,2082.4,1942.2z M2082.4,1792.4c-32.1,0-58.2,29.2-58.2,65.1c0,35.9,26.1,65.1,58.2,65.1
								s58.2-29.2,58.2-65.1C2140.6,1821.6,2114.5,1792.4,2082.4,1792.4z"/>
						</g>
					</g>
					<g>
						<path class="st15" d="M3120.5,1325.3V1897h-978.4c-50.2-2.8-87.2-19.1-104.3-55.7c-7.3-15.6-11-35-10.6-58.6v-173.9
							c-2.4-72.1,11-172.3,11-172.3c36.6-234.4,249.2-228.3,249.2-228.3h746.3c43.5,8.6,65.3,34.8,76.1,60.4l0,0
							C3122.2,1297.4,3120.5,1325.3,3120.5,1325.3z"/>
					</g>
					<g class="st2">
						<path class="st3" d="M2512.9,1897h-370.8c-50.2-2.8-87.2-19.1-104.3-55.7c396,96.9,469.3-163.3,469.3-163.3l-2,62.7
							C2505.2,1740.6,2516,1822.1,2512.9,1897z"/>
					</g>
					<g>
						<path class="st15" d="M2635.2,1208.1c0,0,10.6-92,108.3-92h-132.7c0,0-87.9,5.7-112.4,92"/>
					</g>
					<g>
						<path class="st3" d="M2461.8,1801.8c-64.6,0-98.5-53.4-108.3-72h-258.3c-19.4,48.2-65.7,50.8-67.8,50.8
							c-5.7,0.2-10.5-4.2-10.8-9.9c-0.2-5.7,4.1-10.5,9.8-10.8c1.6-0.1,38.6-2.6,51.6-43.7c1.4-4.3,5.3-7.2,9.8-7.2h272
							c4.2,0,7.9,2.5,9.5,6.4c1.2,2.9,31,71.7,101.6,65.2c5.7-0.5,10.7,3.7,11.2,9.4c0.5,5.7-3.7,10.7-9.3,11.2
							C2469.1,1801.7,2465.4,1801.8,2461.8,1801.8z"/>
					</g>
					<g>
						<path class="st3" d="M2338.8,1904.7c-2.9,0-5.7-1.6-7-4.4l-24.1-50.4c-5.9-12.3-18.4-20.2-32-20.2h-123.5
							c-12.7,0-24.5,6.9-30.8,17.9l-24.7,43.3c-2.1,3.7-6.9,5-10.6,2.9c-3.7-2.1-5-6.9-2.9-10.6l24.7-43.3
							c9.1-15.9,26-25.7,44.3-25.7h123.5c19.5,0,37.6,11.4,46,29l24.1,50.4c1.8,3.9,0.2,8.5-3.7,10.3
							C2341,1904.5,2339.9,1904.7,2338.8,1904.7z"/>
					</g>
					<g>
						<path class="st3" d="M2913.7,1208.1c-21.2,42.4-91.6,40.3-91.6,40.3l-272,7.3c-90.4,7.3-116,131.9-120.9,215
							c-1.8,30-7.2,54.7-13.4,73.9c-11,33.7-40,58.4-74.9,64.4c-54.9,9.5-133.4,12-192.8,1.1c-44.7-8.2-77.5-46-79.5-91.3
							c-5.2-118.2,29.7-223.7,29.7-223.7v0c75.4-90.2,189.3-87,189.3-87H2913.7z"/>
					</g>
					<g>
						<path class="st15" d="M3033.8,1208.1c7.1-43.7-10.2-66.9-28-79.1c-12.8-8.7-28.2-12.9-43.6-12.9h-150.7
							c0,0,114.6-3.3,107.2,86.3"/>
					</g>
					<g>
						<path class="st3" d="M2490.1,1755c5-77.6,12.8-154.5,24.8-231.3c6.1-38.3,13.3-76.5,23.3-114.2c7.8-28.3,16.5-56.9,32-82.3
							c3.5-5.6,20.8-30.7,27.5-21.6c1.5,2.2,0.9,5.3-1.3,6.8c-14.3,10.8-22.3,29.2-28.9,45.8c-31.5,90.5-38.5,187.8-46.8,282.8
							c-2.8,38.4-4.9,77-6.1,115.2C2513.7,1772.3,2489.6,1771.5,2490.1,1755L2490.1,1755z"/>
					</g>
					<g class="st9">
						<path class="st7" d="M3120.5,1325.3v21.5c-0.8-23.7-9.8-94.3-86.7-109.4h-746.3c0,0-212.5-6.1-249.2,228.3
							c0,0-9.7,72.6-11.1,138.6c-1.8-71.7,11.1-167.9,11.1-167.9c36.6-234.4,249.2-228.3,249.2-228.3h746.3
							C3126.6,1226.4,3120.5,1325.3,3120.5,1325.3z"/>
					</g>
					<g class="st9">
						<path class="st7" d="M2027.2,1604.3c0,1.5,0,2.9,0.1,4.4v29.3C2026.9,1627.3,2026.9,1615.9,2027.2,1604.3z"/>
					</g>
					<g class="st9">
						<path class="st7" d="M3120.5,1354.7v-7.8C3120.7,1351.7,3120.5,1354.7,3120.5,1354.7z"/>
					</g>
					<g>
						<path class="st3" d="M2236.6,1631.9c-31.1,0-62.8-2.1-91.2-7.4c-51.6-9.5-89.2-52.7-91.5-105.1
							c-5.3-119.5,28.9-224.5,30.4-229c2.5-7.7,10.8-11.9,18.5-9.3c7.7,2.5,11.9,10.8,9.3,18.5c-0.3,1-33.9,104.5-28.9,218.5
							c1.7,38.7,29.5,70.6,67.5,77.6c60.7,11.1,138,7.4,187.7-1.2c29.9-5.2,54.2-26.1,63.4-54.5c7-21.5,11.3-45.1,12.8-70.2
							c3.9-65.8,24.7-219.8,134.4-228.7c0.3,0,0.5,0,0.8,0l272-7.3c0.3,0,0.5,0,0.8,0c17,0.6,64.2-4.5,78-32.2
							c5.1-10.2,4.5-20.9-1.8-31.8c-12.5-21.5-43-37.2-75.8-39h-220.5c-7.1,0.6-84.9,8.6-94.5,79.3c-1.1,8-8.5,13.6-16.5,12.6
							c-8-1.1-13.6-8.5-12.6-16.5c10.5-77.1,84.4-102.2,122.1-104.7c0.3,0,0.6,0,1,0h221.5c0.3,0,0.5,0,0.8,0
							c43.1,2.3,82.4,23.3,100,53.6c11.3,19.4,12.3,40.6,2.7,59.6c-24.3,48.7-97.5,48.5-104.7,48.4l-271.2,7.3
							c-86.4,7.4-103.7,143.1-107.1,201.2c-1.6,27.6-6.4,53.7-14.2,77.6c-12.6,38.8-45.7,67.3-86.3,74.3
							C2314.1,1628.5,2275.9,1631.9,2236.6,1631.9z"/>
					</g>
					<g>
						<path class="st3" d="M3033.8,1222.7c-0.8,0-1.6-0.1-2.4-0.2c-8-1.3-13.4-8.8-12.1-16.8c4.8-29.7-2.5-51.4-21.8-64.7
							c-9.9-6.8-22.1-10.3-35.4-10.3h-150.7c-8.1,0-14.7-6.6-14.7-14.7s6.6-14.7,14.7-14.7h150.7c19.2,0,37.1,5.3,51.9,15.5
							c20.3,13.9,42.7,41.4,34.2,93.6C3047.1,1217.6,3040.9,1222.7,3033.8,1222.7z"/>
					</g>
					<g>
						<path class="st11" d="M2396.8,1845.7h-31.4c-8.9,0-16.1-7.2-16.1-16.1l0,0c0-8.9,7.2-16.1,16.1-16.1h31.4
							c8.9,0,16.1,7.2,16.1,16.1l0,0C2412.9,1838.5,2405.7,1845.7,2396.8,1845.7z"/>
					</g>
					<g>
						<path class="st11" d="M2698.7,1116.1h115.2v-16.4c0-25.5-20.6-46.1-46.1-46.1h-23c-25.5,0-46.1,20.6-46.1,46.1V1116.1z"/>
					</g>
					<g>
						<path class="st11" d="M2040,1845.7h25.9c4.4,0,8.5-1.8,11.3-4.7c2.9-2.9,4.7-6.9,4.7-11.4c0-8.9-7.2-16.1-16.1-16.1h-31.4
							c-1.8,0-3.5,0.3-5,0.8"/>
					</g>
					<g>
						<path class="st3" d="M2813.9,1130.7h-115.2c-8.1,0-14.7-6.6-14.7-14.7v-16.4c0-33.5,27.3-60.8,60.8-60.8h23
							c33.5,0,60.8,27.3,60.8,60.8v16.4C2828.6,1124.1,2822,1130.7,2813.9,1130.7z M2713.3,1101.4h85.9v-1.7
							c0-17.3-14.1-31.5-31.5-31.5h-23c-17.3,0-31.5,14.1-31.5,31.5V1101.4z"/>
					</g>
					<g>
						<path class="st3" d="M2635.2,1222.7c-0.6,0-1.2,0-1.7-0.1c-8-1-13.8-8.2-12.8-16.2c4.2-36.3,35.2-105,122.9-105
							c8.1,0,14.7,6.6,14.7,14.7s-6.6,14.7-14.7,14.7c-83.1,0-93.4,75.8-93.8,79.1C2648.8,1217.2,2642.5,1222.7,2635.2,1222.7z"/>
					</g>
					<g>
						<path class="st11" d="M2349.3,1455.2c6.3-1.3,10.8-7,10.8-13.4v-37.6c0-64.5-78.7-59.1-82.5-7.5c0,0-4.6,54.1,8.2,87.1
							c1.8,4.8,8.2,5.6,11.4,1.6C2305.2,1475.5,2321.5,1460.6,2349.3,1455.2z"/>
					</g>
					<g>
						<path class="st11" d="M2128,1440.9c-5.4-1.3-9.1-6.2-9.3-11.7c-0.7-22.1,2-72.7,40.1-76.2c46-4.2,47.6,69.2,25.5,119.6
							c-1.8,4-7.2,4.6-9.9,1.1C2166.5,1463.5,2150.5,1446.5,2128,1440.9z"/>
					</g>
					<g>
						<path class="st11" d="M3120.3,1313h-289.6c-27.1,0-51.9,15.6-63.4,40.1c-19,40.4-44.4,106.3-47.3,174
							c-1.7,40,30,73.5,70.1,73.5h330.2"/>
					</g>
					<g>
						<path class="st11" d="M3120.6,1677.9h-345.9c-16.5,0-31.6,9.2-39.4,23.8c-10.8,20.3-23.1,53.9-23.4,101.6h408.7"/>
					</g>
					<g>
						<path class="st3" d="M3120.3,1612.8h-330.2c-22.6,0-43.7-9-59.4-25.4c-15.7-16.4-23.9-38.1-22.9-60.9
							c3-68.6,28-135,48.5-178.6c13.4-28.6,42.6-47.1,74.4-47.1h289.6c6.7,0,12.2,5.5,12.2,12.2s-5.5,12.2-12.2,12.2h-289.6
							c-22.4,0-42.9,13-52.3,33.1c-19.5,41.6-43.4,104.7-46.2,169.3c-0.7,16.1,5,31.3,16.1,42.9c11,11.5,25.8,17.8,41.7,17.8h330.2
							c6.7,0,12.2,5.5,12.2,12.2C3132.5,1607.3,3127,1612.8,3120.3,1612.8z"/>
					</g>
					<g>
						<path class="st3" d="M2711.9,1818c0,0-0.1,0-0.1,0c-8.1-0.1-14.6-6.7-14.6-14.8c0.4-51,13.9-87.1,25.1-108.4
							c10.3-19.5,30.4-31.6,52.3-31.6h345.9c8.1,0,14.7,6.6,14.7,14.7s-6.6,14.7-14.7,14.7h-345.9c-11.1,0-21.2,6.1-26.4,16
							c-9.7,18.4-21.4,49.8-21.7,94.8C2726.5,1811.5,2720,1818,2711.9,1818z"/>
					</g>
					<g>
						<path class="st3" d="M2396.8,1850.9h-31.4c-11.7,0-21.2-9.5-21.2-21.2c0-11.7,9.5-21.2,21.2-21.2h31.4
							c11.7,0,21.2,9.5,21.2,21.2C2418,1841.3,2408.5,1850.9,2396.8,1850.9z M2365.4,1818.7c-6,0-10.9,4.9-10.9,10.9
							c0,6,4.9,10.9,10.9,10.9h31.4c6,0,10.9-4.9,10.9-10.9c0-6-4.9-10.9-10.9-10.9H2365.4z"/>
					</g>
					<g>
						<path class="st3" d="M2065.9,1850.9H2040c-2.9,0-5.2-2.3-5.2-5.2c0-2.9,2.3-5.2,5.2-5.2h25.9c2.9,0,5.7-1.2,7.7-3.2
							c2.1-2.1,3.2-4.8,3.2-7.7c0-6-4.9-10.9-10.9-10.9h-31.4c-1.1,0-2.3,0.2-3.4,0.6c-2.7,0.9-5.6-0.5-6.6-3.2
							c-0.9-2.7,0.5-5.6,3.2-6.6c2.1-0.7,4.4-1.1,6.7-1.1h31.4c11.7,0,21.2,9.5,21.2,21.2c0,5.7-2.2,11-6.2,15
							C2077,1848.6,2071.5,1850.9,2065.9,1850.9z"/>
					</g>
					<g>
						<path class="st3" d="M3120.5,1911.7h-978.4c-0.3,0-0.5,0-0.8,0c-87-4.9-130.3-48.4-128.7-129.3l0-173.7
							c-2.4-72,10.6-170.1,11.1-174.3c38.2-244.7,262-241,264.1-241l745.9,0c1,0,1.9,0.1,2.8,0.3c83,16.4,100.8,93.3,98.5,132.1
							V1897C3135.2,1905.1,3128.6,1911.7,3120.5,1911.7z M2142.5,1882.3h963.3v-557c0-0.3,0-0.6,0-0.9c0.2-3.5,3.9-85.5-73.6-101.7
							h-744.9c-8.5-0.2-200.6-2.5-234.7,215.9c-0.1,0.7-13.2,99.6-10.8,169.6l0,174.4C2040.6,1847.6,2071.6,1878.2,2142.5,1882.3z"
							/>
					</g>
					<g class="st2">
						<path class="st3" d="M3120.5,1325.3V1897h-615.3v-213.5c703.8,130.1,530.3-269.1,604.7-415.1l0,0
							C3122.2,1297.4,3120.5,1325.3,3120.5,1325.3z"/>
					</g>
					<g>
						<g>
							<ellipse class="st13" cx="2822.1" cy="1857.5" rx="121.6" ry="128.3"/>
						</g>
						<g class="st2">
							<path class="st3" d="M2947.1,1855.7c0,70.8-54.4,128.3-121.6,128.3c-51.9,0-96.3-34.4-113.6-82.8
								c21.9,33.3,58.4,55.1,99.8,55.1c67.1,0,121.6-57.5,121.6-128.3c0-16-2.8-31.3-7.9-45.4
								C2939.2,1803.4,2947.1,1828.6,2947.1,1855.7z"/>
						</g>
						<g class="st14">
							<path class="st1" d="M2728,1776.3c0,0,55.8-24.1,66.3,24.1c0,0,11.4,43.1-20.6,65.4c-2.7,1.9-62.3,25-67.2-18.3"/>
						</g>
						<g>
							<path class="st3" d="M2822.1,2000.4c-75.1,0-136.2-64.1-136.2-142.9c0-78.8,61.1-142.9,136.2-142.9s136.2,64.1,136.2,142.9
								C2958.3,1936.3,2897.2,2000.4,2822.1,2000.4z M2822.1,1743.9c-58.9,0-106.9,51-106.9,113.6c0,62.6,48,113.6,106.9,113.6
								s106.9-51,106.9-113.6C2929,1794.9,2881,1743.9,2822.1,1743.9z"/>
						</g>
						<g>
							<ellipse class="st11" cx="2838.3" cy="1857.5" rx="68" ry="74.9"/>
						</g>
						<g>
							<path class="st3" d="M2838.3,1942.2c-42.9,0-77.7-38-77.7-84.6c0-46.7,34.9-84.6,77.7-84.6s77.7,38,77.7,84.6
								C2916,1904.2,2881.1,1942.2,2838.3,1942.2z M2838.3,1792.4c-32.1,0-58.2,29.2-58.2,65.1c0,35.9,26.1,65.1,58.2,65.1
								s58.2-29.2,58.2-65.1C2896.5,1821.6,2870.4,1792.4,2838.3,1792.4z"/>
						</g>
					</g>
					<g>
						<g>
							<ellipse class="st13" cx="3074.1" cy="1857.5" rx="121.6" ry="128.3"/>
						</g>
						<g class="st2">
							<path class="st3" d="M3199.2,1855.7c0,70.8-54.4,128.3-121.6,128.3c-51.9,0-96.3-34.4-113.6-82.8
								c21.9,33.3,58.4,55.1,99.8,55.1c67.1,0,121.6-57.5,121.6-128.3c0-16-2.8-31.3-7.9-45.4
								C3191.2,1803.4,3199.2,1828.6,3199.2,1855.7z"/>
						</g>
						<g class="st14">
							<path class="st1" d="M2980.1,1776.3c0,0,55.8-24.1,66.3,24.1c0,0,11.4,43.1-20.6,65.4c-2.7,1.9-62.3,25-67.2-18.3"/>
						</g>
						<g>
							<path class="st3" d="M3074.1,2000.4c-75.1,0-136.2-64.1-136.2-142.9c0-78.8,61.1-142.9,136.2-142.9s136.2,64.1,136.2,142.9
								C3210.4,1936.3,3149.3,2000.4,3074.1,2000.4z M3074.1,1743.9c-58.9,0-106.9,51-106.9,113.6c0,62.6,48,113.6,106.9,113.6
								s106.9-51,106.9-113.6C3181,1794.9,3133.1,1743.9,3074.1,1743.9z"/>
						</g>
						<g>
							<ellipse class="st11" cx="3090.3" cy="1857.5" rx="68" ry="74.9"/>
						</g>
						<g>
							<path class="st3" d="M3090.3,1942.2c-42.9,0-77.7-38-77.7-84.6c0-46.7,34.9-84.6,77.7-84.6s77.7,38,77.7,84.6
								C3168.1,1904.2,3133.2,1942.2,3090.3,1942.2z M3090.3,1792.4c-32.1,0-58.2,29.2-58.2,65.1c0,35.9,26.1,65.1,58.2,65.1
								s58.2-29.2,58.2-65.1C3148.5,1821.6,3122.4,1792.4,3090.3,1792.4z"/>
						</g>
					</g>
					<g>
						<g>
							<ellipse class="st13" cx="2575.9" cy="1857.5" rx="121.6" ry="128.3"/>
						</g>
						<g class="st2">
							<path class="st3" d="M2701,1855.7c0,70.8-54.4,128.3-121.6,128.3c-51.9,0-96.3-34.4-113.6-82.8
								c21.9,33.3,58.4,55.1,99.8,55.1c67.1,0,121.6-57.5,121.6-128.3c0-16-2.8-31.3-7.9-45.4C2693,1803.4,2701,1828.6,2701,1855.7z
								"/>
						</g>
						<g class="st14">
							<path class="st1" d="M2481.8,1776.3c0,0,55.8-24.1,66.3,24.1c0,0,11.4,43.1-20.6,65.4c-2.7,1.9-62.3,25-67.2-18.3"/>
						</g>
						<g>
							<path class="st3" d="M2575.9,2000.4c-75.1,0-136.2-64.1-136.2-142.9c0-78.8,61.1-142.9,136.2-142.9s136.2,64.1,136.2,142.9
								C2712.1,1936.3,2651,2000.4,2575.9,2000.4z M2575.9,1743.9c-58.9,0-106.9,51-106.9,113.6c0,62.6,48,113.6,106.9,113.6
								s106.9-51,106.9-113.6C2682.8,1794.9,2634.9,1743.9,2575.9,1743.9z"/>
						</g>
						<g>
							<ellipse class="st11" cx="2592.1" cy="1857.5" rx="68" ry="74.9"/>
						</g>
						<g>
							<path class="st3" d="M2592.1,1942.2c-42.9,0-77.7-38-77.7-84.6c0-46.7,34.9-84.6,77.7-84.6s77.7,38,77.7,84.6
								C2669.9,1904.2,2635,1942.2,2592.1,1942.2z M2592.1,1792.4c-32.1,0-58.2,29.2-58.2,65.1c0,35.9,26.1,65.1,58.2,65.1
								s58.2-29.2,58.2-65.1C2650.3,1821.6,2624.2,1792.4,2592.1,1792.4z"/>
						</g>
					</g>
					<defs>
						<filter id="Adobe_OpacityMaskFilter" filterUnits="userSpaceOnUse" x="2082.1" y="1264.6" width="164.5" height="295.3">
							<feFlood  style="flood-color:white;flood-opacity:1" result="back"/>
							<feBlend  in="SourceGraphic" in2="back" mode="normal"/>
						</filter>
					</defs>
					<mask maskUnits="userSpaceOnUse" x="2082.1" y="1264.6" width="164.5" height="295.3" id="SVGID_1_">
						<g class="st16">
							<defs>
								
									<filter id="Adobe_OpacityMaskFilter_00000160871852282293152870000003616346873559154362_" filterUnits="userSpaceOnUse" x="2082.1" y="1264.6" width="164.5" height="295.3">
									<feFlood  style="flood-color:white;flood-opacity:1" result="back"/>
									<feBlend  in="SourceGraphic" in2="back" mode="normal"/>
								</filter>
							</defs>
							<mask maskUnits="userSpaceOnUse" x="2082.1" y="1264.6" width="164.5" height="295.3" id="SVGID_1_">
								<g style="filter:url(#Adobe_OpacityMaskFilter_00000160871852282293152870000003616346873559154362_);">
								</g>
							</mask>
							
								<radialGradient id="SVGID_00000059279961960165414480000004457280467004954785_" cx="2204.6521" cy="1499.712" r="149.5571" gradientTransform="matrix(0.5838 0 0 0.936 877.3032 8.4794)" gradientUnits="userSpaceOnUse">
								<stop  offset="0" style="stop-color:#FFFFFF"/>
								<stop  offset="0.9263" style="stop-color:#000000"/>
							</radialGradient>
							
								<ellipse style="mask:url(#SVGID_1_);fill:url(#SVGID_00000059279961960165414480000004457280467004954785_);" cx="2164.4" cy="1412.2" rx="82.3" ry="147.7"/>
						</g>
					</mask>
					
						<radialGradient id="SVGID_00000059300533525076922440000011999120524041758115_" cx="2204.6521" cy="1499.712" r="149.5571" gradientTransform="matrix(0.5838 0 0 0.936 877.3032 8.4794)" gradientUnits="userSpaceOnUse">
						<stop  offset="0" style="stop-color:#02BAF3"/>
						<stop  offset="0.9263" style="stop-color:#02BAF3"/>
					</radialGradient>
					
						<ellipse style="opacity:0.6;fill:url(#SVGID_00000059300533525076922440000011999120524041758115_);" cx="2164.4" cy="1412.2" rx="82.3" ry="147.7"/>
					<defs>
						
							<filter id="Adobe_OpacityMaskFilter_00000110470113816880743040000005249014675702894742_" filterUnits="userSpaceOnUse" x="2236.2" y="1266.8" width="164.5" height="295.3">
							<feFlood  style="flood-color:white;flood-opacity:1" result="back"/>
							<feBlend  in="SourceGraphic" in2="back" mode="normal"/>
						</filter>
					</defs>
					
						<mask maskUnits="userSpaceOnUse" x="2236.2" y="1266.8" width="164.5" height="295.3" id="SVGID_00000123402939570843247220000006754788201320915358_">
						<g style="filter:url(#Adobe_OpacityMaskFilter_00000110470113816880743040000005249014675702894742_);">
							<defs>
								
									<filter id="Adobe_OpacityMaskFilter_00000003076836833936733390000007331541422196337040_" filterUnits="userSpaceOnUse" x="2236.2" y="1266.8" width="164.5" height="295.3">
									<feFlood  style="flood-color:white;flood-opacity:1" result="back"/>
									<feBlend  in="SourceGraphic" in2="back" mode="normal"/>
								</filter>
							</defs>
							
								<mask maskUnits="userSpaceOnUse" x="2236.2" y="1266.8" width="164.5" height="295.3" id="SVGID_00000123402939570843247220000006754788201320915358_">
								<g style="filter:url(#Adobe_OpacityMaskFilter_00000003076836833936733390000007331541422196337040_);">
								</g>
							</mask>
							
								<radialGradient id="SVGID_00000030475829012013450170000014991077374524727480_" cx="2468.6504" cy="1502.0857" r="149.557" gradientTransform="matrix(0.5838 0 0 0.936 877.3032 8.4794)" gradientUnits="userSpaceOnUse">
								<stop  offset="0" style="stop-color:#FFFFFF"/>
								<stop  offset="0.9263" style="stop-color:#000000"/>
							</radialGradient>
							
								<ellipse style="mask:url(#SVGID_00000123402939570843247220000006754788201320915358_);fill:url(#SVGID_00000030475829012013450170000014991077374524727480_);" cx="2318.5" cy="1414.4" rx="82.3" ry="147.7"/>
						</g>
					</mask>
					
						<radialGradient id="SVGID_00000062877795649191151590000008141373386196719768_" cx="2468.6504" cy="1502.0857" r="149.557" gradientTransform="matrix(0.5838 0 0 0.936 877.3032 8.4794)" gradientUnits="userSpaceOnUse">
						<stop  offset="0" style="stop-color:#02BAF3"/>
						<stop  offset="0.9263" style="stop-color:#02BAF3"/>
					</radialGradient>
					
						<ellipse style="opacity:0.6;fill:url(#SVGID_00000062877795649191151590000008141373386196719768_);" cx="2318.5" cy="1414.4" rx="82.3" ry="147.7"/>
				</g>
				<g>
					<g>
						<path class="st24" d="M1677.5,1020l230.5,142.1c0,0,49.1-46.8,83.3-23.6c34.2,23.2,50.7,60.6,48.9,78.2
							c-1.8,17.7-61.1-20.2-61.1-20.2s-40.3,18.3-33,65.4l41.1,27.6c3.3,2.2,5.6,5.4,6.8,9.2h0c3.1,10.4-4.4,20.8-15.2,21.6
							c-56.2,3.8-121.8-16.3-100-103.5l-227-136.9c0,0-52.5,36.6-89.2,3.1s-47.6-65.4-35.4-72.1c7.9-4.3,27.4,5.8,40.3,13.5
							c9,5.4,20.5,4.9,28.7-1.6c5.4-4.2,11.1-10.1,15.5-18c5.5-9.9,3.2-22.3-4.9-30.2l-36-34.8c-5.8-5.6-3.9-15.1,3.4-18.3
							C1630.4,896.5,1710.9,943.4,1677.5,1020z"/>
					</g>
					<g>
						<path class="st3" d="M1966.1,1335.3c-27.2,0-65.3-5.6-88.4-33.2c-16.4-19.6-21.6-45.8-15.6-78.2l-210.4-126.9
							c-18.5,10.2-63.6,29.3-99.1-3.3c-30-27.5-47.1-57-44.7-76.9c1-8.4,5.3-15.1,12.1-18.8c11.7-6.4,28.1-2.3,54.9,13.8
							c3.9,2.3,8.7,2.1,12.1-0.5c4.9-3.9,8.9-8.5,11.8-13.6c2.2-3.8,1.2-9.1-2.3-12.5l-36-34.8c-6.2-6-9-14.6-7.4-23
							c1.5-8.5,7.2-15.7,15.2-19.3c35.9-15.9,80.3-7.7,108,19.8c22.7,22.6,29.5,53.4,19.3,85.9l211.1,130.2
							c17.8-14,59-40.6,92.9-17.7c37.4,25.3,57.7,67.4,55.2,91.9c-0.7,7-4.7,12.7-10.8,15.7c-4.5,2.2-17.7,8.5-65-20.2
							c-7.9,5.7-20,18.2-18.9,39.8l35.4,23.8c6.1,4.1,10.6,10.2,12.6,17.3c2.7,9.2,1.1,19-4.4,26.8c-5.5,7.9-14.2,12.8-23.9,13.5
							C1975.6,1335.1,1971,1335.3,1966.1,1335.3z M1651.7,1065.2c2.6,0,5.2,0.7,7.6,2.1l227,136.9c5.5,3.3,8.2,9.9,6.7,16.1
							c-6.9,27.7-4.5,48.9,7.3,63c13.9,16.6,42.1,24.7,77.5,22.3c1-0.1,1.5-0.6,1.8-1c0.6-0.8,0.4-1.5,0.3-1.8
							c-0.1-0.5-0.4-0.9-0.9-1.2l-41.1-27.6c-3.4-2.3-5.7-5.9-6.3-9.9c-7.2-45.9,24-73,41.4-81c4.5-2.1,9.8-1.7,14,1
							c12.9,8.3,27.3,15.8,37,19.8c-4.5-15-17.8-37.7-40.9-53.3c-23.6-16-64.5,21.7-64.9,22.1c-4.8,4.6-12.1,5.4-17.8,1.9
							l-230.5-142.1c-6.2-3.8-8.7-11.6-5.7-18.3c11.1-25.6,8.1-48.8-8.7-65.5c-17.8-17.7-46.8-23.9-70.7-15.6l32.1,31
							c13.1,12.7,16.2,32.4,7.5,47.9c-4.8,8.5-11.2,16-19.2,22.3c-12.9,10.2-31.1,11.2-45.3,2.7c-10.5-6.3-17.5-9.4-21.9-11
							c2.8,8.8,12.2,25.7,34.5,46.1c27.7,25.4,70.4-4,70.9-4.3C1645.8,1066,1648.7,1065.2,1651.7,1065.2z"/>
					</g>
					<g>
						<path class="st1" d="M1871.8,1139.8l-25.8-15.9c0,0-39.4,10.9-30.2,54.9l16.4,9.9c-21.6,61.6-125.6,20.8-152.2-44h0
							c-6.5-15.6-8.4-32.6-3.6-50c0,0,25.7-79.6,93.2-85.3l45,25.8l48.7,27.9C1863.2,1063.1,1887.3,1076.3,1871.8,1139.8z"/>
					</g>
					<g>
						<path class="st3" d="M1786.4,1233.6c-9.8,0-20.3-1.7-31.3-5.1c-58.3-18.4-109.6-78.1-92.9-137.8c0.1-0.2,0.1-0.4,0.2-0.5
							c1.2-3.6,29.5-89,105.9-95.4c3-0.3,5.9,0.4,8.5,1.9l93.6,53.8c5.4,3,32.8,22,15.5,92.8c-1.1,4.6-4.3,8.3-8.7,10.1
							c-4.3,1.8-9.3,1.4-13.3-1.1l-19.5-12c-6.8,3.6-16.8,12-15.3,29.6l10.5,6.3c5.9,3.6,8.6,10.8,6.3,17.4
							C1836.9,1219.4,1814.8,1233.6,1786.4,1233.6z M1690.3,1099c-12.7,46.5,35.4,89.5,73.6,101.6c11.2,3.5,35.7,8.9,48.7-6.5
							l-4.5-2.7c-3.5-2.1-6-5.6-6.8-9.6c-9.4-45.4,22.5-67,40.6-72c3.9-1.1,8.1-0.5,11.6,1.6l7.7,4.7c3.9-30.3-4.9-39.5-6-40.6
							l-89-51.1C1714.3,1032.1,1691.8,1094.6,1690.3,1099z M1855.5,1075.6c0.4,0.3,0.7,0.4,0.7,0.4L1855.5,1075.6z"/>
					</g>
					<g>
						<path class="st3" d="M1696.1,1187.7c0.6-32.9,10.2-66.4,30.6-92.5c6.5-8.7,15-15.8,23.5-22.1c2.2-1.6,5.2-1.2,6.8,1
							c1.4,1.9,1.2,4.6-0.4,6.3c-6.8,7.1-13.3,14.4-17.8,23c-13.6,24.5-17.3,54.1-13.5,81.6
							C1728.5,1206.3,1696.8,1209.2,1696.1,1187.7L1696.1,1187.7z"/>
					</g>
					<g>
						<path class="st3" d="M1748.4,1211.9c2.1-29.2,8.5-57.1,21.5-83.2c4.5-8.5,9.9-16.6,16.2-23.8c1.8-2,4.9-2.2,6.9-0.5
							c1.9,1.6,2.2,4.4,0.9,6.4c-17.4,29.6-19.3,66.7-16.1,100C1779.4,1232,1748.1,1233.1,1748.4,1211.9L1748.4,1211.9z"/>
					</g>
					<g class="st2">
						<path class="st3" d="M1871.8,1139.8l-25.8-15.9c0,0-39.4,10.9-30.2,54.9l16.4,9.9c-21.6,61.6-125.6,20.8-152.2-44
							c138.1,65.1,137.5-70.2,134.6-109.5l48.7,27.9C1863.2,1063.1,1887.3,1076.3,1871.8,1139.8z"/>
					</g>
					<g>
						<path class="st1" d="M1863.2,1063.1l-62.9-36.1l-30.8-17.7c0,0-3.5-36.4,25.7-36.4c16.2,0,37,8.8,54.3,19.5
							c13.8,8.5,25.4,18.2,30.5,25.5C1891.7,1034.5,1885.4,1059.8,1863.2,1063.1z"/>
					</g>
					<g>
						<path class="st3" d="M1863.2,1077.8c-2.5,0-5.1-0.7-7.3-1.9l-93.7-53.7c-4.1-2.4-6.9-6.6-7.3-11.3c-0.2-2.6-2-25.5,11.6-40.5
							c7.1-7.8,17-12,28.6-12c34.6,0,82.6,31.1,96.9,51.3c9.1,12.9,11,29.8,4.9,44c-5.6,13.2-17.2,21.9-31.6,24
							C1864.6,1077.7,1863.9,1077.8,1863.2,1077.8z M1784.3,1001l80.8,46.4c2.2-1.1,3.8-2.9,4.8-5.3c2.1-4.9,1.3-11-1.9-15.5
							c-8.8-12.5-49-38.9-72.9-38.9c-4.8,0-6.3,1.7-6.9,2.4C1785.9,992.5,1784.8,997,1784.3,1001z"/>
					</g>
					<g class="st2">
						<path class="st3" d="M1863.2,1063.1l-62.9-36.1c4.1,0,8.4,0.4,12.6,1.5c50,11.6,36.6-36,36.6-36c13.8,8.5,25.4,18.2,30.5,25.5
							C1891.7,1034.5,1885.4,1059.8,1863.2,1063.1z"/>
					</g>
				</g>
			</g>
		</g>
	</g>
</g>
</svg>
