<?xml version="1.0" encoding="utf-8"?>
<!-- Generator: Adobe Illustrator 27.2.0, SVG Export Plug-In . SVG Version: 6.00 Build 0)  -->
<svg version="1.1" id="Layer_1" xmlns="http://www.w3.org/2000/svg" xmlns:xlink="http://www.w3.org/1999/xlink" x="0px" y="0px"
	 viewBox="0 0 1644.6 2956.3" style="enable-background:new 0 0 1644.6 2956.3;" xml:space="preserve">
<style type="text/css">
	.st0{opacity:0.2;}
	.st1{fill:#371A45;}
	.st2{fill:#FFFFFF;}
	.st3{fill:#E8E8E8;}
	.st4{fill:#D8D8D8;}
	.st5{fill:#22A7F0;}
	.st6{fill:#1C7AEA;}
	.st7{opacity:0.7;}
	.st8{fill:#220F2D;}
	.st9{opacity:0.5;}
</style>
<g>
	<g>
		<g class="st0">
			<ellipse class="st1" cx="834.3" cy="2845.3" rx="714.9" ry="111"/>
		</g>
		<g>
			<g>
				<g>
					<path class="st2" d="M967.3,1314.9l7.8,169.1l27.1,585.1l14.4,311.4c0,0,11.9,0.9,32.1,1.5c87.6,2.7,330.2-0.1,414.5-106.8
						c38.4-48.6,61.1-190.4,67.1-346.1c7.2-189.7-10.4-400.2-54.7-488c-37.2-73.6-141.7-108.6-250-123.1
						c-39.8-5.4-80.2-8.1-117.9-8.8C1051.5,1308,1001.2,1311,967.3,1314.9z"/>
				</g>
				<g class="st0">
					<path class="st1" d="M1002.1,2069.1l14.4,311.5c0,0,342.9,25.9,446.6-105.3c38.4-48.6,61.1-190.4,67.1-346.1l-211.9-41.9
						c0,0-74.2-0.2-83.1,235.5c-2.5,65.9-103.6,89.2-177.6,35C1030.9,2138,1013.6,2106.5,1002.1,2069.1z"/>
				</g>
				<g>
					<path class="st1" d="M1087.2,2401.2c-40.5,0-68.2-2-72.1-2.3c-10.1-0.8-17.7-9.6-16.9-19.7c0.8-10.1,9.6-17.7,19.7-17
						c3.3,0.3,334.3,23.7,430.8-98.4c35.9-45.4,61.8-200.7,64.5-386.4c2.7-189.5-18.5-357.5-54.1-428
						c-62.5-123.8-356.9-131.8-489.6-116.3c-10.1,1.1-19.2-6-20.4-16.1c-1.2-10.1,6-19.2,16.1-20.4c120.3-14.1,449.4-17,526.7,136.2
						c46.2,91.5,60.3,289.9,58,445.1c-2.3,156.2-22.4,345.5-72.4,408.7C1398.4,2386.9,1196.3,2401.2,1087.2,2401.2z"/>
				</g>
				<g>
					<path class="st2" d="M1511.3,1896.2l-180.9,10.9c-16.1,1-29.6,12.7-32.7,28.6c-11.4,58.1-30.8,193.8,25.3,239.5
						c46.5,37.9,123,34.7,168.3-2.6c50.7-41.7,57.5-174.8,57.7-240.8C1549,1911.2,1531.7,1895,1511.3,1896.2z"/>
				</g>
				<g class="st0">
					<path class="st1" d="M1297.7,1935.7c-11.4,58.1-30.8,193.7,25.3,239.4c46.5,38,123,34.7,168.3-2.6
						c31.2-25.6,45.8-85.9,52.4-143.8c-8.6,28.9-21.7,52.2-37.8,67.4c-92.4,87.1-158.8-18.2-158.8-18.2s-12.2,25.2-21.6,26.5
						c-39.4,5.4-29.5-117.5-22.9-181C1300.3,1927.1,1298.5,1931.2,1297.7,1935.7z"/>
				</g>
				<g>
					<path class="st1" d="M1404.3,2220.5c-33.9,0-67.5-10.3-93-31.1c-61.6-50.3-46.3-182.7-31.7-257.3c4.7-24.1,25.2-41.9,49.7-43.4
						l180.9-10.9c14.8-0.9,29.5,4.4,40.3,14.6c10.8,10.2,16.9,24.5,16.9,39.3c-0.2,92.4-11.6,211.6-64.4,255
						C1475.6,2209.3,1439.8,2220.5,1404.3,2220.5z M1512.4,1914.6l-180.9,10.9c-7.8,0.5-14.3,6.1-15.8,13.8
						c-21.8,111.4-14.8,194.2,18.9,221.7c38.6,31.5,105,30.3,145-2.5c31.7-26,50.7-110.7,51-226.7c0-4.8-1.9-9.2-5.4-12.5
						C1521.7,1915.9,1517.1,1914.3,1512.4,1914.6L1512.4,1914.6z"/>
				</g>
				<g>
					<path class="st1" d="M1365.1,1971.5c5,73.5-7.5,184.5,81.9,208c9.9,2.5,15.9,12.5,13.4,22.4c-2.5,9.9-12.5,15.8-22.3,13.3
						c-12.3-3.8-24.3-9.4-35.3-16.8c-31.3-20.4-49-58.4-54.6-92.9c-8.2-44.4-2.7-89.6-2.6-133.2
						C1345.8,1959.9,1363.9,1959.1,1365.1,1971.5L1365.1,1971.5z"/>
				</g>
				<g>
					<path class="st1" d="M1372.6,1431.6c-73.1,4.1-146.9,10.4-218.9,23.6c-23.7,4.6-47.5,9.8-68.9,17.6
						c-23,7.7-35.3-25.5-12.6-34.6c50.3-14,100.4-17.2,151.5-20.3c49.7-2.6,99.1-3.2,148.8-2.2
						C1382.5,1416.1,1382.8,1431,1372.6,1431.6L1372.6,1431.6z"/>
				</g>
			</g>
			<g>
				<path class="st2" d="M1096.7,1282c0,0,100.5,54.4,187.1,132.8c63.5,57.5,101.6,262.3-17.6,327.2
					c-119.3,64.9-200.4-241.8-200.4-241.8"/>
			</g>
			<g>
				<path class="st2" d="M1259,1393.2c-36,53.4-101.3,99.4-185.6,132.6c-5-15.8-7.6-25.6-7.6-25.6l30.9-218.2
					C1096.7,1282,1179.1,1326.6,1259,1393.2z"/>
			</g>
			<g>
				<path class="st3" d="M1195.3,1458.9c-97.1,74.5-259.4,123.3-443.2,123.3c-102.1,0-197.5-15.1-278.8-41.2
					c12.8-80.7,25.7-169,37-265.5H1121C1148,1337.7,1173,1399,1195.3,1458.9z"/>
			</g>
			<g>
				<path class="st1" d="M1233,1769.4c-11.2,0-22.4-2.3-33.3-7.1c-91.6-39.5-145.7-235.2-151.6-257.4c-2.6-9.8,3.3-19.9,13.1-22.5
					c9.8-2.6,19.9,3.2,22.5,13.1c14.7,55.5,66.8,205.5,130.6,233c14.6,6.3,28.3,5.4,43.2-2.7c59.1-32.2,73.4-92.5,76.6-125.5
					c6.5-66.3-18.4-135.2-62-171.4c-0.2-0.2-0.4-0.3-0.6-0.5c-84-76.1-182.5-129.7-183.5-130.2c-8.9-4.8-12.3-16-7.4-24.9
					s16-12.3,24.9-7.4c4.2,2.3,103.3,56.2,190.4,135.1c53.2,44.4,82.5,124.1,74.8,203c-6.7,68.6-41.6,124.8-95.7,154.3
					C1261.3,1765.6,1247.1,1769.4,1233,1769.4z"/>
			</g>
			<g>
				<path class="st2" d="M840.8,2523.2c1.1,143,12,261.1,0.2,294.7c-19.1,54.9-68.7,59.7-68.7,59.7H588.7c0,0-102.7,5.8-133.9-22.8
					c-31.1-28.6-32.4-73.5-15.5-100.1c19.8-31.1,64.5-37.7,64.5-37.7s-24.9-158.3-49.9-374.5c-8.8-76.3-17.7-159.7-25.4-245.9
					l424,184.8C842.4,2363.1,840.2,2446.7,840.8,2523.2z"/>
			</g>
			<g class="st0">
				<path class="st1" d="M841.1,2818c-19.1,54.9-68.7,59.7-68.7,59.7H588.7c0,0-102.7,5.8-133.9-22.8c-28.3-26-31.9-65.3-19.7-92.2
					c4.3,10.1,10.7,19.6,19.7,27.8c31.2,28.7,133.9,22.8,133.9,22.8h183.6c0,0,49.7-4.8,68.7-59.7c2.6-7.6,4.2-19.5,4.9-35.1
					C847.1,2766.5,846.7,2801.9,841.1,2818z"/>
			</g>
			<g>
				<path class="st4" d="M845.9,2704.7c-1.3-52.6-4.5-120.5-5.1-195.1c-0.1-17.7-0.1-35.6,0.1-54
					C842.1,2561.8,848.3,2653.1,845.9,2704.7z"/>
			</g>
			<g class="st0">
				<path class="st1" d="M840.8,2523.2c-91.7-104.1-283.3-158-387-180.6c-8.8-76.3-17.7-159.7-25.4-245.9l424,184.8
					C842.4,2363.1,840.2,2446.7,840.8,2523.2z"/>
			</g>
			<g>
				<path class="st1" d="M564.6,2896.7c-35.7,0-95.8-3.9-122.3-28.3c-38.4-35.3-39.6-90.5-18.5-123.5c15.3-24,41.7-36,59.3-41.6
					c-10-66.4-47.5-322.2-72.9-605c-0.9-10.1,6.6-19.1,16.7-20c10.1-0.9,19.1,6.6,20,16.7c29.3,326.2,74.7,616.3,75.2,619.2
					c0.8,4.8-0.4,9.8-3.4,13.8c-2.9,4-7.3,6.6-12.1,7.3c-0.3,0-36.7,5.9-51.7,29.4c-12.6,19.8-11.4,54.7,12.4,76.7
					c17.5,16.1,80.9,20.2,120.4,18c0.3,0,0.7,0,1,0h182.5c5.1-0.8,38.6-7.3,52.5-47.3c6.5-18.6,4.4-79.4,2.1-149.8
					c-3.5-104.1-8.3-246.7,8.4-382.9c1.2-10.1,10.4-17.2,20.5-16c10.1,1.2,17.3,10.4,16,20.5c-16.3,133.4-11.6,274.3-8.1,377.2
					c2.8,83.1,4.6,138-4.1,163.1c-22.7,65.3-81.8,71.7-84.3,71.9c-0.6,0.1-1.2,0.1-1.8,0.1H589.2
					C584.5,2896.3,575.8,2896.7,564.6,2896.7z"/>
			</g>
			<g>
				<path class="st2" d="M1311.4,2048.2c-5.1,51.9-16.9,98.9-36.3,140.3c-79.2,168.5-491.2,290.6-750.1,108.3
					c-84.3-59.4-115.2-138.8-117.5-249.4c-3.4-170.2,61-414.1,102.8-771.9H1121c36.4,83.9,69,165.9,96.6,245.1
					C1287.7,1721.4,1325.6,1903.5,1311.4,2048.2z"/>
			</g>
			<g class="st0">
				<path class="st1" d="M1311.4,2048.2c-5.1,51.9-16.9,98.9-36.3,140.3c-79.2,168.5-491.2,290.6-750.1,108.3
					c-84.3-59.4-115.2-138.8-117.5-249.4C634.8,2059.5,1101.2,2077,1311.4,2048.2z"/>
			</g>
			<g class="st0">
				<path class="st1" d="M1103.9,1508.5c1.6-0.7,3.2-1.5,4.8-2.2c3-1.4,5.9-2.8,8.8-4.2c1.6-0.8,3.3-1.6,4.9-2.4
					c3.1-1.5,6.1-3.1,9.1-4.7c1.3-0.7,2.6-1.3,3.9-2c4.1-2.2,8.1-4.4,12.1-6.6c1.5-0.9,3-1.7,4.4-2.6c2.5-1.5,5.1-3,7.5-4.5
					c1.8-1.1,3.5-2.1,5.2-3.2c2.2-1.4,4.3-2.7,6.4-4.1c1.7-1.1,3.5-2.3,5.2-3.4c2.1-1.4,4.1-2.8,6.2-4.2c1.6-1.1,3.2-2.2,4.8-3.4
					c2.8-2,5.6-4.1,8.3-6.2c27-20.5,49.1-42.9,65.2-66.9c-46.9-39.2-94.7-70.7-126.2-90c-3.9-9.2-7.8-18.4-11.8-27.7H512.2
					c-11.3,96.5-24.2,184.8-37,265.5c81.3,26.1,176.7,41.2,278.8,41.2c127.1,0,243.8-23.3,335.9-62.4c1.2-0.5,2.4-1.1,3.7-1.6
					C1097.1,1511.6,1100.5,1510.1,1103.9,1508.5z"/>
			</g>
			<g>
				<path class="st1" d="M528.6,1277.6c-18,155.1-46.5,326.7-72.5,481.7c-12.6,79.6-25.5,158.9-29.4,239.1
					c-5.3,105,8.8,209.3,98.9,275.8c40.9,31.3,89.1,54.4,138.1,69.9c150.5,45.2,318.9,27.5,459.3-42.2
					c55.6-29,111.4-67.9,137.5-126.2c57.3-131.4,35.1-290.3,5-426.7c-19.9-78.1-40-155.5-59.7-234.1c-1.2-5,1.8-10,6.7-11.2
					c4.4-1.1,8.8,1.1,10.6,5.1c22.9,49.4,42.1,100.4,58.4,152.5c16.7,59.1,29.3,119.6,39.2,180.2c16.9,115.9,21.7,239.3-26.8,349.3
					c-5.5,13.2-13.9,26.6-22,38.3c-42.9,58-105.6,95-170.2,123.3c-141,58.1-302.3,71.4-449,26.8c-53.4-16.9-105-41.8-149.6-75.9
					C430.2,2249,396.5,2169,390.8,2080c-4.3-55.1,0-110.6,5.9-165.2c9.8-94.5,34.8-226.5,49.6-321.3c17.5-106.4,33.2-213,45.8-320.1
					C495.5,1249.8,530.5,1252.8,528.6,1277.6L528.6,1277.6z"/>
			</g>
			<g>
				<path class="st2" d="M1295.4,2178.8c-1.9,71.9-3.9,152.5-6,231.9c-5.4,199.7-12,391.4-20.3,415.3
					c-19.1,54.9-68.7,59.7-68.7,59.7H998.9c0,0-18.4,3.3-51.7-22.8c-27.5-21.5-39.6-67.1-20.8-103.4c6.6-12.8,19.5-25.1,19.5-25.1
					s-30.4-160.6-50.2-313.5h0c-5.2-40.8-9.7-81-12.7-117.5l189.9-292.8l199.4-307.5c14.5,143.9,38.8,218.8,49.9,280.4
					C1333.2,2043.8,1331.6,2091.4,1295.4,2178.8z"/>
			</g>
			<g class="st0">
				<path class="st1" d="M1276.4,2759.8c-2.2,35.1-4.7,58.7-7.3,66.2c-19.1,54.9-68.7,59.7-68.7,59.7H998.9c0,0-18.4,3.3-51.7-22.8
					c-23.3-18.2-35.5-53.6-27.3-86.1c5.3,11,12.7,20.4,21.7,27.5c34.5,27.1,53.5,23.6,53.5,23.6h208.5c0,0,51.3-5,71.2-61.8
					C1275.4,2764.6,1275.9,2762.5,1276.4,2759.8z"/>
			</g>
			<g class="st0">
				<path class="st1" d="M1295.4,2178.8c-1.9,71.9-3.9,152.5-6,231.9c-174-60.5-393.6,10.1-393.6,10.1h0
					c-5.2-40.8-9.7-81-12.7-117.5l189.9-292.8l249.3-27.1C1333.2,2043.8,1331.6,2091.4,1295.4,2178.8z"/>
			</g>
			<g>
				<path class="st1" d="M599.8,2329.4c69.5,25.6,142.3,40.6,216.5,39.7c24.6,0,49.5-1,75-1.6c8.6-0.2,15.8,6,17.2,14.2
					c14.7,96.8,33.2,208.8,48.7,305.7c2.4,14.5,4.7,29,6.9,43.5c1.5,6.2-0.4,13-5.3,16.7c-28.8,25-30.9,71.2-3.4,98.1
					c11.5,9.6,25,19,39.6,21.7c0.7,0.2,1.3,0.1,1.9,0.2c-0.2,0,0.5-0.1-1.1,0.2l3.2-0.3h201.4l-1.8,0.1
					c30.5-5.6,53.8-31.3,55.7-63.6c17.1-210,13.8-421.8,24.2-632.1c14.9-36.5,27.6-73.7,30.6-111.1c3.4-38.5-4.7-76.5-13.3-114.6
					c-9-39.2-18.1-79.3-25.1-119.7c-7.1-40.3-12.5-80.9-16.6-121.6c-1-10.1,6.3-19.1,16.4-20.2s19.1,6.3,20.2,16.4
					c7.7,80.3,22.3,158.2,41,236.9c9.2,40.6,17.9,83.1,14,125.6c-3.5,42.7-17.3,83.2-33.2,122.1c-0.7,150.5-8.4,375.9-16.3,551.6
					c-2.5,31.5-2.1,63.4-9.6,94.5c-6.3,18.3-17.1,35.7-32.6,48.7c-13.6,11.5-29.9,19.5-47.4,22.8c-1.4,0.3-4.1,0.7-6.2,0.7
					c0,0-201.4,0-201.4,0l3.2-0.3c-2.7,0.4-3.1,0.3-4.3,0.4c-20.7,0-40-11-56-22.3c-53.7-37-57.1-117.7-8.6-160.8
					c0,0-5.3,16.7-5.3,16.7c-3.2-14.5-6.2-29-9-43.5c-14.2-72.1-26.1-146.1-35.3-218.9c-3.6-29.4-7.3-58.8-9.5-88.4l17.4,15.4
					c-50.3-0.1-102.6,0.5-152.7-8.6c-50.7-8.6-99.8-25.4-146.1-47.4C582.7,2341.6,588.2,2325.4,599.8,2329.4L599.8,2329.4z"/>
			</g>
			<g>
				<path class="st1" d="M956.5,1822.3c9.1,11.7,22.1,22.5,35.4,28.8c9.3,4.5,13.3,15.7,8.8,25c-5.5,12.1-22.7,14.3-31.1,4.2
					c-14-14.8-23.7-31.2-29.8-50.5c-1.5-4.9,1.2-10,6.1-11.5C950,1816.9,954.2,1818.8,956.5,1822.3L956.5,1822.3z"/>
			</g>
			<g>
				<circle class="st2" cx="444" cy="2029" r="67.2"/>
			</g>
			<g class="st0">
				<path class="st1" d="M511.2,2029c0,37.1-30.1,67.2-67.2,67.2s-67.2-30.1-67.2-67.2c0-9.9,2.1-19.3,6-27.7
					c10.5,23.3,34,39.5,61.2,39.5c27.2,0,50.7-16.2,61.2-39.5C509.1,2009.8,511.2,2019.1,511.2,2029z"/>
			</g>
			<g>
				<path class="st1" d="M444,2114.6c-47.2,0-85.6-38.4-85.6-85.6c0-47.2,38.4-85.6,85.6-85.6c47.2,0,85.6,38.4,85.6,85.6
					C529.6,2076.2,491.2,2114.6,444,2114.6z M444,1980.2c-26.9,0-48.8,21.9-48.8,48.8c0,26.9,21.9,48.8,48.8,48.8
					c26.9,0,48.8-21.9,48.8-48.8C492.8,2002.1,470.9,1980.2,444,1980.2z"/>
			</g>
			<g>
				<path class="st1" d="M444,2114.6c-47.2,0-85.6-38.4-85.6-85.6c0-47.2,38.4-85.6,85.6-85.6c47.2,0,85.6,38.4,85.6,85.6
					C529.6,2076.2,491.2,2114.6,444,2114.6z M444,1980.2c-26.9,0-48.8,21.9-48.8,48.8c0,26.9,21.9,48.8,48.8,48.8
					c26.9,0,48.8-21.9,48.8-48.8C492.8,2002.1,470.9,1980.2,444,1980.2z"/>
			</g>
			<g>
				<g>
					<path class="st2" d="M546.7,2213l347.9,7.1c41.2,0.9,75.6-32.1,76.4-73.4l3.8-185.1c0.7-36.1-24.5-66.9-58.4-74.6
						c-4.8-1.1-9.8-1.7-14.9-1.8l-347.8-7.1c-41.2-0.9-75.6,32.1-76.4,73.4l-3,146.6l-0.8,38.5
						C472.4,2177.8,505.5,2212.2,546.7,2213z"/>
				</g>
				<g>
					<path class="st2" d="M546.7,2213l347.9,7.1c41.2,0.9,75.6-32.1,76.4-73.4l3.8-185.1c0.7-36.1-24.5-66.9-58.4-74.6
						c-4.8-1.1-9.8-1.7-14.9-1.8l-347.8-7.1c-41.2-0.9-75.6,32.1-76.4,73.4l-3,146.6l-0.8,38.5
						C472.4,2177.8,505.5,2212.2,546.7,2213z"/>
				</g>
				<g>
					<path class="st2" d="M546.7,2213l347.9,7.1c41.2,0.9,75.6-32.1,76.4-73.4l3.8-185.1c0.7-36.1-24.5-66.9-58.4-74.6
						c-4.8-1.1-9.8-1.7-14.9-1.8l-347.8-7.1c-41.2-0.9-75.6,32.1-76.4,73.4l-3,146.6l-0.8,38.5
						C472.4,2177.8,505.5,2212.2,546.7,2213z"/>
				</g>
				<g class="st0">
					<path class="st1" d="M546.1,2213l347.9,7.1c41.2,0.9,75.6-32.1,76.4-73.4l3.8-185.1c0.7-36.1-24.5-66.9-58.4-74.6
						c-20,12.7-32.7,20.8-32.7,20.8c-20,148.2-63.8,221.5-248.4,220.7c-79.7-0.4-129.7-13.5-161.1-30.5l-0.8,38.5
						C471.9,2177.8,505,2212.2,546.1,2213z"/>
				</g>
				<g>
					<path class="st1" d="M881.4,2238.3c-0.8,0-1.5,0-2.3,0l-317.9-6.5c-28.8-0.6-55.7-12.4-75.8-33.4
						c-20.1-20.9-30.8-48.3-30.2-77.1l3.2-155.2c1.2-58.9,49.5-106,108.2-106c0.8,0,1.5,0,2.3,0l317.9,6.5
						c28.8,0.6,55.7,12.4,75.8,33.4c20.1,20.9,30.8,48.3,30.2,77.1l-3.2,155.2C988.4,2191.2,940.1,2238.3,881.4,2238.3z
						 M879.9,2201.5c0.5,0,1,0,1.5,0c38.7,0,70.6-31.1,71.4-70l3.2-155.2c0.4-19-6.7-37.1-20-50.9c-13.3-13.8-31-21.7-50-22
						l-317.9-6.5c-0.5,0-1,0-1.5,0c-38.7,0-70.7,31.1-71.5,70L492,2122c-0.8,39.4,30.6,72.1,70,72.9L879.9,2201.5z"/>
				</g>
				<g>
					<path class="st2" d="M669.7,2214.3l0.7,1.3l224.1,4.6c30.2,0.6,56.7-16.9,69-42.6c4.5-9.3,7.1-19.7,7.3-30.7l1.7-82.2l0.6-27.1
						l0.9-47.6l0.6-28.1c0.8-41.2-32.2-75.6-73.3-76.4l-75.2-1.5c34.5,7.2,60.3,38.3,59.5,74.7l-1.1,54.9l-1,45.1l-1.7,85.2
						c-0.9,41.1-35.3,74.2-76.5,73.3L669.7,2214.3z"/>
				</g>
				<g>
					<path class="st4" d="M634.2,2213.5l0.7,1.3l259.6,5.3c30.2,0.6,56.7-16.9,69-42.6c4.5-9.3,7.1-19.7,7.3-30.7l1.7-82.2l0.6-27.1
						l0.9-47.6c-15-2.4-35.1-0.7-46.4,21.3c-15.7,30.6-31.5,19.9-43.1,2.3l-1,45.1l-1.7,85.2c-0.9,41.1-35.3,74.2-76.5,73.3
						L634.2,2213.5z"/>
				</g>
				<g>
					<path class="st1" d="M896.1,2238.6c-0.7,0-1.3,0-2,0l-333.2-6.8l0.2-18.3c0.2-13.4,9.6-16.9,18.7-17.7l0-0.4l5.6,0.1
						c1.5,0,2.8,0,4.1,0l216.3,3.2c15.2,0.4,29.4-5.3,40.3-15.8c10.9-10.5,17.1-24.6,17.4-39.6l3.8-185.1
						c0.6-27.1-18.3-50.9-44.9-56.5l4.2-36.4l75.1,1.5c51.5,1.1,92.5,43.8,91.4,95.2l-3.8,185.1c-0.5,24.8-10.7,48.1-28.7,65.4
						C943,2229.4,920.2,2238.6,896.1,2238.6z M879,2201.5l15.9,0.3c15.2,0.4,29.3-5.3,40.2-15.8c10.9-10.5,17.1-24.6,17.4-39.6v0
						l3.8-185.1c0.7-31.2-24.2-57-55.4-57.7l-13.8-0.3c11.1,15.8,17.4,35.1,17,55.6l-3.8,185.1
						C899.9,2165.2,892.4,2185.3,879,2201.5z"/>
				</g>
				<g>
					<path class="st5" d="M746.7,2049.8c-0.1,6.8,8.7,62.3,8.7,62.3s17.5,0.3,39,0.6c26.9,0.4,49-27.1,49.6-61.4
						c0.5-34.3-20.9-62.4-47.7-62.8c-18.1-0.3-39-0.6-39-0.6S746.8,2038.6,746.7,2049.8z"/>
				</g>
				<g>
					<path class="st6" d="M746.7,2049.8c-0.1,6.8,8.7,62.3,8.7,62.3s17.5,0.3,39,0.6c26.9,0.4,49-27.1,49.6-61.4
						c0.5-34.3-20.9-62.4-47.7-62.8c-18.1-0.3-39-0.6-39-0.6S746.8,2038.6,746.7,2049.8z"/>
				</g>
				<g>
					<path class="st1" d="M794.9,2126.4c-0.3,0-0.5,0-0.8,0l-27.1-0.4c-13.7-0.2-25.1-10.1-27.2-23.6c-7.1-46.1-7.1-50.8-7-52.8v0
						c0-2.5,0.2-10.2,8.5-52.8c2.6-13.1,14.1-22.6,27.4-22.6c0.1,0,0.3,0,0.4,0l27.2,0.4c17.3,0.3,33.3,8.8,44.9,24.2
						c10.9,14.3,16.7,33,16.4,52.7C857.1,2092.9,829,2126.4,794.9,2126.4z M760.5,2049.9c0,1.1,0.5,8.4,6.7,48.3l27.4,0.7
						c0.1,0,0.2,0,0.4,0c18.7,0,34.8-21.8,35.2-47.8c0.2-13.5-3.6-26.2-10.8-35.6c-6.4-8.4-14.7-13.1-23.3-13.3l-27.2-0.4
						C762.7,2031.5,760.5,2046,760.5,2049.9z"/>
				</g>
				<g>
					
						<ellipse transform="matrix(1.480332e-02 -0.9999 0.9999 1.480332e-02 -1304.5846 2775.7637)" class="st5" cx="756.3" cy="2049.9" rx="62.1" ry="48.6"/>
				</g>
				<g class="st7">
					<path class="st2" d="M804.9,2050.6c0,2.6-0.2,5.1-0.5,7.6c-4.8-27.3-23.6-47.8-46.5-48.2c-24.9-0.4-45.7,23.1-49.1,53.8
						c-0.8-4.7-1.2-9.6-1.2-14.7c0.5-34.3,22.7-61.8,49.5-61.4C784.1,1988.2,805.4,2016.3,804.9,2050.6z"/>
				</g>
				<g>
					<path class="st6" d="M804.9,2050.6c-0.5,34.3-22.7,61.8-49.5,61.4c-26.9-0.4-48.2-28.5-47.7-62.9c0.1-5.4,0.7-10.7,1.8-15.6
						c6.7,23.2,24.1,39.9,44.7,40.2c22.6,0.4,41.9-19.1,47.8-45.7C804,2035,805,2042.7,804.9,2050.6z"/>
				</g>
				<g>
					<path class="st1" d="M756,2125.8c-0.3,0-0.5,0-0.8,0c-17.3-0.3-33.3-8.8-44.9-24.1c-10.9-14.3-16.7-33-16.4-52.7
						c0.3-19.7,6.7-38.2,17.9-52.2c12.1-15,28.3-23.1,45.6-22.8c17.3,0.3,33.3,8.8,44.9,24.2c10.9,14.3,16.7,33,16.4,52.7
						c-0.3,19.7-6.7,38.2-17.9,52.2C788.9,2117.7,773,2125.8,756,2125.8z M707.7,2049.2l13.8,0.2c-0.2,13.5,3.6,26.2,10.8,35.6
						c6.4,8.4,14.7,13.1,23.3,13.3c0.1,0,0.2,0,0.4,0c8.5,0,16.8-4.4,23.4-12.6c7.4-9.2,11.6-21.7,11.8-35.3
						c0.2-13.5-3.6-26.2-10.8-35.6c-6.4-8.4-14.7-13.1-23.3-13.3c-0.1,0-0.2,0-0.4,0c-8.5,0-16.8,4.4-23.4,12.6
						c-7.4,9.2-11.6,21.7-11.8,35.3L707.7,2049.2z"/>
				</g>
				<g>
					<path class="st1" d="M654.8,2227.7c-7.6,0-13.8-6.1-13.8-13.8l-0.3-93.7c-0.1-17.1-8.6-33-22.9-42.4
						c-22.6-14.9-35.8-39.9-35.4-66.9l2.3-132c0.1-7.5,6.3-13.6,13.8-13.6c0.1,0,0.2,0,0.2,0c7.6,0.1,13.7,6.4,13.6,14l-2.3,132
						c-0.3,17.5,8.3,33.8,22.9,43.4c22.1,14.5,35.3,38.9,35.4,65.4l0.3,93.7C668.6,2221.5,662.5,2227.7,654.8,2227.7
						C654.9,2227.7,654.8,2227.7,654.8,2227.7z"/>
				</g>
			</g>
			<g>
				<path class="st2" d="M1306.9,1956c0,0,38.2,10.1,46.2,56.8c8,46.8-24.4,74.3-24.4,74.3s-180,69-354.6,13.5
					c0,0-67.2-61.2,0.6-125.8C974.7,1974.8,1160.6,1997.7,1306.9,1956z"/>
			</g>
			<g>
				<path class="st4" d="M1328.7,2087.1c0,0-180,69-354.6,13.5c0,0-47.8-43.4-22.1-95.8c0.1,0.2,0.2,0.5,0.2,0.7
					c8,23.9,28.3,41.6,52.7,47.6c131.7,32.5,261.1-0.1,308.4-14.8c16.7-5.2,30.6-17.1,37.6-33.1c0.1-0.2,0.2-0.3,0.2-0.5
					c0.7,2.6,1.3,5.2,1.8,8.1C1361,2059.6,1328.7,2087.1,1328.7,2087.1z"/>
			</g>
			<g>
				<path class="st1" d="M1121.9,2140.8c-48.3,0-100.9-5.9-153.4-22.6l-3.8-1.2l-3-2.7c-1.4-1.3-35.2-32.5-35.7-76.7
					c-0.3-27.4,11.8-52.9,36-76l6.3-6l8.6,1.1c1.8,0.2,184,21.9,324.9-18.3l4.9-1.4l4.9,1.3c2,0.5,49.8,13.8,59.6,71.5
					c9.6,56.4-28.9,90-30.6,91.4l-2.4,2l-2.9,1.1C1329.9,2106.3,1238.3,2140.8,1121.9,2140.8z M984,2084.4
					c152,46.5,309.9-4.6,334.8-13.3c5.7-6,21.2-25.7,16.2-55.3c-4.5-26.2-21.1-36.9-28.9-40.6c-130.2,35.4-285.2,22.8-324.4,18.8
					c-12.6,13.8-18.9,28.2-18.8,42.7C963,2059.3,977.9,2077.8,984,2084.4z"/>
			</g>
			<g>
				<path class="st2" d="M1333.8,1956.8c-163.7,72.2-325.9-85.9-325.9-85.9s-44.6,16.5-88.5-5.2c0,0-13.3,50.2-65.7,25.4
					c-39.9-18.9-79.3-104.2-40.6-189.1c0,0,0,0,0,0c9.9-21.7,24.8-43.2,46.1-63.7c-3.9,1.2-119.2,37.4-123.4-28.5
					c-4.2-65.8,161.7-113,286.4-74.7c61.3,18.8,99.2,55.1,99.2,55.1s79.4,20.6,161.3,57.9l1.2-233.3
					c98.2,88.3,159.9,203.3,171.8,306.8v0C1467.3,1823.4,1430.9,1913.9,1333.8,1956.8z"/>
			</g>
			<g class="st0">
				<path class="st1" d="M1333.8,1956.8c-163.7,72.2-325.9-85.9-325.9-85.9s-44.6,16.5-88.5-5.2c0,0-13.3,50.2-65.7,25.4
					c-39.9-18.9-79.3-104.2-40.6-189.1c-0.2,3.5-6.3,143.3,47.8,153.4c54.8,10.3,54.8-37.4,54.8-37.4s68.6,45.5,99.2,2.2
					c0,0,376.2,269.1,440.7-98.6C1467.3,1823.4,1430.9,1913.9,1333.8,1956.8z"/>
			</g>
			<g>
				<path class="st1" d="M1278.8,1656.4c-43.1-14.2-87.1-24.4-129.9-39.1c-5.6-1.8-18.8-5.6-24.2-7.2c-5.5-1.5-12-2.7-16.4-6.9
					c-23.7-20.8-51.9-36.5-81.5-47.2c-75.3-25.8-180.1-22.6-249.1,19.6c-13.2,9.4-26.5,21-23.1,37.3c6.4,28.1,64.7,16,86,11.4
					c21.2-3.6,35,22.6,20.5,38.1c0,0-0.3,0.4-0.3,0.4l-0.6,0.7l-1.3,1.5c-41.9,45.4-56.8,115.2-29.9,171.4
					c8.6,17.9,21.3,34.3,36.1,39.6c9.7,4,20.5,6,28.3-1.7c3.7-3.3,6.3-9.1,8.5-13.8c5.6-9.8,17.6-13.8,27.7-10.1
					c22,9.7,47.6,10.5,70.7,3.6c7.8-2.4,17.4,0.4,23,6.4c8.5,7.7,17.5,15,26.8,22.1c67.8,50.9,155.5,89.3,240.2,69.4
					c146.5-36.7,174.3-177.6,128.5-306.6c-21.7-62.2-57.2-120-100.9-169.6c-14.6-16.7-30.4-32.2-46.7-47.2
					c-7.8-6.8-8.4-18.7-1.4-26.3c6.9-7.5,18.5-7.9,26-1.1c17.3,16,34.2,32.5,49.7,50.3c104.4,117.3,189.3,321.6,78.6,460.7
					c-32.2,38.4-77.1,63.9-125.5,75.6c-109.3,25.2-220-29.5-300.2-100.2c0,0-0.9-0.8-0.9-0.8l-0.4-0.4c-0.4-0.4,0.5,0.5,0.8,0.7
					c3.5,2.8,8.3,3.6,12.2,2.4c-1.1,0.4-3.4,0.9-4.5,1.2c-28.7,7.3-59.8,6.2-87.4-5.2l-1.2-0.5l-0.6-0.2c5.3,2.4,13.7,0.5,17.2-5.9
					c-14.5,35.1-52.7,48.7-92.3,26.7c-64-40.9-76.1-135.3-49.5-201.4c9.4-24.3,23.8-46.1,40.7-65.2c0,0,0.8-0.9,0.8-0.9l0.4-0.4
					c-9.6,11.1,1.6,25.4,12.7,22.9c-32.5,6.7-64.8,12.7-97.6-1.4c-23.3-10-36.2-38.5-30.7-63c15.6-65.9,120.7-88,178.1-92.2
					c82.8-6.5,171.8,15,235.5,71.1c0,0,0.7,0.7,0.7,0.7c-1.1-1.3-4.1-2.7-5.6-3c2.4,0.6,5.2,1.5,7.5,2.1c19,5.7,39.7,11.5,58.3,18
					c32.1,13.6,63.6,28.8,93.5,46.9C1295.6,1645.4,1289.2,1659.7,1278.8,1656.4L1278.8,1656.4z"/>
			</g>
			<g>
				<g>
					<path class="st2" d="M88.8,1067.6c52.7,111.2,133.8,209.9,239.4,284.4c21.5,15.2,44,29.4,67.5,42.4
						c11.4,6.4,23.1,12.5,35.1,18.4c36.1,17.7,72.9,32.1,110.1,43.6c32.1,9.9,64.6,17.5,97.2,23c39.3,6.6,78.8,9.9,118.1,10.2
						c14.3,0.1,28.6-0.3,42.9-0.9c260.8-13.1,507.4-160.9,632.5-408c184.4-363.9,35.2-805.1-333.1-985.5
						c-71-34.7-144.9-57.3-219.3-68.4c-8.7-1.4-17.4-2.5-26.2-3.4c-23.4-2.7-46.9-4.3-70.3-4.7c-54.1-1.1-107.9,3.8-160.4,14.1
						c-52.5,10.3-103.8,26.1-152.8,47.1c-15.6,6.7-31,13.8-46.1,21.6c-22.7,11.6-44.8,24.3-66.3,38.3
						C249.8,208.7,159.1,306,97.7,427.3C-8.4,636.6-4.1,871.4,88.8,1067.6z"/>
					<path class="st1" d="M759.5,1491.4c-1.1,0-2.2,0-3.3,0c-39.8-0.3-79.6-3.7-118.4-10.2c-33.1-5.5-65.9-13.3-97.4-23
						c-37.6-11.5-74.8-26.2-110.4-43.7c-13.1-6.5-24.6-12.5-35.2-18.5c-23.1-12.8-45.8-27.1-67.7-42.5
						c-103.2-72.8-186.2-171.4-240-285.1C-10,863.2-6.7,629.2,96.1,426.4c59.4-117.3,149.3-217,260-288.4
						c20.9-13.6,43.3-26.5,66.5-38.3C437.5,92,453,84.8,468.8,78c49.1-21,100.7-36.9,153.1-47.2c53-10.4,107.1-15.2,160.8-14.1
						c23.4,0.5,47.1,2.1,70.5,4.7c9.4,1,18,2.1,26.3,3.5c75.9,11.3,149.9,34.3,219.9,68.5c179.3,87.8,312.6,239.5,375.4,427
						c62.3,186,47.6,385.3-41.5,561c-120.9,238.7-363.9,395.4-634.1,409C785.9,1491,772.6,1491.4,759.5,1491.4z M768.2,20.2
						c-48.7,0-97.5,4.8-145.5,14.2c-52.2,10.2-103.5,26-152.4,47c-15.7,6.7-31.2,14-46,21.5c-23.1,11.8-45.3,24.7-66.2,38.2
						c-110.2,71-199.6,170.3-258.7,287C-2.9,629.9-6.2,862.7,90.5,1066.8c53.6,113.1,136.1,211.2,238.8,283.6
						c21.7,15.3,44.4,29.5,67.3,42.3c10.6,5.9,22,11.9,35,18.4c35.4,17.4,72.4,32,109.9,43.5c31.4,9.7,64,17.4,96.9,22.9
						c38.6,6.5,78.2,9.9,117.8,10.2c14.2,0.1,28.6-0.3,42.8-0.9c268.9-13.5,510.7-169.5,631-407c88.6-174.8,103.3-373,41.3-558.1
						c-62.5-186.6-195.1-337.5-373.5-424.9c-69.6-34-143.2-57-218.8-68.2c-8.3-1.3-16.8-2.4-26.1-3.4c-23.3-2.7-46.9-4.3-70.1-4.7
						C777.8,20.3,773,20.2,768.2,20.2z"/>
				</g>
				<g class="st0">
					<path class="st1" d="M1431.5,1080.6c-125.1,247.1-371.8,394.9-632.5,408c-14.2,0.7-28.5,1-42.8,1
						c-39.3-0.3-78.8-3.6-118.1-10.2c-32.6-5.5-65.1-13-97.2-23c-37.3-11.4-74.1-25.9-110.2-43.6c-11.9-6-23.6-12-35.1-18.4
						c-23.5-13.1-45.9-27.3-67.5-42.5c-105.6-74.5-186.7-173.1-239.4-284.4c-28.9-61.1-49.3-126-60.4-192.7
						c52.7,105,131.2,198,231.9,269.1c21.5,15.2,44,29.4,67.5,42.5c11.4,6.4,23.1,12.5,35.1,18.4c36.1,17.7,72.9,32.1,110.1,43.6
						c32.1,9.9,64.6,17.5,97.2,23c39.3,6.6,78.8,9.9,118.1,10.2c14.4,0.1,28.6-0.3,42.9-1c260.8-13.1,507.4-160.9,632.5-408
						c73-144.1,93.7-300.3,69.2-447.7C1533,624.1,1540.4,865.8,1431.5,1080.6z"/>
				</g>
				<g>
					<path class="st1" d="M759.5,1503.8c-1.1,0-2.2,0-3.4,0c-40.5-0.3-81-3.8-120.4-10.4c-33.7-5.6-67-13.5-99-23.4
						c-38.2-11.7-76-26.6-112.2-44.4c-13.3-6.6-25-12.7-35.8-18.8c-23.4-13-46.6-27.6-68.8-43.2c-104.9-74-189.3-174.3-244.1-289.9
						l0,0C-22.9,865-19.5,627.1,85,420.8c60.4-119.3,151.8-220.7,264.4-293.2c21.3-13.8,44-26.9,67.6-39c15.2-7.7,31-15.1,47-22
						c49.9-21.4,102.3-37.5,155.6-48C673.4,8,728.3,3.2,782.9,4.3c23.8,0.5,47.9,2.1,71.6,4.8c9.5,1,18.3,2.2,26.8,3.5
						c77.1,11.4,152.3,34.9,223.4,69.7c182.3,89.3,317.8,243.5,381.7,434.2c63.4,189.2,48.4,391.8-42.2,570.5
						c-122.9,242.6-369.9,401.9-644.5,415.8C786.3,1503.4,772.8,1503.8,759.5,1503.8z M768.2,32.6c-47.9,0-95.9,4.7-143.1,14
						c-51.4,10.1-101.8,25.6-149.9,46.2c-15.5,6.6-30.7,13.7-45.2,21.2c-22.7,11.6-44.6,24.2-65.1,37.5
						c-108.3,69.9-196.3,167.4-254.4,282.2C9.9,632,6.7,860.8,101.7,1061.5l0,0c52.6,111.2,133.8,207.6,234.7,278.8
						c21.4,15,43.6,29.1,66.2,41.6c10.4,5.8,21.7,11.7,34.5,18.1c34.8,17,71.2,31.4,108,42.7c30.9,9.5,62.9,17.1,95.3,22.5
						c37.9,6.4,76.9,9.7,115.9,10c13.9,0,28.1-0.3,42.1-0.9c264.4-13.3,502.2-166.7,620.5-400.2c87.1-171.8,101.5-366.7,40.6-548.6
						c-61.4-183.4-191.8-331.7-367.2-417.7c-68.5-33.5-140.9-56.1-215.2-67.1c-8.2-1.3-16.5-2.4-25.7-3.4c-23-2.6-46.2-4.2-69-4.6
						C777.6,32.7,772.9,32.6,768.2,32.6z"/>
				</g>
				<g>
					<path class="st1" d="M759.5,1507.9c-1.1,0-2.2,0-3.4,0c-40.7-0.3-81.4-3.8-121.1-10.5c-33.8-5.7-67.3-13.6-99.6-23.5
						c-38.4-11.8-76.4-26.8-112.8-44.6c-13.4-6.6-25.1-12.8-36-18.9c-23.5-13.1-46.8-27.7-69.1-43.4
						c-105.5-74.4-190.4-175.2-245.4-291.5l0,0c-99.3-209.8-96-449.1,9.1-656.5C142,299,234,197.1,347.1,124.1
						c21.4-13.9,44.2-27.1,67.9-39.2c15.2-7.8,31.1-15.2,47.3-22.1c50.2-21.5,102.8-37.7,156.5-48.2C672.9,3.9,728.2-0.9,783,0.1
						c23.9,0.5,48.1,2.1,72,4.8c9.6,1,18.4,2.2,27,3.6c77.4,11.5,153.1,35.1,224.5,70c183.3,89.8,319.6,244.9,383.8,436.6
						c63.7,190.3,48.6,394-42.4,573.7c-123.6,243.9-371.9,404.1-648,418C786.5,1507.6,772.9,1507.9,759.5,1507.9z M768.2,36.8
						c-47.6,0-95.4,4.7-142.3,13.9c-51.1,10-101.3,25.5-149.1,45.9c-15.4,6.6-30.5,13.7-45,21.1c-22.6,11.5-44.3,24.1-64.7,37.3
						c-107.7,69.5-195.2,166.5-253,280.6C14.2,632.8,11,860.2,105.4,1059.7l0,0c52.3,110.6,133,206.4,233.4,277.2
						c21.2,15,43.4,28.9,65.9,41.4c10.4,5.8,21.6,11.7,34.3,18c34.6,16.9,70.7,31.2,107.3,42.5c30.7,9.5,62.6,17,94.8,22.4
						c37.7,6.3,76.5,9.7,115.2,10c13.8,0.1,27.9-0.3,41.9-0.9c262.9-13.2,499.4-165.7,617-397.9c86.6-170.8,100.9-364.5,40.4-545.4
						c-61.1-182.4-190.7-329.8-365.1-415.3c-68.1-33.3-140.1-55.7-214-66.7c-8.1-1.3-16.4-2.4-25.5-3.4c-22.9-2.6-45.9-4.2-68.7-4.6
						C777.6,36.8,772.9,36.8,768.2,36.8z"/>
				</g>
				<g>
					<path class="st1" d="M191,1226.4c417.7,324.9,1024.2,143.8,1087.3-373.2c42.9-351.8-273.1-663.5-618.2-681.3
						c-251.2-12.9-502.6,82.8-631,461.8c0,0-30.6,176.3,10.9,297.2s102.6,231.4,102.6,231.4L191,1226.4z"/>
				</g>
				<g>
					<path class="st8" d="M1278.3,853.2c-63.1,517-669.6,698.2-1087.3,373.2l-9.8-13c474.7,111.3,970.3-145.3,1044-667
						C1270.7,639.9,1291.5,744.6,1278.3,853.2z"/>
				</g>
				<g>
					<path class="st1" d="M654.3,1482.8c-38.5,0-77.2-2.7-116-8.2l-2.8-0.6c-38.5-11.8-76.4-26.8-112.8-44.6
						c-13.4-6.6-25.1-12.8-36-18.9c-23.5-13.1-46.8-27.7-69.1-43.4c-105.5-74.4-190.4-175.2-245.4-291.5l0,0
						c-99.3-209.8-96-449.1,9.1-656.5C142,299,234,197.1,347.1,124.1l1.6-1l1.8-0.7C442.2,87,547.1,72.1,662.3,78
						c207.3,10.7,413.8,115.5,552.4,280.4c124.8,148.5,181.5,328.2,159.8,506c-23.7,193.6-113.9,355.6-261,468.3
						C986.1,1430.4,823.3,1482.8,654.3,1482.8z M544.9,1438.3c199,27.9,398-21.2,546.2-134.8c139.1-106.6,224.5-260,246.9-443.6
						c20.5-167.6-33.3-337.3-151.5-477.9c-132.1-157.2-328.8-257.1-526.1-267.3c-109.2-5.6-208.5,8.3-295,41.3
						c-107,69.4-193.8,166-251.4,279.5C14.2,632.8,11,860.2,105.4,1059.7l0,0c52.3,110.6,133,206.4,233.4,277.2
						c21.2,15,43.4,28.9,65.9,41.4c10.4,5.8,21.6,11.7,34.3,18C473.1,1413,508.8,1427.2,544.9,1438.3z"/>
				</g>
				<g>
					<path class="st1" d="M655,1399.2c-164.2,0-330.7-56.5-470.1-165l-1-0.8l-49.9-66.3c-0.6-1.1-62-112.7-103.3-233
						C-11.3,812.3,18,639.3,19.3,632l0.4-1.5c110.8-327.1,326.6-484.7,641-468.6c182.7,9.4,364.7,101.8,486.9,247.2
						c109.9,130.7,159.8,288.9,140.7,445.3c-27.7,227.1-162.5,406.8-369.6,492.9C834.7,1382.2,745.2,1399.2,655,1399.2z
						 M198.2,1219.3c210.2,163,483.2,205,712.7,109.5c200.4-83.3,330.7-257.1,357.5-476.9c18.4-150.9-30-303.6-136.2-430
						c-118.7-141.2-295.3-230.9-472.6-240C355.2,166.2,146.5,319.1,38.8,636.2c-2.1,12.5-28.2,178.4,10.7,291.5
						c39.2,114,96.7,220.2,101.6,229.2L198.2,1219.3z"/>
				</g>
				<g>
					<path class="st2" d="M1610.4,839.3c0.1,145.1-86.6,267.1-193.8,272.5s-194.1-107.8-194.2-252.9c0-0.9,0-1.9,0-2.8
						c1-143.8,87.4-264.3,193.8-269.7c82.8-4.2,153.5,62.4,181.5,159.8C1605.9,774.9,1610.4,806.3,1610.4,839.3z"/>
				</g>
				<g class="st0">
					<path class="st1" d="M1610.4,839.3c0.1,145.1-86.6,267.1-193.8,272.5s-194.1-107.8-194.2-252.9c0-0.9,0-1.9,0-2.8
						c11.8,14.3,30.1,28,55,21.8c43.5-10.9,121.5-108.1,121.5-108.1s86.1-10.8,198.7-23.6C1605.9,774.9,1610.4,806.3,1610.4,839.3z"
						/>
				</g>
				<g>
					<path class="st1" d="M1409.1,1130.3c-43.9,0-85.4-17.4-120.5-50.8c-53.7-51-84.6-131.5-84.6-220.6
						c-0.1-154.5,94.7-284.9,211.3-290.8c47-2.4,91.6,15.1,128.9,50.6c53.7,51,84.6,131.5,84.6,220.6l0,0
						c0.1,154.5-94.7,284.9-211.3,290.8C1414.7,1130.3,1411.9,1130.3,1409.1,1130.3z M1423.6,604.6c-2.1,0-4.3,0.1-6.4,0.2
						c-97.4,4.9-176.5,118.9-176.4,254.1c0.1,78,27.4,150.5,73.2,194c29.8,28.3,65,42.4,101.7,40.5
						c97.4-4.9,176.5-118.9,176.4-254.1l0,0c-0.1-78-27.4-150.5-73.2-194C1490.8,618.6,1458,604.6,1423.6,604.6z"/>
				</g>
				<g>
					
						<ellipse transform="matrix(5.680704e-02 -0.9984 0.9984 5.680704e-02 531.7638 2293.4836)" class="st2" cx="1479.7" cy="865.3" rx="214.5" ry="146.2"/>
				</g>
				<g class="st0">
					<path class="st1" d="M1479,1079.4c80.9-4.7,146.8-104.4,147.2-222.7c0.1-12.8-0.7-25.4-2.1-37.5
						c-21.5,81.5-75.5,141.5-138.4,145.1c-71,4.1-130.3-65.2-144.2-161.3c-5.3,22.3-8.2,46.1-8.3,70.7
						C1332.8,992.1,1398.1,1084.2,1479,1079.4z"/>
				</g>
				<g>
					<path class="st1" d="M1473,1098c-32.3,0-63-13-89.2-37.8c-43.4-41.1-69.2-110.8-69-186.5c0.4-127.6,74.2-235.7,164.5-241
						c34.9-2,68.2,10.9,96.3,37.5c43.4,41.1,69.2,110.8,69,186.5c-0.4,127.6-74.2,235.7-164.5,241
						C1477.7,1097.9,1475.4,1098,1473,1098z M1486.3,669.4c-1.6,0-3.2,0-4.8,0.1c-71.3,4.2-129.5,95.8-129.8,204.4
						c-0.2,65.7,21.3,125.4,57.5,159.6c20.6,19.4,44.4,29,68.9,27.5c71.2-4.2,129.5-95.8,129.8-204.4
						c0.2-65.7-21.3-125.4-57.5-159.6C1531.1,678.9,1509.1,669.4,1486.3,669.4z"/>
				</g>
				<g class="st9">
					<path class="st2" d="M834.4,322.8c0,0-329.1,3.8-520,180.6c-0.2,0.2-0.4,0.4-0.6,0.6c-40.2,37.3-69.4,84.5-85,136.6
						c-20.7,68.9-24.7,119.3-26.5,163.8c-5.4,135.4,17.8,199.7,17.8,199.7c-75.2-74.3-116-157-112.7-269.8
						c0.4-11.1,1.1-22.6,2.3-34.3c0.3-2.7,0.6-5.4,1-8.1c-0.1,0,0-0.1,0-0.2c4.1-23.6,10.7-54.4,21-88.6
						c31.2-103.1,96.5-236.7,231.3-295C615.1,199.2,846.2,309.1,834.4,322.8z"/>
				</g>
				<g class="st9">
					
						<ellipse transform="matrix(0.9728 -0.2318 0.2318 0.9728 -130.8817 260.4453)" class="st2" cx="1042.9" cy="687.2" rx="99.7" ry="114.5"/>
				</g>
				<g class="st9">
					
						<ellipse transform="matrix(0.947 -0.3212 0.3212 0.947 -228.1324 397.0362)" class="st2" cx="1089.4" cy="890" rx="41.2" ry="47.3"/>
				</g>
			</g>
			<g>
				<g>
					<path class="st5" d="M786.6,1744.4l-1.8,2.3l-55.1,71.3l-54.4-52.6H439.2c-21.4,0-40.5-13.2-48.1-33.2l-143.5-380.8l-95.9-92.8
						l53-67.3c8.2-16.6,25.3-28.7,46-28.7H574c21.9,0,41.5,14,48.6,34.7l171.2,500C799.6,1714.2,796.1,1731.5,786.6,1744.4z"/>
				</g>
				<g class="st7">
					<path class="st2" d="M786.6,1744.4l-1.7,2.3l-1.4,1.8L606,1230.2c-7.4-21.6-27.8-36.2-50.6-36.2H218.7
						c-6.7,0-13.1,1.2-18.9,3.4l4.9-6.3c8.2-16.6,25.3-28.6,46-28.6H574c21.9,0,41.5,14,48.6,34.8l171.2,500
						C799.6,1714.2,796.1,1731.5,786.6,1744.4z"/>
				</g>
				<g>
					<path class="st1" d="M729.8,1836.3c-4.8,0-9.3-1.8-12.8-5.2l-49-47.5H439.2c-28.9,0-55.1-18.1-65.3-45.1l-142-376.9l-92.9-89.9
						c-6.8-6.6-7.5-17.2-1.7-24.6l51.9-65.9c12.1-22.9,35.5-37.1,61.6-37.1H574c29.8,0,56.3,19,66,47.2l171.2,500
						c7.4,21.7,3.8,45.6-9.8,63.9c-0.1,0.1-0.1,0.2-0.2,0.3l-56.9,73.6c-3.2,4.1-8,6.7-13.2,7.1
						C730.7,1836.3,730.2,1836.3,729.8,1836.3z M176.5,1256.9l83.9,81.2c2,1.9,3.5,4.2,4.4,6.7l143.5,380.8
						c4.8,12.7,17.2,21.3,30.9,21.3h236.2c4.8,0,9.4,1.9,12.8,5.2l39.6,38.3l44.1-57.1c6.4-8.8,8-19.7,4.5-30.1l-171.2-500
						c-4.6-13.3-17.1-22.3-31.2-22.3H250.8c-12.6,0-23.9,7-29.5,18.4c-0.6,1.1-1.2,2.2-2,3.2L176.5,1256.9z M786.6,1744.4
						L786.6,1744.4L786.6,1744.4z"/>
				</g>
				<g>
					<path class="st5" d="M686.7,1841.4H380.7c-21.4,0-40.6-13.2-48.1-33.2l-89.1-236.5l-99.3-263.5c-12.7-33.6,12.1-69.5,48-69.5
						h323.2c22,0,41.5,14,48.6,34.8l171.3,500C746.8,1806.7,722,1841.4,686.7,1841.4z"/>
				</g>
				<g>
					<path class="st6" d="M461.7,1841.4h-81c-21.4,0-40.6-13.2-48.1-33.2l-89.1-236.5l199.5-85.2c0,0,48.6,50.3-0.6,117.4
						C442.5,1603.8,555.2,1770.3,461.7,1841.4z"/>
				</g>
				<g>
					<path class="st1" d="M686.7,1859.8H380.7c-28.9,0-55.1-18.2-65.3-45.2l-188.3-500l0,0c-8.1-21.4-5.1-45.5,7.9-64.3
						c13-18.8,34.5-30.1,57.4-30.1h323.2c29.8,0,56.3,19,66,47.2l171.2,500c7.4,21.6,4,44.6-9.2,63.2
						C730.2,1849.1,709.6,1859.8,686.7,1859.8z M161.5,1301.6l188.3,500c4.8,12.8,17.2,21.4,30.9,21.4h306.1
						c10.8,0,20.6-5,26.8-13.8c6.3-8.8,7.9-19.7,4.4-29.9l-171.2-500c-4.6-13.3-17.1-22.3-31.2-22.3H192.3c-11,0-20.9,5.2-27.1,14.2
						C158.9,1280.3,157.6,1291.4,161.5,1301.6L161.5,1301.6z"/>
				</g>
			</g>
			<g>
				<path class="st2" d="M426.5,1673.9c33.3,97.5-53.5,125.6-95.7,129.7c0,79.2-148.5,115.8-220.7,42.2
					c-51.5-52.5-55.8-112-42.8-164.2c18.6-75.2,73.1-134.8,73.1-134.8c-7.5-112.5,49.7-117.1,49.7-117.1l25.6,68
					c57.7,10.4,166.2-71.5,208.5-12.8c43.4,60.2-44.2,106.5-44.2,106.5C403.7,1623.3,418.6,1650.6,426.5,1673.9z"/>
			</g>
			<g class="st0">
				<path class="st1" d="M330.8,1803.6c0,79.2-148.5,115.8-220.7,42.2c-51.5-52.5-55.8-112-42.8-164.2h0c0,0-7.6,112,84.5,127.7
					c78.1,13.3,45.1-66.8,44.1-69.2c3.9,1.4,235.2,85.2,230.7-66.3C459.8,1771.4,373,1799.5,330.8,1803.6z"/>
			</g>
			<g>
				<path class="st1" d="M211.8,1904.1c-40.2,0-82.9-12.8-114.9-45.4c-56.9-58-69.4-133.1-36-217.2c19.4-48.9,48.7-86.9,60.6-101.1
					c-5.4-121.8,63.9-128.8,67-129c8.2-0.6,15.8,4.2,18.7,11.9l21.4,56.9c17.7-0.5,41.5-8.4,64.7-16c49.9-16.4,112-36.8,145.7,10
					c13.7,19.1,18.5,39.9,13.7,60.4c-6.7,28.5-29.8,49.8-46.5,61.9c43.6,63.2,56.4,116,38.2,157.4c-17.1,38.8-58.9,59-96.9,65.9
					c-6.3,30.3-30.5,56.3-67.2,71.3C260.4,1899.2,236.6,1904.1,211.8,1904.1z M153.9,1559.2L153.9,1559.2
					c-5.9,6.5-142.7,159.6-30.7,273.7c38,38.7,100.8,41.5,143.1,24.2c13.8-5.7,46-22.2,46-53.5c0-9.5,7.2-17.4,16.6-18.3
					c29.6-2.9,68.7-16.8,81.7-46.3c13.8-31.3-2-78.5-45.6-136.5c-3.2-4.3-4.4-9.8-3.2-15.1c1.2-5.2,4.6-9.7,9.3-12.2
					c10.8-5.8,40.3-26,45.6-49.1c2.3-10-0.2-20-7.7-30.4c-16.7-23.3-52.2-13.7-104.4,3.4c-33.7,11.1-65.4,21.5-92.5,16.7
					c-6.4-1.2-11.7-5.6-13.9-11.6l-18.7-49.6c-12.2,11.1-24.5,37.6-21,91.1C159,1550.6,157.3,1555.5,153.9,1559.2z"/>
			</g>
			<g>
				<path class="st1" d="M229.4,1771c32.9,10,68.1,15.7,102.5,14.2c26.5,0.4,24.5,39.1-1.9,36.8c-28.5-3.6-55.9-11.6-82.3-22.4
					c-8.7-3.6-17-7.3-25.6-11.7c-4.5-2.3-6.3-7.9-4-12.4C220.3,1771.3,225.2,1769.5,229.4,1771L229.4,1771z"/>
			</g>
			<g>
				<path class="st1" d="M714.1,2542.8c-174.8,0-247.3-36.5-250.9-38.4c-9-4.7-12.5-15.8-7.8-24.8c4.7-9,15.7-12.5,24.7-7.9
					c1.5,0.8,104.1,50.6,359.1,28.5c10.2-0.9,19,6.6,19.9,16.7c0.9,10.1-6.6,19-16.7,19.9C794.6,2541.1,751.9,2542.8,714.1,2542.8z"
					/>
			</g>
			<g>
				<path class="st1" d="M1064.9,2531.3c-95.4,0-159.9-18.9-164.4-20.2c-9.7-2.9-15.2-13.2-12.3-22.9c2.9-9.7,13.2-15.2,22.9-12.3
					c2.6,0.8,173.5,50.2,369.3-16.7c9.6-3.3,20.1,1.9,23.3,11.5c3.3,9.6-1.8,20.1-11.5,23.3
					C1208.4,2522.7,1129.6,2531.3,1064.9,2531.3z"/>
			</g>
			<g>
				<g>
					<path class="st2" d="M1200.6,2732.6c-70.4-32.6-232.5-18.5-254.6,1.6"/>
				</g>
				<g>
					<path class="st1" d="M1196.7,2741c-55.8-22.7-180.3-17.4-236.1,5.5c-1.7,0.8-2.4,1.7-2.2,1.4c-18.2,15.9-42.3-10.3-24.8-27.1
						c36.9-28,159.3-23.2,205.7-15.3c22,3.6,44.1,8.6,65.2,18.9c4.6,2.2,6.5,7.7,4.2,12.3C1206.5,2741.1,1201.2,2742.9,1196.7,2741
						L1196.7,2741z"/>
				</g>
			</g>
			<g>
				<g>
					<path class="st2" d="M651.9,2717.7c-56.8-8.5-94.2-9.4-154.4,0.6"/>
				</g>
				<g>
					<path class="st1" d="M650.5,2726.8c-51.1-5.4-100.3-2.6-150.1,9.6c-25.2,4.7-31.6-32.4-6.1-36.3c52.4-6.6,107.7-3.4,158.9,8.5
						C664.4,2711.1,661.9,2727.8,650.5,2726.8L650.5,2726.8z"/>
				</g>
			</g>
			<g>
				<path class="st1" d="M1323.4,1974.8c-2.3,0-4.7-0.6-6.9-1.8c-6.6-3.8-8.9-12.2-5.1-18.8c29.7-51.7,37.7-103.5,23.8-154
					c-29.6-107.5-148.1-175.2-149.3-175.9c-6.6-3.7-9-12.1-5.3-18.8c3.7-6.6,12.1-9,18.8-5.3c5.3,3,129.8,74.2,162.4,192.6
					c15.9,57.8,7,116.7-26.5,175C1332.8,1972.3,1328.2,1974.8,1323.4,1974.8z"/>
			</g>
			<g>
				
					<ellipse transform="matrix(0.6611 -0.7503 0.7503 0.6611 -889.0267 736.8331)" class="st2" cx="371.2" cy="1352.6" rx="34.7" ry="44.7"/>
			</g>
			<g>
				
					<ellipse transform="matrix(0.6611 -0.7503 0.7503 0.6611 -889.0254 736.8305)" class="st1" cx="371.2" cy="1352.6" rx="24.7" ry="31.8"/>
			</g>
		</g>
	</g>
</g>
</svg>
