<?xml version="1.0" encoding="utf-8"?>
<!-- Generator: Adobe Illustrator 27.4.1, SVG Export Plug-In . SVG Version: 6.00 Build 0)  -->
<svg version="1.1" id="Layer_1" xmlns="http://www.w3.org/2000/svg" xmlns:xlink="http://www.w3.org/1999/xlink" x="0px" y="0px"
	 viewBox="0 0 2884.8 3045.4" style="enable-background:new 0 0 2884.8 3045.4;" xml:space="preserve">
<style type="text/css">
	.st0{fill:url(#SVGID_1_);}
	.st1{clip-path:url(#SVGID_00000107569690099469923830000010640849361144174721_);}
	.st2{fill:#F9F9F9;}
	.st3{opacity:0.2;}
	.st4{fill:#371A45;}
	.st5{fill:#CCCCCC;}
	.st6{fill:#22A7F0;}
	.st7{opacity:0.7;}
	.st8{fill:#FFFFFF;}
	.st9{fill:#1C7AEA;}
	.st10{fill:#080056;}
	.st11{opacity:0.15;}
	.st12{fill:#220F2D;}
	.st13{opacity:0.5;}
</style>
<radialGradient id="SVGID_1_" cx="1434.3021" cy="1525.2877" r="1325.5251" gradientUnits="userSpaceOnUse">
	<stop  offset="0.227" style="stop-color:#ED2583"/>
	<stop  offset="0.5771" style="stop-color:#BB1E72"/>
	<stop  offset="1" style="stop-color:#27083F"/>
</radialGradient>
<circle class="st0" cx="1434.3" cy="1525.3" r="1325.5"/>
<g>
	<defs>
		<circle id="SVGID_00000002351381163265250570000009800706323480015530_" cx="1434.3" cy="1525.3" r="1325.5"/>
	</defs>
	<clipPath id="SVGID_00000083085199930703659910000016730227257507660195_">
		<use xlink:href="#SVGID_00000002351381163265250570000009800706323480015530_"  style="overflow:visible;"/>
	</clipPath>
	<g style="clip-path:url(#SVGID_00000083085199930703659910000016730227257507660195_);">
		<g>
			<g>
				<g>
					<path class="st2" d="M2559.2,3289.7c6.7,34,10.3,72.2,10.3,114.4c0,308.5-141.2,376.7-260.5,376.7h-847.3
						c-335.7,0-731,20.1-817.9-441.9c-49.8-265.1,135.3-740.5,234.9-969.7c35-80.5,59.4-130.6,59.4-130.6
						c1166.2-118.3,1719.6,556.1,1719.6,556.1h-604.6c12.3,25.5,23,51.7,31.9,77.6c33.9,97.6,45.8,192,49.8,242.1
						c1.9,23.2,2,37,2,37c55.8-52,116.2-86.3,209.2-86.3C2437.9,3064.9,2529.1,3136.3,2559.2,3289.7z"/>
				</g>
				<g class="st3">
					<path class="st4" d="M2134.8,3114.3h-636.9c-266.1-113.5-510.3-28.6-510.3-28.6v-300.9h933.5l163.7,87.4
						C2119,2969.9,2130.8,3064.4,2134.8,3114.3z"/>
				</g>
				<g class="st3">
					<path class="st4" d="M2569.5,3404.1c0,308.5-141.2,376.7-260.5,376.7h-847.3c-335.7,0-731,20.1-817.9-441.9
						c-49.8-265.1,135.3-740.5,234.9-969.7l94.6-16.4c0,0-323.9,676.2-209.5,978c114.2,301.8,777.7,168.5,777.7,168.5
						s55.1,119.1,169.8,119.1c114.7,0,158.1-114.4,169.8-247.7c0,0,31.3,99.9,105.6,110.6c69.5,10,137.5,29.3,198.3,64.3
						c50.4,29,116.1,53.8,193.6,53.8c118.5,0,174.9-155.1,180.5-309.7C2565.9,3323.7,2569.5,3361.9,2569.5,3404.1z"/>
				</g>
				<g>
					<path class="st4" d="M1381.7,3817.4c-315.2,0-688.3-17.5-773.7-471.7c-68.7-365.8,282.4-1092.3,297.5-1123.1l8.9-18.2l20.2-2
						c611.6-62,1054.4,95.1,1318.2,237.9c287.2,155.4,427.5,324.2,433.4,331.4l48.9,59.6H2109c36.7,93.9,52.5,187.3,59.4,248.8
						c54-35.6,110.1-51.4,178-51.4c129.3,0,259.8,116.1,259.8,375.4c0,359.5-186,413.2-296.9,413.2h-847.3c-13.3,0-26.8,0-40.3,0
						C1408.2,3817.4,1395,3817.4,1381.7,3817.4z M962.3,2272.8c-54.2,115.5-341.3,747.7-282.7,1059.4
						c77.8,413.7,415.3,413,741.5,412.2c13.6,0,27.1,0,40.5,0h847.3c148.7,0,224-114.5,224-340.3c0-209-93.9-302.5-186.9-302.5
						c-72.6,0-126,22.1-184.4,76.5l-60,55.8l-1.3-81.9c0-1.9-4-183.8-80.1-341.3l-25.3-52.4h577.2c-64.6-61.7-183.7-162-357.6-255.7
						C1963.3,2367.2,1543,2218.4,962.3,2272.8z"/>
				</g>
				<g>
					<ellipse class="st5" cx="2399.8" cy="3430.8" rx="169.8" ry="296.5"/>
				</g>
				<g>
					<path class="st4" d="M2399.8,3757c-111.8,0-199.5-143.2-199.5-326.2c0-183,87.5-326.2,199.5-326.2
						c111.8,0,199.5,143.2,199.5,326.2C2599.2,3613.7,2511.5,3757,2399.8,3757z M2399.8,3163.8c-75.9,0-140.1,122.3-140.1,266.9
						c0,144.7,64.1,266.9,140.1,266.9s140.1-122.3,140.1-266.9C2539.8,3286.1,2475.7,3163.8,2399.8,3163.8z"/>
				</g>
				<g>
					<path class="st4" d="M2559.6,3360.9h-319.9c-16.4,0-29.7-13.2-29.7-29.7c0-16.5,13.2-29.7,29.7-29.7h319.9
						c16.4,0,29.7,13.2,29.7,29.7C2589.3,3347.7,2576,3360.9,2559.6,3360.9z"/>
				</g>
				<g>
					<path class="st4" d="M2557.6,3569.5h-315.7c-16.4,0-29.7-13.2-29.7-29.7c0-16.5,13.2-29.7,29.7-29.7h315.7
						c16.4,0,29.7,13.2,29.7,29.7C2587.3,3556.3,2574,3569.5,2557.6,3569.5z"/>
				</g>
				<g>
					<path class="st4" d="M2160.8,3168.8c-1.6,2.2-4,5.7-5.9,8.9c-2,3.3-4,6.6-6,10c-3.9,6.7-7.6,13.8-11.2,20.8
						c-7,14.2-13.1,28.8-18.1,43.8c-2.6,7.5-4.7,14.9-6.3,22.7c-1.1,7.7-2,15.5-3.3,23.1c-4.2,15.1-9.5,29.1-26,45.5l-0.4,0.4
						c-5.3,5.3-13.9,5.2-19.1-0.1c-0.1-0.1-0.1-0.1-0.3-0.3c-4.2-4.4-7.2-9-9.5-13.8c-2.6-4.7-4.3-9.5-5.5-14.2
						c-1.1-4.7-1.9-9.6-2.3-14.4c-0.1-4.7,0.1-9.5,0.7-14.2c1-9.5,4.7-18.1,7.3-27.1c3.2-8.8,5.3-17.8,8.5-26.5
						c5.9-17.5,12.9-34.6,21-51.1c4.2-8.2,8.3-16.4,13.1-24.4c2.3-4,4.7-8,7.2-11.9c2.6-4.2,4.9-7.6,8.3-12.3
						c9.5-13.3,28-16.5,41.3-6.9c13.3,9.5,16.4,27.8,7,41.2L2160.8,3168.8z"/>
				</g>
				<g>
					<g>
						<path class="st2" d="M2057.2,3276h-421.9c-51.8,0-93.7-41.9-93.7-93.7v-193.2c0-51.8,41.9-93.7,93.7-93.7h421.9
							c51.8,0,93.7,41.9,93.7,93.7v193.2C2150.9,3234,2109,3276,2057.2,3276z"/>
					</g>
					<g class="st3">
						<path class="st4" d="M2150.2,3193.1c-5.3,46.8-44.9,82.9-93,82.9h-421.9c-51.8,0-93.7-41.9-93.7-93.7v-193.2
							c0-51.7,41.9-93.7,93.7-93.7h33.3c-0.4,3.4-0.7,7.2-0.7,10.8v193.2c0,51.7,41.9,93.7,93.7,93.7H2150.2z"/>
					</g>
					<g>
						<path class="st4" d="M2057.2,3305.6h-421.9c-68,0-123.3-55.3-123.3-123.3v-193.2c0-68,55.3-123.3,123.3-123.3h421.9
							c68,0,123.3,55.3,123.3,123.3v193.2C2180.5,3250.4,2125.2,3305.6,2057.2,3305.6z M1635.3,2925.2c-35.3,0-64,28.7-64,64v193.2
							c0,35.3,28.7,64,64,64h421.9c35.3,0,64-28.7,64-64v-193.2c0-35.3-28.7-64-64-64H1635.3z"/>
					</g>
					<g>
						<path class="st4" d="M2046,3294.1c-10,0-18.1-8.2-18.1-18.1v-126.6c0-16.9-8.9-32.9-23.2-41.6l-9.6-5.9
							c-25.1-15.4-40.6-43.2-40.6-72.6v-133.9c0-10,8.2-18.1,18.1-18.1c10,0,18.1,8.2,18.1,18.1v133.9c0,16.8,8.9,32.9,23.2,41.6
							l9.5,5.9c25.1,15.4,40.6,43.2,40.6,72.6V3276C2064.2,3286.1,2056,3294.1,2046,3294.1z"/>
					</g>
				</g>
				<g>
					<g>
						<path class="st6" d="M1721.7,3088.3c1.1,41.3,29.3,73.9,62.9,73l56.7-1.6l-4.3-149.4l-56.7,1.6
							C1746.6,3012.8,1720.5,3047,1721.7,3088.3z"/>
					</g>
					<g class="st7">
						<path class="st8" d="M1724.7,3062.2c10.6-15.1,26.3-24.7,43.9-25.3l56.5-1.6l3.6,124.7l12.3-0.3l-4.3-149.4l-56.7,1.6
							C1754.1,3012.6,1732.4,3033.5,1724.7,3062.2z"/>
					</g>
					<g>
						<path class="st9" d="M1721.7,3088.3c1.1,41.3,29.3,73.9,62.9,72.9l56.7-1.6l-4.3-149.4l-30.4,0.9l2.2,73.3l-56.5,1.6
							c-10.8,0.3-21-2.9-29.9-8.6C1721.7,3080.9,1721.5,3084.6,1721.7,3088.3z"/>
					</g>
					<g>
						<path class="st4" d="M1783.1,3176.3c-40.9,0-74.9-38.9-76.3-87.5l0,0c-1.4-49.5,31.4-90.7,73-91.8l56.7-1.6
							c8.3-0.3,15.2,6.3,15.4,14.5l4.3,149.4c0.3,8.3-6.3,15.2-14.5,15.4l-56.7,1.6C1784.2,3176.3,1783.7,3176.3,1783.1,3176.3z
							 M1736.6,3087.9c1,32.9,22.1,59.1,47.4,58.4l41.6-1.1l-3.4-119.5l-41.6,1.1C1755.4,3027.5,1735.7,3054.9,1736.6,3087.9
							L1736.6,3087.9z"/>
					</g>
					<g>
						
							<ellipse transform="matrix(0.9996 -2.865678e-02 2.865678e-02 0.9996 -87.6489 53.9688)" class="st6" cx="1839.1" cy="3084.9" rx="60.7" ry="74.8"/>
					</g>
					<g class="st7">
						<path class="st8" d="M1778.3,3086.8c0.1,4.4,0.6,8.9,1.3,13.2c4-35,28-62.3,58-63.1c29.9-0.9,55.4,25,61.4,59.7
							c0.4-4.3,0.7-8.8,0.6-13.2c-1.1-41.2-29.3-73.9-62.7-72.9C1803.3,3011.3,1777.2,3045.4,1778.3,3086.8z"/>
					</g>
					<g>
						<path class="st9" d="M1778.3,3086.8c1.1,41.3,29.3,73.9,62.7,73c33.4-1,59.6-35.2,58.4-76.5c-0.1-2.6-0.3-5-0.6-7.3
							c-9.2,24.5-29.1,41.8-52.8,42.5c-31.4,0.9-58.1-27.8-62.3-65.6C1780.1,3062.9,1778.1,3074.6,1778.3,3086.8z"/>
					</g>
					<g>
						<path class="st4" d="M1839.8,3174.7c-40.9,0-74.9-38.9-76.3-87.5l0,0c-1.4-49.5,31.3-90.7,73-91.8c21-0.7,40.5,8.6,55.3,25.8
							c14.1,16.4,22.2,38.3,22.8,61.7c0.7,23.4-6.2,45.8-19.4,62.9c-13.8,18.1-32.9,28.4-53.7,29
							C1840.9,3174.7,1840.3,3174.7,1839.8,3174.7z M1793.3,3086.3c1,33,22.2,58.8,47.4,58.4c11.6-0.3,22.5-6.5,30.7-17.2
							c8.9-11.8,13.6-27.3,13.2-43.8c-0.4-16.5-6-31.9-15.6-43.1c-8.9-10.3-20.2-15.8-31.7-15.5
							C1812.1,3025.9,1792.4,3053.3,1793.3,3086.3L1793.3,3086.3z"/>
					</g>
				</g>
				<g>
					<g>
						<path class="st2" d="M1881.1,3430.8c0,291.9-151.3,350-419.3,350l-155.6-254l-278.6-455.2c0,0,285.2-62.7,447.9,62.9
							c0,0,66.3-71,168.8-78.5c106.5-7.9,222.9,73.2,235.6,327.5v0.1C1880.7,3398.5,1881.1,3414.3,1881.1,3430.8z"/>
					</g>
					<g class="st3">
						<path class="st10" d="M1881.1,3430.8c0,291.9-151.3,350-419.3,350l-155.6-254c132-6.6,235.4-27.4,235.4-27.4
							s55.1,119.1,169.8,119.1c111.1,0,155.3-107.3,168.6-235.2C1880.7,3398.5,1881.1,3414.3,1881.1,3430.8z"/>
					</g>
					<g>
						<ellipse class="st5" cx="1711.3" cy="3430.8" rx="169.8" ry="296.5"/>
					</g>
					<g>
						<path class="st4" d="M1711.3,3757c-111.8,0-199.5-143.2-199.5-326.2c0-183,87.5-326.2,199.5-326.2
							c111.8,0,199.5,143.2,199.5,326.2C1910.8,3613.7,1823.1,3757,1711.3,3757z M1711.3,3163.8c-75.9,0-140.1,122.3-140.1,266.9
							c0,144.7,64.1,266.9,140.1,266.9c75.9,0,140.1-122.3,140.1-266.9C1851.4,3286.1,1787.2,3163.8,1711.3,3163.8z"/>
					</g>
					<g>
						<path class="st4" d="M1461.8,3810.5c-16.4,0-29.7-13.2-29.7-29.7c0-16.5,13.2-29.7,29.7-29.7c258.5,0,389.8-49.5,389.8-320.3
							c0-182.3-49.4-266.5-90.8-305c-40.3-37.5-84.4-42.8-114.2-40.5c-89,6.6-148.8,68.6-149.4,69.3c-10.5,11.1-27.7,12.5-39.6,3.2
							c-149.7-115.5-420.8-57.8-423.5-57.3c-15.9,3.4-31.9-6.6-35.3-22.5c-3.4-15.9,6.6-31.7,22.5-35.3
							c11.8-2.6,278.7-59.6,451.9,53.8c29-24,88.8-64.1,168.9-70c59.6-4.4,114.7,15.1,158.9,56.3c50.1,46.5,109.8,144.7,109.8,348.3
							C1910.7,3746.9,1738.9,3810.5,1461.8,3810.5z"/>
					</g>
					<g>
						<path class="st4" d="M1640.7,3361c-33.4,0-64.3,0-89.4-0.1c-16.4-0.1-29.6-13.5-29.4-29.9c0.1-16.4,13.3-29.4,29.6-29.4h0.1
							c80.5,0.4,218.1,0,319.5-0.4h0.1c16.4,0,29.6,13.2,29.6,29.6c0,16.4-13.2,29.7-29.6,29.7
							C1801.5,3360.9,1714.5,3361,1640.7,3361z"/>
					</g>
					<g>
						<path class="st4" d="M1632,3569.5c-29,0-56,0-78.6-0.1c-16.4-0.1-29.6-13.3-29.6-29.7c0.1-16.4,13.3-29.6,29.6-29.6h0.1
							c86.7,0.4,234.9-0.1,315.6-0.4l0.1,59.3C1809.8,3569.2,1713.3,3569.5,1632,3569.5z"/>
					</g>
					<g>
						<path class="st4" d="M1493.6,3157.7c-0.1,0.4-1.3,1.6-2,2.6l-2.7,3.2c-1.9,2-3.7,4.4-5.6,6.6c-3.9,4.4-7.6,9-11.5,13.8
							c-7.5,9.5-15.1,18.9-22.2,29c-14.4,19.8-28.4,40.5-41.2,62.4c-5.7,11.2-12.6,22.1-17.8,33.9c-2.7,5.7-5.7,11.5-8.5,17.4
							l-7.7,17.8c-5.7,11.8-9.5,24.3-14.9,36.6c-4.6,12.3-8.8,25-13.8,37.7l-0.1,0.3c-0.9,2.2-3.3,3.3-5.6,2.4
							c-1.6-0.6-2.6-2.2-2.7-3.9c-0.6-13.6-1.1-27.4-0.6-41.2c0.3-6.9,0.9-13.8,1.4-20.7c0.4-6.9,1-13.8,2.3-20.7l3.3-20.7
							c1.1-6.9,2.9-13.6,4.4-20.5c3-13.6,7.2-27.1,11.6-40.6c9.5-26.5,21.1-53,36.9-77.1c3.9-6,8-12.1,12.5-17.7
							c2.2-2.9,4.3-5.9,6.6-8.6l7.2-8.2c4.7-5.6,10-10.6,15.5-15.8c2.7-2.6,5.6-5,8.6-7.5c1.6-1.3,2.9-2.3,4.6-3.6
							c1.7-1.3,3-2.3,5.6-3.9c12.3-8.3,29-5,37.3,7.2c4.4,6.6,5.6,14.5,3.7,21.8L1493.6,3157.7z"/>
					</g>
				</g>
				<g>
					<g>
						<path class="st8" d="M2388.1,1954.9c-84.1,156.3-208.2,292.3-366,391.9c-32.1,20.2-65.6,39-100.5,56.1
							c-16.9,8.3-34.3,16.2-52,24c-53.2,22.8-107.3,40.9-161.9,54.5c-46.9,11.9-94.4,20.4-141.6,25.8c-57.1,6.6-114.2,8.5-170.9,5.9
							c-20.7-1-41.2-2.4-61.7-4.6c-374.7-38.2-719.1-269.4-881-634.6c-238.7-537.9,9-1162.4,552.9-1395.1
							c104.8-44.8,213-71.9,321-82.2c12.6-1.3,25.3-2.3,38-3c34-2.2,67.9-2.7,101.6-1.6c77.9,2.4,155.1,13.5,229.9,32.1
							c74.8,18.7,147.5,45.3,216.6,79.2c22,10.8,43.6,22.2,64.9,34.4c31.9,18.4,62.7,38.3,92.7,60
							c149.4,107.6,272.8,254.6,352.3,433.8C2560.1,1341.2,2536.4,1679.2,2388.1,1954.9z"/>
						<path class="st4" d="M1443.2,2517c-16.1,0-32.1-0.3-48.2-1c-20.7-1-41.5-2.4-61.9-4.6C944.8,2471.8,606.4,2228,450,1875.1
							c-115.2-259.8-121.7-547.9-18.1-811.3c104.3-265.5,307.7-474,572.5-587.2c103.3-44.1,211.7-71.9,321.9-82.4
							c12.1-1.3,24.5-2.3,38.2-3c33.9-2.2,68.2-2.7,101.9-1.6c77.5,2.4,155,13.3,230.5,32.3c74.9,18.7,148,45.3,217.1,79.4
							c22.2,10.9,44.1,22.5,65,34.6c32.6,18.8,63.7,39,93,60.1c154.1,111.1,276.3,261.5,353.2,434.8c133,299.8,120.4,637-34.7,925.5
							c-86,159.9-212.8,295.8-367,392.9c-32.6,20.5-66.4,39.5-100.6,56.3c-15.6,7.7-32.6,15.5-52,24
							c-52.7,22.5-107.2,40.9-162.3,54.7c-46.2,11.8-94,20.4-142.1,26C1525.9,2514.6,1484.7,2517,1443.2,2517z M1432.5,394.2
							c-22.5,0-45.2,0.7-67.6,2.2c-13.5,0.7-26,1.7-37.9,3c-109.8,10.6-217.6,38.2-320.3,82.1c-263.5,112.7-465.8,320.2-569.6,584.4
							c-103,262.1-96.6,548.8,18.1,807.1c155.7,351,492.4,593.7,878.9,633.2c20.4,2,41,3.6,61.6,4.6c57.1,2.4,114.4,0.6,170.5-5.9
							c47.8-5.5,95.4-14.2,141.4-25.8c54.8-13.8,109.2-32.1,161.5-54.4c19.4-8.3,36.3-16.2,51.8-23.8c34-16.6,67.7-35.6,100.2-56
							c153.3-96.7,279.6-231.9,365.1-390.9l0,0c154.4-286.9,166.9-622.6,34.6-920.8c-76.5-172.5-198-322.2-351.5-432.7
							c-29-21.1-60.1-41.2-92.6-59.8c-20.8-12.1-42.5-23.5-64.7-34.4c-68.9-33.9-141.6-60.4-216.1-78.9
							c-75.2-18.8-152.4-29.7-229.5-32.1C1455,394.3,1443.8,394.2,1432.5,394.2z"/>
					</g>
					<g class="st11">
						<path class="st4" d="M452.6,1873.9c161.9,365.2,506.3,596.4,881,634.8c20.5,2,41,3.6,61.7,4.6c56.7,2.6,113.8,0.6,170.9-5.9
							c47.4-5.5,94.7-13.9,141.6-25.8c54.5-13.6,108.6-31.9,162-54.5c17.7-7.7,35-15.6,52-24c34.9-17.1,68.2-35.9,100.5-56.1
							c157.7-99.5,281.9-235.5,366-391.9c46.2-85.8,80.4-177.8,101.3-273.1c-83.7,147.4-203.6,275.5-354.2,370.4
							c-32.1,20.4-65.6,39-100.5,56.1c-16.9,8.3-34.3,16.2-52,24c-53.2,22.8-107.3,40.9-161.9,54.7c-47.1,11.9-94.4,20.4-141.6,25.8
							c-57.1,6.6-114.4,8.5-170.9,5.9c-20.7-1-41.2-2.4-61.7-4.6c-374.7-38.2-719-269.5-881-634.8c-94.6-213-112.7-439.7-66.4-650.1
							C340.4,1208.8,311.8,1556.5,452.6,1873.9z"/>
					</g>
					<g>
						<path class="st4" d="M1443.2,2534.7c-16.4,0-32.6-0.3-48.9-1.1c-21-1-42-2.6-62.9-4.6c-394.7-40.3-738.5-288.2-897.5-646.7
							c-117.2-264.1-123.7-557.1-18.4-824.9c106.2-269.9,312.9-482.1,582.1-597.2c105.1-44.8,215.1-73,327.2-83.8
							c12.2-1.3,25-2.3,38.9-3c34.3-2.2,69.2-2.7,103.3-1.6c78.6,2.6,157.6,13.5,234.4,32.9c76.1,18.9,150.3,46.1,220.6,80.7
							c22.5,11.1,44.8,23,66,35.2c33,19.1,64.9,39.8,94.4,61.1c156.7,112.8,280.9,265.8,359.1,442c135.3,304.8,122.4,647.8-35.4,941
							l0,0c-87.4,162.6-216.4,300.7-373.1,399.5c-33.2,21-67.6,40.2-102.3,57.1c-15.8,7.7-33.2,15.8-52.8,24.3
							c-53.5,23-109.1,41.6-165,55.7c-46.9,11.9-95.4,20.8-144.4,26.4C1527.2,2532.4,1485.3,2534.7,1443.2,2534.7z M1432.5,412
							c-22.1,0-44.5,0.7-66.6,2.2c-13.3,0.7-25.4,1.7-37.2,3c-108.1,10.3-214.1,37.6-315.2,80.7c-259,110.6-457.9,314.7-560.1,574.5
							c-101.3,257.6-95,539.5,17.8,793.5c153.1,345.3,484.4,583.8,864.4,622.7c19.9,2,40.3,3.4,60.6,4.4
							c56.1,2.4,112.5,0.6,167.6-5.9c47.1-5.5,93.9-13.9,139.1-25.4c54-13.5,107.3-31.6,158.9-53.5c18.9-8.2,35.6-15.9,50.8-23.4
							c33.6-16.5,66.7-35,98.6-55.1c150.7-95,274.8-227.9,358.9-384.3c151.7-282,164.2-611.9,34-905.3
							c-75.2-169.6-194.7-316.9-345.6-425.5c-28.6-20.7-59.1-40.5-91-59c-20.4-11.8-41.8-23.2-63.6-33.9
							c-67.7-33.3-139.3-59.4-212.5-77.6c-73.9-18.5-150-29.1-225.7-31.6C1454.7,412.1,1443.7,412,1432.5,412z M2388.1,1954.9
							L2388.1,1954.9L2388.1,1954.9z"/>
					</g>
					<g>
						<path class="st4" d="M1443.2,2550.7c-16.5,0-33.2-0.4-49.7-1.1c-21.2-1-42.8-2.6-63.7-4.7
							c-400.4-40.9-749.3-292.3-910.6-656.1c-119-268.1-125.6-565.4-18.7-837.4c107.6-273.8,317.4-489.1,590.7-605.9
							c106.5-45.5,218.1-74.1,331.9-85c12.3-1.3,25.3-2.3,39.5-3.2c34.7-2.2,70-2.7,104.8-1.6c79.8,2.6,159.9,13.8,237.7,33.3
							c77.1,19.2,152.4,46.8,223.7,81.8c23,11.2,45.5,23.2,67,35.7c33.6,19.4,65.7,40.3,95.9,62.1c159,114.5,285,269.7,364.2,448.5
							c137.3,309.4,124.1,657.6-35.9,955.2l0,0c-88.8,165-219.7,305.2-378.6,405.4c-33.6,21.2-68.6,40.8-103.8,58
							c-15.9,7.9-33.6,15.9-53.4,24.7c-54.4,23.2-110.8,42.2-167.5,56.5c-47.5,12.1-96.9,21.1-146.4,26.7
							C1528.5,2548.3,1486,2550.7,1443.2,2550.7z M1432.5,428.1c-21.8,0-43.8,0.7-65.6,2c-13.2,0.7-25.1,1.7-36.5,2.9
							c-106.6,10.2-211,37-310.6,79.5c-255,109.1-450.9,310-551.5,565.7c-99.7,253.6-93.4,531,17.5,781.1
							c150.8,340,477,575,851.3,613.2c19.7,2,39.8,3.4,59.7,4.4c55.3,2.4,110.8,0.6,165-5.7c46.4-5.3,92.4-13.8,136.9-25
							c53.2-13.3,105.8-31.1,156.6-52.8c18.7-8,35-15.6,50.1-23.1c33-16.2,65.7-34.4,97.2-54.2c148.4-93.6,270.5-224.5,353.3-378.3
							c149.4-277.7,161.6-602.5,33.4-891.1c-74.1-167-191.7-312-340.3-418.9c-28.1-20.4-58.3-39.9-89.7-58.1
							c-20.1-11.6-41.2-22.8-62.6-33.3c-66.7-32.7-137.2-58.6-209.4-76.5c-72.9-18.2-147.7-28.7-222.3-31.1
							C1454.3,428.2,1443.4,428.1,1432.5,428.1z M2388.1,1954.9L2388.1,1954.9L2388.1,1954.9z"/>
					</g>
					<g>
						<path class="st4" d="M2229,2176.2c-625.9,437.1-1486.2,131.2-1538.7-618.4c-35.7-510,442.7-935.7,941.3-935.6
							c362.8,0,718,156.7,874.7,712.2c0,0,31,256.3-37.9,427.4c-68.7,171.1-165,325.8-165,325.8L2229,2176.2z"/>
					</g>
					<g>
						<path class="st12" d="M690.2,1557.6C742.8,2307.2,1603,2613.2,2229,2176l15.1-17.9c-692.2,125.1-1387.2-281.3-1454.5-1038.3
							C717.1,1251,679.3,1400.4,690.2,1557.6z"/>
					</g>
					<g>
						<path class="st4" d="M1603.4,2512.4c-265.8,0-520.2-89.3-711.1-251.7c-203.5-173.4-321.5-413.3-341.3-693.9
							c-18.1-257.7,77.1-512.3,267.8-717c211.8-227.3,517.1-362.9,816.3-362.9c0,0,0,0,0.1,0c166.3,0,316.3,29.3,445.9,87.1l2.4,1.1
							l2.2,1.6c157.6,113.5,282.4,267.2,361.1,444.5c136,306.5,123,651.4-35.6,946.3l0,0c-88,163.5-217.7,302.4-375.1,401.7
							c-33.3,21-67.9,40.3-102.9,57.4c-15.9,7.9-33.3,15.9-53,24.4c-54,23-109.6,41.9-166,56l-4,0.7
							C1674.4,2510.8,1638.9,2512.4,1603.4,2512.4z M1635.1,539.6c-285,0-575.8,129.3-777.8,346.1
							c-180.7,193.7-270.8,434.4-253.7,677.4c18.7,266.2,130.3,493.5,322.9,657.6c205.2,174.8,488.2,260.2,777.1,234.8
							c53-13.3,105.3-31.1,156-52.8c18.8-8.2,35.4-15.8,50.5-23.2c33.3-16.4,66.3-34.7,98-54.8c149.8-94.6,273.2-226.6,356.9-382.2
							c150.8-280.4,163.2-608.5,33.9-900c-74.5-167.9-192.4-313.6-341.4-421.5C1935.1,567,1793.1,539.6,1635.1,539.6
							C1635.3,539.6,1635.3,539.6,1635.1,539.6z M2388.1,1954.9L2388.1,1954.9L2388.1,1954.9z"/>
					</g>
					<g>
						<path class="st4" d="M1601.1,2403.9c-150.1,0-298.4-32-434.4-96.9c-296.1-141.4-479.3-413.9-502.7-747.4
							c-16.1-230.2,68.7-457.5,238.9-640.1c189-202.6,461.2-323.8,728.5-323.8c0,0,0,0,0.1,0c460.2,0,763,246.1,900.1,731.3l0.9,4
							c1.3,10.8,31,265.1-39.5,440.3c-68.9,171.2-163.2,323.5-167,329.8l-2.2,3l-76.6,91.4l-2.9,2
							C2048.7,2334,1823.1,2403.9,1601.1,2403.9z M1631.4,648.4c-252.9,0-510.8,114.8-689.9,307c-160.2,171.8-240.1,385-225,600.5
							c22,314.1,194.3,570.6,472.9,703.6c319.3,152.4,710.4,112.9,1021.7-103l70.9-84.5c10.2-16.5,98.6-162.3,162-320.2
							c62.3-155,38.9-388.8,36.3-412.5C2350.2,880.8,2064.7,648.5,1631.4,648.4C1631.5,648.4,1631.4,648.4,1631.4,648.4z
							 M2229,2176.2L2229,2176.2L2229,2176.2z"/>
					</g>
					<g>
						<path class="st8" d="M212.8,1513c-10.9,209,105.1,391.2,259,406.9c154,15.8,287.7-140.9,298.6-349.9c0.1-1.3,0.1-2.7,0.1-4
							c9.3-207.2-106.2-387.3-259.2-402.8c-119-12.2-225.7,78.5-273.2,216.7C224.1,1420.7,215.4,1465.5,212.8,1513z"/>
					</g>
					<g class="st11">
						<path class="st4" d="M212.8,1513c-10.9,209,105.1,391.2,259,406.9c154,15.8,287.7-140.9,298.6-349.9c0.1-1.3,0.1-2.7,0.1-4
							c-18.1,19.7-45.5,38.2-80.8,27.4c-61.9-18.9-167-164.8-167-164.8s-123.3-22-284.6-48.8C224.1,1420.7,215.4,1465.5,212.8,1513z
							"/>
					</g>
					<g>
						<path class="st4" d="M493.5,1957.6c-8.5,0-16.9-0.4-25.4-1.3c-172.8-17.7-303.7-217.3-291.8-445l36.5,1.9l-36.5-1.9
							c6.9-131.2,58.6-247.3,141.8-318.6c58.6-50.1,126.6-72.8,196.9-65.6c172.8,17.7,303.7,217.3,291.8,445
							c-6.9,131.2-58.6,247.3-141.8,318.6C613.6,1934.6,554.8,1957.6,493.5,1957.6z M490.2,1198.6c-43.9,0-86.5,16.9-124.6,49.4
							c-67.2,57.5-110.6,157.3-116.4,267.1c-9.9,189.6,91.6,354.9,226.3,368.7c49.9,5.2,99.2-11.6,142.1-48.5
							c67.2-57.5,110.6-157.3,116.4-267.1c9.9-189.6-91.6-354.9-226.3-368.7C501.8,1198.9,495.9,1198.6,490.2,1198.6z"/>
					</g>
					<g>
						
							<ellipse transform="matrix(0.999 -4.369134e-02 4.369134e-02 0.999 -68.121 18.969)" class="st8" cx="399.9" cy="1567.9" rx="227.7" ry="301.2"/>
						<path class="st4" d="M405.5,1872.2c-26.3,0-52.7-6-78.4-18.2c-67.2-31.7-119.7-100.6-143.8-189
							c-43.5-158.6,18.2-331.2,137.5-384.8c49.5-22.2,102.2-21.7,152.1,2c67.2,31.7,119.7,100.6,143.8,189
							c43.5,158.6-18.2,331.2-137.5,384.8C455.2,1866.8,430.3,1872.2,405.5,1872.2z M188.5,1663.7c23.8,86.8,75.2,154.4,140.9,185.4
							c48.5,22.8,99.5,23.5,147.5,1.9c116.8-52.5,177.1-222.2,134.3-378.3c-23.8-86.8-75.2-154.4-140.9-185.4
							c-48.5-22.8-99.5-23.5-147.5-1.9C206.2,1337.9,145.9,1507.6,188.5,1663.7L188.5,1663.7z"/>
					</g>
					<g class="st11">
						<path class="st4" d="M608.2,1707.6c16.9-54.4,18.8-113.8,8.2-170.2c-49.4,120.8-165.6,164.9-269.7,97.4
							c-67.2-43.6-113.7-123.7-130-211c-3.2,7.6-6,15.6-8.6,23.8c-43.2,138.6,11.5,309.3,121.8,381
							C440.5,1900.5,565,1846.1,608.2,1707.6z"/>
					</g>
					<g>
						<path class="st4" d="M400.5,1906.1c-6.7,0-13.5-0.4-20.2-1.1c-137.1-15.1-237.2-177.4-227.9-369.7
							c5.5-111.7,49.1-212.8,116.7-270.5c44.6-38,96.2-55.1,149-49.2c137.1,15.1,237.2,177.5,227.9,369.7
							c-5.5,111.7-49.1,212.8-116.7,270.5C490.5,1889,446.3,1906.1,400.5,1906.1z M188.8,1537.1l36.5,1.7
							c-7.2,148.7,67.5,283.3,163,293.8c40.9,4.6,73.6-15.1,93.7-32.3c52.7-44.9,86.7-126.7,91.1-218.7
							c7.2-148.7-67.5-283.3-163-293.8c-40.9-4.6-73.6,15.1-93.7,32.3c-52.7,44.9-86.7,126.7-91.1,218.7L188.8,1537.1z"/>
					</g>
					<g class="st13">
						<path class="st8" d="M1369.2,826.7c0,0,473.7-6.5,735.5,262.5c0.3,0.3,0.6,0.6,0.9,0.9c55.1,56.7,93.7,163.2,112.2,239.4
							c24.7,100.7,26.7,173.6,26,237.9c-2.3,195.3-40.5,286.3-40.5,286.3c113.8-101.3,178.7-217.6,182.3-380.2
							c0.3-16.1,0-32.6-0.9-49.5c-0.1-3.9-0.4-7.7-0.7-11.6c0.1,0,0-0.1,0-0.3c-4.2-34.3-11.3-79.2-23.7-129.2
							c-37.2-150.8-121.4-348-311.1-442C1694.1,665,1353.1,806.1,1369.2,826.7z"/>
					</g>
					<g class="st13">
						
							<ellipse transform="matrix(0.2816 -0.9595 0.9595 0.2816 -522.0204 1899.5165)" class="st8" cx="1007.5" cy="1298.4" rx="165.2" ry="143.8"/>
					</g>
					<g class="st13">
						
							<ellipse transform="matrix(0.3695 -0.9292 0.9292 0.3695 -891.2531 1860.4672)" class="st8" cx="925.4" cy="1587" rx="68.3" ry="59.4"/>
					</g>
				</g>
				<g>
					<g>
						<path class="st2" d="M950.9,2562.1c0,0,342.7-209.1,679.1-209.2c381.5-0.1,428,362.8,221.2,460.5
							c-194,91.7-649.1,37.2-649.1,37.2"/>
					</g>
					<g>
						<path class="st4" d="M1488.3,2903.1c-150.3,0-280.6-15.2-290.6-16.4c-19.9-2.4-34.3-20.5-31.9-40.5
							c2.4-19.9,20.5-34.3,40.5-31.9c4.4,0.6,446.9,52.1,629.2-34c76.6-36.2,115.2-118.5,95.9-204.6
							c-20.2-90.1-109.9-186.4-301.1-186.4c-0.1,0-0.1,0-0.3,0c-321.9,0.1-656.9,201.9-660.2,203.9c-17.2,10.5-39.6,5-50.1-12.2
							c-10.5-17.2-5-39.6,12.1-50.1c14.4-8.8,355.3-214.4,698-214.7c0.1,0,0.3,0,0.4,0c234.1,0,345.7,125.7,372.3,243.4
							c26.5,118.4-29.3,236.2-135.8,286.6C1771.9,2891,1622.2,2903.1,1488.3,2903.1z"/>
					</g>
				</g>
			</g>
		</g>
	</g>
</g>
</svg>
