<?xml version="1.0" encoding="utf-8"?>
<!-- Generator: Adobe Illustrator 27.3.1, SVG Export Plug-In . SVG Version: 6.00 Build 0)  -->
<svg version="1.1" id="Layer_1" xmlns="http://www.w3.org/2000/svg" xmlns:xlink="http://www.w3.org/1999/xlink" x="0px" y="0px"
	 viewBox="0 0 3041.2 3141.6" style="enable-background:new 0 0 3041.2 3141.6;" xml:space="preserve">
<style type="text/css">
	.st0{opacity:0.2;fill:#371A45;enable-background:new    ;}
	.st1{fill:#F9F9F9;}
	.st2{opacity:0.2;}
	.st3{fill:#371A45;}
	.st4{fill:#CCCCCC;}
	.st5{fill:#22A7F0;}
	.st6{opacity:0.7;}
	.st7{fill:#FFFFFF;}
	.st8{fill:#1C7AEA;}
	.st9{fill:#080056;}
	.st10{opacity:0.15;}
	.st11{fill:#220F2D;}
	.st12{opacity:0.75;}
	.st13{clip-path:url(#SVGID_00000176031984036583758480000010584509263362251433_);}
	.st14{enable-background:new    ;}
	.st15{fill:#FFD833;}
	.st16{fill:#FCFCFC;}
	.st17{clip-path:url(#SVGID_00000119099283787115116060000001113738386877419702_);}
	.st18{clip-path:url(#SVGID_00000142857011089699777820000017831775467300206008_);}
	.st19{fill:#FFD243;}
	.st20{fill:#FCAC38;}
	.st21{opacity:0.6;}
	.st22{opacity:0.5;}
	.st23{fill:#E6A75C;}
	.st24{clip-path:url(#SVGID_00000069385668225795314410000001141963790107470243_);}
	.st25{filter:url(#Adobe_OpacityMaskFilter);}
	.st26{clip-path:url(#SVGID_00000070114076587320346090000004074530303933816216_);}
	.st27{clip-path:url(#SVGID_00000176038549308679921400000010125724560876970885_);}
	
		.st28{clip-path:url(#SVGID_00000066509098707180850720000013633459379764785280_);fill:url(#SVGID_00000101794452951730029030000012310239722374088095_);}
	
		.st29{clip-path:url(#SVGID_00000070114076587320346090000004074530303933816216_);mask:url(#SVGID_00000175304689106185690410000008085299881401372593_);fill:url(#SVGID_00000014622415786849567020000010538575463421034393_);}
	.st30{fill:url(#SVGID_00000178893630164853025760000007182065772439759266_);}
	.st31{fill:#DB2C2C;}
</style>
<g>
	<ellipse class="st0" cx="1564.2" cy="3035.4" rx="1477" ry="106.2"/>
	<g>
		<g>
			<g>
				<path class="st1" d="M1928.1,2668.5c4.7,23.7,7.2,50.3,7.2,79.7c0,215-98.4,262.5-181.5,262.5h-590.4
					c-233.9,0-509.4,14-569.9-307.9c-34.7-184.7,94.3-516,163.7-675.7c24.4-56.1,41.4-91,41.4-91
					c812.6-82.4,1198.2,387.5,1198.2,387.5h-421.3c8.6,17.8,16,36,22.2,54.1c23.6,68,31.9,133.8,34.7,168.7
					c1.3,16.2,1.4,25.8,1.4,25.8c38.9-36.2,81-60.1,145.8-60.1C1843.6,2511.9,1907.1,2561.6,1928.1,2668.5z"/>
			</g>
			<g class="st2">
				<path class="st3" d="M1632.4,2546.3h-443.8c-185.4-79.1-355.6-19.9-355.6-19.9v-209.7h650.5l114.1,60.9
					C1621.4,2445.7,1629.6,2511.5,1632.4,2546.3z"/>
			</g>
			<g class="st2">
				<path class="st3" d="M1935.3,2748.2c0,215-98.4,262.5-181.5,262.5h-590.4c-233.9,0-509.4,14-569.9-307.9
					c-34.7-184.7,94.3-516,163.7-675.7l65.9-11.4c0,0-225.7,471.2-146,681.5c79.6,210.3,541.9,117.4,541.9,117.4s38.4,83,118.3,83
					s110.2-79.7,118.3-172.6c0,0,21.8,69.6,73.6,77.1c48.4,7,95.8,20.4,138.2,44.8c35.1,20.2,80.9,37.5,134.9,37.5
					c82.6,0,121.9-108.1,125.8-215.8C1932.8,2692.2,1935.3,2718.8,1935.3,2748.2z"/>
			</g>
			<g>
				<path class="st3" d="M1107.6,3036.2c-219.6,0-479.6-12.2-539.1-328.7c-47.9-254.9,196.8-761.1,207.3-782.6l6.2-12.7l14.1-1.4
					c426.2-43.2,734.7,66.3,918.5,165.8c200.1,108.3,297.9,225.9,302,230.9l34.1,41.5h-436.3c25.6,65.4,36.6,130.5,41.4,173.4
					c37.6-24.8,76.7-35.8,124-35.8c90.1,0,181,80.9,181,261.6c0,250.5-129.6,287.9-206.9,287.9h-590.4c-9.3,0-18.7,0-28.1,0
					C1126.1,3036.2,1116.9,3036.2,1107.6,3036.2z M815.4,1959.9c-37.8,80.5-237.8,521-197,738.2c54.2,288.3,289.4,287.8,516.7,287.2
					c9.5,0,18.9,0,28.2,0h590.4c103.6,0,156.1-79.8,156.1-237.1c0-145.6-65.4-210.8-130.2-210.8c-50.6,0-87.8,15.4-128.5,53.3
					l-41.8,38.9l-0.9-57.1c0-1.3-2.8-128.1-55.8-237.8l-17.6-36.5h402.2c-45-43-128-112.9-249.2-178.2
					C1512.9,2025.7,1220,1922,815.4,1959.9z"/>
			</g>
			<g>
				<ellipse class="st4" cx="1817" cy="2766.8" rx="118.3" ry="206.6"/>
			</g>
			<g>
				<path class="st3" d="M1817,2994.1c-77.9,0-139-99.8-139-227.3s61-227.3,139-227.3c77.9,0,139,99.8,139,227.3
					S1894.9,2994.1,1817,2994.1z M1817,2580.8c-52.9,0-97.6,85.2-97.6,186s44.7,186,97.6,186s97.6-85.2,97.6-186
					S1869.9,2580.8,1817,2580.8z"/>
			</g>
			<g>
				<path class="st3" d="M1928.4,2718.1h-222.9c-11.4,0-20.7-9.2-20.7-20.7s9.2-20.7,20.7-20.7h222.9c11.4,0,20.7,9.2,20.7,20.7
					S1939.8,2718.1,1928.4,2718.1z"/>
			</g>
			<g>
				<path class="st3" d="M1927,2863.5h-220c-11.4,0-20.7-9.2-20.7-20.7s9.2-20.7,20.7-20.7h220c11.4,0,20.7,9.2,20.7,20.7
					S1938.4,2863.5,1927,2863.5z"/>
			</g>
			<g>
				<path class="st3" d="M1650.5,2584.3c-1.1,1.5-2.8,4-4.1,6.2c-1.4,2.3-2.8,4.6-4.2,7c-2.7,4.7-5.3,9.6-7.8,14.5
					c-4.9,9.9-9.1,20.1-12.6,30.5c-1.8,5.2-3.3,10.4-4.4,15.8c-0.8,5.4-1.4,10.8-2.3,16.1c-2.9,10.5-6.6,20.3-18.1,31.7l-0.3,0.3
					c-3.7,3.7-9.7,3.6-13.3-0.1c-0.1-0.1-0.1-0.1-0.2-0.2c-2.9-3.1-5-6.3-6.6-9.6c-1.8-3.3-3-6.6-3.8-9.9c-0.8-3.3-1.3-6.7-1.6-10
					c-0.1-3.3,0.1-6.6,0.5-9.9c0.7-6.6,3.3-12.6,5.1-18.9c2.2-6.1,3.7-12.4,5.9-18.5c4.1-12.2,9-24.1,14.6-35.6
					c2.9-5.7,5.8-11.4,9.1-17c1.6-2.8,3.3-5.6,5-8.3c1.8-2.9,3.4-5.3,5.8-8.6c6.6-9.3,19.5-11.5,28.8-4.8
					c9.3,6.6,11.4,19.4,4.9,28.7L1650.5,2584.3z"/>
			</g>
			<g>
				<g>
					<path class="st1" d="M1578.3,2659h-294c-36.1,0-65.3-29.2-65.3-65.3v-134.6c0-36.1,29.2-65.3,65.3-65.3h294
						c36.1,0,65.3,29.2,65.3,65.3v134.6C1643.6,2629.7,1614.4,2659,1578.3,2659z"/>
				</g>
				<g class="st2">
					<path class="st3" d="M1643.1,2601.2c-3.7,32.6-31.3,57.8-64.8,57.8h-294c-36.1,0-65.3-29.2-65.3-65.3v-134.6
						c0-36,29.2-65.3,65.3-65.3h23.2c-0.3,2.4-0.5,5-0.5,7.5v134.6c0,36,29.2,65.3,65.3,65.3H1643.1z"/>
				</g>
				<g>
					<path class="st3" d="M1578.3,2679.6h-294c-47.4,0-85.9-38.5-85.9-85.9v-134.6c0-47.4,38.5-85.9,85.9-85.9h294
						c47.4,0,85.9,38.5,85.9,85.9v134.6C1664.2,2641.1,1625.7,2679.6,1578.3,2679.6z M1284.3,2414.5c-24.6,0-44.6,20-44.6,44.6
						v134.6c0,24.6,20,44.6,44.6,44.6h294c24.6,0,44.6-20,44.6-44.6v-134.6c0-24.6-20-44.6-44.6-44.6H1284.3z"/>
				</g>
				<g>
					<path class="st3" d="M1570.5,2671.6c-7,0-12.6-5.7-12.6-12.6v-88.2c0-11.8-6.2-22.9-16.2-29l-6.7-4.1
						c-17.5-10.7-28.3-30.1-28.3-50.6v-93.3c0-7,5.7-12.6,12.6-12.6c7,0,12.6,5.7,12.6,12.6v93.3c0,11.7,6.2,22.9,16.2,29l6.6,4.1
						c17.5,10.7,28.3,30.1,28.3,50.6v88.2C1583.2,2666,1577.5,2671.6,1570.5,2671.6z"/>
				</g>
			</g>
			<g>
				<g>
					<path class="st5" d="M1344.5,2528.2c0.8,28.8,20.4,51.5,43.8,50.9l39.5-1.1l-3-104.1l-39.5,1.1
						C1361.9,2475.6,1343.7,2499.4,1344.5,2528.2z"/>
				</g>
				<g class="st6">
					<path class="st7" d="M1346.6,2510c7.4-10.5,18.3-17.2,30.6-17.6l39.4-1.1l2.5,86.9l8.6-0.2l-3-104.1l-39.5,1.1
						C1367.1,2475.4,1352,2490,1346.6,2510z"/>
				</g>
				<g>
					<path class="st8" d="M1344.5,2528.2c0.8,28.8,20.4,51.5,43.8,50.8l39.5-1.1l-3-104.1l-21.2,0.6l1.5,51.1l-39.4,1.1
						c-7.5,0.2-14.6-2-20.8-6C1344.5,2523,1344.4,2525.6,1344.5,2528.2z"/>
				</g>
				<g>
					<path class="st3" d="M1387.3,2589.5c-28.5,0-52.2-27.1-53.2-61l0,0c-1-34.5,21.9-63.2,50.9-64l39.5-1.1
						c5.8-0.2,10.6,4.4,10.7,10.1l3,104.1c0.2,5.8-4.4,10.6-10.1,10.7l-39.5,1.1C1388.1,2589.5,1387.7,2589.5,1387.3,2589.5z
						 M1354.9,2527.9c0.7,22.9,15.4,41.2,33,40.7l29-0.8l-2.4-83.3l-29,0.8C1368,2485.8,1354.3,2504.9,1354.9,2527.9L1354.9,2527.9z
						"/>
				</g>
				<g>
					
						<ellipse transform="matrix(0.9996 -2.865708e-02 2.865708e-02 0.9996 -71.797 41.9114)" class="st5" cx="1426.3" cy="2525.8" rx="42.3" ry="52.1"/>
				</g>
				<g class="st6">
					<path class="st7" d="M1384,2527.1c0.1,3.1,0.4,6.2,0.9,9.2c2.8-24.4,19.5-43.4,40.4-44c20.8-0.6,38.6,17.4,42.8,41.6
						c0.3-3,0.5-6.1,0.4-9.2c-0.8-28.7-20.4-51.5-43.7-50.8C1401.4,2474.5,1383.2,2498.3,1384,2527.1z"/>
				</g>
				<g>
					<path class="st8" d="M1384,2527.1c0.8,28.8,20.4,51.5,43.7,50.9c23.3-0.7,41.5-24.5,40.7-53.3c-0.1-1.8-0.2-3.5-0.4-5.1
						c-6.4,17.1-20.3,29.1-36.8,29.6c-21.9,0.6-40.5-19.4-43.4-45.7C1385.2,2510.5,1383.8,2518.6,1384,2527.1z"/>
				</g>
				<g>
					<path class="st3" d="M1426.8,2588.4c-28.5,0-52.2-27.1-53.2-61l0,0c-1-34.5,21.8-63.2,50.9-64c14.6-0.5,28.2,6,38.5,18
						c9.8,11.4,15.5,26.7,15.9,43c0.5,16.3-4.3,31.9-13.5,43.8c-9.6,12.6-22.9,19.8-37.4,20.2
						C1427.6,2588.4,1427.2,2588.4,1426.8,2588.4z M1394.4,2526.8c0.7,23,15.5,41,33,40.7c8.1-0.2,15.7-4.5,21.4-12
						c6.2-8.2,9.5-19,9.2-30.5s-4.2-22.2-10.9-30c-6.2-7.2-14.1-11-22.1-10.8C1407.5,2484.7,1393.8,2503.8,1394.4,2526.8
						L1394.4,2526.8z"/>
				</g>
			</g>
			<g>
				<g>
					<path class="st1" d="M1455.6,2766.8c0,203.4-105.4,243.9-292.2,243.9l-108.4-177l-194.1-317.2c0,0,198.7-43.7,312.1,43.8
						c0,0,46.2-49.5,117.6-54.7c74.2-5.5,155.3,51,164.2,228.2v0.1C1455.3,2744.3,1455.6,2755.3,1455.6,2766.8z"/>
				</g>
				<g class="st2">
					<path class="st9" d="M1455.6,2766.8c0,203.4-105.4,243.9-292.2,243.9l-108.4-177c92-4.6,164-19.1,164-19.1s38.4,83,118.3,83
						c77.4,0,108.2-74.8,117.5-163.9C1455.3,2744.3,1455.6,2755.3,1455.6,2766.8z"/>
				</g>
				<g>
					<ellipse class="st4" cx="1337.3" cy="2766.8" rx="118.3" ry="206.6"/>
				</g>
				<g>
					<path class="st3" d="M1337.3,2994.1c-77.9,0-139-99.8-139-227.3s61-227.3,139-227.3c77.9,0,139,99.8,139,227.3
						S1415.2,2994.1,1337.3,2994.1z M1337.3,2580.8c-52.9,0-97.6,85.2-97.6,186s44.7,186,97.6,186s97.6-85.2,97.6-186
						S1390.2,2580.8,1337.3,2580.8z"/>
				</g>
				<g>
					<path class="st3" d="M1163.4,3031.4c-11.4,0-20.7-9.2-20.7-20.7s9.2-20.7,20.7-20.7c180.1,0,271.6-34.5,271.6-223.2
						c0-127-34.4-185.7-63.3-212.5c-28.1-26.1-58.8-29.8-79.6-28.2c-62,4.6-103.7,47.8-104.1,48.3c-7.3,7.7-19.3,8.7-27.6,2.2
						c-104.3-80.5-293.2-40.3-295.1-39.9c-11.1,2.4-22.2-4.6-24.6-15.7c-2.4-11.1,4.6-22.1,15.7-24.6c8.2-1.8,194.2-41.5,314.9,37.5
						c20.2-16.7,61.9-44.7,117.7-48.8c41.5-3.1,79.9,10.5,110.7,39.2c34.9,32.4,76.5,100.8,76.5,242.7
						C1476.2,2987.1,1356.5,3031.4,1163.4,3031.4z"/>
				</g>
				<g>
					<path class="st3" d="M1288.1,2718.2c-23.3,0-44.8,0-62.3-0.1c-11.4-0.1-20.6-9.4-20.5-20.8c0.1-11.4,9.3-20.5,20.6-20.5h0.1
						c56.1,0.3,152,0,222.6-0.3h0.1c11.4,0,20.6,9.2,20.6,20.6c0,11.4-9.2,20.7-20.6,20.7
						C1400.1,2718.1,1339.5,2718.2,1288.1,2718.2z"/>
				</g>
				<g>
					<path class="st3" d="M1282,2863.5c-20.2,0-39,0-54.8-0.1c-11.4-0.1-20.6-9.3-20.6-20.7c0.1-11.4,9.3-20.6,20.6-20.6h0.1
						c60.4,0.3,163.7-0.1,219.9-0.3l0.1,41.3C1405.9,2863.3,1338.7,2863.5,1282,2863.5z"/>
				</g>
				<g>
					<path class="st3" d="M1185.6,2576.5c-0.1,0.3-0.9,1.1-1.4,1.8l-1.9,2.2c-1.3,1.4-2.6,3.1-3.9,4.6c-2.7,3.1-5.3,6.3-8,9.6
						c-5.2,6.6-10.5,13.2-15.5,20.2c-10,13.8-19.8,28.2-28.7,43.5c-4,7.8-8.8,15.4-12.4,23.6c-1.9,4-4,8-5.9,12.1l-5.4,12.4
						c-4,8.2-6.6,16.9-10.4,25.5c-3.2,8.6-6.1,17.4-9.6,26.3l-0.1,0.2c-0.6,1.5-2.3,2.3-3.9,1.7c-1.1-0.4-1.8-1.5-1.9-2.7
						c-0.4-9.5-0.8-19.1-0.4-28.7c0.2-4.8,0.6-9.6,1-14.4c0.3-4.8,0.7-9.6,1.6-14.4l2.3-14.4c0.8-4.8,2-9.5,3.1-14.3
						c2.1-9.5,5-18.9,8.1-28.3c6.6-18.5,14.7-36.9,25.7-53.7c2.7-4.2,5.6-8.4,8.7-12.3c1.5-2,3-4.1,4.6-6l5-5.7
						c3.3-3.9,7-7.4,10.8-11c1.9-1.8,3.9-3.5,6-5.2c1.1-0.9,2-1.6,3.2-2.5s2.1-1.6,3.9-2.7c8.6-5.8,20.2-3.5,26,5
						c3.1,4.6,3.9,10.1,2.6,15.2L1185.6,2576.5z"/>
				</g>
			</g>
			<g>
				<g>
					<path class="st7" d="M1808.9,1738.4c-58.6,108.9-145.1,203.7-255,273.1c-22.4,14.1-45.7,27.2-70,39.1
						c-11.8,5.8-23.9,11.3-36.2,16.7c-37.1,15.9-74.8,28.5-112.8,38c-32.7,8.3-65.8,14.2-98.7,18c-39.8,4.6-79.6,5.9-119.1,4.1
						c-14.4-0.7-28.7-1.7-43-3.2C813,2097.6,573,1936.5,460.2,1682c-166.3-374.8,6.3-810,385.3-972.1c73-31.2,148.4-50.1,223.7-57.3
						c8.8-0.9,17.6-1.6,26.5-2.1c23.7-1.5,47.3-1.9,70.8-1.1c54.3,1.7,108.1,9.4,160.2,22.4s102.8,31.6,150.9,55.2
						c15.3,7.5,30.4,15.5,45.2,24c22.2,12.8,43.7,26.7,64.6,41.8c104.1,75,190.1,177.4,245.5,302.3
						C1928.7,1310.8,1912.2,1546.3,1808.9,1738.4z"/>
					<path class="st3" d="M1150.5,2130.1c-11.2,0-22.4-0.2-33.6-0.7c-14.4-0.7-28.9-1.7-43.1-3.2
						c-270.6-27.6-506.4-197.5-615.4-443.4c-80.3-181-84.8-381.8-12.6-565.3c72.7-185,214.4-330.3,398.9-409.2
						c72-30.7,147.5-50.1,224.3-57.4c8.4-0.9,17.1-1.6,26.6-2.1c23.6-1.5,47.5-1.9,71-1.1c54,1.7,108,9.3,160.6,22.5
						c52.2,13,103.1,31.6,151.3,55.3c15.5,7.6,30.7,15.7,45.3,24.1c22.7,13.1,44.4,27.2,64.8,41.9c107.4,77.4,192.5,182.2,246.1,303
						c92.7,208.9,83.9,443.9-24.2,644.9c-59.9,111.4-148.3,206.1-255.7,273.8c-22.7,14.3-46.3,27.5-70.1,39.2
						c-10.9,5.4-22.7,10.8-36.2,16.7c-36.7,15.7-74.7,28.5-113.1,38.1c-32.2,8.2-65.5,14.2-99,18.1
						C1208.1,2128.4,1179.4,2130.1,1150.5,2130.1z M1143,650.9c-15.7,0-31.5,0.5-47.1,1.5c-9.4,0.5-18.1,1.2-26.4,2.1
						c-76.5,7.4-151.6,26.6-223.2,57.2c-183.6,78.5-324.6,223.1-396.9,407.2c-71.8,182.6-67.3,382.4,12.6,562.4
						c108.5,244.6,343.1,413.7,612.4,441.2c14.2,1.4,28.6,2.5,42.9,3.2c39.8,1.7,79.7,0.4,118.8-4.1c33.3-3.8,66.5-9.9,98.5-18
						c38.2-9.6,76.1-22.4,112.5-37.9c13.5-5.8,25.3-11.3,36.1-16.6c23.7-11.6,47.2-24.8,69.8-39c106.8-67.4,194.8-161.6,254.4-272.4
						l0,0c107.6-199.9,116.3-433.8,24.1-641.6c-53.3-120.2-138-224.5-244.9-301.5c-20.2-14.7-41.9-28.7-64.5-41.7
						c-14.5-8.4-29.6-16.4-45.1-24c-48-23.6-98.7-42.1-150.6-55c-52.4-13.1-106.2-20.7-159.9-22.4
						C1158.7,651,1150.9,650.9,1143,650.9z"/>
				</g>
				<g class="st10">
					<path class="st3" d="M460.2,1682c112.8,254.5,352.8,415.6,613.9,442.3c14.3,1.4,28.6,2.5,43,3.2c39.5,1.8,79.3,0.4,119.1-4.1
						c33-3.8,66-9.7,98.7-18c38-9.5,75.7-22.2,112.9-38c12.3-5.4,24.4-10.9,36.2-16.7c24.3-11.9,47.5-25,70-39.1
						c109.9-69.3,196.4-164.1,255-273.1c32.2-59.8,56-123.9,70.6-190.3c-58.3,102.7-141.9,192-246.8,258.1
						c-22.4,14.2-45.7,27.2-70,39.1c-11.8,5.8-23.9,11.3-36.2,16.7c-37.1,15.9-74.8,28.5-112.8,38.1c-32.8,8.3-65.8,14.2-98.7,18
						c-39.8,4.6-79.7,5.9-119.1,4.1c-14.4-0.7-28.7-1.7-43-3.2c-261.1-26.6-501-187.8-613.9-442.3c-65.9-148.4-78.5-306.4-46.3-453
						C382,1218.5,362.1,1460.8,460.2,1682z"/>
				</g>
				<g>
					<path class="st3" d="M1150.5,2142.4c-11.4,0-22.7-0.2-34.1-0.8c-14.6-0.7-29.3-1.8-43.8-3.2c-275-28.1-514.6-200.8-625.4-450.6
						c-81.7-184-86.2-388.2-12.8-574.8c74-188.1,218-335.9,405.6-416.1c73.2-31.2,149.9-50.9,228-58.4c8.5-0.9,17.4-1.6,27.1-2.1
						c23.9-1.5,48.2-1.9,72-1.1c54.8,1.8,109.8,9.4,163.3,22.9c53,13.2,104.7,32.1,153.7,56.2c15.7,7.7,31.2,16,46,24.5
						c23,13.3,45.2,27.7,65.8,42.6c109.2,78.6,195.7,185.2,250.2,308c94.3,212.4,85.3,451.4-24.7,655.7l0,0
						c-60.9,113.3-150.8,209.5-260,278.4c-23.1,14.6-47.1,28-71.3,39.8c-11,5.4-23.1,11-36.8,16.9c-37.3,16-76,29-115,38.8
						c-32.7,8.3-66.5,14.5-100.6,18.4C1209,2140.8,1179.8,2142.4,1150.5,2142.4z M1143,663.3c-15.4,0-31,0.5-46.4,1.5
						c-9.3,0.5-17.7,1.2-25.9,2.1c-75.3,7.2-149.2,26.2-219.6,56.2C670.6,800.2,532,942.4,460.8,1123.4
						c-70.6,179.5-66.2,375.9,12.4,552.9c106.7,240.6,337.5,406.8,602.3,433.9c13.9,1.4,28.1,2.4,42.2,3.1
						c39.1,1.7,78.4,0.4,116.8-4.1c32.8-3.8,65.4-9.7,96.9-17.7c37.6-9.4,74.8-22,110.7-37.3c13.2-5.7,24.8-11.1,35.4-16.3
						c23.4-11.5,46.5-24.4,68.7-38.4c105-66.2,191.5-158.8,250.1-267.8c105.7-196.5,114.4-426.4,23.7-630.8
						c-52.4-118.2-135.7-220.8-240.8-296.5c-19.9-14.4-41.2-28.2-63.4-41.1c-14.2-8.2-29.1-16.2-44.3-23.6
						c-47.2-23.2-97.1-41.4-148.1-54.1c-51.5-12.9-104.5-20.3-157.3-22C1158.5,663.4,1150.8,663.3,1143,663.3z M1808.9,1738.4
						L1808.9,1738.4L1808.9,1738.4z"/>
				</g>
				<g>
					<path class="st3" d="M1150.5,2153.6c-11.5,0-23.1-0.3-34.6-0.8c-14.8-0.7-29.8-1.8-44.4-3.3c-279-28.5-522.1-203.7-634.5-457.2
						c-82.9-186.8-87.5-394-13-583.5C499,918,645.2,768,835.6,686.6c74.2-31.7,152-51.6,231.3-59.2c8.6-0.9,17.6-1.6,27.5-2.2
						c24.2-1.5,48.8-1.9,73-1.1c55.6,1.8,111.4,9.6,165.6,23.2c53.7,13.4,106.2,32.6,155.9,57c16,7.8,31.7,16.2,46.7,24.9
						c23.4,13.5,45.8,28.1,66.8,43.3c110.8,79.8,198.6,187.9,253.8,312.5c95.7,215.6,86.5,458.2-25,665.6l0,0
						c-61.9,115-153.1,212.7-263.8,282.5c-23.4,14.8-47.8,28.4-72.3,40.4c-11.1,5.5-23.4,11.1-37.2,17.2
						c-37.9,16.2-77.2,29.4-116.7,39.4c-33.1,8.4-67.5,14.7-102,18.6C1209.9,2151.9,1180.3,2153.6,1150.5,2153.6z M1143,674.5
						c-15.2,0-30.5,0.5-45.7,1.4c-9.2,0.5-17.5,1.2-25.4,2c-74.3,7.1-147,25.8-216.4,55.4c-177.7,76-314.2,216-384.3,394.2
						c-69.5,176.7-65.1,370,12.2,544.3c105.1,236.9,332.4,400.7,593.2,427.3c13.7,1.4,27.7,2.4,41.6,3.1c38.5,1.7,77.2,0.4,115-4
						c32.3-3.7,64.4-9.6,95.4-17.4c37.1-9.3,73.7-21.7,109.1-36.8c13-5.6,24.4-10.9,34.9-16.1c23-11.3,45.8-24,67.7-37.8
						c103.4-65.2,188.5-156.4,246.2-263.6c104.1-193.5,112.6-419.8,23.3-620.9c-51.6-116.4-133.6-217.4-237.1-291.9
						c-19.6-14.2-40.6-27.8-62.5-40.5c-14-8.1-28.7-15.9-43.6-23.2c-46.5-22.8-95.6-40.8-145.9-53.3c-50.8-12.7-102.9-20-154.9-21.7
						C1158.2,674.6,1150.6,674.5,1143,674.5z M1808.9,1738.4L1808.9,1738.4L1808.9,1738.4z"/>
				</g>
				<g>
					<path class="st3" d="M1698,1892.6c-436.1,304.6-1035.6,91.4-1072.2-430.9c-24.9-355.4,308.5-652,655.9-651.9
						c252.8,0,500.3,109.2,609.5,496.3c0,0,21.6,178.6-26.4,297.8c-47.9,119.2-115,227-115,227L1698,1892.6z"/>
				</g>
				<g>
					<path class="st11" d="M625.8,1461.6c36.6,522.3,636,735.5,1072.2,430.9l10.5-12.5c-482.3,87.2-966.6-196-1013.5-723.5
						C644.5,1247.9,618.2,1352,625.8,1461.6z"/>
				</g>
				<g class="st12">
					<g>
						<defs>
							<path id="SVGID_1_" d="M1698,1892.6c-436.1,304.6-1035.6,91.4-1072.2-430.9c-24.9-355.4,308.5-652,655.9-651.9
								c252.8,0,500.3,109.2,609.5,496.3c0,0,21.6,178.6-26.4,297.8c-47.9,119.2-115,227-115,227L1698,1892.6z"/>
						</defs>
						<clipPath id="SVGID_00000124872198440546604790000016220433898187443338_">
							<use xlink:href="#SVGID_1_"  style="overflow:visible;"/>
						</clipPath>
						<g style="clip-path:url(#SVGID_00000124872198440546604790000016220433898187443338_);">
							<g class="st14">
								<circle class="st7" cx="1271.1" cy="1599.9" r="6.6"/>
							</g>
							<g class="st14">
								<path class="st7" d="M851.8,1345.2c0,3.6-2.9,6.6-6.6,6.6s-6.6-2.9-6.6-6.6c0-3.6,2.9-6.6,6.6-6.6
									S851.8,1341.6,851.8,1345.2z"/>
							</g>
							<g class="st14">
								<circle class="st7" cx="1551.2" cy="1873.7" r="6.6"/>
							</g>
							<g class="st14">
								<circle class="st7" cx="1253.7" cy="1965.5" r="6.6"/>
							</g>
							<g class="st14">
								<circle class="st7" cx="1236.1" cy="2230.8" r="6.6"/>
							</g>
							<g class="st14">
								<ellipse class="st7" cx="1409.9" cy="1728.1" rx="11.3" ry="11.3"/>
							</g>
							<g>
								
									<ellipse transform="matrix(0.9239 -0.3827 0.3827 0.9239 -641.6804 534.6522)" class="st15" cx="1023.1" cy="1880.3" rx="11.3" ry="11.3"/>
							</g>
							<g class="st14">
								<ellipse class="st7" cx="1073.8" cy="1657.6" rx="16" ry="16"/>
							</g>
							<g>
								<circle class="st15" cx="1146.4" cy="1394.4" r="13.3"/>
							</g>
							<g class="st14">
								<circle class="st7" cx="1771.4" cy="1746.1" r="6.6"/>
							</g>
							<g>
								<path class="st15" d="M1680.6,1978.6c0,3.6-2.9,6.6-6.6,6.6s-6.6-2.9-6.6-6.6s2.9-6.6,6.6-6.6S1680.6,1975,1680.6,1978.6z"
									/>
							</g>
							<g class="st14">
								<circle class="st7" cx="905.2" cy="1873.7" r="6.6"/>
							</g>
							<g class="st14">
								<circle class="st7" cx="1350.6" cy="2136.3" r="10.7"/>
							</g>
							<g class="st14">
								<circle class="st7" cx="763.7" cy="2097.1" r="6.6"/>
							</g>
							<g class="st14">
								<circle class="st7" cx="838.6" cy="1606.5" r="6.6"/>
							</g>
							<g class="st14">
								<circle class="st7" cx="1868.1" cy="2024.4" r="6.6"/>
							</g>
							<g class="st14">
								<circle class="st7" cx="1624.5" cy="2230.8" r="6.6"/>
							</g>
							<g>
								<g>
									<path class="st16" d="M1659.5,1564.8c2.3,5.8,3.5,11.7,4.3,17.5s1.2,11.7,1.2,17.5s-0.4,11.7-1.2,17.5
										c-0.9,5.8-2,11.7-4.3,17.5c-2.3-5.8-3.5-11.7-4.3-17.5s-1.2-11.7-1.2-17.5s0.4-11.7,1.2-17.5
										C1656,1576.5,1657.2,1570.7,1659.5,1564.8z"/>
								</g>
								<g>
									<path class="st16" d="M1694.6,1599.9c-5.8,2.3-11.7,3.5-17.5,4.3s-11.7,1.2-17.5,1.2s-11.7-0.4-17.5-1.2
										c-5.8-0.9-11.7-2-17.5-4.3c5.8-2.3,11.7-3.5,17.5-4.3s11.7-1.2,17.5-1.2s11.7,0.4,17.5,1.2
										C1682.9,1596.4,1688.7,1597.6,1694.6,1599.9z"/>
								</g>
							</g>
							<g>
								<g>
									<path class="st16" d="M1777.9,2160.7c2.3,5.8,3.5,11.7,4.3,17.5s1.2,11.7,1.2,17.5s-0.4,11.7-1.2,17.5
										c-0.9,5.8-2,11.7-4.3,17.5c-2.3-5.8-3.5-11.7-4.3-17.5s-1.2-11.7-1.2-17.5s0.4-11.7,1.2-17.5
										C1774.5,2172.3,1775.6,2166.5,1777.9,2160.7z"/>
								</g>
								<g>
									<path class="st16" d="M1813,2195.7c-5.8,2.3-11.7,3.5-17.5,4.3s-11.7,1.2-17.5,1.2s-11.7-0.4-17.5-1.2
										c-5.8-0.9-11.7-2-17.5-4.3c5.8-2.3,11.7-3.5,17.5-4.3s11.7-1.2,17.5-1.2s11.7,0.4,17.5,1.2S1807.1,2193.4,1813,2195.7z"/>
								</g>
							</g>
							<g>
								<g>
									<path class="st16" d="M940.2,2090.5c2.3,5.8,3.5,11.7,4.3,17.5s1.2,11.7,1.2,17.5s-0.4,11.7-1.2,17.5
										c-0.9,5.8-2,11.7-4.3,17.5c-2.3-5.8-3.5-11.7-4.3-17.5s-1.2-11.7-1.2-17.5s0.4-11.7,1.2-17.5
										C936.8,2102.2,938,2096.4,940.2,2090.5z"/>
								</g>
								<g>
									<path class="st16" d="M975.3,2125.6c-5.8,2.3-11.7,3.5-17.5,4.3s-11.7,1.2-17.5,1.2s-11.7-0.4-17.5-1.2
										c-5.8-0.9-11.7-2-17.5-4.3c5.8-2.3,11.7-3.5,17.5-4.3s11.7-1.2,17.5-1.2s11.7,0.4,17.5,1.2S969.5,2123.3,975.3,2125.6z"/>
								</g>
							</g>
						</g>
					</g>
					<g>
						<defs>
							<path id="SVGID_00000001654618391580452260000010664722889455381655_" d="M1698,1892.6
								c-436.1,304.6-1035.6,91.4-1072.2-430.9c-24.9-355.4,308.5-652,655.9-651.9c252.8,0,500.3,109.2,609.5,496.3
								c0,0,21.6,178.6-26.4,297.8c-47.9,119.2-115,227-115,227L1698,1892.6z"/>
						</defs>
						<clipPath id="SVGID_00000096753140985213265760000003610702591023102365_">
							<use xlink:href="#SVGID_00000001654618391580452260000010664722889455381655_"  style="overflow:visible;"/>
						</clipPath>
						<g style="clip-path:url(#SVGID_00000096753140985213265760000003610702591023102365_);">
							<g class="st14">
								<circle class="st7" cx="1104.8" cy="760.6" r="6.6"/>
							</g>
							<g class="st14">
								<path class="st7" d="M685.5,505.9c0,3.6-2.9,6.6-6.6,6.6s-6.6-2.9-6.6-6.6c0-3.6,2.9-6.6,6.6-6.6S685.5,502.2,685.5,505.9z"
									/>
							</g>
							<g class="st14">
								<circle class="st7" cx="1384.9" cy="1034.4" r="6.6"/>
							</g>
							<g class="st14">
								<circle class="st7" cx="1087.4" cy="1126.1" r="6.6"/>
							</g>
							<g class="st14">
								<circle class="st7" cx="1069.9" cy="1391.4" r="6.6"/>
							</g>
							<g class="st14">
								
									<ellipse transform="matrix(0.1602 -0.9871 0.9871 0.1602 167.0934 1974.0575)" class="st7" cx="1243.7" cy="888.8" rx="11.3" ry="11.3"/>
							</g>
							<g>
								<circle class="st15" cx="856.8" cy="1041" r="11.3"/>
							</g>
							<g class="st14">
								<ellipse class="st7" cx="907.6" cy="818.3" rx="16" ry="16"/>
							</g>
							<g>
								<circle class="st15" cx="980.1" cy="555.1" r="13.3"/>
							</g>
							<g class="st14">
								<circle class="st7" cx="1605.1" cy="906.7" r="6.6"/>
							</g>
							<g>
								<path class="st15" d="M1514.3,1139.3c0,3.6-2.9,6.6-6.6,6.6s-6.6-2.9-6.6-6.6c0-3.6,2.9-6.6,6.6-6.6
									S1514.3,1135.6,1514.3,1139.3z"/>
							</g>
							<g class="st14">
								<circle class="st7" cx="738.9" cy="1034.4" r="6.6"/>
							</g>
							<g class="st14">
								<circle class="st7" cx="1184.3" cy="1297" r="10.7"/>
							</g>
							<g class="st14">
								<circle class="st7" cx="597.4" cy="1257.8" r="6.6"/>
							</g>
							<g class="st14">
								<circle class="st7" cx="672.4" cy="767.1" r="6.6"/>
							</g>
							<g class="st14">
								<circle class="st7" cx="1701.8" cy="1185" r="6.6"/>
							</g>
							<g class="st14">
								<circle class="st7" cx="1458.2" cy="1391.4" r="6.6"/>
							</g>
							<g>
								<g>
									<path class="st16" d="M1493.3,725.5c2.3,5.8,3.5,11.7,4.3,17.5s1.2,11.7,1.2,17.5s-0.4,11.7-1.2,17.5
										c-0.9,5.8-2,11.7-4.3,17.5c-2.3-5.8-3.5-11.7-4.3-17.5s-1.2-11.7-1.2-17.5s0.4-11.7,1.2-17.5
										C1489.8,737.2,1491,731.3,1493.3,725.5z"/>
								</g>
								<g>
									<path class="st16" d="M1528.3,760.6c-5.8,2.3-11.7,3.5-17.5,4.3s-11.7,1.2-17.5,1.2s-11.7-0.4-17.5-1.2
										c-5.8-0.9-11.7-2-17.5-4.3c5.8-2.3,11.7-3.5,17.5-4.3s11.7-1.2,17.5-1.2s11.7,0.4,17.5,1.2
										C1516.6,757.1,1522.5,758.3,1528.3,760.6z"/>
								</g>
							</g>
							<g>
								<g>
									<path class="st16" d="M1611.7,1321.3c2.3,5.8,3.5,11.7,4.3,17.5s1.2,11.7,1.2,17.5s-0.4,11.7-1.2,17.5
										c-0.9,5.8-2,11.7-4.3,17.5c-2.3-5.8-3.5-11.7-4.3-17.5s-1.2-11.7-1.2-17.5s0.4-11.7,1.2-17.5
										C1608.2,1333,1609.4,1327.2,1611.7,1321.3z"/>
								</g>
								<g>
									<path class="st16" d="M1646.7,1356.4c-5.8,2.3-11.7,3.5-17.5,4.3s-11.7,1.2-17.5,1.2s-11.7-0.4-17.5-1.2
										c-5.8-0.9-11.7-2-17.5-4.3c5.8-2.3,11.7-3.5,17.5-4.3s11.7-1.2,17.5-1.2s11.7,0.4,17.5,1.2
										C1635,1352.9,1640.9,1354.1,1646.7,1356.4z"/>
								</g>
							</g>
							<g>
								<g>
									<path class="st16" d="M774,1251.2c2.3,5.8,3.5,11.7,4.3,17.5s1.2,11.7,1.2,17.5s-0.4,11.7-1.2,17.5
										c-0.9,5.8-2,11.7-4.3,17.5c-2.3-5.8-3.5-11.7-4.3-17.5s-1.2-11.7-1.2-17.5s0.4-11.7,1.2-17.5
										C770.5,1262.9,771.7,1257,774,1251.2z"/>
								</g>
								<g>
									<path class="st16" d="M809,1286.3c-5.8,2.3-11.7,3.5-17.5,4.3s-11.7,1.2-17.5,1.2s-11.7-0.4-17.5-1.2
										c-5.8-0.9-11.7-2-17.5-4.3c5.8-2.3,11.7-3.5,17.5-4.3s11.7-1.2,17.5-1.2s11.7,0.4,17.5,1.2
										C797.4,1282.8,803.2,1284,809,1286.3z"/>
								</g>
							</g>
						</g>
					</g>
					<g>
						<defs>
							<path id="SVGID_00000076562532183947576120000012346324011011721359_" d="M1698,1892.6
								c-436.1,304.6-1035.6,91.4-1072.2-430.9c-24.9-355.4,308.5-652,655.9-651.9c252.8,0,500.3,109.2,609.5,496.3
								c0,0,21.6,178.6-26.4,297.8c-47.9,119.2-115,227-115,227L1698,1892.6z"/>
						</defs>
						<clipPath id="SVGID_00000028325045969042119440000002421589773238081411_">
							<use xlink:href="#SVGID_00000076562532183947576120000012346324011011721359_"  style="overflow:visible;"/>
						</clipPath>
						<g style="clip-path:url(#SVGID_00000028325045969042119440000002421589773238081411_);">
							<g>
								<g>
									<path class="st19" d="M1588.2,1483.5c-0.6,5.2-1.5,10.4-2.7,15.5c-2.7,11.8-7.2,23.5-13.4,34.7
										c-35.8,64.4-117,87.6-181.4,51.8c-51.3-28.5-76.4-85.8-66.5-140.5c2.5-14,7.4-27.8,14.7-40.9
										c11.4-20.5,27.4-36.8,45.9-48.4c3-1.9,6-3.6,9.2-5.2c16.8-8.7,35.2-13.8,54.1-14.8c0.2,0,0.3,0,0.5,0
										c1.2-0.1,2.3-0.1,3.5-0.1c2.3-0.1,4.6-0.1,6.9,0c15.7,0.4,31.4,3.6,46.6,9.7c5,2,9.9,4.4,14.8,7.1c1,0.6,2.1,1.2,3.1,1.8
										c0.6,0.4,1.2,0.7,1.8,1.1C1570.5,1382.8,1593.7,1433.5,1588.2,1483.5z"/>
								</g>
								<g>
									<path class="st19" d="M1588.2,1483.5c-0.6,5.2-1.5,10.4-2.7,15.5c-2.7,11.8-7.2,23.5-13.4,34.7
										c-35.8,64.4-117,87.6-181.4,51.8c-51.3-28.5-76.4-85.8-66.5-140.5c2.5-14,7.4-27.8,14.7-40.9c7.9-14.2,18-26.4,29.7-36.4
										c5.1-4.4,10.6-8.4,16.3-11.9c3-1.9,6-3.6,9.2-5.2c16.8-8.7,35.2-13.8,54.1-14.8c0.2,0,0.3,0,0.5,0c1.2-0.1,2.3-0.1,3.5-0.1
										c2.3-0.1,4.6-0.1,6.9,0c15.7,0.4,31.4,3.6,46.6,9.7c5,2,9.9,4.4,14.8,7.1c1,0.6,2.1,1.2,3.1,1.8c0.6,0.4,1.2,0.7,1.8,1.1
										c7.2,4.4,13.8,9.3,19.8,14.8C1577.1,1398.9,1592.8,1441.4,1588.2,1483.5z"/>
								</g>
								<g>
									<path class="st20" d="M1402.4,1399.7c-2.7-5.5-3.8-11.2-4.2-15c3.8-0.4,7.4,1.2,8.9,4.3
										C1408.9,1392.7,1406.8,1397.3,1402.4,1399.7z"/>
								</g>
								<g>
									<path class="st20" d="M1390.8,1585.5c64.4,35.8,145.6,12.6,181.4-51.8c6.2-11.2,10.6-22.8,13.4-34.7
										c1.2-5.2,2.1-10.3,2.7-15.5c1-9.2,1-18.5,0.1-27.7c0,0.4-0.1,0.8-0.1,1.3c-0.6,5.2-1.4,10.4-2.7,15.5
										c-2.7,11.8-7.2,23.5-13.4,34.7c-35.8,64.4-117,87.6-181.4,51.8c-39.7-22.1-63.8-61.4-68-103.5
										C1317.7,1507,1342.8,1558.9,1390.8,1585.5z"/>
								</g>
								<g>
									<path class="st20" d="M1536.8,1483.5c-3.6,16.3,1.3,29.4,11.1,29.4c9.8,0,21.6-12.8,25.2-29.1c3.6-16.3-2.2-29.8-12-29.8
										C1551.3,1454.1,1540.4,1467.3,1536.8,1483.5z"/>
								</g>
								<g>
									<path class="st3" d="M1529.5,1472.8c-3.6,8.4-4.1,17.2-2.4,25.7c0.9,4.2,2.4,8.3,4.6,11.9c2.3,3.5,5.3,6.7,9.5,8.2l0,0
										c0.5,0.2,0.7,0.7,0.6,1.2c-0.1,0.4-0.5,0.6-0.9,0.6c-5.2,0-10.1-3-13.4-7c-3.4-3.9-5.4-8.7-6.6-13.7
										c-1.1-4.9-1.2-10.1-0.2-15.1c1-4.9,3.3-9.7,6.7-13.3c0.4-0.5,1.2-0.5,1.6,0C1529.6,1471.8,1529.7,1472.3,1529.5,1472.8
										L1529.5,1472.8z"/>
								</g>
								<g>
									<path class="st20" d="M1394.7,1377.9c-7.3,0.3-13.1,5.6-12.9,11.8c0.2,6.2,6.3,11.1,13.6,10.8c7.3-0.3,13.1-5.6,12.9-11.8
										C1408.1,1382.4,1402,1377.6,1394.7,1377.9z"/>
								</g>
								<g>
									<path class="st19" d="M1394.5,1385.7c-5,2.2-7.6,7.2-5.7,11.3c1.9,4,7.5,5.5,12.6,3.3c5-2.2,7.6-7.2,5.7-11.3
										C1405.2,1385,1399.6,1383.5,1394.5,1385.7z"/>
								</g>
								<g>
									<path class="st3" d="M1395.5,1402.1c-5.8,1.2-13.2-1.4-16.2-8.1c-1.5-3.2-1.3-7.2,0.1-10.4c1.5-3.2,4.1-5.7,7.1-7.3
										c6-3.1,13.5-2.6,18.8,1.5c2.7,2,4.6,5,5.1,8.3s-0.5,6.7-2.5,8.9c-0.3,0.4-0.9,0.4-1.3,0.1c-0.3-0.3-0.4-0.7-0.2-1.1
										c2.2-4.9,0-9.9-4-12.1c-3.9-2.3-9.1-2.3-13-0.2c-4,2-6.3,6.3-5,10.2c1.2,4,5.8,7.1,11,7.7c0.6,0.1,1.1,0.7,1,1.3
										C1396.3,1401.6,1395.9,1402,1395.5,1402.1z"/>
								</g>
								<g>
									<path class="st3" d="M1412.6,1380.9c4.2,4.2,5.3,11.7,2.3,17.5c-2.8,5.8-8.6,9.7-14.6,11c-6,1.4-12.6,0.5-17.8-2.9
										c-2.6-1.7-4.9-3.9-6.3-6.6s-2.2-5.8-1.8-8.7c0.1-0.5,0.5-0.9,1-0.8c0.4,0,0.7,0.4,0.8,0.8c1,5.1,4.6,8.9,8.8,11
										c4.3,2.1,9.3,2.5,13.9,1.3c4.5-1.1,8.8-3.8,11.2-7.6c2.4-3.8,2.9-8.9,0.6-13.5c-0.3-0.6,0-1.3,0.5-1.6
										C1411.7,1380.4,1412.3,1380.5,1412.6,1380.9z"/>
								</g>
								<g>
									<path class="st3" d="M1359.2,1419.3c4,0.2,7.9,1.8,11.5,4c3.4,2.3,6.3,5.5,8.5,9.1c4.2,7.3,5,16.2,3.1,24.2
										c-1.9,8.1-6.5,15.4-12.9,20.5c-6.3,5.2-14.5,8.1-22.5,7.3c-0.5-0.1-0.9-0.5-0.8-1c0-0.4,0.4-0.8,0.8-0.8
										c7.4-0.9,14.1-4.3,19.1-9.3s8.7-11.3,10.2-18.2c1.6-6.8,1.1-14-1.9-20.3c-1.4-3.1-3.6-6-6.2-8.2c-2.6-2.4-5.8-4.1-9.3-5.2
										c-0.6-0.2-0.9-0.8-0.8-1.5C1358.2,1419.5,1358.7,1419.2,1359.2,1419.3z"/>
								</g>
								<g>
									
										<ellipse transform="matrix(0.1745 -0.9847 0.9847 0.1745 -314.428 2528.1519)" class="st20" cx="1350.6" cy="1451.6" rx="23" ry="19.1"/>
								</g>
								<g>
									<path class="st19" d="M1349.9,1471.3c6.8,0.1,13.7-4.5,17.2-12.3c4.7-10.3,1.7-22.3-6.7-26.8c-1.2-0.6-2.4-1.1-3.7-1.3
										c-5,2-9.4,6.3-12.1,12.2C1339.7,1453.6,1342.2,1465.6,1349.9,1471.3z"/>
								</g>
								<g>
									<path class="st3" d="M1331.8,1443.1c1.6-4.2,4.6-8,8.4-10.7c3.9-2.6,8.7-4.2,13.7-3.8c1.2,0.1,2.5,0.4,3.7,0.8
										s2.5,0.7,3.5,1.3c2.2,1.2,4.2,2.8,5.8,4.8c3.1,4,4.6,9.1,4.5,14c-0.2,9.8-6.3,19.1-15.2,22.9c-4.4,1.9-9.5,2.4-14.1,1
										c-4.6-1.5-8.4-4.9-10.3-9l0,0c-0.2-0.5,0-1,0.5-1.2c0.4-0.2,0.9,0,1.1,0.3c4.8,6.9,14,8.2,20.6,4.4
										c6.6-3.6,11.1-11,11.1-18.4c0-3.7-1-7.3-3.2-10.1c-1.1-1.4-2.4-2.6-3.9-3.5c-0.7-0.5-1.6-0.7-2.4-1s-1.6-0.7-2.6-0.8
										c-7.2-1.2-15.1,3.3-19.5,10.2c-0.3,0.5-1.1,0.7-1.6,0.4C1331.7,1444.2,1331.6,1443.6,1331.8,1443.1z"/>
								</g>
								<g>
									<path class="st3" d="M1508.7,1445.5c2,10.3-0.8,21.7-7.5,30.3c-6.7,8.7-17.3,14.1-28.1,15c-10.9,1-22-2.2-30.6-8.6
										c-4.3-3.2-8-7.1-11-11.5c-2.8-4.5-5-9.4-6-14.5c-0.1-0.5,0.2-1,0.7-1.1s0.9,0.2,1.1,0.6c3.5,9.3,10,17.2,18.1,22.3
										c8.1,5,17.8,7.6,27.1,6.6c9.3-0.9,18.3-5.3,24.5-12.4c3.2-3.5,5.6-7.7,7.1-12.2c1.7-4.5,2.4-9.4,2.3-14.3
										c0-0.6,0.5-1.2,1.1-1.2C1508.1,1444.5,1508.6,1444.9,1508.7,1445.5z"/>
								</g>
								<g>
									
										<ellipse transform="matrix(0.9626 -0.2709 0.2709 0.9626 -337.2813 451.383)" class="st20" cx="1466.4" cy="1447.4" rx="29.3" ry="26.7"/>
								</g>
								<g>
									<path class="st19" d="M1442.4,1454.8c2.5,9.1,10.7,16.5,21.5,17.9c14.3,2,27.7-7.2,29.9-20.4c0.3-1.9,0.4-3.7,0.2-5.5
										c-4.4-5.8-11.2-10-19.4-11.2C1460,1433.7,1446.3,1442.1,1442.4,1454.8z"/>
								</g>
								<g>
									<path class="st3" d="M1469.6,1419.1c6,0.6,11.8,3.4,16.4,7.5c4.5,4.2,7.8,9.9,9,16.1c1.3,6.2,0.1,13-3.1,18.6
										c-3.3,5.6-8.6,10-14.7,12c-12.3,4.1-26.6-0.8-33.9-11.1c-3.7-5-5.9-11.3-5.7-17.5c0.2-6.2,2.5-12.3,6.7-16.6
										c0.4-0.4,0.9-0.4,1.3,0c0.3,0.3,0.4,0.8,0.1,1.2c-6.6,9.1-5.3,21.9,1.6,29.8c3.4,4,7.8,7.1,12.8,8.6s10.3,1.5,15.1-0.2
										c4.8-1.6,9-4.9,11.6-9.2c2.6-4.3,3.6-9.6,2.9-14.7c-1.3-10.3-9.7-19.5-20.5-22.3c-0.6-0.2-1-0.8-0.8-1.4
										C1468.5,1419.4,1469,1419,1469.6,1419.1z"/>
								</g>
								<g>
									<g>
										<path class="st19" d="M1390.9,1522.4c-6.3,3.3-11.2,8.1-13.9,14.3c-5,11.2-1.4,23.5,7.6,34.3c6,7.1,14.4,13.3,24.7,17.5
											c25.9,10.5,53.6,4.1,61.8-14.4c3.1-6.9,3-14.4,0.4-21.8c-4.4-12.4-19.7-16.1-36-22.7"/>
									</g>
									<g>
										<path class="st3" d="M1378,1537.1c-3.9,10.5,0.2,21.7,7,30.1c6.8,8.5,16.1,14.9,26.4,18.8c10.1,4.1,21.4,5.7,32.2,4.2
											c10.7-1.4,21.4-6.6,26.8-16.5c0.2-0.5,0.8-0.6,1.3-0.4c0.4,0.2,0.6,0.7,0.4,1.1c-2,5.6-6.1,10.4-11,14
											c-5,3.4-10.7,5.6-16.6,6.8c-11.8,2.4-24.1,0.6-35.3-3.5c-11-4.4-21.4-11.5-28.4-21.3c-3.4-4.9-6.2-10.4-7.4-16.5
											c-1.1-6-0.3-12.5,2.6-17.7c0.3-0.6,1-0.8,1.6-0.5C1378,1536,1378.2,1536.6,1378,1537.1z"/>
									</g>
									<g>
										
											<ellipse transform="matrix(0.2558 -0.9667 0.9667 0.2558 -443.7786 2534.0527)" class="st20" cx="1424" cy="1555.3" rx="28" ry="38.5"/>
									</g>
									<g>
										
											<ellipse transform="matrix(0.1763 -0.9843 0.9843 0.1763 -364.0011 2690.7568)" class="st19" cx="1425.8" cy="1562.9" rx="20.6" ry="32.6"/>
									</g>
									<g>
										<path class="st3" d="M1448.8,1579.3c2.9-1.8,5.5-4.1,7.4-6.8c1.9-2.7,2.9-5.9,3.2-9.1c0.6-6.5-2.3-12.9-6.5-18
											c-8.6-10.3-22.3-16.3-35.6-16.6c-6.7-0.1-13.5,1.1-18.9,4.7c-5.4,3.4-8.9,9.2-9,15.6c-0.2,6.4,3,12.8,7.4,18
											c4.4,5.3,10.3,9.4,16.6,12.5c0.5,0.2,0.7,0.8,0.4,1.2c-0.2,0.4-0.7,0.6-1.1,0.5c-6.9-2.4-13.4-6.3-18.7-11.6
											c-5.1-5.4-9.3-12.4-9.6-20.6c-0.5-8.1,4.2-16.2,10.9-20.5c6.6-4.5,14.6-6,22.2-6.1c7.7,0.1,15.2,2.1,22,5.3
											c6.8,3.3,13.2,7.8,17.8,14c4.6,6.1,7.8,13.9,6.6,21.9c-1.2,7.9-6.9,14.6-13.8,17.5c-0.6,0.3-1.3,0-1.5-0.6
											C1448.1,1580.3,1448.3,1579.6,1448.8,1579.3z"/>
									</g>
								</g>
								<g>
									<g>
										<path class="st19" d="M1506.4,1395.7c4.7-3.1,8.2-7.2,9.8-12.3c3-9.2-0.7-18.6-8.6-26.4c-5.2-5.1-12.4-9.4-20.8-11.9
											c-21.2-6.3-42.5,0.9-47.5,16.1c-1.9,5.6-1.2,11.6,1.4,17.2c4.4,9.4,14.7,17.2,28,21.1"/>
									</g>
									<g>
										<path class="st3" d="M1515.2,1383c2.1-8.5-2-16.7-8-22.7s-13.7-10.2-21.9-12.5c-8.2-2.4-17-2.8-25.3-1
											c-8.2,1.9-16.1,6.6-19.8,14.6c-0.2,0.5-0.8,0.7-1.2,0.5c-0.4-0.2-0.6-0.6-0.5-1.1c1.1-4.7,4-8.8,7.5-12.1
											c3.7-3.2,8.1-5.4,12.6-6.9c9.2-2.9,19.1-2.6,28.3-0.1c9.2,2.5,17.9,7.4,24.2,14.8c3.1,3.7,5.7,7.9,7.1,12.6
											c1.3,4.7,1.1,10-0.8,14.4c-0.3,0.6-0.9,0.9-1.5,0.6C1515.3,1384.2,1515.1,1383.6,1515.2,1383z"/>
									</g>
									<g>
										
											<ellipse transform="matrix(0.1606 -0.987 0.987 0.1606 -114.3052 2610.8269)" class="st20" cx="1477.8" cy="1372.6" rx="22.1" ry="30.4"/>
									</g>
									<g>
										
											<ellipse transform="matrix(7.980293e-02 -0.9968 0.9968 7.980293e-02 -4.1459 2728.5051)" class="st19" cx="1475.8" cy="1366.5" rx="16.3" ry="25.8"/>
									</g>
									<g>
										<path class="st3" d="M1456.7,1355.5c-4.3,3.3-7,8.2-6.8,13.2c0,5,2.8,9.7,6.5,13.2c7.4,7.2,18.5,10.9,28.8,10.1
											c5.2-0.4,10.3-1.9,14.2-5c3.9-3,6.1-7.6,5.8-12.5c-0.3-4.9-3.2-9.6-6.9-13.4c-3.8-3.8-8.6-6.6-13.8-8.7
											c-0.5-0.2-0.7-0.7-0.5-1.2c0.2-0.4,0.6-0.7,1.1-0.6c5.7,1.3,11.2,3.8,15.8,7.6c4.5,3.9,8.5,9.1,9.4,15.7
											c1.1,6.5-2.1,13.5-7.2,17.5c-5,4.2-11.2,6-17.3,6.6c-6.1,0.5-12.3-0.5-18-2.6s-11.1-5.2-15.3-9.9
											c-4.1-4.5-7.3-10.6-6.9-17.1s4.5-12.2,9.8-15l0,0c0.6-0.3,1.3-0.1,1.6,0.5C1457.2,1354.6,1457.1,1355.2,1456.7,1355.5z"/>
									</g>
								</g>
								<g>
									
										<ellipse transform="matrix(0.3213 -0.947 0.947 0.3213 -351.132 2474.9495)" class="st19" cx="1551" cy="1482.4" rx="25.9" ry="13.5"/>
								</g>
								<g>
									<path class="st3" d="M1571.4,1462.8c-1.4-2.1-3.1-3.8-5.1-4.8s-4.3-1.2-6.5-0.8c-4.4,0.7-8.5,3.8-11.6,7.4
										c-6.3,7.3-10.1,17.2-10.4,26.8c-0.2,4.8,0.6,9.7,3,13.3c2.3,3.7,6.4,5.4,10.7,4.5c4.4-0.9,8.5-3.9,11.9-7.5
										c3.5-3.6,6.1-8,8.3-12.7l0,0c0.2-0.5,0.8-0.7,1.2-0.4c0.4,0.2,0.6,0.7,0.5,1.1c-1.4,5.2-3.7,10.1-7.1,14.6
										c-3.3,4.3-7.8,8.2-13.6,10c-2.9,0.8-6.3,0.9-9.3-0.3c-3-1.1-5.6-3.4-7.3-5.9c-3.5-5.1-4.5-11.1-4.4-16.7
										c0.1-5.7,1.5-11.2,3.6-16.3c2.1-5.1,5-10,9-14c4-3.9,9-7.4,15.1-8c3-0.2,6.2,0.5,8.7,2.2c2.5,1.6,4.3,4.1,5.4,6.6
										c0.3,0.6,0,1.3-0.6,1.5C1572.3,1463.5,1571.7,1463.3,1571.4,1462.8z"/>
								</g>
								<g class="st21">
									<path class="st7" d="M1559.4,1420.9c-6,14.1,11.2,36,3,76c-3.5,17,17.1,5.5,18.4-28.8
										C1582,1436.3,1563.6,1410.9,1559.4,1420.9z"/>
								</g>
								<g class="st21">
									<path class="st7" d="M1534.4,1386.2c1.3,5.6,10.6,11.7,16.7,21.8c6.5,10.8,15.8,8.6,7.9-11.6
										C1550.5,1374.9,1531.9,1375.7,1534.4,1386.2z"/>
								</g>
								<g>
									<path class="st3" d="M1455.4,1605.4c-22.4,0-45.1-5.5-66.1-17.2c-51.2-28.4-78.5-86.2-68-143.7c2.7-14.7,7.7-28.8,15-41.9
										c11.2-20.2,27.5-37.3,47-49.5c3-1.9,6.2-3.7,9.4-5.3c17.1-8.8,36.2-14.1,55.4-15.2h0.6c1.1-0.1,2.3-0.1,3.5-0.1
										c2.3-0.1,4.7-0.1,7.1,0c16.4,0.4,32.4,3.8,47.6,9.9c5.1,2.1,10.2,4.5,15.1,7.2c1.1,0.6,2.1,1.2,3.2,1.8
										c0.6,0.3,1.2,0.7,1.9,1.1c44.8,27.4,70.1,79,64.4,131.3c-0.6,5.3-1.5,10.6-2.7,15.9c-2.9,12.4-7.5,24.3-13.7,35.5
										C1550,1580.1,1503.4,1605.4,1455.4,1605.4z M1455.7,1338.6c-1.2,0-2.3,0-3.5,0c-1.1,0-2.3,0.1-3.4,0.1h-0.5
										c-18.3,1-36.5,6-52.8,14.5c-3.1,1.6-6.1,3.3-8.9,5.1c-18.6,11.6-34.1,27.9-44.9,47.2c-7,12.5-11.8,26-14.3,40
										c-10,54.9,16.1,110.1,64.9,137.2c62.8,34.9,142.3,12.2,177.2-50.6c5.9-10.7,10.3-22.1,13.1-33.9c1.2-5,2-10.1,2.6-15.2l0,0
										c5.5-49.9-18.7-99.1-61.5-125.3c-0.6-0.4-1.2-0.7-1.8-1.1c-1-0.6-2-1.2-3-1.7c-4.7-2.6-9.5-4.9-14.4-6.9
										c-14.5-5.9-29.8-9.1-45.5-9.5C1457.9,1338.6,1456.8,1338.6,1455.7,1338.6z"/>
								</g>
							</g>
						</g>
					</g>
				</g>
				<g>
					<path class="st3" d="M1262.1,2126.9c-185.2,0-362.5-62.2-495.5-175.4c-141.8-120.8-224-288-237.8-483.5
						c-12.6-179.6,53.7-357,186.6-499.6C863,810,1075.7,715.5,1284.2,715.5c0,0,0,0,0.1,0c115.9,0,220.4,20.4,310.7,60.7l1.7,0.8
						l1.5,1.1c109.8,79.1,196.8,186.2,251.6,309.7c94.8,213.6,85.7,453.9-24.8,659.4l0,0c-61.3,113.9-151.7,210.7-261.4,279.9
						c-23.2,14.6-47.3,28.1-71.7,40c-11.1,5.5-23.2,11.1-36.9,17c-37.6,16-76.4,29.2-115.7,39l-2.8,0.5
						C1311.6,2125.8,1286.8,2126.9,1262.1,2126.9z M1284.2,752.2c-198.6,0-401.2,90.1-542,241.2c-125.9,135-188.7,302.7-176.8,472
						c13,185.5,90.8,343.9,225,458.2c143,121.8,340.2,181.3,541.5,163.6c36.9-9.3,73.4-21.7,108.7-36.8c13.1-5.7,24.7-11,35.2-16.2
						c23.2-11.4,46.2-24.2,68.3-38.2c104.4-65.9,190.4-157.9,248.7-266.3c105.1-195.4,113.7-424,23.6-627.1
						c-51.9-117-134.1-218.5-237.9-293.7C1493.2,771.3,1394.3,752.2,1284.2,752.2C1284.3,752.2,1284.3,752.2,1284.2,752.2z
						 M1808.9,1738.4L1808.9,1738.4L1808.9,1738.4z"/>
				</g>
				<g>
					<path class="st3" d="M1260.5,2051.3c-104.6,0-207.9-22.3-302.7-67.5c-206.3-98.5-334-288.4-350.3-520.8
						c-11.2-160.4,47.9-318.8,166.5-446c131.7-141.2,321.4-225.6,507.6-225.6c0,0,0,0,0.1,0c320.7,0,531.7,171.5,627.2,509.6
						l0.6,2.8c0.9,7.5,21.6,184.7-27.5,306.8c-48,119.3-113.7,225.4-116.4,229.8l-1.5,2.1l-53.4,63.7l-2,1.4
						C1572.4,2002.6,1415.2,2051.3,1260.5,2051.3z M1281.6,828c-176.2,0-355.9,80-480.7,213.9c-111.6,119.7-167.3,268.3-156.8,418.4
						c15.3,218.9,135.4,397.6,329.5,490.3c222.5,106.2,495,78.7,711.9-71.8l49.4-58.9c7.1-11.5,68.7-113.1,112.9-223.1
						c43.4-108,27.1-270.9,25.3-287.4C1782.5,990,1583.5,828.1,1281.6,828C1281.7,828,1281.6,828,1281.6,828z M1698,1892.6
						L1698,1892.6L1698,1892.6z"/>
				</g>
				<g>
					<path class="st7" d="M293.1,1430.5c-7.6,145.6,73.2,272.6,180.5,283.5c107.3,11,200.5-98.2,208.1-243.8
						c0.1-0.9,0.1-1.9,0.1-2.8c6.5-144.4-74-269.9-180.6-280.7c-82.9-8.5-157.3,54.7-190.4,151
						C301,1366.2,294.9,1397.4,293.1,1430.5z"/>
				</g>
				<g class="st10">
					<path class="st3" d="M293.1,1430.5c-7.6,145.6,73.2,272.6,180.5,283.5c107.3,11,200.5-98.2,208.1-243.8
						c0.1-0.9,0.1-1.9,0.1-2.8c-12.6,13.7-31.7,26.6-56.3,19.1c-43.1-13.2-116.4-114.8-116.4-114.8s-85.9-15.3-198.3-34
						C301,1366.2,294.9,1397.4,293.1,1430.5z"/>
				</g>
				<g>
					<path class="st3" d="M488.7,1740.3c-5.9,0-11.8-0.3-17.7-0.9c-120.4-12.3-211.6-151.4-203.3-310.1l25.4,1.3l-25.4-1.3
						c4.8-91.4,40.8-172.3,98.8-222c40.8-34.9,88.2-50.7,137.2-45.7c120.4,12.3,211.6,151.4,203.3,310.1
						c-4.8,91.4-40.8,172.3-98.8,222C572.4,1724.3,531.4,1740.3,488.7,1740.3z M486.4,1211.4c-30.6,0-60.3,11.8-86.8,34.4
						c-46.8,40.1-77.1,109.6-81.1,186.1c-6.9,132.1,63.8,247.3,157.7,256.9c34.8,3.6,69.1-8.1,99-33.8
						c46.8-40.1,77.1-109.6,81.1-186.1c6.9-132.1-63.8-247.3-157.7-256.9C494.5,1211.6,490.4,1211.4,486.4,1211.4z"/>
				</g>
				<g>
					
						<ellipse transform="matrix(0.999 -4.368937e-02 4.368937e-02 0.999 -63.7681 19.9041)" class="st7" cx="423.5" cy="1468.8" rx="158.7" ry="209.9"/>
					<path class="st3" d="M427.4,1680.8c-18.3,0-36.7-4.2-54.6-12.7c-46.8-22.1-83.4-70.1-100.2-131.7
						c-30.3-110.5,12.7-230.8,95.8-268.1c34.5-15.5,71.2-15.1,106,1.4c46.8,22.1,83.4,70.1,100.2,131.7
						c30.3,110.5-12.7,230.8-95.8,268.1C462,1677,444.7,1680.8,427.4,1680.8z M276.2,1535.5c16.6,60.5,52.4,107.6,98.2,129.2
						c33.8,15.9,69.3,16.4,102.8,1.3c81.4-36.6,123.4-154.8,93.6-263.6c-16.6-60.5-52.4-107.6-98.2-129.2
						c-33.8-15.9-69.3-16.4-102.8-1.3C288.5,1308.5,246.5,1426.7,276.2,1535.5L276.2,1535.5z"/>
				</g>
				<g class="st10">
					<path class="st3" d="M568.6,1566.1c11.8-37.9,13.1-79.3,5.7-118.6c-34.4,84.2-115.4,114.9-187.9,67.9
						c-46.8-30.4-79.2-86.2-90.6-147c-2.2,5.3-4.2,10.9-6,16.6c-30.1,96.6,8,215.5,84.9,265.5
						C451.8,1700.5,538.5,1662.6,568.6,1566.1z"/>
				</g>
				<g>
					<path class="st3" d="M423.9,1704.4c-4.7,0-9.4-0.3-14.1-0.8C314.3,1693.1,244.5,1580,251,1446c3.8-77.8,34.2-148.3,81.3-188.5
						c31.1-26.5,67-38.4,103.8-34.3c95.5,10.5,165.3,123.7,158.8,257.6c-3.8,77.8-34.2,148.3-81.3,188.5
						C486.6,1692.5,455.8,1704.4,423.9,1704.4z M276.4,1447.3l25.4,1.2c-5,103.6,47,197.4,113.6,204.7c28.5,3.2,51.3-10.5,65.3-22.5
						c36.7-31.3,60.4-88.3,63.5-152.4c5-103.6-47-197.4-113.6-204.7c-28.5-3.2-51.3,10.5-65.3,22.5c-36.7,31.3-60.4,88.3-63.5,152.4
						L276.4,1447.3z"/>
				</g>
				<g class="st22">
					<path class="st7" d="M1098.9,952.3c0,0,330.1-4.5,512.5,182.9c0.2,0.2,0.4,0.4,0.6,0.6c38.4,39.5,65.3,113.7,78.2,166.8
						c17.2,70.2,18.6,121,18.1,165.8c-1.6,136.1-28.2,199.5-28.2,199.5c79.3-70.6,124.5-151.6,127-264.9c0.2-11.2,0-22.7-0.6-34.5
						c-0.1-2.7-0.3-5.4-0.5-8.1c0.1,0,0-0.1,0-0.2c-2.9-23.9-7.9-55.2-16.5-90c-25.9-105.1-84.6-242.5-216.8-308
						C1325.3,839.6,1087.7,937.9,1098.9,952.3z"/>
				</g>
				<g class="st22">
					
						<ellipse transform="matrix(0.2816 -0.9595 0.9595 0.2816 -620.6107 1732.8409)" class="st7" cx="846.9" cy="1280.9" rx="115.1" ry="100.2"/>
				</g>
				<g class="st22">
					
						<ellipse transform="matrix(0.3695 -0.9292 0.9292 0.3695 -879.2319 1668.2491)" class="st7" cx="789.7" cy="1482" rx="47.6" ry="41.4"/>
				</g>
			</g>
			<g>
				<g>
					<path class="st1" d="M807.4,2161.5c0,0,238.8-145.7,473.2-145.8c265.8-0.1,298.2,252.8,154.1,320.9
						c-135.2,63.9-452.3,25.9-452.3,25.9"/>
				</g>
				<g>
					<path class="st3" d="M1181.9,2399.1c-104.7,0-195.5-10.6-202.5-11.4c-13.9-1.7-23.9-14.3-22.2-28.2s14.3-23.9,28.2-22.2
						c3.1,0.4,311.4,36.3,438.4-23.7c53.4-25.2,80.3-82.6,66.8-142.6c-14.1-62.8-76.6-129.9-209.8-129.9c-0.1,0-0.1,0-0.2,0
						c-224.3,0.1-457.7,140.7-460,142.1c-12,7.3-27.6,3.5-34.9-8.5c-7.3-12-3.5-27.6,8.4-34.9c10-6.1,247.6-149.4,486.4-149.6
						c0.1,0,0.2,0,0.3,0c163.1,0,240.9,87.6,259.4,169.6c18.5,82.5-20.4,164.6-94.6,199.7
						C1379.5,2390.7,1275.2,2399.1,1181.9,2399.1z"/>
				</g>
			</g>
		</g>
		<g>
			<path class="st23" d="M339.6,3018h-48.4c-28.3,0-51.2-22.9-51.2-51.2v-589.1c0-28.3,22.9-51.2,51.2-51.2h48.4
				c28.3,0,51.2,22.9,51.2,51.2v589.1C390.8,2995.1,367.9,3018,339.6,3018z"/>
		</g>
		<g class="st2">
			<path class="st3" d="M353.1,3016.2c-4.3,1.2-8.8,1.8-13.5,1.8h-48.4c-28.2,0-51.2-22.9-51.2-51.2v-589.1
				c0-28.2,22.9-51.2,51.2-51.2h48.4c4.7,0,9.2,0.6,13.5,1.8c-21.7,5.9-37.7,25.8-37.7,49.4v589.1
				C315.4,2990.5,331.4,3010.3,353.1,3016.2z"/>
		</g>
		<g>
			<path class="st3" d="M339.6,3043.4h-48.4c-42.2,0-76.6-34.3-76.6-76.6v-589.1c0-42.2,34.3-76.6,76.6-76.6h48.4
				c42.2,0,76.6,34.4,76.6,76.6v589.1C416.2,3009.1,381.8,3043.4,339.6,3043.4z M291.2,2352c-14.2,0-25.8,11.6-25.8,25.8v589.1
				c0,14.2,11.6,25.8,25.8,25.8h48.4c14.2,0,25.8-11.6,25.8-25.8v-589.1c0-14.2-11.6-25.8-25.8-25.8L291.2,2352L291.2,2352z"/>
		</g>
		<g>
			<g>
				<path class="st23" d="M827.9,3018h-48.4c-28.3,0-51.2-22.9-51.2-51.2v-589.1c0-28.3,22.9-51.2,51.2-51.2h48.4
					c28.3,0,51.2,22.9,51.2,51.2v589.1C879.1,2995.1,856.2,3018,827.9,3018z"/>
			</g>
			<g class="st2">
				<path class="st3" d="M841.5,3016.2c-4.3,1.2-8.8,1.8-13.5,1.8h-48.4c-28.2,0-51.2-22.9-51.2-51.2v-589.1
					c0-28.2,22.9-51.2,51.2-51.2H828c4.7,0,9.2,0.6,13.5,1.8c-21.7,5.9-37.7,25.8-37.7,49.4v589.1
					C803.7,2990.5,819.7,3010.3,841.5,3016.2z"/>
			</g>
			<g>
				<path class="st3" d="M827.9,3043.4h-48.4c-42.2,0-76.6-34.3-76.6-76.6v-589.1c0-42.2,34.3-76.6,76.6-76.6h48.4
					c42.2,0,76.6,34.4,76.6,76.6v589.1C904.5,3009.1,870.1,3043.4,827.9,3043.4z M779.6,2352c-14.2,0-25.8,11.6-25.8,25.8v589.1
					c0,14.2,11.6,25.8,25.8,25.8H828c14.2,0,25.8-11.6,25.8-25.8v-589.1c0-14.2-11.6-25.8-25.8-25.8L779.6,2352L779.6,2352z"/>
			</g>
		</g>
		<g>
			<g>
				<path class="st23" d="M2352.1,3018h-48.4c-28.3,0-51.2-22.9-51.2-51.2v-589.1c0-28.3,22.9-51.2,51.2-51.2h48.4
					c28.3,0,51.2,22.9,51.2,51.2v589.1C2403.3,2995.1,2380.4,3018,2352.1,3018z"/>
			</g>
			<g class="st2">
				<path class="st3" d="M2365.6,3016.2c-4.3,1.2-8.8,1.8-13.5,1.8h-48.4c-28.2,0-51.2-22.9-51.2-51.2v-589.1
					c0-28.2,22.9-51.2,51.2-51.2h48.4c4.7,0,9.2,0.6,13.5,1.8c-21.7,5.9-37.7,25.8-37.7,49.4v589.1
					C2327.9,2990.5,2343.9,3010.3,2365.6,3016.2z"/>
			</g>
			<g>
				<path class="st3" d="M2352.1,3043.4h-48.4c-42.2,0-76.6-34.3-76.6-76.6v-589.1c0-42.2,34.3-76.6,76.6-76.6h48.4
					c42.2,0,76.6,34.4,76.6,76.6v589.1C2428.7,3009.1,2394.3,3043.4,2352.1,3043.4z M2303.7,2352c-14.2,0-25.8,11.6-25.8,25.8v589.1
					c0,14.2,11.6,25.8,25.8,25.8h48.4c14.2,0,25.8-11.6,25.8-25.8v-589.1c0-14.2-11.6-25.8-25.8-25.8L2303.7,2352L2303.7,2352z"/>
			</g>
		</g>
		<g>
			<g>
				<path class="st23" d="M2840.4,3018H2792c-28.3,0-51.2-22.9-51.2-51.2v-589.1c0-28.3,22.9-51.2,51.2-51.2h48.4
					c28.3,0,51.2,22.9,51.2,51.2v589.1C2891.6,2995.1,2868.7,3018,2840.4,3018z"/>
			</g>
			<g class="st2">
				<path class="st3" d="M2854,3016.2c-4.3,1.2-8.8,1.8-13.5,1.8h-48.4c-28.2,0-51.2-22.9-51.2-51.2v-589.1
					c0-28.2,22.9-51.2,51.2-51.2h48.4c4.7,0,9.2,0.6,13.5,1.8c-21.7,5.9-37.7,25.8-37.7,49.4v589.1
					C2816.2,2990.5,2832.2,3010.3,2854,3016.2z"/>
			</g>
			<g>
				<path class="st3" d="M2840.4,3043.4H2792c-42.2,0-76.6-34.3-76.6-76.6v-589.1c0-42.2,34.3-76.6,76.6-76.6h48.4
					c42.2,0,76.6,34.4,76.6,76.6v589.1C2917,3009.1,2882.6,3043.4,2840.4,3043.4z M2792.1,2352c-14.2,0-25.8,11.6-25.8,25.8v589.1
					c0,14.2,11.6,25.8,25.8,25.8h48.4c14.2,0,25.8-11.6,25.8-25.8v-589.1c0-14.2-11.6-25.8-25.8-25.8L2792.1,2352L2792.1,2352z"/>
			</g>
		</g>
		<g>
			<path class="st23" d="M2943.2,2392.1H173.8c-20.6,0-37.3-16.7-37.3-37.3v-76c0-20.6,16.7-37.3,37.3-37.3h2769.4
				c20.6,0,37.3,16.7,37.3,37.3v76C2980.5,2375.4,2963.8,2392.1,2943.2,2392.1z"/>
		</g>
		<g class="st21">
			<path class="st7" d="M141.5,2324.2c0-20.6,16.7-37.3,37.3-37.3h2769.4c13.8,0,25.8,7.5,32.3,18.6v-26.8
				c0-20.6-16.7-37.3-37.3-37.3H173.8c-20.6,0-37.3,16.7-37.3,37.3v76c0,6.8,1.9,13.2,5.1,18.7v-49.2H141.5z"/>
		</g>
		<g class="st2">
			<path class="st3" d="M2980.5,2279.4v75.3c0,20.7-16.7,37.4-37.3,37.4H173.8c-20.6,0-37.3-16.7-37.3-37.4v-75.3
				c0,20.7,16.7,37.4,37.3,37.4h2769.4C2963.8,2316.8,2980.5,2300,2980.5,2279.4z"/>
		</g>
		<g>
			<path class="st3" d="M2943.2,2417.5H173.8c-34.6,0-62.7-28.1-62.7-62.7v-76c0-34.6,28.1-62.7,62.7-62.7h2769.4
				c34.6,0,62.7,28.1,62.7,62.7v76C3005.9,2389.3,2977.8,2417.5,2943.2,2417.5z M173.8,2266.8c-6.6,0-11.9,5.4-11.9,11.9v76
				c0,6.6,5.4,11.9,11.9,11.9h2769.4c6.6,0,11.9-5.4,11.9-11.9v-76c0-6.6-5.4-11.9-11.9-11.9H173.8z"/>
		</g>
		<g>
			<path class="st3" d="M928.5,2417.5H173.8c-34.6,0-62.7-28.1-62.7-62.7v-76c0-34.6,28.1-62.7,62.7-62.7h754.7
				c34.6,0,62.7,28.1,62.7,62.7v76C991.3,2389.3,963.1,2417.5,928.5,2417.5z M173.8,2266.8c-6.6,0-11.9,5.4-11.9,11.9v76
				c0,6.6,5.4,11.9,11.9,11.9h754.7c6.6,0,11.9-5.4,11.9-11.9v-76c0-6.6-5.4-11.9-11.9-11.9H173.8z"/>
		</g>
		<g>
			<g>
				<g>
					<defs>
						<polygon id="SVGID_00000137817884657264101300000002156933966097811347_" points="1,1 2,1 1,2 						"/>
					</defs>
					<defs>
						<polygon id="SVGID_00000068673322566363997250000015990197835446051243_" points="-1,-1 -2,-1 -1,-2 						"/>
					</defs>
					<clipPath id="SVGID_00000031182680574294377540000003494119121105252767_">
						<use xlink:href="#SVGID_00000137817884657264101300000002156933966097811347_"  style="overflow:visible;"/>
					</clipPath>
					
						<clipPath id="SVGID_00000131363155795538221640000005625021084170169271_" style="clip-path:url(#SVGID_00000031182680574294377540000003494119121105252767_);">
						<use xlink:href="#SVGID_00000068673322566363997250000015990197835446051243_"  style="overflow:visible;"/>
					</clipPath>
					<defs>
						<filter id="Adobe_OpacityMaskFilter" filterUnits="userSpaceOnUse" x="0" y="0" width="2775.1" height="2241.4">
							<feColorMatrix  type="matrix" values="1 0 0 0 0  0 1 0 0 0  0 0 1 0 0  0 0 0 1 0"/>
						</filter>
					</defs>
					
						<mask maskUnits="userSpaceOnUse" x="0" y="0" width="2775.1" height="2241.4" id="SVGID_00000155861617400257043750000005950690908545049525_">
						<g class="st25">
							<g>
								<defs>
									<polygon id="SVGID_00000016764854549135727130000004369471767807796908_" points="1,1 2,1 1,2 									"/>
								</defs>
								<defs>
									<polygon id="SVGID_00000145763376680595698970000011149527827742917300_" points="-1,-1 -2,-1 -1,-2 									"/>
								</defs>
								
									<clipPath id="SVGID_00000118355252685300713970000012410790433390279326_" style="clip-path:url(#SVGID_00000131363155795538221640000005625021084170169271_);">
									<use xlink:href="#SVGID_00000016764854549135727130000004369471767807796908_"  style="overflow:visible;"/>
								</clipPath>
								
									<clipPath id="SVGID_00000067943618067765620710000015572543137815548092_" style="clip-path:url(#SVGID_00000118355252685300713970000012410790433390279326_);">
									<use xlink:href="#SVGID_00000145763376680595698970000011149527827742917300_"  style="overflow:visible;"/>
								</clipPath>
								
									<linearGradient id="SVGID_00000012455469014118402310000015280893423529075380_" gradientUnits="userSpaceOnUse" x1="2909.7429" y1="1283.63" x2="778.8825" y2="1960.7252" gradientTransform="matrix(1 0 0 -1 0 3142)">
									<stop  offset="5.586590e-03" style="stop-color:#FFFFFF"/>
									<stop  offset="1" style="stop-color:#000000"/>
								</linearGradient>
								
									<path style="clip-path:url(#SVGID_00000067943618067765620710000015572543137815548092_);fill:url(#SVGID_00000012455469014118402310000015280893423529075380_);" d="
									M2775,1407.7C2785.6,1417,1176.5,0,1176.5,0L0,2241.4h2593.2L2775,1407.7z"/>
							</g>
						</g>
					</mask>
					
						<linearGradient id="SVGID_00000162313122000599239350000014276610016393526702_" gradientUnits="userSpaceOnUse" x1="2909.7429" y1="1283.63" x2="778.8825" y2="1960.7252" gradientTransform="matrix(1 0 0 -1 0 3142)">
						<stop  offset="5.586590e-03" style="stop-color:#FFFFFF"/>
						<stop  offset="1" style="stop-color:#000000"/>
					</linearGradient>
					
						<path style="clip-path:url(#SVGID_00000131363155795538221640000005625021084170169271_);mask:url(#SVGID_00000155861617400257043750000005950690908545049525_);fill:url(#SVGID_00000162313122000599239350000014276610016393526702_);" d="
						M2775,1407.7C2785.6,1417,1176.5,0,1176.5,0L0,2241.4h2593.2L2775,1407.7z"/>
				</g>
			</g>
			
				<linearGradient id="SVGID_00000181045898973143738180000002474938627612357308_" gradientUnits="userSpaceOnUse" x1="500.3861" y1="2065.4919" x2="2076.0986" y2="1272.974" gradientTransform="matrix(1 0 0 -1 0 3142)">
				<stop  offset="0.2683" style="stop-color:#00FFFF;stop-opacity:0"/>
				<stop  offset="0.674" style="stop-color:#00FFFF;stop-opacity:0.6"/>
			</linearGradient>
			<path style="fill:url(#SVGID_00000181045898973143738180000002474938627612357308_);" d="M2775,1407.7
				C2785.6,1417,1176.5,0,1176.5,0L0,2241.4h2593.2L2775,1407.7z"/>
			<g>
				<path class="st4" d="M2709.8,1385.7h-786.2c-47.2,0-89,30.8-102.9,75.9l-181.6,588.6c-13.9,45.1,19.8,90.7,66.9,90.7h848
					c40.8,0,76.9-26.6,88.9-65.6l169.8-550.1C2834.1,1455.9,2782.3,1385.7,2709.8,1385.7z"/>
			</g>
			<g>
				<path class="st4" d="M2730,1433.2h-829c-47.2,0-89,30.8-102.9,75.9l-181.6,588.6c-13.9,45.1,19.8,90.7,66.9,90.7h847.9
					c40.8,0,76.9-26.6,88.9-65.6l182.4-591.1C2817.8,1482.7,2781.2,1433.2,2730,1433.2z"/>
			</g>
			<g class="st21">
				<path class="st7" d="M2812.7,1525.1l-169.8,550.1c-3.8,12.4-10.1,23.6-18.2,33l178-576.7c15.1-48.9-21.5-98.5-72.6-98.5H1901
					c-33.2,0-63.8,15.2-83.7,40.1l3.6-11.6c13.9-45.2,55.7-75.9,102.8-75.9h786.2C2782.3,1385.7,2834.1,1455.9,2812.7,1525.1z"/>
			</g>
			<g class="st2">
				<path class="st3" d="M2639.6,2084.3c-14.5,34.1-48.1,56.6-85.6,56.6h-847.9c-47.2,0-80.9-45.7-67-90.7l181.6-588.5
					c13.9-45.2,55.7-75.9,102.8-75.9h6.4c-3.3,6-6,12.5-8.1,19.3l-196,635.1c-6.8,21.9,9.6,44.1,32.6,44.1L2639.6,2084.3
					L2639.6,2084.3z"/>
			</g>
			<g>
				<path class="st4" d="M2593.2,2241.4H1134.8c-25.1,0-45.4-20.3-45.4-45.4v-9.6c0-25.1,20.3-45.4,45.4-45.4h1458.4
					c25.1,0,45.4,20.3,45.4,45.4v9.6C2638.6,2221,2618.2,2241.4,2593.2,2241.4z"/>
			</g>
			<g class="st2">
				<path class="st3" d="M2638.6,2186.3v9.7c0,25.1-20.3,45.4-45.4,45.4H1134.8c-25.1,0-45.4-20.3-45.4-45.4v-9.7
					c0-7.1,1.6-13.7,4.5-19.7c7.4,15.2,22.9,25.7,40.9,25.7h1458.4c18,0,33.6-10.5,40.9-25.7
					C2637,2172.6,2638.6,2179.2,2638.6,2186.3z"/>
			</g>
			<g>
				<path class="st3" d="M2593.2,2266.8H1134.8c-39.1,0-70.8-31.8-70.8-70.8v-9.6c0-39,31.8-70.8,70.8-70.8h1458.4
					c39,0,70.8,31.8,70.8,70.8v9.6C2664,2235,2632.2,2266.8,2593.2,2266.8z M1134.8,2166.3c-11,0-20,9-20,20v9.6c0,11,9,20,20,20
					h1458.4c11,0,20-9,20-20v-9.6c0-11-9-20-20-20H1134.8z"/>
			</g>
			<g>
				<path class="st3" d="M2554,2166.3h-847.9c-30.6,0-58.6-14.1-76.8-38.8c-18.2-24.6-23.4-55.5-14.4-84.8l181.6-588.5
					c17.3-56.1,68.4-93.8,127.1-93.8h786.2c42.7,0,81.7,19.7,107.1,54.1c25.3,34.4,32.7,77.4,20.1,118.2l-169.8,550.1
					C2651.8,2132.7,2606.3,2166.3,2554,2166.3z M1923.7,1411.1c-36.3,0-67.9,23.3-78.6,58l-181.6,588.6c-4.2,13.7-1.8,28.1,6.7,39.7
					c8.5,11.5,21.6,18.1,35.9,18.1H2554c29.9,0,55.9-19.2,64.7-47.7l169.8-550.1c7.8-25.2,3.3-51.9-12.4-73.1s-39.8-33.4-66.2-33.4
					h-786.2V1411.1z"/>
			</g>
			<g>
				<path class="st3" d="M1590.6,2266.8h-454.2c-39.1,0-70.8-31.8-70.8-70.8v-9.6c0-39,31.8-70.8,70.8-70.8h454.2
					c39.1,0,70.8,31.8,70.8,70.8v9.6C1661.4,2235,1629.6,2266.8,1590.6,2266.8z M1136.4,2166.3c-11,0-20,9-20,20v9.6
					c0,11,9,20,20,20h454.2c11,0,20-9,20-20v-9.6c0-11-9-20-20-20H1136.4z"/>
			</g>
			<g>
				<g>
					<path class="st7" d="M2246.4,1969.9c-12.2,0-21.5-9.5-22.2-22.7c-0.8-15.1-1.6-30.2-2.3-45.4l-0.5-9.9c-0.2,0-0.4,0-0.6,0
						c-9.8,0-15.7-5.9-19.7-11.1c-2.4-3.2-4.9-6.3-7.3-9.5c-2.1,1.6-4.3,3.2-6.4,4.8c-3.9,2.8-8.4,4.3-13,4.3
						c-4.1,0-8.1-1.2-11.9-3.5c-8.7-5.1-12.8-15.2-10-24.4c1.3-4.5,4.2-9.2,8-12.6c1.9-1.7,3.8-3.2,5.7-4.7
						c-1.2-1.6-2.4-3.1-3.5-4.6l-0.7-0.9c-0.2-0.3-0.4-0.6-0.6-0.8c-7.2-7.6-9.9-16.1-8.2-24.5l-50.9-16.5
						c-8.3-2.8-14.3-8.6-16.3-15.9s-0.1-15.2,5.5-21.8c13.3-15.9,31.5-36.1,55-50.9c21.4-13.4,42.2-20,63.6-20c1.6,0,3.1,0,4.7,0.1
						c9.6,0.5,18,2.2,25.6,5.2l3.5-3.3c7-6.6,14.2-13.5,22-19.8c26.2-21.1,57.2-32.9,94.7-36.2c6.2-0.5,12.5-0.8,18.8-0.8
						c19.4,0,39.3,2.6,59.2,7.7c2.9,0.7,5.6,1.8,8,2.8c1,0.4,2,0.8,3,1.2c2,0.7,3.7,2,5,3.6c0.6,0.7,2.5,3.3,2.9,3.8
						c1.1,1.4,1.9,3.1,2.2,4.9c2.5,12.8,1.1,24.8-0.3,36.5l-0.2,1.7c-3.7,32.9-13.7,62.6-29.8,88.4c-12.8,20.7-29.2,37.6-48.8,50.3
						c-4.3,2.8-8.7,5.5-13.1,8.2c-2.6,1.6-5.3,3.2-7.9,4.9c2.8,26.3-5.4,50.7-24.8,74.6c-13.2,16-30.2,29.6-52.1,41.5
						c-7.8,4.2-15.9,8.3-25,12.6C2254,1969,2250.2,1969.9,2246.4,1969.9L2246.4,1969.9z M2267.8,1910.8
						c10.1-6.2,18.2-12.4,25.1-19.1c10.1-9.9,16.4-19.5,19.7-29.9l-46.4,18C2266.8,1889.9,2267.3,1900.3,2267.8,1910.8z
						 M2279.4,1754.6c5.1,0,10,1.8,14,5.1c5.5,4.5,8.6,11,8.5,17.8c-0.1,7.1-3.6,13.7-9.5,18.2c-12.6,9.7-25.3,19.4-37.9,29.1
						c-7.9,6.1-15.9,12.1-23.8,18.2c44.1-13.5,77.1-27.1,106.5-43.7c14.5-8.2,25.6-16.1,35-24.9c11.3-10.8,20.6-24.3,28.2-41.3
						c-1.9-2.5-3.9-5-5.8-7.5l-3.7-4.8c-12.4-16.3-24.8-32.5-37.3-48.7c-10.4,1.5-20.6,4.2-30.7,8.2c-15.1,5.9-29.2,15.6-45.7,31.5
						c-15.2,14.6-28.9,30.4-40.7,47c-10.5,14.8-20.8,30.2-30.8,45.1l-1.7,2.5l20.1-15.4c13.6-10.4,27.1-20.8,40.8-31.2
						C2269.3,1756.4,2274.3,1754.6,2279.4,1754.6z M2176.2,1764.1c9.7-13.2,19.3-26.3,28.9-39.4c-3.2,0.3-6.3,0.8-9.3,1.6
						c-18.7,5.2-33.9,16.1-47.3,28.7L2176.2,1764.1z M2413.7,1683.3c0.4-3.3,0.8-6.6,1-9.8l-9.4-1.1L2413.7,1683.3z"/>
				</g>
				<g>
					<path class="st3" d="M2448,1685.4c1.3-11.5,2.8-23.1,0.6-34.8c-1-1.3-1.9-2.6-2.9-3.8c-3.3-1.2-6.6-2.8-10-3.6
						c-24.4-6.3-49.1-8.8-74.2-6.6c-32.7,2.8-62.8,12.9-88.6,33.7c-9.4,7.5-17.9,16-26.6,24.2c-2.3,2.2-4.1,3.2-7.4,1.7
						c-7.7-3.5-16.1-5.1-24.5-5.5c-22.7-1-42.9,6.3-61.8,18.2c-20.5,12.9-37,30.1-52.3,48.6c-6.5,7.8-4,16.5,5.7,19.8
						c6.1,2,12.3,4,18.4,6c14.7,4.8,29.4,9.5,44.1,14.3c0,0.5,0,0.7-0.1,0.9c-0.1,0.3-0.2,0.6-0.4,0.9c-6.1,7.9-4.6,15.2,1.8,22
						c0.7,0.8,1.3,1.7,1.9,2.5c3.4,4.4,6.8,8.9,10.4,13.6c-4.9,3.8-9.7,7-14,10.9c-2.1,2-4,4.8-4.9,7.6c-1.4,4.5,1,9.2,5,11.6
						c4.3,2.6,8.7,2.5,12.7-0.4c5.1-3.6,9.9-7.5,15-11.4c4.9,6.4,9.5,12.5,14.1,18.5c5.3,6.8,8.9,8,17.2,5.7c1.5-0.5,3-0.8,4.7-1.2
						c0.1,1.8,0.3,3.2,0.3,4.5c1,21.2,2,42.5,3.2,63.7c0.5,10,8.5,14.8,17.5,10.5c8.2-3.9,16.4-8,24.4-12.3
						c18.5-10.1,35.3-22.4,48.8-38.8c16.8-20.6,26.1-43.7,21.8-70.9c-0.2-1.1,0.7-2.9,1.6-3.5c8.3-5.3,16.7-10.3,25-15.7
						c18.7-12.2,33.7-28,45.4-46.9C2435.8,1743.5,2444.6,1715.3,2448,1685.4z M2180.5,1777.3c-17-5.5-34.6-11.3-52.7-17.2
						c18.7-19.9,38.5-37.2,65.2-44.6c11.5-3.2,24.8-2.9,32.7,0.3C2210.7,1736.2,2195.7,1756.6,2180.5,1777.3z M2323.4,1864.6
						c-4.3,13.8-12.6,25-22.7,35c-12.6,12.3-27.3,21.5-43.2,29.8c-1-19.5-1.9-38.6-2.9-57.3c24-9.3,47.5-18.5,71.1-27.6
						C2326.6,1851,2325.5,1857.9,2323.4,1864.6z M2412.2,1733.9c-7.7,18.3-17.9,34.9-32.3,48.6c-11.2,10.6-23.8,19-37.2,26.6
						c-36.2,20.4-74.9,34.5-114.5,46.4c-1.9,0.6-3.1,0.5-4.4-1.3c-2.8-3.9-5.9-7.7-8.8-11.6c-0.2-0.2-0.3-0.6-0.5-1.3
						c1-0.8,2.1-1.6,3.2-2.5c22.6-17.4,45.3-34.7,67.9-52.1c6.5-5,6.8-13.5,0.8-18.4c-4.2-3.5-9.8-3.4-14.7,0.3
						c-13.6,10.4-27.2,20.8-40.8,31.2c-10.1,7.7-20.2,15.5-30.7,23.5c-3.6-4.7-7.1-9-10.2-13.5c-0.5-0.8,0-2.9,0.7-3.9
						c12.1-18,24-36.1,36.6-53.7c12.4-17.5,26.5-33.8,42-48.6c14.5-14.1,30.3-26.5,49.4-33.9c12.2-4.8,24.8-8,37.9-9.4
						c1.2-0.2,2.9,1,3.7,2.1c13.2,17.1,26.3,34.3,39.5,51.5c3.9,5.1,7.8,10.3,11.9,15.4C2412.8,1730.8,2412.9,1732.1,2412.2,1733.9z
						 M2420,1710c-13.1-17.1-25.9-33.8-38.7-50.6c0-0.4,0.1-0.8,0.2-1.2c14.9,1.8,29.8,3.6,44.9,5.4
						C2426.2,1679.8,2423.8,1694.7,2420,1710z"/>
				</g>
				<g>
					<path class="st7" d="M2411.6,1729.2c-4.1-5.1-7.9-10.3-11.9-15.4c-13.1-17.2-26.2-34.3-39.5-51.5c-0.8-1.1-2.6-2.3-3.7-2.1
						c-13,1.4-25.6,4.6-37.9,9.4c-19.1,7.4-34.8,19.8-49.4,33.9c-15.5,14.9-29.6,31.1-42,48.6c-12.5,17.7-24.5,35.8-36.6,53.7
						c-0.7,1-1.3,3.1-0.7,3.9c3.1,4.5,6.6,8.8,10.2,13.5c10.5-8.1,20.6-15.8,30.7-23.5c13.6-10.4,27.1-20.8,40.8-31.2
						c4.9-3.7,10.4-3.7,14.7-0.3c6.1,4.9,5.8,13.5-0.8,18.4c-22.6,17.4-45.3,34.7-67.9,52.1c-1.1,0.8-2.2,1.6-3.2,2.5
						c0.3,0.7,0.3,1.1,0.5,1.3c2.9,3.9,6,7.7,8.8,11.6c1.3,1.8,2.5,1.9,4.4,1.3c39.6-11.9,78.4-26,114.5-46.4
						c13.3-7.5,26-16,37.2-26.6c14.5-13.8,24.6-30.4,32.3-48.6C2412.9,1732.1,2412.8,1730.8,2411.6,1729.2z M2371.9,1755.4
						c-17.3,13-41.7,9.8-54.7-7.2c-13.1-17-9.8-41.5,7.4-54.7c16.8-12.9,41.3-9.6,54.4,7.4
						C2391.9,1717.9,2388.7,1742.7,2371.9,1755.4z"/>
				</g>
				<g>
					<path class="st31" d="M2420,1710c-13.1-17.1-25.9-33.8-38.7-50.6c0-0.4,0.1-0.8,0.2-1.2c14.9,1.8,29.8,3.6,44.9,5.4
						C2426.2,1679.8,2423.8,1694.7,2420,1710z"/>
				</g>
				<g>
					<path class="st31" d="M2225.6,1715.8c-14.9,20.3-29.9,40.7-45.1,61.5c-17-5.6-34.6-11.3-52.7-17.2
						c18.7-19.9,38.5-37.3,65.2-44.6C2204.4,1712.4,2217.7,1712.6,2225.6,1715.8z"/>
				</g>
				<g>
					<path class="st31" d="M2300.7,1899.7c-12.6,12.3-27.3,21.5-43.2,29.8c-1-19.5-1.9-38.6-2.9-57.3c24-9.3,47.5-18.4,71.2-27.7
						c0.9,6.5-0.2,13.4-2.3,20.1C2319.1,1878.5,2310.9,1889.7,2300.7,1899.7z"/>
				</g>
				<g>
					<path class="st3" d="M2378.9,1701c-13.1-17-37.6-20.4-54.4-7.4c-17.1,13.2-20.4,37.6-7.4,54.7s37.4,20.2,54.7,7.2
						C2388.7,1742.7,2391.9,1717.9,2378.9,1701z M2360.3,1741c-8.8,6.6-21.6,4.9-28.4-3.9c-7.1-9-5.1-22.3,4.2-29.2
						c8.7-6.6,21.9-4.7,28.4,4.1C2371.3,1721.2,2369.4,1734.1,2360.3,1741z"/>
				</g>
				<g>
					<path class="st5" d="M2360.2,1741c-8.8,6.6-21.6,4.9-28.5-3.9c-7-9-5.1-22.3,4.2-29.2c8.8-6.5,21.9-4.7,28.4,4.1
						C2371.3,1721.2,2369.5,1734.1,2360.2,1741z"/>
				</g>
			</g>
		</g>
	</g>
</g>
</svg>
