<?xml version="1.0" encoding="utf-8"?>
<!-- Generator: Adobe Illustrator 27.2.0, SVG Export Plug-In . SVG Version: 6.00 Build 0)  -->
<svg version="1.1" id="Layer_1" xmlns="http://www.w3.org/2000/svg" xmlns:xlink="http://www.w3.org/1999/xlink" x="0px" y="0px"
	 viewBox="0 0 2852.4 3145.4" style="enable-background:new 0 0 2852.4 3145.4;" xml:space="preserve">
<style type="text/css">
	.st0{fill:#FFFFFF;}
	.st1{fill:#371A45;}
	.st2{opacity:0.35;}
	.st3{opacity:0.25;}
	.st4{fill:url(#SVGID_1_);}
	.st5{fill:#FF9D33;}
	.st6{fill:#FCAC38;}
	.st7{fill:#FFD243;}
	.st8{opacity:0.6;}
	.st9{fill:#DDDDDD;}
	.st10{opacity:0.26;}
	.st11{fill:#293856;}
	.st12{fill:#21102B;}
	.st13{opacity:0.5;}
	.st14{opacity:0.3;}
	.st15{fill:none;stroke:#FFFFFF;stroke-width:29.6644;stroke-linecap:round;stroke-miterlimit:10;}
	.st16{fill:#22A7F0;}
	.st17{fill:#127DDD;}
	.st18{opacity:0.7;}
	.st19{fill:#9DA9B9;}
	.st20{fill:#FF1B40;}
	.st21{opacity:0.55;}
	.st22{fill:#232323;}
	.st23{fill:#F6F6F6;}
	.st24{fill:#45C1F7;}
	.st25{opacity:0.2;}
</style>
<g>
	<g>
		<g>
			<g>
				<path class="st0" d="M2765.7,670.8c0,0-70.5-50.2-160.1-37.1c-96.1,14-169.7,54.2-292.9,45.1
					c-151.9-11.3-255.9-177.3-255.9-177.3s110.7-297.8,110.7-416.6c18.8,2,36.7,7.5,54,15.3c77.1,34.6,142.4,114.2,222,133.3
					c11.5,2.8,23.3,4.3,35.5,4.2c12.7-0.1,24.9-1.6,36.7-4.3c86.3-18.9,157.1-93.7,291.6-72c9.4,1.5,19.3,3.5,29.4,6.1
					C2836.7,167.4,2764,667.6,2765.7,670.8z"/>
			</g>
		</g>
		<g>
			<g>
				<path class="st1" d="M2348.5,695.7c-11.8,0-24.1-0.4-36.9-1.4c-158-11.7-263.6-177.5-268-184.6c-2.6-4.1-3.1-9.2-1.4-13.7
					c1.1-3,109.7-296.5,109.7-411.2c0-4.4,1.9-8.7,5.2-11.6c3.3-3,7.7-4.4,12.1-3.9c59.1,6.4,108.8,43.6,156.8,79.6
					c50.1,37.6,97.5,73.1,151.9,73.1c0.3,0,0.6,0,0.9,0c40.1-0.3,76.2-17,114.5-34.8c63.7-29.5,135.8-62.9,247.2-35
					c7.8,1.9,12.8,9.5,11.7,17.4c-27.8,191.2-69.3,480.4-70.9,500.7c0.1,4.5-1.7,9-5.2,12.1c-5.4,4.9-13.5,5.3-19.5,1.1
					c-0.6-0.4-66.8-46.3-148.8-34.3c-31.8,4.6-60.7,12.1-91.3,20.1C2466.1,682.3,2414.2,695.7,2348.5,695.7z M2074.2,499.4
					c20.4,29.5,113.9,154.4,239.7,163.8c78.7,5.8,137.8-9.4,194.8-24.2c30.1-7.8,61.2-15.8,94.6-20.7
					c65.2-9.5,120.5,11.9,149.5,26.9c3.8-31.3,13-95.2,32.2-229.4c14.3-100.2,28.8-200.1,34.1-236.3
					c-92.8-19.3-153.7,8.9-212.7,36.2c-41.4,19.2-80.6,37.3-127.4,37.6c-0.4,0-0.8,0-1.1,0c-64.9,0-118.7-40.3-170.7-79.3
					c-41.6-31.1-81.1-60.8-124.9-70.8C2173.9,221.8,2090.9,453.7,2074.2,499.4z M2779.4,663.3
					C2779.4,663.3,2779.4,663.3,2779.4,663.3C2779.4,663.3,2779.4,663.3,2779.4,663.3z M2779.4,663.3
					C2779.4,663.3,2779.4,663.3,2779.4,663.3C2779.4,663.3,2779.4,663.3,2779.4,663.3z M2779.4,663.2
					C2779.4,663.2,2779.4,663.3,2779.4,663.2C2779.4,663.3,2779.4,663.2,2779.4,663.2z"/>
			</g>
		</g>
		<g>
			<g>
				<path class="st0" d="M1329.7,943.2l-8.1,71l-4.1,36.1l-71.4,623.2c0,0,42.8,2.5,100.4,1.1c11.3-0.3,23.1-0.7,35.3-1.2
					c90.9-4.3,201.6-19.3,245.3-64.1c65.3-67,90-406.4,39.9-543.5c-22.9-62.8-151.5-95.2-243.1-110.5c-10.2-1.7-20-3.2-29.1-4.5
					C1356.4,945.2,1329.7,943.2,1329.7,943.2z"/>
			</g>
		</g>
		<g class="st2">
			<g>
				<path class="st1" d="M1321.6,1014.1l-4.1,36.1l-56.7,494.9l-14.7,128.4c0,0,0.9,0,2.6,0.1c0.5,0,1.1,0,1.7,0.1
					c0.5,0,1,0,1.6,0.1c0.4,0,0.8,0,1.2,0.1c0.2,0,0.4,0,0.5,0c0.8,0,1.6,0.1,2.5,0.1c0.2,0,0.4,0,0.6,0c0.7,0,1.5,0.1,2.3,0.1
					c1.1,0.1,2.3,0.1,3.5,0.1c0.9,0,1.8,0.1,2.7,0.1c1,0,1.9,0.1,2.9,0.1c1.3,0,2.6,0.1,3.9,0.1c2.7,0.1,5.6,0.1,8.7,0.2
					c2.7,0.1,5.5,0.1,8.5,0.2c3.4,0,7,0.1,10.7,0.1c13.7,0.1,29.4,0,46.4-0.3c3.3-0.1,6.7-0.2,10.1-0.3c2.4-0.1,4.8-0.2,7.2-0.2
					c5.9-0.2,11.9-0.4,18-0.7c90.9-4.3,201.6-19.3,245.3-64.1c53.8-55.1,80.1-295,59.7-454.6c-1.1,137.9-26,284.4-66.6,325.9
					c-20,20.6-56.6,34.5-99.2,44c-18.2,4.1-33.5-13.6-27.4-31.2c0-0.1,0.1-0.3,0.1-0.4c10.9-32.3,18.6-69.5,20.9-113.6
					c4.9-94.5-1.5-231.3-98.5-346.6C1413.9,1030.2,1372.1,1022.8,1321.6,1014.1z"/>
			</g>
		</g>
		<g>
			<g>
				<path class="st1" d="M1313,1690.7c-37.9,0-64.3-1.4-67.9-1.6l-16.5-0.9l87.2-761.7l15,1.2c31.8,2.4,312.2,27,350.8,132.8
					c23.9,65.4,33.2,182.1,24.2,304.6c-3.5,47.1-18.5,204.9-67.6,255.2C1578.4,1681.6,1408.9,1690.7,1313,1690.7z M1263.5,1658.7
					c92.3,3.5,295.1-1.5,352.5-60.3c60.7-62.3,83.9-397.4,36.5-527.3c-25.4-69.6-219.1-102.4-308.9-111.1L1263.5,1658.7z"/>
			</g>
		</g>
		<g>
			<g>
				<path class="st0" d="M1635.6,1357.4l-123.3,0.8c-11,0.1-20.6,7.5-23.3,18.2c-9.9,39.1-28,130.6,8.5,163.7
					c30.2,27.5,82.3,28,114.5,4.4c36-26.5,45.5-116.8,48-161.6C1660.8,1369,1649.6,1357.3,1635.6,1357.4z"/>
			</g>
		</g>
		<g class="st2">
			<g>
				<path class="st1" d="M1489,1376.5c-9.9,39.1-28,130.6,8.5,163.7c30.2,27.5,82.3,28.1,114.5,4.4c22.1-16.3,34.2-56.7,40.8-95.9
					c-6.9,19.3-16.6,34.7-28.2,44.5c-66,55.9-107.3-18.1-107.3-18.1s-9.2,16.7-15.6,17.2c-27,2.3-15.8-81-9-123.9
					C1491.1,1370.7,1489.8,1373.5,1489,1376.5z"/>
			</g>
		</g>
		<g>
			<g>
				<path class="st1" d="M1557.3,1574c-25.1,0-50-8.3-68-24.7c-40-36.3-24.8-125.8-12.1-175.8c4.1-16.1,18.5-27.4,35.1-27.5
					l123.3-0.8c0.1,0,0.2,0,0.2,0c10,0,19.6,4.1,26.5,11.3c6.9,7.3,10.6,17.2,10,27.2c-3.5,62.7-15.5,143.3-53,170.9
					C1601.6,1567.5,1579.3,1574,1557.3,1574z M1635.7,1369.7l-123.3,0.8c-5.4,0-10.1,3.7-11.4,8.9c-18.9,75-17.1,131.6,4.8,151.6
					c25.2,22.9,70.5,24.5,98.9,3.6c22.5-16.6,38.6-73.5,43-152.4c0.2-3.3-1-6.4-3.2-8.8C1642.1,1371,1639.2,1369.8,1635.7,1369.7
					L1635.7,1369.7z"/>
			</g>
		</g>
		<g>
			<g>
				<path class="st1" d="M1551,1572.2c-2.6-1.7-3.9-2.9-5.6-4.4c-1.6-1.4-3.1-2.8-4.5-4.3c-2.8-2.9-5.4-6-7.7-9.2
					c-4.6-6.4-8.7-13.2-11.7-20.3c-6.3-14.1-9.6-29-10.8-43.8c-1.1-14.8-0.1-29.4,1.6-43.6c0.8-7.1,1.9-14.2,3.4-21.3
					c1.6-7.2,3.1-13.9,6.3-21.3c0.8-1.9,3-2.7,4.8-1.9c1.7,0.8,2.6,2.7,2,4.5l-0.1,0.5c-1.8,5.8-2.9,13-3.6,19.7
					c-0.7,6.8-1,13.7-1.1,20.6c-0.2,13.9,0.3,27.6,2.7,40.7c2.3,13.1,6.7,25.7,13,36.7c3,5.6,6.9,10.6,11,15.2
					c2.1,2.3,4.2,4.4,6.5,6.3c1.1,1,2.3,1.9,3.4,2.7c1,0.7,2.5,1.7,2.9,1.8c6.4,2.4,9.7,9.6,7.3,16.1c-2.4,6.4-9.6,9.7-16.1,7.3
					c-0.9-0.3-1.7-0.8-2.5-1.2L1551,1572.2z"/>
			</g>
		</g>
		<g>
			<g>
				<path class="st1" d="M1481.9,1035.6c15.3-1.2,30.5-1.9,45.7-2.4c15.2-0.5,30.5-0.8,45.9-0.6c15.3,0.2,30.7,0.6,46.2,1.9
					c15.5,1.3,31.1,3,47.2,6.7c8.4,2,13.6,10.4,11.7,18.8c-2,8.4-10.4,13.6-18.8,11.7c-0.4-0.1-0.8-0.2-1.2-0.3l-0.1,0
					c-13.1-4.2-27.5-7.1-42-9.5c-14.5-2.4-29.3-4.1-44.2-5.5c-14.9-1.4-29.8-2.4-44.8-3.1c-15-0.7-30.1-1.2-45-1.4l-0.1,0
					c-4.4,0-8-3.7-8-8.1C1474.4,1039.4,1477.7,1036,1481.9,1035.6z"/>
			</g>
		</g>
		<g>
			<g>
				<path class="st0" d="M2054.8,1097.1c0,0-119.4,418.1-602.2,212.9c-20.4-8.7-41.5-18.4-63.3-29.5l-4.7-158.3l-1.3-43.8
					l-4.5-149.9c0,0,19.2,14.4,51.7,33c17.1,10,38,21,61.7,31.8c76.8,35.1,183.5,67.4,290.4,46.3c41.3-8.1,82.6-24.2,122.3-51.2
					L2054.8,1097.1z"/>
			</g>
		</g>
		<g class="st3">
			<g>
				<path class="st1" d="M2054.8,1097.1c0,0-119.4,418.1-602.2,212.9c-20.4-8.7-41.5-18.4-63.3-29.5l-4.7-158.3
					c77.8,57.9,213.2,226,408.2,128.2c99.6-49.9,2.1-88.8-10.3-210.7c41.3-8.1,82.6-24.2,122.3-51.2L2054.8,1097.1z"/>
			</g>
		</g>
		<g>
			<g>
				<path class="st1" d="M1697.5,1382.4c-93.9,0-199.3-29.3-315.2-87.9c-7.7-3.9-10.8-13.3-6.9-21c3.9-7.7,13.3-10.8,21-6.9
					c175.8,88.9,324.9,107.8,443.1,56.2c129.4-56.4,183.5-183,196.8-219.8l-131.9-95.6c-98.3,62.5-220.8,71.4-355.3,25.6
					c-103.4-35.3-176.6-89.6-179.7-91.9c-6.9-5.2-8.3-15-3.1-21.9c5.2-6.9,15-8.3,21.9-3.1c2.8,2.1,286.2,210.4,507.9,59.5
					c5.4-3.7,12.6-3.6,18,0.3l149.9,108.6c5.3,3.9,7.7,10.6,5.9,16.9c-2.1,7.2-52.4,177.7-217.5,249.9
					C1805,1372,1753.3,1382.4,1697.5,1382.4z"/>
			</g>
		</g>
		<g>
			<g>
				<path class="st1" d="M1734.2,1380.7c-1.1,0-2.2-0.1-3.3-0.4c-34.2-7.5-59.8-26.4-76.1-56.1c-52.6-96.3,13.5-276.5,16.3-284.1
					c3-8.1,12-12.2,20.1-9.2c8.1,3,12.2,12,9.2,20.1c-0.6,1.7-64,174.4-18.2,258.2c11.9,21.8,30,35,55.3,40.6
					c8.4,1.8,13.8,10.2,11.9,18.6C1747.8,1375.7,1741.4,1380.7,1734.2,1380.7z"/>
			</g>
		</g>
		<g>
			<g>
				<linearGradient id="SVGID_1_" gradientUnits="userSpaceOnUse" x1="1075.7567" y1="1825.5613" x2="1087.2148" y2="3360.9519">
					<stop  offset="6.391647e-07" style="stop-color:#FFD243"/>
					<stop  offset="0.3361" style="stop-color:#FFD243"/>
					<stop  offset="0.5471" style="stop-color:#FFD243"/>
					<stop  offset="0.8518" style="stop-color:#FFD243;stop-opacity:0"/>
				</linearGradient>
				<path class="st4" d="M2147.3,3002.2c-293,89.7-662.1,143.2-1063,143.2c-400.9,0-769.9-53.5-1062.9-143.1c0-0.4,0-0.9,0-1.3
					c-0.1-4.1-0.2-8.2-0.2-12.4v-0.9c-0.3-20.1,0-40.2,1-60.4c0.2-3.9,0.4-7.9,0.6-11.8c2.4-43.3,7.5-86.6,15.4-129.8
					c2.5-13.9,5.3-27.9,8.5-41.7c2.3-10.4,4.8-20.9,7.5-31.2c1.8-6.9,3.6-13.8,5.5-20.7c0.9-3.4,1.9-6.9,2.9-10.3
					c2-6.9,4-13.8,6.2-20.7c4.3-13.7,8.9-27.4,13.7-41.1c2.5-6.8,4.9-13.6,7.5-20.4c3.9-10.2,7.9-20.3,12.1-30.5
					c2.8-6.7,5.7-13.5,8.6-20.1c1.5-3.4,3-6.7,4.5-10.1c12.1-26.8,25.4-53.3,39.9-79.4c8.5-15.3,17.3-30.3,26.5-44.9
					c2.9-4.6,5.8-9.3,8.7-13.8c0.9-1.4,1.8-2.7,2.7-4.1c2.3-3.6,4.7-7.2,7-10.7c4.4-6.5,8.7-13,13.2-19.3c1.7-2.5,3.4-4.9,5.1-7.3
					c1.2-1.8,2.5-3.5,3.8-5.3c2.5-3.5,5.1-7,7.6-10.5c3.4-4.6,6.8-9.1,10.2-13.6c3.4-4.5,6.9-9,10.4-13.4c3.5-4.5,7-8.9,10.6-13.2
					c0,0,0,0,0,0c3.1-3.8,6.2-7.5,9.3-11.2c1-1.1,1.9-2.3,2.8-3.4c2.5-3,5-5.9,7.5-8.8c1.3-1.5,2.7-3.1,4-4.6c3-3.5,6.1-7,9.2-10.4
					c3.8-4.2,7.5-8.3,11.3-12.4c3.8-4.1,7.6-8.2,11.5-12.2c3.4-3.6,6.9-7.2,10.4-10.7c0.6-0.6,1.2-1.3,1.9-1.9
					c3.6-3.6,7.2-7.2,10.9-10.8c0.1-0.2,0.2-0.3,0.4-0.4c7.9-7.8,15.9-15.4,24-22.8c4.1-3.8,8.2-7.5,12.3-11.2
					c8.3-7.4,16.8-14.7,25.3-21.9c4.1-3.4,8.3-6.8,12.4-10.2c4.3-3.5,8.6-6.9,12.9-10.3c5.1-4,10.3-8,15.5-11.9
					c3.6-2.7,7.1-5.4,10.7-8c4.4-3.2,8.8-6.4,13.3-9.6c6-4.3,12.1-8.5,18.2-12.7c2.5-1.7,5.1-3.4,7.6-5.1c1.5-1,2.9-2,4.4-2.9
					c2.1-1.4,4.2-2.8,6.3-4.2c1.1-0.8,2.3-1.5,3.5-2.3c0.4-0.2,0.8-0.5,1.2-0.8c4.4-2.9,8.8-5.7,13.3-8.5c8.9-5.6,17.9-11,27-16.3
					c3-1.8,6.1-3.5,9.1-5.3c9.1-5.2,18.3-10.2,27.6-15.2c3.1-1.6,6.2-3.2,9.3-4.9c16.7-8.7,33.6-16.9,50.7-24.6
					c8.5-3.9,17.1-7.6,25.8-11.3c17.3-7.3,34.8-14.1,52.4-20.5c13.2-4.8,26.5-9.3,39.9-13.5c26.8-8.5,53.9-15.9,81.3-22.3
					c18.2-4.3,36.6-8,55.1-11.3c17.9-3.2,35.8-5.9,53.9-8.1c1.1-0.2,2.3-0.3,3.4-0.4c8.8-1.1,17.6-2.1,26.4-2.9
					c9.4-0.9,18.8-1.7,28.1-2.3c4.7-0.3,9.4-0.6,14.1-0.9c1.3-0.1,2.7-0.2,4-0.2c4.6-0.2,9.2-0.5,13.8-0.6c4.6-0.2,9.2-0.4,13.8-0.5
					c4.7-0.1,9.4-0.2,14.1-0.3c13.6-0.2,27.3-0.1,41,0.2c3.9,0.1,7.8,0.2,11.8,0.4c7.8,0.3,15.6,0.6,23.4,1.1
					c11.7,0.7,23.5,1.6,35.2,2.7c7.8,0.7,15.5,1.5,23.3,2.4c0,0,0,0,0,0c93.7,10.7,186.9,34.1,277.3,70.9
					c34.9,14.1,69.3,30.2,103.1,48.3c4.9,2.6,9.7,5.3,14.5,8c8.3,4.6,16.5,9.2,24.6,14.1c4.9,2.9,9.8,5.8,14.6,8.8
					c5.1,3.1,10.1,6.3,15.2,9.5c6.7,4.3,13.3,8.6,19.9,13c1.6,1,3.2,2,4.7,3.1c1.7,1.1,3.3,2.2,4.9,3.4c4.6,3.1,9.1,6.2,13.6,9.4
					c0.7,0.5,1.4,1,2.1,1.5c4.4,3.1,8.7,6.3,13.1,9.4c4.7,3.5,9.4,7,14.1,10.5c4.7,3.5,9.3,7.1,13.8,10.7c4.6,3.6,9.1,7.2,13.7,10.9
					c4.6,3.7,9,7.4,13.5,11.1c4.4,3.7,8.9,7.5,13.2,11.3c4.4,3.8,8.7,7.6,13,11.5c4.3,3.8,8.5,7.7,12.8,11.6
					c8.5,7.8,16.7,15.7,24.9,23.8c20.4,20.1,39.9,41,58.4,62.6c11.2,12.9,21.9,26.1,32.3,39.5c3.4,4.5,6.9,8.9,10.3,13.5
					c3.4,4.5,6.8,9.1,10.1,13.6c10,13.7,19.6,27.5,28.8,41.7c3,4.5,6,9.1,8.9,13.7c0.2,0.3,0.4,0.6,0.6,0.9
					c2.9,4.6,5.8,9.2,8.6,13.8c2.9,4.8,5.8,9.6,8.7,14.4c2.8,4.8,5.7,9.7,8.4,14.5c5.6,9.7,11,19.5,16.2,29.4
					c5.3,9.9,10.3,19.9,15.2,29.9c2.5,5,4.9,10,7.2,15.1c7.2,15.2,13.9,30.5,20.3,45.9c2.1,5.2,4.2,10.3,6.3,15.5
					c8.2,20.7,15.7,41.6,22.6,62.8c0.1,0.3,0.2,0.6,0.3,0.9c1.7,5.1,3.2,10.1,4.8,15.2c1.7,5.3,3.2,10.7,4.8,16
					c1.5,5.3,3,10.7,4.5,16.1c1.5,5.4,2.9,10.8,4.3,16.2c1.3,5,2.5,10,3.7,15c0.2,0.9,0.5,1.9,0.7,2.9c1.1,4.9,2.3,9.7,3.4,14.6
					c2.5,10.9,4.7,21.8,6.8,32.8c1,5.5,2.1,11,3,16.5c1,5.5,1.9,11,2.8,16.5c0.9,5.5,1.7,11,2.5,16.6c0.7,5.1,1.4,10.1,2.1,15.2
					c0.1,0.8,0.2,1.6,0.3,2.3c0.6,4.9,1.2,9.9,1.7,14.8c0,0.4,0.1,0.9,0.2,1.3c0.6,5.4,1.1,10.8,1.7,16.3c0.6,5.5,1,11.1,1.5,16.7
					c0.9,11.2,1.6,22.3,2.1,33.5C2147.6,2951.5,2147.9,2976.8,2147.3,3002.2z"/>
			</g>
		</g>
		<g>
			<g>
				<path class="st5" d="M1807.5,2196.3c-290.2,310.9-528.6-168.7-794.6-102.5c-96.6,24-168.6,95.1-402,84.5
					c-95.9-4.3-139-31.4-158.2-58c0.2-0.1,0.3-0.2,0.5-0.4c4.4-3.2,8.8-6.4,13.2-9.6c6-4.3,12.1-8.5,18.2-12.7
					c2.5-1.8,5-3.4,7.6-5.2c1.5-1,2.9-2,4.5-2.9c3.2-2.1,6.5-4.3,9.8-6.4c0.4-0.2,0.8-0.5,1.2-0.7c4.4-2.9,8.8-5.7,13.3-8.4
					c8.9-5.6,17.9-11.1,27-16.3c3-1.8,6.1-3.6,9.1-5.3c9.1-5.2,18.3-10.3,27.6-15.2c3.1-1.6,6.2-3.2,9.3-4.9
					c16.7-8.7,33.6-16.9,50.7-24.6c8.6-3.9,17.2-7.7,25.8-11.3c17.3-7.3,34.8-14.1,52.4-20.5c13.2-4.7,26.5-9.3,39.9-13.5
					c26.8-8.5,53.9-15.9,81.3-22.3c18.3-4.2,36.6-8,55.1-11.3c17.9-3.2,35.8-5.9,53.9-8.1c1.1-0.2,2.3-0.3,3.4-0.4
					c8.8-1.1,17.6-2,26.4-2.9c9.3-0.9,18.7-1.7,28.1-2.3c4.7-0.3,9.4-0.6,14.1-0.9c1.3,0,2.7-0.2,4-0.2c4.6-0.3,9.2-0.5,13.8-0.7
					c4.6-0.2,9.3-0.3,13.9-0.4c4.7-0.1,9.4-0.2,14.1-0.3c13.7-0.2,27.3-0.1,41,0.2c3.9,0.1,7.8,0.2,11.8,0.4
					c7.8,0.3,15.6,0.7,23.4,1.1c11.7,0.7,23.5,1.6,35.1,2.7c7.8,0.7,15.6,1.6,23.4,2.4c0,0,0,0,0,0c93.7,10.8,187,34.2,277.3,70.9
					c34.9,14.1,69.3,30.2,103.2,48.3c4.8,2.6,9.7,5.3,14.5,8c8.3,4.6,16.4,9.3,24.6,14.1c4.9,2.9,9.8,5.8,14.6,8.8
					c5.1,3.1,10.1,6.2,15.2,9.4c10,6.4,19.9,12.9,29.6,19.5c4.5,3.1,9.1,6.2,13.5,9.4c0.7,0.5,1.4,1.1,2.1,1.6
					c4.4,3.1,8.7,6.2,13.1,9.4c4.7,3.5,9.4,6.9,14.1,10.5c4.7,3.5,9.3,7.1,13.9,10.7c4.6,3.6,9.1,7.3,13.6,10.9
					c4.6,3.7,9,7.3,13.5,11.1c4.4,3.7,8.9,7.5,13.2,11.2c4.4,3.8,8.7,7.6,13,11.5C1799,2188.5,1803.3,2192.4,1807.5,2196.3z"/>
			</g>
		</g>
		<g>
			<g>
				<path class="st6" d="M26.3,2869.8c4.7,47.5,12.7,94.6,23.7,140.9c-9.6-2.8-19.1-5.7-28.5-8.5c-0.1-3.2-0.2-6.5-0.2-9.8
					c-0.1-3.8-0.1-7.7-0.1-11.6c-0.1-11.5,0-22.9,0.4-34.4c0.2-7.9,0.5-15.7,0.9-23.6c0-0.3,0-0.6,0-0.9c0.2-4.2,0.4-8.4,0.7-12.6
					c0.2-4.3,0.6-8.5,0.8-12.8C24.6,2887.5,25.4,2878.7,26.3,2869.8z"/>
			</g>
		</g>
		<g>
			<g>
				<path class="st6" d="M2147.6,2989.3c0,3.7-0.1,7.4-0.2,11.1c0,0.6,0,1.1,0,1.7c-9.4,2.8-18.8,5.7-28.3,8.5
					c0.4-1.8,0.9-3.6,1.3-5.3c9.6-41.1,16.6-82.5,21.1-123.8c0.4-3.3,0.7-6.6,1-9.9c0-0.1,0-0.1,0-0.2c0.2,1.6,0.3,3.1,0.4,4.7
					c0.6,5.6,1,11.1,1.5,16.7c0.4,5.4,0.8,10.8,1.1,16.3c0.6,9.3,1.1,18.7,1.4,28.1c0.2,4.4,0.3,8.8,0.4,13.2
					c0.1,3.4,0.2,6.8,0.2,10.1C2147.6,2970,2147.7,2979.7,2147.6,2989.3z"/>
			</g>
		</g>
		<g>
			<g>
				<path class="st5" d="M2029,3035.4c-21.6,5.5-43.5,10.9-65.7,16c-71.8,16.7-147,31.3-225.1,43.9c-2.5,0.4-5.1,0.8-7.7,1.2
					c-0.1,0-0.2,0-0.4,0.1c0.3-1.4,0.6-2.8,0.9-4.2c29-129.5,115.8-234.7,193.9-234.9c39.2-0.1,70.5,27.1,88.3,70.6
					C2025.3,2957.5,2031.1,2994.4,2029,3035.4z"/>
			</g>
		</g>
		<g>
			<g>
				<path class="st1" d="M1670.6,3004.7L1670.6,3004.7c-16.8,32.8-26.9,67.5-30.9,102.9c-0.1,0.7-0.2,1.4-0.2,2.1
					c-9.7,1.3-19.4,2.5-29.2,3.7c0.5-3.4,1.1-6.7,1.7-10.1c7.4-38.5,23.5-75.8,48.8-105.2c2.1-2.5,5.9-2.7,8.3-0.6
					C1671.3,2999.3,1671.8,3002.3,1670.6,3004.7z"/>
			</g>
		</g>
		<g>
			<g>
				
					<ellipse transform="matrix(0.998 -6.395812e-02 6.395812e-02 0.998 -148.4536 43.2717)" class="st5" cx="601.6" cy="2340.4" rx="105.7" ry="90.1"/>
			</g>
		</g>
		<g>
			<g>
				
					<ellipse transform="matrix(0.9378 -0.3471 0.3471 0.9378 -784.0821 364.4187)" class="st7" cx="625.1" cy="2370.6" rx="79.4" ry="64.1"/>
			</g>
		</g>
		<g>
			<g>
				<path class="st1" d="M604.9,2438.9c-22.9,2.7-46.9-1.3-68.3-11.8c-10.6-5.4-20.6-12.5-29.2-21.1c-8.5-8.8-15.6-19.1-20.3-30.7
					c-9.8-23.2-8.4-50.6,2-73.4c5.2-11.5,12.8-21.6,21.5-30.3c8.8-8.7,18.7-16.1,29.6-21.6c10.9-5.5,22.4-9.5,34.3-12.1
					c11.9-2.4,24-3.2,36-2.6c12,0.9,24,3.2,35.4,7c11.5,3.9,22.2,9.7,32,16.8c19.7,14,34.5,35.6,39.1,59.5
					c4.9,23.8-1.6,49-15.5,67.4c-1.2,1.6-3.3,1.9-4.9,0.7c-1.4-1-1.8-3-1-4.5c10.1-18.9,13.1-40.8,7.2-60.3
					c-5.5-19.5-18.8-36.1-35.9-47c-33.9-22.2-80.6-23.1-115.9-4.3c-17.6,9.4-32.8,23.5-41.1,41.1c-8.5,17.3-10,37.8-3.5,56.2
					c6.5,18.4,20.6,34.3,38.1,45c17.6,10.9,38.6,16.5,60.1,17.4l0,0c2.4,0.1,4.3,2.1,4.2,4.5
					C608.6,2436.9,606.9,2438.6,604.9,2438.9z"/>
			</g>
		</g>
		<g>
			<g>
				<path class="st1" d="M737.7,2276.8c14.4,17.4,23.6,39.6,25.9,62.9c2.3,23.3-3,47.2-13.7,68.1c-10.5,21.1-27,38.7-45.8,52.4
					c-19,13.5-40.6,23.2-63.2,28.4c-22.6,5.1-46,6.3-68.9,3c-22.9-3.2-45.2-10.9-64.9-23c-19.7-11.9-37.1-28.2-49.1-47.9
					c-11.8-19.8-18.3-42.7-17.4-65.2c0.1-1.9,1.7-3.4,3.6-3.4c1.7,0.1,3.1,1.4,3.3,3.1l0,0.1c2.5,21.1,10.4,40.8,22.6,57.3
					c12.1,16.6,28.6,29.6,46.5,39.3c36.1,19.3,79.5,23.5,119,14c19.8-4.8,38.7-12.8,55.3-24.4c8.4-5.6,16-12.3,23-19.5
					c3.3-3.8,6.6-7.6,9.7-11.5c2.7-4.2,6.1-8,8.2-12.5l3.7-6.6c1.1-2.2,2-4.6,3-6.9c2.2-4.5,3.4-9.4,4.9-14.2
					c0.9-2.4,1.2-4.8,1.7-7.3l1.4-7.4c0.3-5,0.9-10,0.9-15.1c0-20.3-6.1-40.6-16.7-58.8c-1.2-2.1-0.5-4.7,1.6-5.9
					C734,2274.7,736.4,2275.1,737.7,2276.8z"/>
			</g>
		</g>
		<g>
			<g>
				<path class="st1" d="M490.9,2875.6c-7.7,31.1-19.9,61.2-36.8,88.3c-16.9,27.1-37.8,51.7-62.3,72.1c-2.9,2.7-6.2,5-9.3,7.4
					l-9.5,7.2l-9.9,6.5c-3.3,2.2-6.6,4.4-10.2,6.2l-10.4,5.7c-3.4,2-7.2,3.5-10.7,5.2c-1.8,0.9-3.7,1.8-5.5,2.6
					c-11.8-2.3-23.5-4.5-35.1-6.9c0.4-0.2,0.8-0.3,1.2-0.5c3.4-1.4,6.8-2.7,10.1-4.4l9.9-4.8c3.3-1.5,6.4-3.5,9.6-5.3
					c3.1-1.9,6.4-3.4,9.5-5.5l9.1-6c3.1-1.9,6-4.2,8.9-6.4l8.7-6.5l8.3-7.1c2.8-2.4,5.6-4.6,8.2-7.2c21-20,39.4-42.8,53.8-67.9
					c14.4-25.1,25.4-52.1,31.8-80.2c6.5-28,8.9-57,6-85.4c-2.5-28.5-10.3-56.4-22.9-82c-6.3-12.8-14-24.9-22.8-36.1
					c-8.8-11.3-18.8-21.6-30-30.6c-22.2-18.3-48.7-31.8-77.3-39.5l0,0c-3.1-0.8-5-4-4.2-7.2c0.8-2.9,3.5-4.7,6.4-4.3
					c7.8,0.9,15.5,2.3,23.3,4.1c7.7,1.9,15.2,4.3,22.7,7.1c14.8,5.8,29.1,13.1,42.4,22.2c13.2,9.1,25.4,19.9,36.2,31.9
					c10.8,12,20.1,25.4,28.1,39.4c15.9,28.2,25.2,59.8,29.1,91.8C500.5,2811.9,498.5,2844.5,490.9,2875.6z"/>
			</g>
		</g>
		<g>
			<g>
				
					<ellipse transform="matrix(0.1745 -0.9847 0.9847 0.1745 -2591.0574 2586.2561)" class="st5" cx="247" cy="2838.5" rx="183.3" ry="151.9"/>
			</g>
		</g>
		<g>
			<g>
				<path class="st7" d="M241.6,2995c54,0.6,109-36.1,137.2-98c37.6-82.3,13.5-177.9-53.8-213.5c-9.5-5-19.3-8.6-29.4-10.7
					c-39.7,16.2-75.2,50.1-96.8,97.3C160.7,2853.6,180.2,2949.7,241.6,2995z"/>
			</g>
		</g>
		<g>
			<g>
				<path class="st1" d="M100.4,2771.9c13.9-32.4,37.4-61.3,67.6-81.6c15.1-10,31.9-18,49.7-22.9c17.8-4.9,36.7-6.7,55.5-4.9
					c18.7,1.6,37.5,7.1,54,16.5c16.7,9,31.8,21.5,43.7,36.4c23.5,30.2,34.8,68.3,34.2,105.5c-1.3,74.7-47.3,145.6-114.8,176.1
					c-33.4,15.1-72.6,19.5-107.9,8.8c-17.6-5.4-34-14.2-47.8-25.9c-13.9-11.6-25-26.2-33-42c-1.2-2.3-0.2-5.1,2.1-6.3
					c2.1-1.1,4.7-0.4,6,1.6l0,0c9.3,13.7,20.8,25.6,34.1,34.8c13.3,9.1,28.2,15.7,43.7,19c15.5,3.5,31.5,3.8,47,1.3
					c15.5-2.5,30.8-7.3,44.8-14.5c56.4-28.9,94.3-90.8,94.8-153.3c0.2-31-8.7-62.2-27.3-86.2c-9.3-12-20.8-22.1-33.9-29.6
					c-6.5-4-13.4-7.1-20.6-9.6c-3.6-1.2-7.3-2.3-11-3.2c-3.7-1-7.6-1.3-11.3-2.1c-30.5-4.3-62.8,3.1-90.6,19
					c-28.1,15.7-51.5,39.9-68.7,68.3l0,0.1c-1.7,2.7-5.2,3.6-7.9,2C100.2,2777.6,99.2,2774.5,100.4,2771.9z"/>
			</g>
		</g>
		<g>
			<g>
				<path class="st1" d="M1462.6,2798c6.2,35.6,4.4,72.7-4.5,108.3c-4.6,17.8-11,35.1-19.2,51.7c-8.3,16.5-18.3,32.2-29.9,46.7
					c-23.1,29.1-52.7,53-85.5,70.4c-33,17.1-69.4,27.9-106.4,31.2c-37,3.2-74.5,0-110-10.2c-35.5-10.1-69.2-26.2-99.1-47.6
					c-29.8-21.5-55.4-48.3-76-78.2c-20.2-30.2-35-63.9-42.9-98.9c-0.6-2.5,1-5,3.5-5.6c2.3-0.5,4.6,0.8,5.4,3l0,0.1
					c11.9,32.6,28.5,63.2,49.6,90c21.3,26.7,46.7,49.8,74.9,68.5c28.5,18.2,59.6,32,92.1,40.3c32.5,8.2,66.3,11.2,99.5,7.7
					c66.3-6.1,130-37.7,173.7-88.3c11-12.6,20.6-26.3,28.9-40.9c8.4-14.5,15.2-30,20.5-46c10.8-32.1,15.3-66.5,13.9-101
					c-0.1-3.2,2.3-5.9,5.5-6C1459.6,2793.1,1462.1,2795.2,1462.6,2798z"/>
			</g>
		</g>
		<g>
			<g>
				
					<ellipse transform="matrix(0.9626 -0.2709 0.2709 0.9626 -717.8088 422.3916)" class="st5" cx="1171.3" cy="2811.6" rx="191.9" ry="174.9"/>
			</g>
		</g>
		<g>
			<g>
				<path class="st7" d="M1004.4,2862.8c17.3,63.4,74.3,114.2,148.9,124.5c99.4,13.7,192.3-49.6,207.5-141.4
					c2.2-13,2.7-25.8,1.6-38.3c-30.2-40.5-77.9-69.6-134.8-77.4C1126.7,2716.3,1031.8,2774.5,1004.4,2862.8z"/>
			</g>
		</g>
		<g>
			<g>
				<path class="st1" d="M1193,2617c41,5.1,80.4,24.1,111.2,52.9c15.3,14.5,28.6,31.3,39,49.8c10.3,18.6,17.7,39,21.6,60.1
					c4.1,21,4.5,43.2,0.4,64.4c-3.6,21.3-10.5,42.4-21.8,61.2c-22.3,37.5-58.2,67-99.6,80.6c-20.6,6.8-42.3,10.1-63.9,10.1
					l-16.2-0.6l-16-2.2c-10.7-1.6-21.1-4.4-31.3-7.7c-40.8-13.4-77.1-39.7-102.4-74c-12.7-17.1-22.9-36-29.7-56.1
					c-6.7-20.1-10.3-41.3-10-62.4c0.4-21.1,4.1-42.1,11.7-61.6c7.4-19.6,18.6-37.5,32.5-52.7c1.7-1.9,4.7-2,6.6-0.3
					c1.8,1.6,2,4.3,0.6,6.2c-23.1,31.4-34.1,70.2-31.9,108c1,18.9,5.1,37.5,12.1,54.9c7.1,17.4,16.6,33.7,28.4,48.2
					c23.6,28.9,55.6,51,91.1,61.6c8.9,2.7,17.9,4.7,27,6l13.7,1.7l13.8,0.4c18.4-0.2,36.6-3.2,53.8-9.1
					c34.6-11.7,64.6-35.7,83.2-66.8c9.6-15.4,15.9-32.8,19.3-50.7c2.1-8.9,2.8-18.1,3.1-27.3c0.1-4.6,0-9.2-0.3-13.8
					c-0.2-4.6-1-9.2-1.5-13.8c-2.6-18.3-8.3-36.2-16.6-52.9c-8.2-16.8-19.1-32.4-32.1-46.1c-25.8-27.7-60.2-47.6-97.9-56.9l0,0
					c-3.1-0.8-5-3.9-4.2-7C1187.3,2618.4,1190.1,2616.6,1193,2617z"/>
			</g>
		</g>
		<g>
			<g>
				
					<ellipse transform="matrix(0.1606 -0.987 0.987 0.1606 -1119.9231 3098.106)" class="st6" cx="1261.4" cy="2207.5" rx="176.1" ry="242.3"/>
			</g>
		</g>
		<g>
			<g>
				
					<ellipse transform="matrix(0.1606 -0.987 0.987 0.1606 -1119.9231 3098.106)" class="st5" cx="1261.4" cy="2207.5" rx="176.1" ry="242.3"/>
			</g>
		</g>
		<g>
			<g>
				
					<ellipse transform="matrix(0.1606 -0.987 0.987 0.1606 -1165.3956 3125.5808)" class="st7" cx="1254.9" cy="2247.9" rx="134.2" ry="184.7"/>
			</g>
		</g>
		<g>
			<g>
				<path class="st1" d="M1090.8,2069.5c-17.7,13-32.8,29.1-43.1,47.6c-10.3,18.5-15.7,39.4-15.4,60.1c0.1,20.8,5.6,41.4,15.1,60.1
					c9.4,18.8,22.1,36.1,37.3,51.1c30.2,30.2,68.4,52.5,109.2,66.4c40.8,14.3,84.5,20.4,127.2,17.1c42.6-3.1,84.9-16.5,117.5-42
					c16.3-12.7,29.5-28.8,37.8-47.2c8.3-18.4,12-38.8,10.1-59.3c-1.7-20.5-8.8-40.7-19.1-59.2c-10.3-18.6-24-35.6-39.7-50.7
					c-31.5-30.2-70.9-52.5-112.9-67.4l0,0c-2.4-0.9-3.7-3.5-2.8-5.9c0.8-2.3,3.2-3.5,5.5-3c44.5,10.9,87.4,31.5,123.3,61.9
					c17.9,15.2,33.8,33.1,46.5,53.5c12.8,20.3,21.8,43.5,24.8,68.1c3.1,24.5-0.2,50.3-10.1,73.3c-9.8,23.1-25.8,43.3-44.8,58.9
					c-19,15.7-40.8,27.3-63.5,35.3c-11.4,4-23,7.2-34.7,9.7c-11.7,2.4-23.6,4.1-35.4,5.1c-47.6,3.9-95.3-3.5-139.9-19.2
					c-22.3-8-43.7-18.4-63.8-31c-20.1-12.7-38.9-27.6-55.1-45.2c-16.4-17.4-30.3-37.5-40.2-59.6c-9.8-22.1-15.2-46.7-14.1-71.2
					c1.3-24.5,9-48.5,22.3-68.6c6.7-10,14.5-19.2,23.2-27.2c8.7-8.1,18.3-14.9,28.3-21c2.7-1.7,6.3-0.8,7.9,2
					C1094,2064.4,1093.3,2067.7,1090.8,2069.5L1090.8,2069.5z"/>
			</g>
		</g>
		<g>
			<g>
				<path class="st1" d="M1562.4,2292.5c9.1-33.8,6.9-69.2-5.2-101.1c-11.7-32.1-32.1-60.7-55.9-85.7c-24.1-24.9-51.7-46.1-82-63.1
					c-30.1-17.2-62.5-30.5-96-39.8c-33.4-9.8-68.1-15-102.8-16.4c-34.7-1.5-69.6,2.1-103.3,10.2c-33.5,8.5-66,22-93.9,42.3
					c-28,20.1-50.7,47.6-64.1,80.2l0,0c-1,2.4-3.7,3.5-6.1,2.5c-2.2-0.9-3.3-3.3-2.7-5.5c9.6-36,32.1-68.4,60.8-92.7
					c28.9-24.3,63.3-41.3,99.2-51.9c35.9-10.8,73.5-15.3,110.8-14.9c37.3,0.5,74.6,6.1,110.5,16c35.9,10.1,70.7,24.5,102.9,43.6
					c32,19.3,61.9,42.8,86.6,71.1c24.8,28,45.4,60.8,56.2,97.4c5.2,18.3,8.1,37.4,7.4,56.3c-0.6,19-4.6,37.7-11.5,55.1
					c-1.2,3-4.5,4.4-7.5,3.2C1563.1,2298.3,1561.6,2295.3,1562.4,2292.5z"/>
			</g>
		</g>
		<g>
			<g>
				<path class="st7" d="M1963.3,3051.4c-71.8,16.7-147,31.3-225.1,43.9c-2.5,0.4-5.1,0.8-7.7,1.2c0.6-3,1.3-6.1,2-9.2
					c23.7-102,86.7-187.1,145.4-199.6c4.4-0.9,8.7-1.5,13-1.6C1947.3,2884.7,1977,2956.4,1963.3,3051.4z"/>
			</g>
		</g>
		<g>
			<g>
				<path class="st1" d="M2017.6,2927.9c-1.4,0.7-3,0.7-4.4,0.2c-1.3-0.4-2.4-1.3-3.1-2.4l0-0.1c-10.4-17.1-24.4-31.8-41.2-40.6
					c-16.8-8.9-36.1-11.8-54.6-8.9c-12.5,1.8-24.6,5.9-36.2,11.6c-5.7,2.8-11.3,6-16.7,9.5c-16.3,10.6-31.3,23.8-44.4,38.7
					c-26.4,29.7-47,64.7-61.4,102.1c-7.4,18.6-13,37.8-17.3,57.3c-2.5,0.4-5.1,0.8-7.7,1.2c-0.1,0-0.2,0-0.4,0.1
					c-8.3,1.3-16.6,2.6-25,3.9c4.7-25.3,12.1-50.1,21.6-73.9c8.2-20.1,18-39.6,29.7-58c11.5-18.4,24.8-35.9,40.1-51.7
					c7.6-7.9,15.7-15.4,24.3-22.3c8.6-6.9,17.6-13.4,27.3-19c19.3-11.1,40.8-19.3,63.8-21.4c22.8-2,46.7,3.2,66,15.5
					c9.6,6.2,18.1,13.8,25.2,22.4c7.1,8.6,12.8,18.1,17.4,27.9C2021.8,2923,2020.6,2926.5,2017.6,2927.9z"/>
			</g>
		</g>
		<g class="st8">
			<g>
				<path class="st0" d="M1652.4,2293.2c5.3,128.5,215.3,233.9,296.9,567.9c34.6,141.7,150.2-20.1,36.5-285.8
					C1880.4,2329,1648.7,2202.7,1652.4,2293.2z"/>
			</g>
		</g>
		<g>
			<g>
				<path class="st1" d="M21.4,3017.8c-8.4,0-15.4-6.7-15.6-15.2c-1.9-73.5,3.8-147.5,16.9-219.8c21.1-115.8,61-227.2,118.6-331
					c88.8-159.9,217.3-295.1,371.4-391.1c24.2-15.1,49.1-29.3,74.1-42.3c134.8-69.9,286.1-111.3,437.6-119.9l1.9-0.1
					c0.8-0.1,1.7-0.1,2.5-0.1c9.9-0.6,19.1-0.9,27.8-1.1c17.9-0.5,36.7-0.5,55.8-0.1c129.8,3.3,256.5,29.7,376.5,78.6
					c40.6,16.4,80.8,35.6,119.4,57.1c8.1,4.5,16.6,9.4,25,14.4c4.9,2.8,9.9,5.9,14.8,9c163.3,99.9,297.3,241.8,387.4,410.5
					c87.8,164.4,131.9,349.7,127.4,535.8c-0.2,8.6-7.5,15.5-16,15.2c-8.6-0.2-15.4-7.4-15.2-16c8.9-372.7-182.7-724.9-500-918.9
					c-4.8-3-9.5-5.9-14.3-8.6c-7.8-4.7-15.3-9-24.4-14c-37.5-20.8-76.5-39.5-115.9-55.4c-116.6-47.5-239.6-73.1-365.6-76.3
					c-18.5-0.4-36.7-0.4-54.2,0.1c-8.4,0.2-17.3,0.5-27.3,1.1l-2,0.1c-0.8,0-1.6,0.1-2.4,0.1c-146.8,8.3-293.7,48.5-424.6,116.4
					c-24.3,12.6-48.4,26.4-71.9,41c-149.7,93.2-274.4,224.5-360.7,379.8c-56,100.8-94.7,208.9-115.2,321.4
					c-12.8,70.2-18.3,142-16.4,213.4c0.2,8.6-6.6,15.8-15.2,16C21.7,3017.8,21.5,3017.8,21.4,3017.8z"/>
			</g>
		</g>
		<g>
			<g>
				<path class="st1" d="M21.4,3017.8c-8.4,0-15.4-6.7-15.6-15.2c-1.9-73.5,3.8-147.5,16.9-219.8c21.1-115.8,61-227.2,118.6-331
					c88.8-159.9,217.3-295.1,371.4-391.1c24.2-15.1,49.1-29.3,74.1-42.3c134.8-69.9,286.1-111.3,437.6-119.9l1.9-0.1
					c0.8-0.1,1.7-0.1,2.5-0.1c9.9-0.6,19.1-0.9,27.8-1.1c17.9-0.5,36.7-0.5,55.8-0.1c129.8,3.3,256.5,29.7,376.5,78.6
					c40.6,16.4,80.8,35.6,119.4,57.1c8.1,4.5,16.6,9.4,25,14.4c4.9,2.8,9.9,5.9,14.8,9c163.3,99.9,297.3,241.8,387.4,410.5
					c87.8,164.4,131.9,349.7,127.4,535.8c-0.2,8.6-7.5,15.5-16,15.2c-8.6-0.2-15.4-7.4-15.2-16c8.9-372.7-182.7-724.9-500-918.9
					c-4.8-3-9.5-5.9-14.3-8.6c-7.8-4.7-15.3-9-24.4-14c-37.5-20.8-76.5-39.5-115.9-55.4c-116.6-47.5-239.6-73.1-365.6-76.3
					c-18.5-0.4-36.7-0.4-54.2,0.1c-8.4,0.2-17.3,0.5-27.3,1.1l-2,0.1c-0.8,0-1.6,0.1-2.4,0.1c-146.8,8.3-293.7,48.5-424.6,116.4
					c-24.3,12.6-48.4,26.4-71.9,41c-149.7,93.2-274.4,224.5-360.7,379.8c-56,100.8-94.7,208.9-115.2,321.4
					c-12.8,70.2-18.3,142-16.4,213.4c0.2,8.6-6.6,15.8-15.2,16C21.7,3017.8,21.5,3017.8,21.4,3017.8z"/>
			</g>
		</g>
		<g>
			<g>
				<path class="st9" d="M2198.6,76.3l-234.8,930.9l-67.9,269l-176.5,699.5L1674,2156l-56.7-14.3l58.8-233l163.1-646.3l65.4-259.2
					L2142,62c3.4-13.2,15.2-22.1,28.3-22.1c2.3,0,4.8,0.3,7.1,0.9C2193.1,44.8,2202.6,60.7,2198.6,76.3z"/>
			</g>
		</g>
		<g class="st10">
			<g>
				<path class="st1" d="M1719.4,1975.7L1674,2156l-56.7-14.3l58.8-233C1684.4,1933.3,1697.8,1958.1,1719.4,1975.7z"/>
			</g>
		</g>
		<g class="st3">
			<g>
				<path class="st1" d="M1963.8,1007.2l-67.9,269c-22.7,1.2-41.4-4.5-56.8-13.8l65.4-259.2L1963.8,1007.2z"/>
			</g>
		</g>
		<g>
			<g>
				<path class="st1" d="M1685.3,2175l-86.9-21.9L2126.8,58.2c6-24,30.5-38.6,54.4-32.5c11.6,2.9,21.4,10.2,27.5,20.5
					c6.1,10.3,7.9,22.3,5,33.9L1685.3,2175z M1636.3,2130.4l26.4,6.7L2183.5,72.5c0.9-3.5,0.4-7.2-1.5-10.3
					c-1.9-3.1-4.8-5.3-8.3-6.2c-7.3-1.8-14.7,2.6-16.5,9.9L1636.3,2130.4z"/>
			</g>
		</g>
		<g>
			<g>
				<path class="st0" d="M1965.6,885.3c0,2.1-0.1,4.2-0.4,6.5c-6.1,53.1-82.2,157.8-82.2,157.8s-56.3,20-81.4,4.1
					c-10-6.4-16.7-47.6-18.1-87.4c-1.1-32.4,1.4-63.9,8.7-74.3C1813.2,861.9,1965.6,853,1965.6,885.3z"/>
			</g>
		</g>
		<g class="st3">
			<g>
				<path class="st1" d="M1965.2,891.8c-6.1,53.1-82.2,157.8-82.2,157.8s-56.3,20-81.4,4.1c-10-6.4-16.7-47.6-18.1-87.4
					c10.9,13.2,23.7,22.3,34.7,13.9c23.7-17.9,2.3-72.4,56.2-96C1891.6,876.7,1932,883.8,1965.2,891.8z"/>
			</g>
		</g>
		<g>
			<g>
				<path class="st1" d="M1829.2,1075.5c-13,0-25.9-2.2-36-8.7c-8.8-5.6-14.5-17.5-18.9-39.9c-7.2-36-11.9-119.5,5.1-143.9
					c23.4-33.5,133.8-40.1,173.6-27.6c24.5,7.7,28.2,22,28.2,29.9c0.1,54.1-76.8,161.4-85.6,173.5l-2.8,3.9l-4.6,1.6
					C1881.2,1066.8,1854.9,1075.5,1829.2,1075.5z M1883,1049.6L1883,1049.6L1883,1049.6z M1811,1041.1c12.5,6.7,42.6,1.6,62.3-4.7
					c23.4-32.8,74.5-111.8,76.7-148.6c-6.6-4.2-31.8-9.5-72.6-6.3c-42.4,3.4-68.2,13.6-72.3,19.4
					C1794.3,916.6,1799,1023.4,1811,1041.1z M1811.4,1041.7L1811.4,1041.7L1811.4,1041.7z"/>
			</g>
		</g>
		<g>
			<g>
				<path class="st0" d="M2055.2,1106.4c-30.3,77.8-91.1,94.8-111,94.8c-28.8,0-40-11.9-94.6-24.8c-54.6-13-3.1-221.8,12.5-252.1
					c15.7-30.4,66.3-53.3,95.2-58.3c3.9-0.7,7.3-1,10.3-1c25.1,0,101.6,70.3,103.7,96.2C2076.3,1024.4,2068.8,1071.5,2055.2,1106.4z
					"/>
			</g>
		</g>
		<g class="st3">
			<g>
				<path class="st1" d="M2055.2,1106.4c-30.3,77.8-91.1,94.8-111,94.8c-28.8,0-40-11.9-94.6-24.8c-54.6-13-3.1-221.8,12.5-252.1
					c15.7-30.4,66.3-53.3,95.2-58.3c-13.1,27.4-38.1,89-50.8,179.6C1891.1,1155.2,1989.3,1144.2,2055.2,1106.4z"/>
			</g>
		</g>
		<g>
			<g>
				<path class="st1" d="M1944.2,1216.8c-18.8,0-31.6-4.5-47.7-10.2c-12.1-4.3-27.3-9.6-50.5-15.1c-8.4-2-20-7.9-27.7-24.6
					c-27.3-59.6,17.2-225.2,29.9-249.8c21.4-41.4,90.4-67.8,119.3-67.8c34.1,0,116.6,76.5,119.3,110.6l0,0
					c9.3,116.9-23.8,179.4-53.3,211.3C2000.3,1207.2,1961.8,1216.8,1944.2,1216.8z M1967.5,880.5c-21.4,0-77.4,23.6-91.5,50.9
					c-12.4,24.1-50,177.3-29.3,222.5c2.9,6.4,5.6,7,6.5,7.2c24.8,5.9,40.8,11.5,53.6,16c15.4,5.4,23.9,8.4,37.4,8.4
					c9.3,0,39.5-6.4,66.4-35.5c36.2-39.2,51.8-104.1,45.1-187.6C2053.6,944.3,1986,881.6,1967.5,880.5z M2055.7,962.4L2055.7,962.4
					L2055.7,962.4z M2055.7,962.4L2055.7,962.4C2055.7,962.4,2055.7,962.4,2055.7,962.4L2055.7,962.4z"/>
			</g>
		</g>
		<g>
			<g>
				<path class="st0" d="M278.5,806.4c0,0-58.2,102.5-148.2,102.5c-44.9,0-90-44.4-107.3-88.1c-5.9-15-8.6-29.9-6.9-42.9
					c2.9-22.4,27.4-45.8,57.5-66.5c52.9-36.4,123-64.6,123-64.6L278.5,806.4z"/>
			</g>
		</g>
		<g class="st3">
			<g>
				<path class="st1" d="M278.5,806.4c0,0-58.2,102.5-148.2,102.5c-44.9,0-90-44.4-107.3-88.1c10.5,2.1,24.1,0.2,37.3-15.5
					c49.9-59.9,13.3-93.9,13.3-93.9c52.9-36.4,123-64.6,123-64.6L278.5,806.4z"/>
			</g>
		</g>
		<g>
			<g>
				<path class="st1" d="M130.3,924.5c-30.9,0-64-17.5-90.8-48.1C11.6,844.6-3.3,806,0.6,775.8c8.9-67.5,159.9-131.4,190.1-143.5
					c8-3.2,17.1,0.7,20.3,8.7c3.2,8-0.7,17.1-8.7,20.3C139,686.7,36.7,741.4,31.6,779.9c-2.7,20.9,9.9,51.4,31.4,76
					c20.6,23.4,45.8,37.4,67.3,37.4c0,0,0,0,0,0c79.7,0,134.1-93.6,134.6-94.6c4.3-7.5,13.8-10.1,21.3-5.8
					c7.5,4.3,10.1,13.8,5.9,21.3C289.6,818.6,228.3,924.5,130.3,924.5C130.4,924.5,130.3,924.5,130.3,924.5z"/>
			</g>
		</g>
		<g>
			<g>
				<path class="st1" d="M192.1,879.5c-0.7,0-1.5-0.1-2.2-0.3c-4.1-1.2-6.5-5.5-5.3-9.7c2.8-9.6,1.7-18.4-3.5-27
					c-20.2-34-92.4-49.9-93.2-50c-4.1-0.9-6.8-4.9-6-9c0.8-4.1,4.7-7,8.9-6.3c69.9,10.6,105.6-47.7,107.1-50.2
					c2.2-3.7,7-4.9,10.7-2.7c3.7,2.2,4.9,7,2.7,10.7c-0.3,0.6-26.5,43.7-77,55.9c22.7,9.3,48.2,23.5,60.2,43.7
					c7.4,12.4,9.1,25.6,5,39.4C198.6,877.3,195.5,879.5,192.1,879.5z"/>
			</g>
		</g>
		<g>
			<g>
				<path class="st0" d="M1037.8,1145.9c-20.5,20.6-45.1,39.3-73,54.5c-42.9,23.4-93.6,38.2-149,38.2c-21.4,0-42.1-0.9-62.1-2.7
					c-287.9-25.3-442.8-220.5-476.1-237.8c-35.5-18.5-220.2-19.8-206.1-106c1.1-6.6,4.8-13.3,10.4-19.8
					c32.1-37.7,124.6-73.6,120-94.5c-7.5-33.6-102.9-122.3-121.5-162.2c-38.3-82.3,20.5-141.9,53.6-102
					c55.8,67.4,119.8,101.7,220.8,180.9c33.3,26.2,112.1,80.8,151.4,105.2c53.2,33,104.3,58.9,157.3,77.4
					c81.7,28.6,167.7,39.8,272.4,32.7c3.5-0.2,7-0.5,10.5-0.8C1142.6,893.7,1140.3,1043.2,1037.8,1145.9z"/>
			</g>
		</g>
		<g class="st3">
			<g>
				<path class="st1" d="M964.8,1200.4c-42.9,23.4-93.6,38.2-149,38.2c-21.4,0-42.1-0.9-62.1-2.7
					c-287.9-25.3-442.8-220.5-476.1-237.8c-35.5-18.5-220.2-19.8-206.1-106c1.1-6.6,4.8-13.3,10.4-19.8
					c2.3,13.4,12.9,27.8,42.9,36.7c68.9,20.4,168.8,19.3,198.7,35.5c39.5,21.4,186.5,196.1,371.2,196.1c121.3,0,164-97.3,164-97.3
					L964.8,1200.4z"/>
			</g>
		</g>
		<g>
			<g>
				<path class="st1" d="M815.7,1254.2c-21.5,0-42.8-0.9-63.5-2.8c-238.7-21-389-157.1-453.2-215.2c-12.4-11.3-24.2-21.9-28.7-24.3
					c-7.5-3.9-29-7.8-49.8-11.7c-70.6-13-177.3-32.6-164.5-110.7c5.1-31.4,46.2-56.5,86-80.9c15.3-9.3,37.8-23.1,43.7-30.2
					c-6-15.7-35-49.2-58.5-76.4c-26.5-30.6-51.6-59.5-61.1-79.9c-27.5-59-10.8-110.7,18.9-129.5c20.7-13.1,44.5-8.8,60.9,11
					c37,44.6,77.1,73.9,132.6,114.3c25.2,18.4,53.7,39.2,85.8,64.3c32.3,25.3,110.8,79.8,150,104.2c54.7,33.9,105.2,58.8,154.2,76
					c81.5,28.5,166.1,38.7,266.2,31.9c3.2-0.2,6.4-0.5,9.6-0.7l0.8-0.1c114.9-9,154.2,37.6,167.4,66.2
					c25.2,54.6-0.4,133.9-63.7,197.3h0C987.2,1218.7,902.2,1254.2,815.7,1254.2z M109.7,516.5c-2.6,0-5.2,0.9-8,2.6
					c-15.8,10-28.4,44.4-7.3,89.9c7.7,16.4,32.4,45,56.4,72.6c38.2,44.1,61.7,72.3,66.3,92.8c4.9,22-20.4,37.5-58.7,60.9
					c-27.3,16.7-68.7,42-71.5,59.2c-7.2,44.2,64.9,61.3,139.3,75c26.2,4.8,46.9,8.6,58.6,14.7c8.1,4.2,18.3,13.5,35.2,28.8
					c61.9,56,206.7,187.2,435,207.3c19.8,1.8,40.2,2.7,60.8,2.7c78.3,0,155.2-32.1,211-88.1l0,0c54.1-54.2,77.2-119.3,57.4-162.1
					c-16.9-36.6-65.4-53.7-136.6-48.1l-0.8,0.1c-3.3,0.3-6.6,0.5-9.9,0.7c-104.5,7.1-193.1-3.6-278.7-33.6
					C607,873.9,554.5,848.1,497.8,813c-40.7-25.3-119.3-79.8-152.8-106.1c-31.6-24.8-59.9-45.4-84.9-63.6
					c-55.2-40.2-98.8-72-138.3-119.6C117.9,518.9,113.9,516.5,109.7,516.5z"/>
			</g>
		</g>
		<g>
			<g>
				<path class="st1" d="M523.4,1189.1c-4.4,0-8.7-1.8-11.8-5.4c-5.7-6.5-5-16.4,1.5-22c99.3-86.2,80.5-302.7,80.3-304.9
					c-0.8-8.6,5.5-16.2,14.1-17c8.6-0.8,16.2,5.5,17,14.1c0.9,9.5,20.4,234.6-91,331.4C530.6,1187.8,527,1189.1,523.4,1189.1z"/>
			</g>
		</g>
		<g>
			<g>
				<path class="st0" d="M1314.7,1633.5c-160.1,26.3-622.6,59.2-641.9-20c-5.8-23.8,22-196.8,80.8-377.7
					c19.4-59.6,42.1-120.2,68.1-176.5c17.3-37.6,36.1-73.3,56.3-105.6c7.1-11.4,28-26.8,57.7-43.9
					c157.9-90.7,567.3-225.8,508.4-23.1c-7.1,24.3-12,48.9-15.3,73.8c-3.8,28.6-5.4,57.5-5.3,86.4c0.2,86.2,14.8,172.1,26.7,250.6
					C1476.2,1468.6,1489.6,1604.8,1314.7,1633.5z"/>
			</g>
		</g>
		<g>
			<g>
				<path class="st1" d="M1437.1,1145.7c16.1,71.3,28.7,142.8,38.3,216.3c2.4,18.3,4.2,36.9,5.4,55.6c1.3,18.7,1.5,37.7,0.3,56.9
					c-1.2,19.2-4,38.6-9.8,57.8c-5.8,19.1-14.9,37.9-27.9,54.1c-12.9,16.2-29.5,29.3-47.2,38.8c-17.8,9.6-36.6,16.1-55.4,20.7
					c-4.7,1.2-9.5,2-14.2,3c-4.7,0.9-9.5,1.9-14,2.6c-9.2,1.5-18.3,2.8-27.5,4.1c-18.3,2.5-36.6,4.8-54.9,6.8
					c-36.6,4.1-73.2,7.5-109.9,10.3c-36.7,2.8-73.4,5-110.2,6.2c-36.8,1.3-73.6,2-110.6,1.5c-36.9-0.5-73.9-1.9-111.2-5.8
					c-18.6-2-37.3-4.6-56.1-8.8c-9.4-2.1-18.8-4.6-28.4-8c-9.5-3.5-19.2-7.6-28.9-14.7c-4.8-3.7-9.6-8.3-13.5-14.7
					c-0.9-1.7-1.8-3.3-2.6-5.1c-0.7-1.9-1.3-3.8-1.9-5.6c-0.4-1.9-0.7-3.8-0.9-5.8l-0.2-4.4c-0.2-11,0.7-20.1,1.7-29.7
					c2-18.8,4.9-37.1,8-55.4c6.3-36.5,13.9-72.5,22.4-108.4c8.5-35.9,17.6-71.5,28.1-106.9c20.9-70.6,46.3-140.1,79-206.2
					c1.9-3.9,6.6-5.5,10.5-3.5c3.6,1.8,5.2,5.9,3.9,9.5l0,0c-23.5,69-44.8,138.5-64,208.6c-19.1,70.1-36.1,140.9-48,212.3
					c-2.9,17.8-5.6,35.7-7.4,53.3c-0.8,8.6-1.6,17.8-1.4,25.1l0.1,2.4c0.1,0.3,0.1,0.7,0.1,1c0.2,0.3,0.3,0.5,0.3,0.8
					c0.1,0.3,0.4,0.6,0.5,1c0.9,1.4,2.6,3.3,5.1,5.2c5.1,3.8,12.4,7.1,20,9.8c7.7,2.7,16,4.9,24.5,6.7c16.9,3.7,34.6,6,52.4,7.8
					c35.6,3.5,71.8,4.7,108,5c36.2,0.2,72.6-0.6,108.9-2.2c72.6-3.3,145.4-8.2,217.6-16.1c18.1-2,36.1-4.1,54-6.6
					c9-1.2,17.9-2.5,26.8-3.9c4.5-0.6,8.7-1.5,12.9-2.4c4.2-0.9,8.5-1.5,12.7-2.6c33.1-8.1,64.5-22.3,84.5-47.3
					c20.4-24.6,28.8-58.3,31.2-92.8c2.5-34.7-0.5-70.6-4.6-106.4c-4.1-35.9-10.1-71.9-14.8-108.3c-4.5-36.4-8-73.2-7.4-110.2
					c0.1-4.3,3.6-7.8,8-7.8C1433.2,1139.6,1436.3,1142.2,1437.1,1145.7z"/>
			</g>
		</g>
		<g>
			<g>
				<g>
					<path class="st0" d="M1024.3,744.3c-1.9-1.8-3.9-3.7-6-5.5l6.4,3.8L1024.3,744.3z"/>
				</g>
			</g>
		</g>
		<g>
			<g>
				<g>
					<g>
						<path class="st0" d="M617.6,733.1c285.5,645.8,1196.2,281.5,989.9-366.4C1331-301.4,389.9,76.1,617.6,733.1z"/>
					</g>
				</g>
				<g>
					<g>
						<path class="st0" d="M617.6,733.1c285.5,645.8,1196.2,281.5,989.9-366.4C1331-301.4,389.9,76.1,617.6,733.1z"/>
					</g>
				</g>
				<g class="st3">
					<g>
						<path class="st1" d="M1488.6,991.3c-20.1,20.3-41.9,38.9-65,55.6c-13,9.5-26.5,18.4-40.3,26.6
							c-102.9,61.5-226,88.9-345.5,72.4c-75.5-10.5-149.5-38.5-216.1-86.5c-60.4-43.6-114.7-103.8-158.4-182.2
							c81.7,28.6,167.7,39.8,272.4,32.7c157.9-90.7,567.3-225.8,508.4-23.1c-7.1,24.3-12,48.9-15.3,73.8
							C1445.5,970.2,1465.6,980.9,1488.6,991.3z"/>
					</g>
				</g>
				<g>
					<g>
						<path class="st0" d="M617.6,733.1c285.5,645.8,1196.2,281.5,989.9-366.4C1331-301.4,389.9,76.1,617.6,733.1z"/>
					</g>
				</g>
				<g>
					<g>
						<path class="st1" d="M1100.9,1083c-63.3,0-125.8-11.3-184.5-33.8c-134.9-51.8-241.8-159.6-309-311.7l-0.3-0.9
							c-54.1-156.1-46.9-307.7,21-438.3C688.6,181.8,792.9,90.7,921.9,41.6c128.7-48.9,266.4-49.6,387.5-1.8
							c136.6,53.8,243.2,165.4,308.3,322.5l0.3,0.9c49.1,154.2,39.1,303.3-28.9,431.2c-60.8,114.4-164.1,203.9-290.8,251.9
							C1233.9,1070.8,1167,1083,1100.9,1083z M628,729c143.4,324,436.1,382.4,662.5,296.5c221.3-83.9,411.5-324.6,306.5-655.1
							c-138.2-333.3-442.7-393.3-667.2-308C703.2,148.6,512.1,393.9,628,729z"/>
					</g>
				</g>
				<g class="st3">
					<g>
						<path class="st1" d="M617.6,733c236.8,562.1,1031.9,375.5,1020-210.6c-57.4,182.4-122.7,182-232.7,265.1
							c-339.9,275.1-786.1-11.6-800.2-395.9C570.4,505.3,576.4,625.5,617.6,733z"/>
					</g>
				</g>
				<g>
					<g>
						<path class="st11" d="M1100.9,1087.5c-63.9,0-126.9-11.3-186.1-34.1c-136-52.2-243.8-160.8-311.5-314.1l-0.5-1.2
							c-54.5-157.3-47.2-310.1,21.2-441.8c61-117.5,166.2-209.5,296.3-258.9c129.8-49.3,268.6-49.9,390.8-1.8
							c137.8,54.3,245.3,166.7,310.8,325l0.5,1.2c49.5,155.4,39.4,305.7-29.2,434.7c-61.3,115.4-165.4,205.6-293.2,254
							C1235,1075.2,1167.5,1087.5,1100.9,1087.5z M632.2,727.3c142.3,321.1,432.3,379.1,656.8,294
							c219.3-83.1,407.9-321.7,303.9-649.3C1455.7,41.7,1153.9-17.9,931.4,66.7C706.7,152,517.3,395.2,632.2,727.3z"/>
					</g>
				</g>
				<g>
					<g>
						<path class="st1" d="M1100.9,1087.5c-63.9,0-126.9-11.3-186.1-34.1c-136-52.2-243.8-160.8-311.5-314.1l-0.5-1.2
							c-54.5-157.3-47.2-310.1,21.2-441.8c61-117.5,166.2-209.5,296.3-258.9c129.8-49.3,268.6-49.9,390.8-1.8
							c137.8,54.3,245.3,166.7,310.8,325l0.5,1.2c49.5,155.4,39.4,305.7-29.2,434.7c-61.3,115.4-165.4,205.6-293.2,254
							C1235,1075.2,1167.5,1087.5,1100.9,1087.5z M632.2,727.3c142.3,321.1,432.3,379.1,656.8,294
							c219.3-83.1,407.9-321.7,303.9-649.3C1455.7,41.7,1153.9-17.9,931.4,66.7C706.7,152,517.3,395.2,632.2,727.3z"/>
					</g>
				</g>
				<g>
					<g>
						<path class="st1" d="M681.8,852.1c469.9,404.3,1026-128.9,691.2-556.1C969-159.7,336.8,324.2,681.8,852.1z"/>
					</g>
				</g>
				<g>
					<g>
						<path class="st12" d="M606.2,465.5C505,1016.6,1285.4,1204,1460.6,715.4C1154.7,966.9,706.1,758.9,606.2,465.5z"/>
					</g>
				</g>
				<g>
					<g>
						<path class="st1" d="M1047.9,1065.2c-65.7,0-130-13.7-188.7-40.9c-112-51.8-200.5-150.5-256-285.3l0-0.1
							C513,515.1,593.5,191,857.2,65.4l2.5-0.9c137.7-38.9,292.1-15.5,423.6,64.1c131,79.3,222.8,204.5,251.9,343.4
							c24.8,135.3-0.2,263.3-72.1,370.5c-65.2,97.2-164,169.2-278.1,202.8C1139.6,1058.6,1093.4,1065.2,1047.9,1065.2z M632.1,727.2
							c121.5,295,369,339.6,544,288.1c201.2-59.1,378.7-262.7,328.4-537.3c-27.3-130.1-113.9-247.9-237.5-322.7
							c-123.6-74.9-268.5-97.1-397.6-61.1C622.6,212.6,547.4,516.8,632.1,727.2z"/>
					</g>
				</g>
				<g>
					<g>
						<path class="st1" d="M1035.9,1011.5c-126.2,0-251.9-50.9-364.3-147.5l-1.7-1.4l-1.2-1.9c-83.1-127.1-116.4-261.3-96.2-387.8
							c18-113.3,78.1-214.1,169.2-283.6c89-68,198.8-99.2,309-88c122.6,12.5,238,76.3,333.9,184.5l0.6,0.7
							c78.4,100,114.2,212.4,103.6,325.1c-9.6,102-57.3,198.7-134.3,272.3c-83.4,79.7-192.9,125-308.3,127.6
							C1042.9,1011.4,1039.4,1011.5,1035.9,1011.5z M693.7,841.7c240.4,205.7,494.2,158.1,639.3,19.5
							c131.7-125.8,191.4-346.3,28-555.2C1159.8,79.4,914.6,96.5,760.7,214C607.7,330.8,521.8,576.9,693.7,841.7z"/>
					</g>
				</g>
				<g>
					<g>
						<path class="st0" d="M1680.1,755.9c-76.7,236.8-320.6,179.9-270.1-53.6C1481.3,451.1,1742,512,1680.1,755.9z"/>
					</g>
				</g>
				<g class="st2">
					<g>
						<path class="st1" d="M1494.6,905.7c-73.2-16.5-111.7-115.8-81.3-215.5c28.4,114.7,170.5-42.6,186.9-91.8
							C1781.9,678.4,1628.5,939,1494.6,905.7z"/>
					</g>
				</g>
				<g>
					<g>
						<path class="st1" d="M1520,923.5c-11.1,0-21.8-1.4-32-4.2c-66.3-17.8-120.8-92.9-93.3-220.3l0.2-1
							c38.9-137,134.7-188.4,209.3-168.4c67.3,18.1,124.5,97.8,91,230.1l-0.3,1C1657.6,876.1,1583.7,923.5,1520,923.5z
							 M1425.2,706.1c-23,107,19.1,169.1,71,183c55,14.8,131.3-21.9,168.9-137.5c28.1-111.5-16-177.6-68.9-191.8
							C1536.5,543.8,1458.6,588.9,1425.2,706.1z M1680.1,755.9L1680.1,755.9L1680.1,755.9z"/>
					</g>
				</g>
				<g>
					<g>
						<path class="st0" d="M1687.4,771.1c-62.4,191.9-245.8,152.3-205-36.6C1539.9,528.4,1739.1,571.7,1687.4,771.1z"/>
					</g>
				</g>
				<g>
					<g>
						<path class="st1" d="M1560.7,912.6c-8.2,0-16.1-1.1-23.7-3.1c-51-13.8-92.4-74.2-70-178.3l0.2-0.9
							c32.1-115.2,108.6-159.4,167.6-143.5c52.4,14.1,95.9,79,67.6,188.2l-0.3,0.9C1670.8,872.7,1611.1,912.6,1560.7,912.6z
							 M1497.6,738.2c-17.9,83.7,11,131.2,47.7,141.1c40,10.8,96.8-19.8,127.2-112.6c22.8-88.3-7.6-139.5-45.6-149.7
							C1582.8,605.1,1524.3,643,1497.6,738.2z M1687.4,771.1L1687.4,771.1L1687.4,771.1z"/>
					</g>
				</g>
				<g class="st13">
					<g>
						<path class="st0" d="M1380.5,588.5c-44.7,94.8-153.3,45.6-128.4-42.8C1289.7,435.9,1418.6,491.7,1380.5,588.5z"/>
					</g>
				</g>
				<g class="st13">
					<g>
						<path class="st0" d="M1293.9,734.6c-19.2,35.3-67.1,14.7-49.8-25.6C1263.3,673.7,1311.2,694.3,1293.9,734.6z"/>
					</g>
				</g>
				<g class="st13">
					<g>
						<path class="st0" d="M668.6,506.6c-3.5-378.1,385.8-365,489-268.4C910.3,216,777.9,349.8,668.6,506.6z"/>
					</g>
				</g>
				<g class="st3">
					<g>
						<path class="st1" d="M1465.3,777.5c0.9-28.4,9.6-56.6,23.6-81.4c13.8,138.8,157.1,101.5,203.5,10.9
							C1690.4,908.7,1475.5,968.7,1465.3,777.5z"/>
					</g>
				</g>
			</g>
		</g>
		<g>
			<g>
				<path class="st0" d="M1652.4,2234.4c-77,12.1-212.2-19.3-261.1-131c0,0-56.7-198.5-188-328.2c-96.9-95.7-307.5-117.7-352.8-52.2
					c-43.8,63.2,45.7,234.5-8.7,325.7c-21.6,36.2-154.1,99.4-334.1,72.9c-75.2-11.1-86.3-66.8-78.6-103.9c0.6-3,1.4-6,2.2-8.7
					c22-71,121-87.1,121-87.1s-128.6-186.6-79.9-341.1c40.8-129.2,144.1-178,227.2-178.7c37.9-0.3,71.6,9.4,93.2,26l407.9-73.7
					l250.5-45.3c4.1,41,9.6,79.3,16.4,116c6.6,35.7,14.4,69.9,23.5,103.8c37.4,139.3,96.4,272.3,177.9,471.1
					c71.9,45.2,111.1,87.4,121.3,123.5C1805.5,2177.8,1755.4,2218.2,1652.4,2234.4z"/>
			</g>
		</g>
		<g class="st10">
			<g>
				<path class="st1" d="M1652.4,2234.4c-77,12.1-212.2-19.3-261.1-131c0,0-56.7-198.5-188-328.2c-96.9-95.7-307.5-117.7-352.8-52.2
					c-43.8,63.2,45.7,234.5-8.7,325.7c-21.6,36.2-154.1,99.4-334.1,72.9c-75.2-11.1-86.3-66.8-78.6-103.9
					c22.3,14.2,65.1,26.6,147.3,23.9c178.8-5.7,236.6-56.9,209.1-193.2c-25.7-127-18.5-215.5,31.1-256.8l-9.3-1.1
					c-0.1,0-0.1,0-0.2,0l-4.5-0.5c-2.3-0.3-4.5-0.7-6.7-1.2c-0.9-0.2-1.8-0.5-2.7-0.7c-1.1-0.3-2.1-0.5-3.1-0.9h0.1
					c-30.5-9.6-51.1-40.1-47.1-73l1.7-14c0-9,0.2-18,0.7-27c-13.4-3-25-10.4-33.4-20.6c-9.1-11.1-14.4-25.4-13.7-40.9
					c0.1-2.2,0.4-4.5,0.7-6.6c0.1-0.5,0.2-0.9,0.3-1.3c0.1-0.5,0.2-1.1,0.3-1.6c37.9-0.3,71.6,9.4,93.2,26l407.9-73.7
					c1.6,2.3,3,4.7,4.3,7.1c0.3,0.5,0.5,1,0.7,1.5c0.7,1.4,1.3,2.7,1.9,4.2c0.3,0.7,0.5,1.3,0.8,2c0.5,1.3,0.9,2.6,1.3,3.9
					c0.2,0.8,0.4,1.5,0.6,2.3c0.4,1.3,0.7,2.6,0.9,3.9c0.2,0.8,0.3,1.5,0.4,2.3c0.2,1.3,0.4,2.7,0.5,4.1c0.1,0.8,0.2,1.5,0.2,2.3
					c0.1,1.5,0.2,3.1,0.2,4.6c0,0.6,0,1.2,0,1.8c0,2.2-0.2,4.4-0.5,6.6l-3.4,28.9c34.3,6.3,172.4,28.3,258.7-4.6
					c6.6,35.7,14.4,69.9,23.5,103.8c-4,3.7-7,5.3-7,5.3s-113.6,48.6-287.9,1.6l-3.9,32.1c-0.6,5-1.7,9.7-3.3,14.2
					c0,0.1-0.1,0.2-0.1,0.2c-0.8,2.1-1.6,4.3-2.6,6.3c-0.1,0.2-0.2,0.5-0.4,0.7c-0.9,1.9-1.9,3.7-3,5.5c0,0.1-0.1,0.2-0.1,0.2
					c-0.3,0.5-0.6,0.9-0.9,1.4c-1.1,1.6-2.2,3.3-3.4,4.8c-0.5,0.7-1.1,1.4-1.6,2c-0.7,0.8-1.3,1.5-2,2.3c-0.7,0.7-1.3,1.4-2,2.1
					c-0.6,0.6-1.3,1.3-2,1.9c-1.2,1.1-2.5,2.2-3.7,3.2c-0.2,0.2-0.4,0.3-0.5,0.5c-0.5,0.4-0.9,0.6-1.4,1c-1,0.7-2,1.4-3,2.1
					c-0.7,0.5-1.4,0.9-2.1,1.3c-1,0.6-2.1,1.2-3.1,1.8c-0.7,0.4-1.3,0.7-2,1.1c-1.6,0.8-3.2,1.6-4.8,2.2c-0.7,0.3-1.4,0.5-2.1,0.8
					c-0.6,0.2-1.2,0.4-1.8,0.6c42,17.6,77.9,38.6,99.7,61.5c120.9,126.7,149.2,299.5,223.8,420.3c39.1,63.3,233.8,83.6,320.4,17.4
					C1805.5,2177.8,1755.4,2218.2,1652.4,2234.4z"/>
			</g>
		</g>
		<g>
			<g>
				<path class="st1" d="M1619.1,2252.4c-84,0-197-39.8-242.1-142.8l-0.7-2c-0.6-1.9-57.2-196.2-184-321.4
					c-64.9-64.1-180.5-91.2-256.3-84.2c-36,3.3-61.8,13.9-72.7,29.7c-16.9,24.4-8.5,75.4,0.3,129.4c11,66.6,23.4,142.1-8.4,195.5
					c-25.9,43.5-165,107.6-349.7,80.4c-45.9-6.8-68.6-28.9-79.5-46.2c-22.6-36-13.1-75.3-9.6-86.4c17.9-57.6,77.8-82.8,111-92.5
					c-31.8-52.5-111.6-203.3-69.8-335.8c38-120.3,123-163.3,170.4-178.2c64.2-20.2,134.3-13.1,174.5,17.8c6.8,5.3,8.1,15.1,2.9,21.9
					c-5.3,6.8-15.1,8.1-21.9,2.9c-31.9-24.5-92-29.8-146.1-12.8c-41.5,13.1-116.2,50.9-149.9,157.8
					c-45.9,145.3,76.6,325.8,77.8,327.6l14,20.3l-24.3,4c-0.9,0.1-89.7,15.6-108.6,76.3c-5.1,16.4-6.1,40.9,6.2,60.5
					c10.8,17.2,30.2,27.9,57.6,31.9c177.8,26.2,301.4-37,318.3-65.4c26-43.6,15-110.1,4.4-174.4c-9.9-60.4-19.3-117.4,4.8-152.3
					c16.5-23.9,49.6-38.7,95.5-43c82.8-7.7,209.5,22.3,281.1,93.1c129.1,127.6,186.6,316.3,191.7,333.9
					c45.1,101.5,172.1,132.2,243.9,120.9c73.8-11.6,119.9-36.5,126.5-68.2c7.5-36.4-34.7-86.5-115.8-137.4l-4.2-2.7l-1.9-4.6
					c-13.3-32.3-25.9-62.9-38-92c-99-239.3-158.8-383.7-180.9-603.3c-0.9-8.6,5.4-16.2,14-17.1c8.6-0.9,16.2,5.4,17.1,14
					c21.6,215,80.7,357.9,178.7,594.5c11.5,27.8,23.5,56.9,36.1,87.5c116.7,74.5,132.8,132.1,125.5,167.4
					c-6.7,32.5-38.5,75-152.2,92.8C1643.8,2251.5,1631.8,2252.4,1619.1,2252.4z"/>
			</g>
		</g>
		<g class="st14">
			<g>
				<path class="st15" d="M1446.8,1234"/>
			</g>
		</g>
		<g>
			<g>
				
					<ellipse transform="matrix(0.7071 -0.7071 0.7071 0.7071 -746.3896 924.8747)" class="st0" cx="743.2" cy="1363.4" rx="60.5" ry="60.5"/>
			</g>
		</g>
		<g class="st10">
			<g>
				<path class="st1" d="M682.8,1360.9c-1.4,33.4,24.5,61.6,57.9,63c33.4,1.4,61.6-24.5,63-57.9c0.4-9.2-1.3-18.1-4.7-26.1
					c-10.6,20-32,33.3-56.1,32.3c-24.1-1-44.3-16.1-53.1-36.9C685.6,1342.9,683.2,1351.6,682.8,1360.9z"/>
			</g>
		</g>
		<g>
			<g>
				<path class="st1" d="M743.3,1436.2c-1,0-2.1,0-3.1-0.1c-19.4-0.8-37.4-9.1-50.5-23.5c-13.2-14.3-20-32.9-19.1-52.3
					c1.7-40.1,35.7-71.4,75.8-69.7c40.1,1.7,71.4,35.7,69.7,75.8c-0.8,19.4-9.2,37.4-23.5,50.5
					C778.9,1429.4,761.6,1436.2,743.3,1436.2z M743.2,1315.3c-25.6,0-47,20.3-48.1,46.1l0,0c-0.5,12.8,4,25.1,12.7,34.6
					c8.7,9.5,20.6,15,33.4,15.5c12.8,0.5,25.1-4,34.6-12.7c9.5-8.7,15-20.6,15.5-33.4c1.1-26.5-19.6-49-46.1-50.1
					C744.6,1315.3,743.9,1315.3,743.2,1315.3z M682.8,1360.9L682.8,1360.9L682.8,1360.9z"/>
			</g>
		</g>
		<g class="st2">
			<g>
				<path class="st1" d="M736.9,1418.3c14.9-67,21.2-129.7,22.1-185.8c-3.6,32.2-9,65.9-16.7,100.8c-9.1,40.9-14,84-13,126.7
					C731.3,1445.9,733.9,1432,736.9,1418.3z"/>
			</g>
		</g>
		<g>
			<g>
				<path class="st0" d="M787,1539.1l313.9,37.7c37.2,4.5,71.2-22.3,75.7-59.5l20-167.1c3.9-32.6-16.1-62.7-46.2-72.7
					c-4.2-1.4-8.7-2.4-13.3-3l-313.9-37.7c-37.2-4.5-71.3,22.3-75.7,59.5l-15.9,132.3l-4.2,34.7C723,1500.6,749.8,1534.6,787,1539.1
					z"/>
			</g>
		</g>
		<g class="st10">
			<g>
				<path class="st1" d="M787,1539.1l313.9,37.7c37.2,4.5,71.2-22.3,75.7-59.5l20-167.1c3.9-32.6-16.1-62.7-46.2-72.7
					c-19.2,9.7-31.5,15.9-31.5,15.9c-31.4,132.3-77.6,194.6-244.4,177.3c-72-7.5-116.1-23.9-142.9-42.1l-4.2,34.7
					C723,1500.6,749.8,1534.6,787,1539.1z"/>
			</g>
		</g>
		<g>
			<g>
				<path class="st1" d="M1105,1589.1c-3.4,0-6.8-0.2-10.2-0.6l-304.5-36.5c-46.6-5.6-80-48.1-74.4-94.7l18.9-157.7
					c2.7-22.5,14.1-42.6,32-56.7c17.9-14.1,40.2-20.4,62.7-17.7l304.5,36.5c22.5,2.7,42.6,14.1,56.7,32
					c14.1,17.9,20.4,40.2,17.7,62.7l-18.9,157.7C1184.2,1557.2,1147.4,1589.1,1105,1589.1z M1097.7,1564c33.1,4,63.3-19.7,67.3-52.9
					l18.9-157.7c1.9-16-2.5-31.8-12.6-44.5c-10-12.8-24.3-20.8-40.3-22.7l-304.5-36.5c-16-1.9-31.8,2.5-44.5,12.6
					c-12.8,10-20.8,24.3-22.7,40.3l-18.9,157.7c-4,33.1,19.7,63.3,52.9,67.3L1097.7,1564z"/>
			</g>
		</g>
		<g>
			<g>
				<path class="st0" d="M774.5,1536.4c4,1.3,8.1,2.2,12.5,2.7l313.9,37.7c27.2,3.3,52.8-10.2,66.3-32.3c4.9-8,8.2-17.2,9.4-27.1
					l8.9-74.2l2.9-24.5l8.2-68.4c4.5-37.2-22.3-71.2-59.5-75.7l-67.8-8.1c30.6,9.6,51.1,40.1,47.1,73l-10.8,90.2l-9.2,76.9
					c-4.5,37.2-38.6,64-75.7,59.5L774.5,1536.4z"/>
			</g>
		</g>
		<g class="st2">
			<g>
				<path class="st1" d="M774.5,1536.4c4,1.3,8.1,2.2,12.5,2.7l313.9,37.7c37.2,4.5,71.2-22.3,75.7-59.5l11.9-98.7
					c-10,16.5-26.7,36.2-49.7,35.7c-12.6-0.2-23.8-10.7-33.1-24.7l-9.2,76.9c-4.5,37.2-38.6,64-75.7,59.5L774.5,1536.4z"/>
			</g>
		</g>
		<g>
			<g>
				<path class="st1" d="M1109.1,1589.6c-3.2,0-6.4-0.2-9.7-0.6l-313.9-37.7c-5-0.6-10-1.7-14.8-3.3l5.3-23.9l246.2,29.6
					c14.7,1.8,29.3-2.3,41-11.6c11.8-9.2,19.2-22.4,21-37.1l20-167.1c3.2-26.6-13-51.7-38.6-59.8l5.2-24l67.8,8.1
					c44,5.3,75.6,45.4,70.3,89.4l-20,167.1c-2.5,21.2-13.3,40.3-30.2,53.6C1144.3,1583.6,1127,1589.6,1109.1,1589.6z M1078.3,1561.7
					l24.1,2.9c14.7,1.8,29.3-2.3,41-11.6c11.8-9.2,19.2-22.4,21-37.1v0l20-167.1c3.7-30.5-18.2-58.3-48.7-62l-21.7-2.6
					c11.6,15.9,17.2,36,14.8,56.7l-20,167.1c-2.5,21.2-13.3,40.3-30.2,53.6C1078.4,1561.6,1078.3,1561.6,1078.3,1561.7z"/>
			</g>
		</g>
		<g>
			<g>
				<path class="st16" d="M982.5,1409.4c-0.7,6.2,2.3,57.1,2.3,57.1s15.8,1.8,35.2,4c24.3,2.8,46.8-20.1,50.3-51.1
					c3.5-31-13.3-58.3-37.5-61.1c-16.4-1.9-35.2-4-35.2-4S983.7,1399.3,982.5,1409.4z"/>
			</g>
		</g>
		<g>
			<g>
				<path class="st17" d="M982.5,1409.4c-0.7,6.2,2.3,57.1,2.3,57.1s15.8,1.8,35.2,4c24.3,2.8,46.8-20.1,50.3-51.1
					c3.5-31-13.3-58.3-37.5-61.1c-16.4-1.9-35.2-4-35.2-4S983.7,1399.3,982.5,1409.4z"/>
			</g>
		</g>
		<g>
			<g>
				<path class="st1" d="M1024,1480.6c-1.7,0-3.4-0.1-5-0.3l-24.5-2.8c-11-1.3-19.5-10.2-20.1-21.3c-2.3-42.1-1.8-46.3-1.6-47.9
					c0.7-5.9,4.8-21.6,12.3-46.5c3.2-10.5,13.4-17.3,24.3-16l24.6,2.8c29.6,3.4,50.3,35.7,46.2,72
					C1076.2,1454.8,1051.6,1480.6,1024,1480.6z M992.3,1410.5c-0.2,2.3,0.1,15.4,1.7,44.6c0.1,1.4,1.2,2.6,2.6,2.8l24.5,2.8
					c18.9,2.1,36.5-16.9,39.4-42.4c2.9-25.5-10-48-28.8-50.2l-24.6-2.8c-1.4-0.1-2.8,0.7-3.2,2.1
					C994,1400.6,992.5,1408.8,992.3,1410.5z M982.5,1409.4L982.5,1409.4L982.5,1409.4z"/>
			</g>
		</g>
		<g>
			<g>
				
					<ellipse transform="matrix(0.1134 -0.9935 0.9935 0.1134 -522.5194 2235.2458)" class="st16" cx="991.2" cy="1410.4" rx="56.5" ry="44.2"/>
			</g>
		</g>
		<g class="st18">
			<g>
				<path class="st0" d="M946.9,1417c7.1-25,26.9-42.1,48-39.7c21.2,2.4,36.7,23.6,37.9,49.6c1.1-3.7,1.8-7.6,2.3-11.6
					c3.5-31-13.3-58.3-37.5-61.1c-24.3-2.8-46.8,20.1-50.3,51.1C946.8,1409.4,946.7,1413.2,946.9,1417z"/>
			</g>
		</g>
		<g>
			<g>
				<path class="st17" d="M984.8,1466.5c24.2,2.8,46.8-20.1,50.4-51.1c0.8-7.1,0.5-14-0.6-20.5c-8.7,20.3-26.4,33.4-45.1,31.3
					c-18.7-2.2-32.9-18.8-36.9-40.6c-2.6,6-4.4,12.7-5.2,19.8C943.7,1436.4,960.5,1463.7,984.8,1466.5z"/>
			</g>
		</g>
		<g>
			<g>
				<path class="st1" d="M988.7,1476.6c-1.7,0-3.4-0.1-5-0.3c-29.6-3.4-50.3-35.7-46.2-72l0,0c4.1-36.3,31.6-63.1,61.2-59.8
					c29.6,3.4,50.3,35.7,46.2,72C1041,1450.8,1016.4,1476.6,988.7,1476.6z M957.1,1406.5c-2.9,25.5,10,48,28.8,50.2
					c18.9,2.1,36.5-16.9,39.4-42.4c2.9-25.5-10-48-28.8-50.2C977.6,1362,960,1381,957.1,1406.5L957.1,1406.5z"/>
			</g>
		</g>
		<g>
			<g>
				<path class="st1" d="M884.7,1559.5c-0.3,0-0.6,0-1,0c-5.4-0.5-9.4-5.3-8.9-10.8l8.1-84.7c1.6-16.4-5.1-32.4-17.9-42.7
					c-18.4-14.9-27.7-37.8-25-61.3l13.9-119.2c0.6-5.4,5.5-9.3,10.9-8.6c5.4,0.6,9.3,5.5,8.6,10.9l-13.9,119.2
					c-2,16.8,4.7,33.1,17.8,43.7c18,14.5,27.3,36.9,25.1,59.9l-8.1,84.7C894.1,1555.7,889.8,1559.5,884.7,1559.5z"/>
			</g>
		</g>
		<g>
			<g>
				<path class="st0" d="M1470.4,1366c0,0,27.6,25.2,26.4,61.1c-1.3,41.5-28.4,56.5-28.4,56.5s-117.3,50.3-296.4-0.6
					c0,0-48.9-71.3,13.3-105.4C1185.3,1377.6,1375.4,1417,1470.4,1366z"/>
			</g>
		</g>
		<g class="st10">
			<g>
				<path class="st1" d="M1496.8,1427.1c-1.3,41.4-28.4,56.5-28.4,56.5s-117.2,50.3-296.4-0.6c0,0-16.1-23.5-18-49.9
					c0.8,1.3,1.3,2.1,1.3,2.1c131,37.3,228.8,20.4,272,8.6c30-8.2,51.4-33.4,52.7-63.2c0-0.4,0-0.8,0-1.2c0-0.7,0.1-1.4,0-2.1
					C1487.8,1387.9,1497.5,1405.6,1496.8,1427.1z"/>
			</g>
		</g>
		<g>
			<g>
				<path class="st1" d="M1330.1,1518.2c-45.2,0-99.6-5.8-161.4-23.4l-4.3-1.2l-2.5-3.7c-1.1-1.6-27.6-40.8-18.5-78.7
					c4.5-18.9,16.6-33.8,36.1-44.5l4-2.2l4.4,0.9c1.9,0.4,186.8,37.9,276.7-10.3l7.7-4.1l6.4,5.9c1.3,1.2,31.7,29.5,30.4,70.6
					c-1.5,47.9-33.4,66.1-34.7,66.9l-1.1,0.6C1470,1496.3,1417.4,1518.2,1330.1,1518.2z M1179.9,1472.4
					c163.4,45.1,273.2,4.1,282.9,0.2c3-2,20.6-14.8,21.6-45.9c0.7-20.5-10.1-37.1-16.9-45.5c-92.1,42.5-250.2,15.1-280.1,9.4
					c-11,6.9-17.6,15.6-20.2,26.3C1162.1,1438.7,1174.6,1463.3,1179.9,1472.4z"/>
			</g>
		</g>
		<g>
			<g>
				<path class="st1" d="M1265.6,1864c-8.6,0-15.6-7-15.6-15.6c0-8.6,7-15.6,15.6-15.6c101.4,0,271.5-18,296.6-66.1
					c4-7.7,13.4-10.6,21.1-6.7c7.7,4,10.6,13.4,6.7,21.1C1547.9,1861.7,1294.4,1864,1265.6,1864z"/>
			</g>
		</g>
		<g>
			<g>
				<path class="st1" d="M844.3,1750.3c-5,0-9.9-2.4-12.9-6.8c-85.6-124.8-172.2-171.5-229.8-188.8c-61.9-18.6-104.6-7.9-105-7.8
					c-8.3,2.1-16.9-2.8-19.1-11.1c-2.2-8.3,2.7-16.8,11-19.1c7.8-2.1,192.1-48.1,368.5,209.1c4.9,7.1,3.1,16.8-4,21.7
					C850.4,1749.5,847.4,1750.3,844.3,1750.3z"/>
			</g>
		</g>
		<g>
			<g>
				<g>
					<path class="st0" d="M552.3,1921.9c0,0,62.3,38.6,174.7,8.3"/>
				</g>
			</g>
			<g>
				<g>
					<path class="st1" d="M560.6,1908.7c0.5,0.4,2.2,1.4,3.5,2.1c1.3,0.8,2.9,1.5,4.3,2.2c3,1.4,6,2.8,9.2,4
						c6.3,2.6,12.9,4.6,19.6,6.4c13.5,3.6,27.5,5.6,41.7,6.7c7.1,0.3,14.3,0.7,21.4,0.5c7.2,0.1,14.4-0.6,21.6-1.1
						c7.2-0.5,14.4-1.8,21.6-2.6c7.2-1.2,14.3-2.7,21.5-4.1l0.5-0.1c4.2-0.8,8.3,2,9.1,6.2c0.7,4-1.7,7.9-5.6,8.9
						c-7.3,2.1-14.6,4.3-22,6.2c-7.5,1.6-14.9,3.6-22.5,4.8c-7.6,1.2-15.2,2.6-22.9,3.2c-7.7,1-15.4,1.2-23.2,1.5
						c-15.6,0.2-31.3-0.7-47-3.4c-7.8-1.4-15.7-3-23.4-5.4c-3.9-1.1-7.8-2.5-11.7-3.9c-1.9-0.8-3.9-1.5-5.9-2.4
						c-2.1-0.9-3.7-1.6-6.4-3.1l-0.5-0.3c-7.6-4.2-10.3-13.8-6.1-21.3c4.2-7.6,13.8-10.3,21.3-6.1
						C559.4,1907.8,560,1908.3,560.6,1908.7z"/>
				</g>
			</g>
		</g>
		<g>
			<g>
				<path class="st1" d="M1517.7,2054.3c13.7-0.1,28-1.4,41.7-3.6c13.8-2.2,27.3-5.4,40.1-10.1c12.7-4.7,24.7-10.6,34.3-18.5
					c9.8-7.8,16.8-17.5,20.7-28.1c3-8.1,11.9-12.3,20-9.3c8.1,3,12.3,11.9,9.3,20c-0.2,0.5-0.4,0.9-0.6,1.4
					c-3.8,7.9-8.7,15.3-14.4,21.7c-5.7,6.5-12.3,11.8-19.1,16.4c-13.7,9.2-28.6,14.8-43.5,18.8c-14.9,3.9-29.9,6.1-44.8,7.1
					c-15,1-29.6,1-44.8-0.2c-4.3-0.4-7.5-4.1-7.1-8.4c0.3-4.1,3.7-7.1,7.7-7.2L1517.7,2054.3z"/>
			</g>
		</g>
		<g>
			<g>
				<path class="st19" d="M2315,576.1c-24.9-14.3-40.1-33.7-45.5-58.2l0,0c-0.5-2.1-0.9-4.2-1.2-6.4c-0.9-5.8,2.6-11.5,8.3-13.1
					l21.6-6.4l44.8,62.8l-12.7,17.9C2326.8,577.5,2320.2,579.1,2315,576.1z"/>
			</g>
		</g>
		<g>
			<g>
				<path class="st20" d="M2343.1,414.4L2304,395c-4.2-2.1-9.3-1.7-13.2,1.1l-20.2,14.4c-5.6,4-7.1,11.8-3.2,17.6l28.2,41.9"/>
			</g>
		</g>
		<g class="st21">
			<g>
				<path class="st0" d="M2336.4,422.2l-32.7-16.2c-4.2-2.1-9.3-1.7-13.2,1.1l-20.2,14.4c-1.7,1.2-3.1,2.8-4,4.6
					c-2.4-5.5-0.8-12.1,4.2-15.7l20.2-14.4c3.9-2.8,8.9-3.2,13.1-1.1l39.1,19.4L2336.4,422.2z"/>
			</g>
		</g>
		<g>
			<g>
				<path class="st20" d="M2432,593.6l-20.2,14.4c-5.6,4-13.5,2.8-17.7-2.7l-30.5-40.3l41.7-16.5l26.2-10.4l5.6,43.1l0,0.2
					C2437.9,586.2,2435.9,590.9,2432,593.6z"/>
			</g>
		</g>
		<g class="st14">
			<g>
				<path class="st22" d="M2432,593.6l-20.2,14.4c-5.6,4-13.5,2.8-17.7-2.7l-30.5-40.3l41.7-16.5l3-1c-22.6,37.5-8.1,44.7,28.9,33.7
					l0,0.2C2437.9,586.2,2435.9,590.9,2432,593.6z"/>
			</g>
		</g>
		<g>
			<g>
				<path class="st1" d="M2320.8,582.6c-2.8,0-5.6-0.7-8.2-2.2c-28.3-16.3-44.8-39.2-49.1-68.2c-1.2-8.3,3.8-16.2,11.8-18.6
					l21.6-6.4c2.6-0.8,5.4,0.7,6.1,3.3c0.8,2.6-0.7,5.4-3.3,6.1l-21.6,6.4c-3.3,1-5.3,4.2-4.8,7.7c3.9,26.2,18.4,46.1,44.3,61.1
					c2.9,1.7,6.8,0.8,8.9-2l12.7-17.9c1.6-2.2,4.6-2.8,6.9-1.2c2.2,1.6,2.7,4.7,1.2,6.9l-12.7,17.9
					C2331.1,580.1,2326,582.6,2320.8,582.6z"/>
			</g>
		</g>
		<g>
			<g>
				<path class="st1" d="M2295.7,474.9c-1.6,0-3.1-0.8-4.1-2.2l-28.2-41.9c-5.4-8-3.5-18.7,4.4-24.4L2288,392
					c5.3-3.8,12.3-4.4,18.2-1.5l39.1,19.4c2.4,1.2,3.4,4.2,2.2,6.6c-1.2,2.4-4.2,3.4-6.6,2.2l-39.1-19.4c-2.6-1.3-5.7-1-8.1,0.6
					l-20.2,14.4c-3.5,2.5-4.4,7.3-2,10.8l28.2,41.9c1.5,2.3,0.9,5.3-1.3,6.8C2297.6,474.6,2296.6,474.9,2295.7,474.9z"/>
			</g>
		</g>
		<g>
			<g>
				<path class="st1" d="M2404.3,615.4c-5.4,0-10.6-2.4-14.1-7.1l-30.5-40.3c-1.6-2.2-1.2-5.3,1-6.9c2.2-1.6,5.3-1.2,6.9,1
					l30.5,40.3c2.6,3.4,7.4,4.2,10.9,1.7l20.2-14.4c2.4-1.7,3.6-4.6,3.2-7.4l-5.7-43.3c-0.4-2.7,1.5-5.2,4.2-5.5
					c2.7-0.3,5.2,1.5,5.5,4.2l5.7,43.3c0.9,6.5-1.9,12.9-7.3,16.7l-20.2,14.4C2411.5,614.3,2407.9,615.4,2404.3,615.4z"/>
			</g>
		</g>
		<g>
			<g>
				<path class="st23" d="M2369.3,564c-7.4,2.7-15.7,0.9-21.4-4.5c-24-22.8-41-47.3-52.3-73c-3.1-7-2-15.2,2.8-21.2
					c0.8-1,1.6-1.9,2.3-2.9l0,0c65-80.4,131.5-131.6,199.6-153.6c35.6-11.5,71.7-15,108.1-10.6c13.1,1.6,21.9,14,19.2,26.8
					c-1.5,7.3-3.4,14.5-5.5,21.5c-8.5,27.7-21.6,53.5-39.5,77.4C2539.3,481.8,2468.2,528.5,2369.3,564z"/>
			</g>
		</g>
		<g>
			<g>
				<path class="st20" d="M2582.7,423.9c-47.8-12.8-90.3-73.6-82.2-115.1c35.6-11.5,71.7-15,108.1-10.6c13.1,1.6,21.9,14,19.2,26.8
					C2620.1,361,2605.1,393.9,2582.7,423.9z"/>
			</g>
		</g>
		<g class="st21">
			<g>
				<path class="st0" d="M2621.6,348.4c0.9-3.3,1.6-6.7,2.3-10c2.7-12.9-6.1-25.3-19.2-26.8c-35.5-4.4-70.6-1.1-105.3,9.7
					c-0.1-4.3,0.2-8.5,1-12.4c35.6-11.5,71.7-15,108.1-10.6c13.1,1.6,21.9,14,19.2,26.8C2626.1,333,2624,340.8,2621.6,348.4z"/>
			</g>
		</g>
		<g class="st14">
			<g>
				<path class="st22" d="M2369.3,564c-7.4,2.7-15.7,0.9-21.4-4.5c-24-22.8-41-47.3-52.3-73c-3.1-7-2-15.2,2.8-21.2
					c0.8-1,1.6-1.9,2.3-2.9c140,75.3,321.4-115.9,321.4-115.9l0,0.1c-8.5,27.7-21.6,53.5-39.5,77.4
					C2539.3,481.8,2468.2,528.5,2369.3,564z"/>
			</g>
		</g>
		<g>
			<g>
				<path class="st1" d="M2362.3,570.2c-6.5,0-12.8-2.5-17.7-7.1c-23.4-22.2-41.4-47.3-53.4-74.6c-3.9-8.7-2.5-18.8,3.5-26.3
					C2395,336.8,2500.8,280,2609.2,293.3c7.6,0.9,14.5,5,18.9,11.2c4.4,6.2,6.1,14.1,4.5,21.5C2610,432.8,2522,514.4,2371,568.7l0,0
					C2368.1,569.7,2365.2,570.2,2362.3,570.2z M2369.3,564L2369.3,564L2369.3,564z M2578.5,301.3c-94.5,0-187.3,56.1-276.2,167.1
					c-3.7,4.6-4.5,10.8-2.2,16.2c11.7,26.4,28.5,49.8,51.2,71.4c4.4,4.2,10.6,5.5,16.3,3.4l0,0c147.5-53,233.4-132.2,255.2-235.4
					c1-4.9,0-9.7-2.9-13.8c-2.9-4-7.2-6.6-12.1-7.2C2598.1,301.9,2588.3,301.3,2578.5,301.3z"/>
			</g>
		</g>
		<g>
			<g>
				<path class="st20" d="M2307.7,532.4L2307.7,532.4c-3.5-4.9-2.3-11.6,2.5-15.1l57.5-41.1c4.9-3.5,11.6-2.3,15.1,2.5l0,0
					c3.5,4.9,2.3,11.6-2.5,15.1l-57.5,41.1C2318,538.4,2311.2,537.3,2307.7,532.4z"/>
			</g>
		</g>
		<g class="st21">
			<g>
				<path class="st0" d="M2384.6,487.4c-0.2-0.3-0.3-0.5-0.5-0.8c-3.5-4.9-10.2-6-15.1-2.5l-57.5,41.1c-2.3,1.6-3.7,3.9-4.3,6.5
					c-2.8-4.8-1.6-11,3-14.3l57.5-41.1c4.9-3.5,11.6-2.3,15.1,2.5c1.7,2.4,2.3,5.3,1.9,8.1C2384.7,487.1,2384.6,487.2,2384.6,487.4z
					"/>
			</g>
		</g>
		<g>
			<g>
				<path class="st1" d="M2316.6,541.9c-0.9,0-1.7-0.1-2.6-0.2c-4.1-0.7-7.8-3-10.2-6.4l0,0c-2.4-3.4-3.4-7.6-2.7-11.7
					c0.7-4.1,3-7.8,6.4-10.2l57.5-41.1c3.4-2.4,7.6-3.4,11.7-2.7c4.1,0.7,7.8,3,10.2,6.4c2.4,3.4,3.4,7.6,2.7,11.7
					c-0.7,4.1-3,7.8-6.4,10.2l-57.5,41.1C2323,540.9,2319.8,541.9,2316.6,541.9z M2374,479.2c-1.2,0-2.4,0.4-3.4,1.1l-57.5,41.1
					c-1.3,0.9-2.1,2.3-2.4,3.8s0.1,3.1,1,4.4l0,0c0.9,1.3,2.3,2.1,3.8,2.4c1.6,0.2,3.1-0.1,4.4-1l57.5-41.1c1.3-0.9,2.1-2.3,2.4-3.8
					s-0.1-3.1-1-4.4c-0.9-1.3-2.3-2.1-3.8-2.4C2374.7,479.2,2374.3,479.2,2374,479.2z"/>
			</g>
		</g>
		<g>
			<g>
				<circle class="st20" cx="2458.2" cy="430" r="44.6"/>
			</g>
		</g>
		<g class="st14">
			<g>
				<path class="st22" d="M2484.1,466.3c-20,14.3-47.9,9.7-62.2-10.4c-11.6-16.2-10.7-37.6,0.7-52.8c-3.1,12.3-1,25.8,6.9,36.9
					c14.3,20,42.2,24.7,62.2,10.4c3.8-2.7,7-5.9,9.7-9.5C2498.9,450.8,2493,459.9,2484.1,466.3z"/>
			</g>
		</g>
		<g class="st21">
			<g>
				<path class="st0" d="M2498.9,448.2c2.6-11.9,0.3-24.8-7.3-35.4c-14.3-20-42.2-24.7-62.2-10.4c-6.7,4.8-11.7,11.1-14.8,18.1
					c2.3-10.4,8.3-20.1,17.7-26.8c20-14.3,47.9-9.7,62.2,10.4C2504,417.4,2505.1,434.2,2498.9,448.2z"/>
			</g>
		</g>
		<g>
			<g>
				<path class="st1" d="M2458.3,479.5c-2.7,0-5.5-0.2-8.2-0.7c-13.1-2.2-24.5-9.3-32.2-20.1s-10.7-23.9-8.5-36.9
					c2.2-13,9.3-24.5,20.1-32.2c10.8-7.7,23.9-10.7,36.9-8.6c13,2.2,24.5,9.3,32.2,20.1c15.9,22.2,10.7,53.2-11.5,69.1l0,0
					C2478.5,476.4,2468.5,479.5,2458.3,479.5z M2458.1,390.3c-8.2,0-16.2,2.5-23,7.4c-8.6,6.2-14.3,15.3-16.1,25.8
					c-1.7,10.5,0.7,21,6.9,29.6c6.2,8.6,15.3,14.3,25.8,16.1c10.4,1.7,21-0.7,29.6-6.9l0,0c17.8-12.7,21.9-37.5,9.2-55.3
					c-6.2-8.6-15.3-14.3-25.8-16.1C2462.5,390.5,2460.3,390.3,2458.1,390.3z M2484.1,466.3L2484.1,466.3L2484.1,466.3z"/>
			</g>
		</g>
		<g>
			<g>
				
					<ellipse transform="matrix(0.8795 -0.4759 0.4759 0.8795 91.623 1221.7836)" class="st24" cx="2458.2" cy="430" rx="27.6" ry="27.6"/>
			</g>
		</g>
		<g class="st14">
			<g>
				<path class="st22" d="M2477.6,449.5c3.4-8.4,2.5-18.4-3.1-26.3c-8.9-12.4-26.1-15.3-38.5-6.4c-1.2,0.9-2.4,1.8-3.4,2.9
					c1.9-4.7,5.1-9,9.5-12.1c12.4-8.9,29.6-6,38.5,6.4C2488.6,425.1,2487,440.2,2477.6,449.5z"/>
			</g>
		</g>
		<g>
			<g>
				<path class="st1" d="M2458.2,460c-9.4,0-18.6-4.4-24.5-12.6c-4.7-6.5-6.5-14.5-5.2-22.4c1.3-7.9,5.6-14.8,12.2-19.5
					c13.5-9.6,32.3-6.5,41.9,7c4.7,6.5,6.5,14.5,5.2,22.4c-1.3,7.9-5.6,14.8-12.2,19.5l0,0C2470.3,458.2,2464.2,460,2458.2,460z
					 M2458.1,404.9c-5,0-10.1,1.5-14.6,4.7c-5.5,3.9-9.1,9.7-10.2,16.3c-1.1,6.6,0.4,13.3,4.3,18.7c3.9,5.5,9.7,9.1,16.3,10.2
					c6.6,1.1,13.3-0.4,18.7-4.3l0,0c5.5-3.9,9.1-9.7,10.2-16.3c1.1-6.6-0.4-13.3-4.3-18.7C2473.7,408.5,2466,404.9,2458.1,404.9z"/>
			</g>
		</g>
		<g>
			<g>
				<path class="st1" d="M2582.7,428.8c-0.4,0-0.8-0.1-1.3-0.2c-49.5-13.2-94.4-76.5-85.8-120.8c0.5-2.7,3.1-4.4,5.8-3.9
					c2.7,0.5,4.4,3.1,3.9,5.8c-7.6,39.3,34.3,97.6,78.7,109.4c2.6,0.7,4.2,3.4,3.5,6C2586.8,427.4,2584.8,428.8,2582.7,428.8z"/>
			</g>
		</g>
		<g class="st14">
			<g>
				<path class="st22" d="M2315,576.1c-24.9-14.3-40.1-33.7-45.5-58.2c13.8,22.5,48.4,16.3,48.4,16.3l12.6,3l12.5,17.6l-12.7,17.9
					C2326.8,577.5,2320.2,579.1,2315,576.1z"/>
			</g>
		</g>
		<g class="st25">
			<g>
				<path class="st1" d="M2756.6,675.3c0,0-68.2-49.6-153.9-35.4c-92,15.2-162,56.4-280.2,48.6c-145.8-9.6-247.5-175.1-247.5-175.1
					S2177.5,213,2176.1,93.6c18,1.8,35.3,7.1,52,14.8c-10.5,111.7-111.7,397.4-35.3,465c134.9,119.3,233.1-162.5,249.7-333.7
					c11.1,2.7,22.4,4,34.1,3.8c12.2-0.2,23.8-1.9,35.2-4.7c-42.3,134.2-94.4,361.8,45.8,345.5c158.9-18.5,137.3-277.3,232.8-421.1
					c9.1,1.4,18.5,3.3,28.3,5.7C2818.6,168.9,2754.9,672.1,2756.6,675.3z"/>
			</g>
		</g>
	</g>
</g>
</svg>
