<?xml version="1.0" encoding="utf-8"?>
<!-- Generator: Adobe Illustrator 27.3.1, SVG Export Plug-In . SVG Version: 6.00 Build 0)  -->
<svg version="1.1" id="Layer_1" xmlns="http://www.w3.org/2000/svg" xmlns:xlink="http://www.w3.org/1999/xlink" x="0px" y="0px"
	 viewBox="0 0 2500 2500" style="enable-background:new 0 0 2500 2500;" xml:space="preserve">
<style type="text/css">
	.st0{fill:#563D7C;}
	.st1{fill:#FFFFFF;}
</style>
<g>
	<path class="st0" d="M0,2177.6c0,178,144.3,322.4,322.4,322.4h1855.3c178.1,0,322.4-144.3,322.4-322.4V322.4
		C2500,144.3,2355.7,0,2177.6,0H322.4C144.3,0,0,144.3,0,322.4V2177.6L0,2177.6z"/>
	<path class="st1" d="M1036.7,1105.8v-354h311.6c29.7,0,58.3,2.5,85.9,7.4c27.6,4.9,51.9,13.8,73.1,26.5
		c21.2,12.7,38.2,30.4,50.9,53c12.7,22.6,19.1,51.6,19.1,86.9c0,63.6-19.1,109.5-57.2,137.8c-38.2,28.3-86.9,42.4-146.3,42.4
		L1036.7,1105.8L1036.7,1105.8z M703.9,493.2v1513.7h733.5c67.8,0,133.9-8.5,198.2-25.4c64.3-17,121.5-43.1,171.7-78.4
		c50.2-35.3,90.1-80.9,119.8-136.7c29.7-55.8,44.5-121.9,44.5-198.2c0-94.7-23-175.6-68.9-242.7c-45.9-67.1-115.5-114.1-208.8-141
		c67.8-32.5,119.1-74.2,153.7-125.1c34.6-50.9,51.9-114.5,51.9-190.8c0-70.7-11.7-130-35-178.1c-23.3-48-56.2-86.6-98.6-115.5
		c-42.4-29-93.3-49.8-152.6-62.5c-59.4-12.7-125.1-19.1-197.2-19.1L703.9,493.2L703.9,493.2z M1036.7,1748.2v-415.5h362.5
		c72.1,0,130,16.6,173.8,49.8c43.8,33.2,65.7,88.7,65.7,166.4c0,39.6-6.7,72.1-20.1,97.5s-31.4,45.6-54.1,60.4
		c-22.6,14.8-48.8,25.4-78.4,31.8c-29.7,6.3-60.8,9.5-93.3,9.5H1036.7L1036.7,1748.2z"/>
</g>
</svg>
