<?xml version="1.0" encoding="utf-8"?>
<!-- Generator: Adobe Illustrator 27.3.1, SVG Export Plug-In . SVG Version: 6.00 Build 0)  -->
<svg version="1.1" id="Layer_1" xmlns="http://www.w3.org/2000/svg" xmlns:xlink="http://www.w3.org/1999/xlink" x="0px" y="0px"
	 viewBox="0 0 2500 2437.5" style="enable-background:new 0 0 2500 2437.5;" xml:space="preserve">
<style type="text/css">
	.st0{fill:#16162F;}
	.st1{fill:#1ABCFE;}
	.st2{fill:#0ACF83;}
	.st3{fill:#FF7262;}
	.st4{fill:#F24E1E;}
	.st5{fill:#A259FF;}
</style>
<g>
	<g>
		<path class="st0" d="M442.7,0h1614.6C2302.1,0,2500,198,2500,442.8v1552c0,244.8-197.9,442.7-442.7,442.7H442.7
			C197.9,2437.6,0,2239.6,0,1994.8v-1552C0,198,197.9,0,442.7,0z"/>
		<path class="st1" d="M1249.6,1219.2c0-180.5,146.3-327.6,327.6-327.6c180.5,0,327.6,146.3,327.6,327.6
			c0,180.5-146.3,327.6-327.6,327.6C1396.7,1546.8,1249.6,1399.7,1249.6,1219.2L1249.6,1219.2z"/>
		<path class="st2" d="M595.2,1873.6c0-180.5,146.3-327.6,327.6-327.6h327.6v327.6c0,180.5-146.3,327.6-327.6,327.6
			S595.2,2054.9,595.2,1873.6L595.2,1873.6z"/>
		<path class="st3" d="M1249.6,237.1v654.4h327.6c180.5,0,327.6-146.3,327.6-327.6c0-180.5-146.3-327.6-327.6-327.6h-327.6V237.1z"
			/>
		<path class="st4" d="M595.2,564.7c0,180.5,146.3,327.6,327.6,327.6h327.6V237.1H922.8C741.5,237.1,595.2,383.5,595.2,564.7z"/>
		<path class="st5" d="M595.2,1219.2c0,180.5,146.3,327.6,327.6,327.6h327.6V891.6H922.8C741.5,891.6,595.2,1038.7,595.2,1219.2z"/>
	</g>
</g>
</svg>
