<?xml version="1.0" encoding="utf-8"?>
<!-- Generator: Adobe Illustrator 27.3.1, SVG Export Plug-In . SVG Version: 6.00 Build 0)  -->
<svg version="1.1" id="Layer_1" xmlns="http://www.w3.org/2000/svg" xmlns:xlink="http://www.w3.org/1999/xlink" x="0px" y="0px"
	 viewBox="0 0 135 135" style="enable-background:new 0 0 135 135;" xml:space="preserve">
<style type="text/css">
	.st0{fill:#FFFFFF;}
</style>
<g>
	<path class="st0" d="M100.6,42.5c-0.8-2-1.7-3.4-3.2-4.9s-2.9-2.4-4.9-3.2c-1.5-0.6-3.7-1.3-7.9-1.5c-4.5-0.2-5.8-0.2-17.2-0.2
		s-12.7,0-17.2,0.2c-4.1,0.2-6.4,0.9-7.9,1.5c-2,0.8-3.4,1.7-4.9,3.2s-2.4,2.9-3.2,4.9c-0.6,1.5-1.3,3.7-1.5,7.9
		c-0.2,4.5-0.2,5.8-0.2,17.2c0,11.3,0,12.7,0.2,17.2c0.2,4.1,0.9,6.4,1.5,7.9c0.8,2,1.7,3.4,3.2,4.9s2.9,2.4,4.9,3.2
		c1.5,0.6,3.7,1.3,7.9,1.5c4.5,0.2,5.8,0.2,17.2,0.2c11.3,0,12.7,0,17.2-0.2c4.1-0.2,6.4-0.9,7.9-1.5c2-0.8,3.4-1.7,4.9-3.2
		s2.4-2.9,3.2-4.9c0.6-1.5,1.3-3.7,1.5-7.9c0.2-4.5,0.2-5.8,0.2-17.2c0-11.3,0-12.7-0.2-17.2C101.9,46.2,101.2,44,100.6,42.5z
		 M67.5,89.4c-12.1,0-21.8-9.8-21.8-21.8c0-12.1,9.8-21.8,21.8-21.8c12.1,0,21.8,9.8,21.8,21.8S79.5,89.4,67.5,89.4z M90.2,50
		c-2.8,0-5.1-2.3-5.1-5.1s2.3-5.1,5.1-5.1s5.1,2.3,5.1,5.1S93,50,90.2,50z"/>
	<path class="st0" d="M67.5,0C30.2,0,0,30.2,0,67.5S30.2,135,67.5,135S135,104.8,135,67.5C135,30.3,104.8,0,67.5,0z M109.7,85.1
		c-0.2,4.5-0.9,7.6-2,10.3c-1.1,2.8-2.5,5.2-4.9,7.5c-2.4,2.4-4.7,3.8-7.5,4.9c-2.7,1.1-5.8,1.8-10.3,2s-6,0.3-17.5,0.3
		s-13,0-17.5-0.3c-4.5-0.2-7.6-0.9-10.3-2c-2.8-1.1-5.2-2.5-7.5-4.9c-2.4-2.4-3.8-4.7-4.9-7.5c-1.1-2.7-1.8-5.8-2-10.3
		s-0.3-6-0.3-17.5s0-13,0.3-17.5c0.2-4.5,0.9-7.6,2-10.3c1.1-2.8,2.5-5.2,4.9-7.5c2.4-2.4,4.7-3.8,7.5-4.9c2.7-1.1,5.8-1.8,10.3-2
		s6-0.3,17.5-0.3s13,0,17.5,0.3c4.5,0.2,7.6,0.9,10.3,2c2.8,1.1,5.2,2.5,7.5,4.9c2.4,2.4,3.8,4.7,4.9,7.5c1.1,2.7,1.8,5.8,2,10.3
		s0.3,6,0.3,17.5S109.9,80.5,109.7,85.1z"/>
	<circle class="st0" cx="67.5" cy="67.5" r="14.2"/>
</g>
</svg>
