<?xml version="1.0" encoding="utf-8"?>
<!-- Generator: Adobe Illustrator 27.2.0, SVG Export Plug-In . SVG Version: 6.00 Build 0)  -->
<svg version="1.1" id="Layer_1" xmlns="http://www.w3.org/2000/svg" xmlns:xlink="http://www.w3.org/1999/xlink" x="0px" y="0px"
	 viewBox="0 0 163.7 170.5" style="enable-background:new 0 0 163.7 170.5;" xml:space="preserve">
<style type="text/css">
	.st0{fill-rule:evenodd;clip-rule:evenodd;fill:#00D1FF;}
	.st1{fill-rule:evenodd;clip-rule:evenodd;fill:#FFFFFF;}
	.st2{fill-rule:evenodd;clip-rule:evenodd;fill:#0097D6;}
	.st3{fill:#9DE0E9;}
	.st4{fill:#FFFFFF;}
</style>
<g>
	<path class="st0" d="M5,49.1c2.8-0.1,5.5-0.3,7.3-0.9c1.3-0.4,2.2-1.3,2.2-2.9V15.7C14.5,6.2,20.1,0,29.7,0h89.1h6.8v0l0.1,0
		c9.6,0,15.1,6.3,15.1,15.7v29.7c0,1.6,0.9,2.5,2.2,2.9c1.9,0.6,4.5,0.8,7.3,0.9c2.8,0.1,5,2.3,5,5.1v1.9c0,2.8-2.2,5-5,5.1
		c-2.8,0.1-5.5,0.3-7.3,0.9c-1.3,0.4-2.2,1.3-2.2,2.9v29.7c0,9.4-5.6,15.7-15.2,15.7h0H36.5h-6.8l0,0l-0.1,0
		c-9.6,0-15.1-6.3-15.1-15.7V65.1c0-1.6-0.9-2.5-2.2-2.9c-1.9-0.6-4.5-0.8-7.3-0.9c-2.8-0.1-5-2.3-5-5.1v-1.9
		C0,51.5,2.2,49.2,5,49.1z"/>
	<g>
		<g>
			<path class="st1" d="M83.3,83.9c9-2.5,14-8,16.2-14.7h11.7c0,0-0.1-17-11.5-17.8c-3.2-13.5-12.9-25.9-22-25.9
				c-9.1,0-18.8,12.4-22,25.9c-11.4,0.9-11.5,17.8-11.5,17.8h11.7C58,75.8,63.1,81.3,72,83.9c1.3,0.4,2.2,1.4,2.3,2.7
				c0.3,3.1-0.8,8.3-11.6,8.9c-15,0.9-20.5,7.6-19.2,14.9h68.1c1.3-7.3-4.2-14-19.2-14.9c-10.8-0.7-11.9-5.8-11.6-8.9
				C81.1,85.3,82,84.2,83.3,83.9z"/>
			<path class="st2" d="M77.7,61.1c5.7,0,10.3-4.6,10.3-10.3s-4.6-10.3-10.3-10.3c-5.7,0-10.3,4.6-10.3,10.3S72,61.1,77.7,61.1z"/>
		</g>
		<path class="st1" d="M112.4,20.7c0.7,1.4,1.8,2.5,3.2,3.2c0.4,0.2,0.6,0.5,0.6,0.9c0,0.4-0.2,0.7-0.6,0.9
			c-1.4,0.7-2.5,1.8-3.2,3.2c-0.2,0.4-0.5,0.6-0.9,0.6c-0.4,0-0.7-0.2-0.9-0.6c-0.7-1.4-1.8-2.5-3.2-3.2c-0.4-0.2-0.6-0.5-0.6-0.9
			c0-0.4,0.2-0.7,0.6-0.9c1.4-0.7,2.5-1.8,3.2-3.2c0.2-0.4,0.5-0.6,0.9-0.6C111.9,20.2,112.2,20.4,112.4,20.7L112.4,20.7z"/>
		<path class="st1" d="M31,67.6c0.3,0.5,0.7,0.9,1.2,1.2c0.3,0.2,0.5,0.5,0.5,0.9c0,0.4-0.2,0.7-0.5,0.9c-0.5,0.3-0.9,0.7-1.2,1.2
			c-0.2,0.3-0.5,0.5-0.9,0.5c-0.4,0-0.7-0.2-0.9-0.5c-0.3-0.5-0.7-0.9-1.2-1.2c-0.3-0.2-0.5-0.5-0.5-0.9c0-0.4,0.2-0.7,0.5-0.9
			c0.5-0.3,0.9-0.7,1.2-1.2c0.2-0.3,0.5-0.5,0.9-0.5S30.8,67.3,31,67.6L31,67.6z"/>
		<path class="st1" d="M41.2,80.4c0.7,1.4,1.8,2.5,3.2,3.2c0.4,0.2,0.6,0.5,0.6,0.9c0,0.4-0.2,0.7-0.6,0.9c-1.4,0.7-2.5,1.8-3.2,3.2
			c-0.2,0.4-0.5,0.6-0.9,0.6c-0.4,0-0.7-0.2-0.9-0.6c-0.7-1.4-1.8-2.5-3.2-3.2c-0.4-0.2-0.6-0.5-0.6-0.9c0-0.4,0.2-0.7,0.6-0.9
			c1.4-0.7,2.5-1.8,3.2-3.2c0.2-0.4,0.5-0.6,0.9-0.6C40.7,79.8,41,80,41.2,80.4z"/>
	</g>
	<g>
		<g>
			<path class="st3" d="M15.6,140.7H9.3l-1.2,2.9H3.9l6.6-14.9h4.1l6.6,14.9h-4.4L15.6,140.7z M14.4,137.6l-1.9-4.8l-1.9,4.8H14.4z"
				/>
			<path class="st3" d="M22.4,128.7h4.2v11.5h7.1v3.3H22.4V128.7z"/>
			<path class="st3" d="M47.3,140.3v3.3h-12v-14.9H47v3.3h-7.5v2.5h6.6v3.1h-6.6v2.7H47.3z"/>
			<path class="st4" d="M63.8,128.7v14.9h-3.5l-6.6-7.9v7.9h-4.1v-14.9h3.5l6.6,7.9v-7.9H63.8z"/>
			<path class="st4" d="M76.8,140.7h-6.3l-1.2,2.9H65l6.6-14.9h4.1l6.6,14.9h-4.4L76.8,140.7z M75.5,137.6l-1.9-4.8l-1.9,4.8H75.5z"
				/>
			<path class="st4" d="M90,139.6h-2.3v4h-4.2v-14.9h6.8c1.3,0,2.5,0.2,3.5,0.7c1,0.4,1.8,1.1,2.3,1.9c0.5,0.8,0.8,1.8,0.8,2.9
				c0,1.1-0.3,2-0.8,2.8c-0.5,0.8-1.2,1.4-2.2,1.9l3.2,4.7h-4.5L90,139.6z M92,132.6c-0.4-0.4-1.1-0.6-2-0.6h-2.3v4.4H90
				c0.9,0,1.5-0.2,2-0.6s0.7-0.9,0.7-1.6C92.7,133.5,92.4,132.9,92,132.6z"/>
			<path class="st4" d="M109.2,140.7h-6.3l-1.2,2.9h-4.3l6.6-14.9h4.1l6.6,14.9h-4.4L109.2,140.7z M108,137.6l-1.9-4.8l-1.9,4.8H108
				z"/>
			<path class="st4" d="M130.1,128.7v14.9h-3.5l-6.6-7.9v7.9H116v-14.9h3.5l6.6,7.9v-7.9H130.1z"/>
			<path class="st4" d="M133.4,143.3c-0.9-0.4-1.6-0.9-2.2-1.6l2.3-2.7c0.8,1,1.7,1.6,2.6,1.6c0.6,0,1.1-0.2,1.4-0.6
				s0.5-0.9,0.5-1.6v-6.4h-5.1v-3.3h9.3v9.4c0,1.9-0.5,3.4-1.5,4.3c-1,1-2.4,1.4-4.3,1.4C135.3,143.9,134.3,143.7,133.4,143.3z"/>
			<path class="st4" d="M148.2,142.9c-1.3-0.7-2.2-1.6-3-2.8s-1.1-2.5-1.1-4s0.4-2.8,1.1-4c0.7-1.2,1.7-2.1,3-2.8s2.7-1,4.2-1
				c1.6,0,3,0.3,4.2,1c1.3,0.7,2.2,1.6,3,2.8c0.7,1.2,1.1,2.5,1.1,4s-0.4,2.8-1.1,4s-1.7,2.1-3,2.8c-1.3,0.7-2.7,1-4.2,1
				C150.9,143.9,149.5,143.5,148.2,142.9z M154.5,139.8c0.6-0.4,1.1-0.9,1.4-1.5c0.4-0.6,0.5-1.4,0.5-2.2s-0.2-1.6-0.5-2.2
				c-0.4-0.6-0.8-1.1-1.4-1.5c-0.6-0.4-1.3-0.5-2-0.5c-0.8,0-1.4,0.2-2,0.5s-1.1,0.9-1.4,1.5c-0.4,0.6-0.5,1.4-0.5,2.2
				s0.2,1.6,0.5,2.2c0.4,0.6,0.8,1.1,1.4,1.5s1.3,0.5,2,0.5C153.2,140.4,153.9,140.2,154.5,139.8z"/>
		</g>
		<g>
			<path class="st4" d="M21.2,153.7L17,164.9h-1.4l-3.5-9.2l-3.5,9.2H7.1l-4.2-11.2h1.4l3.5,9.5l3.6-9.5h1.3l3.6,9.5l3.6-9.5H21.2z"
				/>
			<path class="st4" d="M32.9,159.8h-9.4c0.1,1.2,0.5,2.1,1.3,2.8c0.8,0.7,1.8,1.1,3.1,1.1c0.7,0,1.3-0.1,1.9-0.4
				c0.6-0.2,1.1-0.6,1.5-1.1l0.9,1c-0.5,0.6-1.1,1-1.9,1.4c-0.7,0.3-1.6,0.5-2.5,0.5c-1.1,0-2.2-0.2-3.1-0.7s-1.6-1.2-2.1-2
				c-0.5-0.9-0.7-1.8-0.7-2.9s0.2-2.1,0.7-2.9c0.5-0.9,1.1-1.5,2-2c0.8-0.5,1.8-0.7,2.8-0.7c1,0,2,0.2,2.8,0.7
				c0.8,0.5,1.5,1.2,1.9,2c0.5,0.9,0.7,1.8,0.7,2.9L32.9,159.8z M24.8,155.9c-0.7,0.7-1.1,1.6-1.2,2.7h7.9c-0.1-1.1-0.5-2-1.2-2.7
				s-1.6-1-2.7-1C26.4,154.9,25.5,155.3,24.8,155.9z"/>
			<path class="st4" d="M44.6,154.3c0.9,0.5,1.5,1.1,2,2c0.5,0.9,0.7,1.8,0.7,3c0,1.1-0.2,2.1-0.7,3c-0.5,0.9-1.1,1.5-2,2
				c-0.9,0.5-1.8,0.7-2.8,0.7c-0.9,0-1.8-0.2-2.5-0.6c-0.7-0.4-1.3-1-1.8-1.7v2.2H36v-15.8h1.5v6.7c0.5-0.7,1.1-1.3,1.8-1.6
				c0.7-0.4,1.5-0.6,2.5-0.6C42.8,153.6,43.8,153.8,44.6,154.3z M43.8,163.1c0.6-0.4,1.1-0.9,1.5-1.5c0.4-0.7,0.5-1.4,0.5-2.3
				s-0.2-1.6-0.5-2.3c-0.4-0.7-0.9-1.2-1.5-1.5c-0.6-0.4-1.3-0.5-2.1-0.5c-0.8,0-1.5,0.2-2.1,0.5s-1.1,0.9-1.5,1.5
				c-0.4,0.7-0.5,1.4-0.5,2.3s0.2,1.6,0.5,2.3c0.4,0.7,0.9,1.2,1.5,1.5s1.3,0.5,2.1,0.5C42.5,163.6,43.2,163.5,43.8,163.1z"/>
			<path class="st4" d="M47.7,164.9h10.6v1H47.7V164.9z"/>
			<path class="st4" d="M70.1,149.1v15.8h-1.4v-2.2c-0.5,0.8-1.1,1.3-1.8,1.7c-0.7,0.4-1.6,0.6-2.5,0.6c-1,0-2-0.2-2.8-0.7
				c-0.9-0.5-1.5-1.2-2-2s-0.7-1.9-0.7-3c0-1.1,0.2-2.1,0.7-3c0.5-0.9,1.1-1.5,2-2s1.8-0.7,2.8-0.7c0.9,0,1.7,0.2,2.5,0.6
				c0.7,0.4,1.3,0.9,1.8,1.6v-6.7H70.1z M66.6,163.1c0.6-0.4,1.1-0.9,1.5-1.5c0.4-0.7,0.5-1.4,0.5-2.3s-0.2-1.6-0.5-2.3
				c-0.4-0.7-0.9-1.2-1.5-1.5s-1.3-0.5-2.1-0.5c-0.8,0-1.5,0.2-2.1,0.5s-1.1,0.9-1.5,1.5c-0.4,0.7-0.5,1.4-0.5,2.3s0.2,1.6,0.5,2.3
				c0.4,0.7,0.9,1.2,1.5,1.5s1.3,0.5,2.1,0.5C65.2,163.6,65.9,163.5,66.6,163.1z"/>
			<path class="st4" d="M84.1,159.8h-9.4c0.1,1.2,0.5,2.1,1.3,2.8c0.8,0.7,1.8,1.1,3.1,1.1c0.7,0,1.3-0.1,1.9-0.4
				c0.6-0.2,1.1-0.6,1.5-1.1l0.9,1c-0.5,0.6-1.1,1-1.9,1.4c-0.7,0.3-1.6,0.5-2.5,0.5c-1.1,0-2.2-0.2-3.1-0.7s-1.6-1.2-2.1-2
				c-0.5-0.9-0.7-1.8-0.7-2.9s0.2-2.1,0.7-2.9c0.5-0.9,1.1-1.5,2-2c0.8-0.5,1.8-0.7,2.8-0.7c1,0,2,0.2,2.8,0.7
				c0.8,0.5,1.5,1.2,1.9,2c0.5,0.9,0.7,1.8,0.7,2.9L84.1,159.8z M75.9,155.9c-0.7,0.7-1.1,1.6-1.2,2.7h7.9c-0.1-1.1-0.5-2-1.2-2.7
				s-1.6-1-2.7-1C77.6,154.9,76.7,155.3,75.9,155.9z"/>
			<path class="st4" d="M96.3,153.7l-5,11.2h-1.6l-5-11.2h1.6l4.2,9.5l4.2-9.5H96.3z"/>
			<path class="st4" d="M107.9,159.8h-9.4c0.1,1.2,0.5,2.1,1.3,2.8c0.8,0.7,1.8,1.1,3.1,1.1c0.7,0,1.3-0.1,1.9-0.4
				c0.6-0.2,1.1-0.6,1.5-1.1l0.9,1c-0.5,0.6-1.1,1-1.9,1.4c-0.7,0.3-1.6,0.5-2.5,0.5c-1.1,0-2.2-0.2-3.1-0.7s-1.6-1.2-2.1-2
				c-0.5-0.9-0.7-1.8-0.7-2.9s0.2-2.1,0.7-2.9c0.5-0.9,1.1-1.5,2-2c0.8-0.5,1.8-0.7,2.8-0.7c1,0,2,0.2,2.8,0.7
				c0.8,0.5,1.5,1.2,1.9,2c0.5,0.9,0.7,1.8,0.7,2.9L107.9,159.8z M99.8,155.9c-0.7,0.7-1.1,1.6-1.2,2.7h7.9c-0.1-1.1-0.5-2-1.2-2.7
				s-1.6-1-2.7-1C101.4,154.9,100.5,155.3,99.8,155.9z"/>
			<path class="st4" d="M111,149.1h1.5v15.8H111V149.1z"/>
			<path class="st4" d="M118.4,164.3c-0.9-0.5-1.5-1.2-2-2c-0.5-0.9-0.7-1.8-0.7-2.9s0.2-2.1,0.7-2.9c0.5-0.9,1.2-1.5,2-2
				c0.9-0.5,1.8-0.7,2.9-0.7s2,0.2,2.9,0.7c0.9,0.5,1.5,1.2,2,2c0.5,0.9,0.7,1.8,0.7,2.9s-0.2,2.1-0.7,2.9c-0.5,0.9-1.2,1.5-2,2
				c-0.9,0.5-1.8,0.7-2.9,0.7S119.2,164.7,118.4,164.3z M123.4,163.1c0.6-0.4,1.1-0.9,1.5-1.5c0.4-0.7,0.5-1.4,0.5-2.3
				s-0.2-1.6-0.5-2.3c-0.4-0.7-0.8-1.2-1.5-1.5s-1.3-0.5-2.1-0.5s-1.5,0.2-2.1,0.5s-1.1,0.9-1.5,1.5c-0.4,0.7-0.5,1.4-0.5,2.3
				s0.2,1.6,0.5,2.3c0.4,0.7,0.9,1.2,1.5,1.5s1.3,0.5,2.1,0.5S122.8,163.5,123.4,163.1z"/>
			<path class="st4" d="M138.7,154.3c0.9,0.5,1.5,1.1,2,2c0.5,0.9,0.7,1.8,0.7,3c0,1.1-0.2,2.1-0.7,3c-0.5,0.9-1.1,1.5-2,2
				c-0.8,0.5-1.8,0.7-2.9,0.7c-0.9,0-1.7-0.2-2.5-0.6c-0.7-0.4-1.3-0.9-1.8-1.6v6.2h-1.5v-15.3h1.4v2.2c0.5-0.7,1.1-1.3,1.8-1.7
				c0.7-0.4,1.6-0.6,2.5-0.6C136.9,153.6,137.8,153.8,138.7,154.3z M137.8,163.1c0.6-0.4,1.1-0.9,1.5-1.5c0.4-0.7,0.5-1.4,0.5-2.3
				s-0.2-1.6-0.5-2.3c-0.4-0.7-0.9-1.2-1.5-1.5c-0.6-0.4-1.3-0.6-2.1-0.6c-0.8,0-1.5,0.2-2.1,0.6c-0.6,0.4-1.1,0.9-1.5,1.5
				c-0.4,0.7-0.5,1.4-0.5,2.3s0.2,1.6,0.5,2.3c0.4,0.7,0.9,1.2,1.5,1.5s1.3,0.5,2.1,0.5C136.5,163.6,137.2,163.5,137.8,163.1z"/>
			<path class="st4" d="M154.2,159.8h-9.4c0.1,1.2,0.5,2.1,1.3,2.8c0.8,0.7,1.8,1.1,3.1,1.1c0.7,0,1.3-0.1,1.9-0.4
				c0.6-0.2,1.1-0.6,1.5-1.1l0.9,1c-0.5,0.6-1.1,1-1.9,1.4c-0.7,0.3-1.6,0.5-2.5,0.5c-1.1,0-2.2-0.2-3.1-0.7s-1.6-1.2-2.1-2
				c-0.5-0.9-0.7-1.8-0.7-2.9s0.2-2.1,0.7-2.9c0.5-0.9,1.1-1.5,2-2c0.8-0.5,1.8-0.7,2.8-0.7c1,0,2,0.2,2.8,0.7
				c0.8,0.5,1.5,1.2,1.9,2c0.5,0.9,0.7,1.8,0.7,2.9L154.2,159.8z M146.1,155.9c-0.7,0.7-1.1,1.6-1.2,2.7h7.9c-0.1-1.1-0.5-2-1.2-2.7
				s-1.6-1-2.7-1C147.7,154.9,146.8,155.3,146.1,155.9z"/>
			<path class="st4" d="M160.3,154.2c0.7-0.4,1.6-0.6,2.6-0.6v1.5l-0.4,0c-1.2,0-2.1,0.4-2.8,1.1c-0.7,0.7-1,1.7-1,3v5.7h-1.5v-11.2
				h1.4v2.2C159.1,155.1,159.6,154.6,160.3,154.2z"/>
		</g>
	</g>
</g>
</svg>
