<?xml version="1.0" encoding="utf-8"?>
<!-- Generator: Adobe Illustrator 27.3.1, SVG Export Plug-In . SVG Version: 6.00 Build 0)  -->
<svg version="1.1" id="Layer_1" xmlns="http://www.w3.org/2000/svg" xmlns:xlink="http://www.w3.org/1999/xlink" x="0px" y="0px"
	 viewBox="0 0 2500 2438" style="enable-background:new 0 0 2500 2438;" xml:space="preserve">
<style type="text/css">
	.st0{fill:#00005B;}
	.st1{fill:#9999FF;}
</style>
<g>
	<path class="st0" d="M442.7,0.2h1614.6C2302.1,0.2,2500,198.2,2500,443V1995c0,244.8-197.9,442.7-442.7,442.7H442.7
		C197.9,2437.8,0,2239.8,0,1995V443C0,198.2,197.9,0.2,442.7,0.2z"/>
	<g>
		<path class="st1" d="M593.8,1708.6V635.7c0-7.3,3.1-11.5,10.4-11.5c17.7,0,34.4,0,58.3-1c25-1,51-1,79.2-2.1
			c28.1-1,58.3-1,90.6-2.1s63.5-1,94.8-1c85.4,0,156.2,10.4,214.6,32.3c52.1,17.7,100,46.9,139.6,85.4c33.3,33.3,59.4,74,76,118.8
			c15.6,43.8,24,88.5,24,135.4c0,89.6-20.8,163.5-62.5,221.9c-41.7,58.3-100,102.1-167.7,127.1c-70.8,26-149,35.4-234.4,35.4
			c-25,0-41.7,0-52.1-1c-10.4-1-25-1-44.8-1v334.4c1,7.3-4.2,13.5-11.5,14.6H606.2c-8.3,0-12.5-4.2-12.5-13.5V1708.6z M820.8,826.3
			v350c14.6,1,28.1,2.1,40.6,2.1h55.2c40.6,0,81.3-6.2,119.8-18.8c33.3-9.4,62.5-29.2,85.4-55.2c21.9-26,32.3-61.5,32.3-107.3
			c1-32.3-7.3-64.6-24-92.7c-17.7-27.1-42.7-47.9-72.9-59.4c-38.5-15.6-80.2-21.9-122.9-20.8c-27.1,0-51,0-70.8,1
			C842.7,824.2,828.1,825.2,820.8,826.3L820.8,826.3z M1531.2,887.8h182.3c10.4,0,18.8,7.3,21.9,16.7c3.1,8.3,5.2,16.7,6.3,26
			c2.1,10.4,4.2,21.9,5.2,32.3c1,11.5,2.1,24,2.1,37.5c31.2-36.5,68.8-66.7,111.5-89.6c47.9-27.1,103.1-40.6,158.3-40.6
			c7.3-1,13.5,4.2,14.6,11.5v207.3c0,8.3-5.2,11.5-16.7,11.5c-37.5-1-76,2.1-112.5,10.4c-30.2,6.2-59.4,15.6-87.5,28.1
			c-19.8,9.4-38.5,21.9-53.1,38.5v531.2c0,10.4-4.2,14.6-13.5,14.6h-205.2c-8.3,1-15.6-4.2-16.7-12.5v-581.2c0-25,0-51-1-78.1
			c-1-27.1-1-54.2-2.1-81.3c0-24-2.1-46.9-4.2-70.8c-1-5.2,2.1-10.4,7.3-11.5C1528.1,886.7,1530.2,886.7,1531.2,887.8L1531.2,887.8z
			"/>
	</g>
</g>
</svg>
