<?xml version="1.0" encoding="utf-8"?>
<!-- Generator: Adobe Illustrator 27.3.1, SVG Export Plug-In . SVG Version: 6.00 Build 0)  -->
<svg version="1.1" id="Layer_1" xmlns="http://www.w3.org/2000/svg" xmlns:xlink="http://www.w3.org/1999/xlink" x="0px" y="0px"
	 viewBox="0 0 2500 2490" style="enable-background:new 0 0 2500 2490;" xml:space="preserve">
<style type="text/css">
	.st0{fill:url(#SVGID_1_);}
	.st1{fill:url(#SVGID_00000068675449227922043840000002502473725217937050_);}
</style>
<g>
	
		<linearGradient id="SVGID_1_" gradientUnits="userSpaceOnUse" x1="943.6159" y1="1641.3345" x2="944.2827" y2="1640.6729" gradientTransform="matrix(1849.2675 0 0 -1853.3917 -1744763 3042265.5)">
		<stop  offset="0" style="stop-color:#387EB8"/>
		<stop  offset="1" style="stop-color:#366994"/>
	</linearGradient>
	<path class="st0" d="M1239.3,0.7c-633.1,0-593.5,274.5-593.5,274.5l0.7,284.4h604.1v85.4H406.5c0,0-405.1-45.9-405.1,592.8
		C1.4,1876.6,355,1854,355,1854h211v-296.4c0,0-11.4-353.6,347.9-353.6h599.2c0,0,336.6,5.4,336.6-325.4V331.7
		C1849.8,331.7,1900.9,0.7,1239.3,0.7z M906.2,192c60-0.1,108.6,48.5,108.7,108.5c0,0.1,0,0.1,0,0.2c0.1,60-48.5,108.6-108.5,108.7
		c-0.1,0-0.1,0-0.2,0c-60,0.1-108.6-48.5-108.7-108.5c0-0.1,0-0.1,0-0.2C797.4,240.7,846,192,906,192C906.1,192,906.1,192,906.2,192
		z"/>
	
		<linearGradient id="SVGID_00000044876478409017905280000017945525382634984854_" gradientUnits="userSpaceOnUse" x1="943.6776" y1="1641.2489" x2="944.3937" y2="1640.5704" gradientTransform="matrix(1849.2671 0 0 -1853.3918 -1744118.25 3042893)">
		<stop  offset="0" style="stop-color:#FFE052"/>
		<stop  offset="1" style="stop-color:#FFC331"/>
	</linearGradient>
	<path style="fill:url(#SVGID_00000044876478409017905280000017945525382634984854_);" d="M1257.3,2481.5
		c633.1,0,593.5-274.5,593.5-274.5l-0.7-284.4H1246v-85.4H2090c0,0,405.1,45.9,405.1-592.8c0-638.8-353.6-616.1-353.6-616.1h-211
		v296.4c0,0,11.4,353.6-347.9,353.6H983.4c0,0-336.6-5.4-336.6,325.4v547C646.8,2150.5,595.7,2481.5,1257.3,2481.5L1257.3,2481.5z
		 M1590.4,2290.2c-60,0.1-108.6-48.5-108.7-108.5c0-0.1,0-0.1,0-0.2c-0.1-60,48.5-108.6,108.5-108.7c0.1,0,0.1,0,0.2,0
		c60-0.1,108.6,48.5,108.7,108.5c0,0.1,0,0.1,0,0.2c0.1,60-48.5,108.6-108.5,108.7C1590.5,2290.2,1590.5,2290.2,1590.4,2290.2
		L1590.4,2290.2z"/>
</g>
</svg>
