<?xml version="1.0" encoding="utf-8"?>
<!-- Generator: Adobe Illustrator 27.3.1, SVG Export Plug-In . SVG Version: 6.00 Build 0)  -->
<svg version="1.1" id="Layer_2_00000069359403657518329920000015119027018470868620_"
	 xmlns="http://www.w3.org/2000/svg" xmlns:xlink="http://www.w3.org/1999/xlink" x="0px" y="0px" viewBox="0 0 3618.6 3618.6"
	 style="enable-background:new 0 0 3618.6 3618.6;" xml:space="preserve">
<style type="text/css">
	.st0{fill:#222222;}
	.st1{fill:#00D8FF;}
</style>
<path class="st0" d="M0,0h3618.6v3618.6H0V0z"/>
<g>
	
		<ellipse transform="matrix(0.7071 -0.7071 0.7071 0.7071 -748.701 1806.6758)" class="st1" cx="1806.5" cy="1807.1" rx="302.6" ry="302.6"/>
	<path class="st1" d="M3326.3,1505.5c-104.7-87.3-252.7-165.4-428.2-225.8c-35.1-12.1-71.5-23.5-108.9-34.3
		c6.1-25.1,11.7-49.9,16.8-74.2c39.8-192.9,48.1-370.6,24.2-513.7c-25.7-153.9-87.9-263.2-179.9-316.3
		c-88.5-51-208.9-50.9-348.2,0.3c-128,47-269.6,136.3-409.5,258.1c-28.1,24.4-56.2,50.3-84.3,77.3c-18.8-18-37.5-35.3-56.2-51.8
		c-147.3-130.8-297-226.7-433-277.5c-146.1-54.5-272-55.3-363.8-2.1C866.8,396.6,806.7,501,781.5,647.3
		C758.4,781.7,765,948.9,800.6,1131c7.2,36.7,15.5,74.1,25,112.2c-43.4,12.3-85.3,25.5-125.4,39.5
		c-172.5,60.1-317.7,138-419.6,225.3c-110.1,94.1-168.2,197.6-168.2,299.1c0,104.5,61.2,212.1,177.1,311.3
		c109,93.3,262,175.3,442.5,237c29.4,10.1,60,19.6,91.6,28.7c-10.2,41.3-19.1,81.7-26.6,121.2c-34,179.5-39,344.2-14.4,476
		c26.6,142.4,87.1,244.4,175,295.1c45.9,26.5,100.3,39.7,161.6,39.7c59.6,0,125.6-12.5,196.5-37.5c135.3-47.8,282.8-139.4,426.4-265
		c23.5-20.5,47.1-42.3,70.8-65.2c30.6,29.4,61.1,57.2,91.5,83.4c138.5,119.2,278.7,205.7,405.2,250.3c66.3,23.3,128.4,35,184.8,35
		c59.8,0,113.1-13.1,158.3-39.3c90.4-52.3,152.9-159.2,180.8-309.2c26.2-141.1,20.4-314.6-16.6-501.7c-5.8-29.6-12.6-59.8-20.3-90.6
		c21.4-6.3,42.4-12.9,63-19.7c186.9-61.9,345-143.4,457-235.6c120.4-99.1,184.1-207.7,184.1-313.9
		C3500.6,1704.9,3440.3,1600.6,3326.3,1505.5z M1987.5,708.7c126.8-110.4,252.8-190.4,364.5-231.4c53.7-19.7,102.4-29.7,143.5-29.7
		c32.7,0,60.6,6.3,82.5,18.9c52.5,30.3,91.4,106.5,109.5,214.7c21,125.7,13,285-23.2,460.7c-4.5,22-9.6,44.4-15.2,67.2
		c-140.9-32.5-293.6-56.6-453.1-71.6c-34.9-49.7-70.4-97.8-106.3-144.2c-59.9-77.3-120-148.6-180.1-213.2
		C1935.6,755.1,1961.6,731.2,1987.5,708.7z M1189.6,1810.7c43.9-91.7,92.2-183.3,144.1-273.3l0,0c52.2-90.5,107.2-178,164.1-261.4
		c101.4-7.7,204.9-11.7,308.7-11.7c104.7,0,208.2,3.9,309.1,11.6c56.1,82.7,110.8,170,163.3,260.8
		c53.5,92.3,102.3,183.1,146.2,271.7c-44,90.8-92.8,182.8-145.7,274.6c-53.2,92.3-107.4,179.7-162.1,261.9
		c-100.7,7.2-204.7,10.9-310.7,10.9c-106,0-208.4-3.2-306.5-9.5c-57.9-84.3-113.5-172.4-165.9-262.8l0,0
		C1281.8,1993.1,1233.4,1901.7,1189.6,1810.7z M1208.3,1465.1c-33.5,58-65.4,116.5-95.7,175.1c-42-99.6-78.1-197.9-107.6-293
		c96.7-21.6,199.9-39.2,307-52.6C1276.4,1350.2,1241.8,1407.1,1208.3,1465.1L1208.3,1465.1z M1112.9,1981
		c30.3,58.5,62.3,117,95.9,175.1l0,0c34.3,59.3,69.9,117.4,106.4,174.2c-111.3-12.4-215.8-29.2-312.2-50.3
		C1033.1,2183.3,1070,2082.9,1112.9,1981z M2404.7,2155.3c34.6-60,67.5-120,98.5-179.9c45.5,103.5,83.5,203.3,113.7,298.1
		c-98.1,22.4-204.2,40.4-316,53.9C2336,2271.7,2370.6,2214.3,2404.7,2155.3z M2501.6,1640.5c-30.7-58.3-63.2-117.1-97.5-176.3
		c-33.5-58-67.9-114.5-103-169.6c107.9,13.6,211.5,31.7,309,54C2580.9,1442.1,2544.5,1540,2501.6,1640.5z M1808.1,883.5
		c66.7,72.3,133.6,153,199.4,240.7c-66.3-3.1-133.4-4.7-201-4.7c-67,0-133.5,1.5-199.5,4.6C1672.7,1037.6,1740.1,956.9,1808.1,883.5
		z M924.1,671.9c17.4-101.2,54.2-172.6,103.5-201.1c52.5-30.4,137.9-26,240.7,12.4c119.4,44.6,253.4,131.1,387.5,250.1
		c16.9,15,33.9,30.6,50.9,46.9c-98.7,105.9-195.9,226.3-288.7,357.1c-71.1,6.6-141.3,15-210.2,25.3c-84.4,12.6-165.2,27.6-242,45
		c-8.8-35.4-16.6-70.2-23.2-104.3C910.4,938.2,904,789.1,924.1,671.9z M862.3,2244.6c-28.8-8.3-56.7-17-83.6-26.2
		c-163.3-55.8-300-128.4-395.2-209.9C302,1938.6,257.1,1867,257.1,1807c0-57.1,41.8-124.2,117.6-189.1
		c88.4-75.6,217.5-144.3,373.2-198.6c37.2-13,76.2-25.2,116.7-36.6c42.5,138.2,98.1,282.3,165.1,427.8
		c-29.8,64.9-57.6,129.9-83.1,194.7C914.2,2087.1,886.1,2167.1,862.3,2244.6z M1646.8,2904.6c-129.9,113.6-261.1,195.7-379.3,237.4
		c-101.2,35.8-185.6,38.9-237.6,9c-49.4-28.5-86.8-98.2-105.1-196.3c-21.4-114.4-16.4-260.5,14.3-422.5
		c6.9-36.6,15.2-74.2,24.8-112.7c82.7,18.3,171.2,33.6,264.9,45.9c62,8.1,126,14.8,191.6,20.2c40.9,57.5,82.8,113.2,125.7,167.1
		c54.9,68.9,110.2,133.2,165.4,192.6C1689.8,2866,1668.2,2885.8,1646.8,2904.6z M1812.4,2740.9c-68.6-74.2-137.2-156.2-203.9-244.1
		c64.7,2.5,130.8,3.8,197.9,3.8c69.2,0,137.7-1.5,205-4.5C1945.3,2586.1,1878.7,2668,1812.4,2740.9z M2691.1,2942.2
		c-19.6,105.6-59,180.2-110.9,210.3c-49.4,28.6-128.5,26.1-222.6-7c-109.8-38.6-233.9-115.9-358.9-223.4
		c-28.1-24.2-56.5-50.2-85-77.6c57.1-62.5,114.5-131.4,171.9-206.3c37.7-49.2,75.1-100.8,112.2-154.4c59-5.2,117-11.7,173.8-19.4
		c100.7-13.6,196-30.8,285-51.4c6.9,27.9,13,55.2,18.3,82C2708.3,2664.3,2714,2818.9,2691.1,2942.2z M3224.5,2009.1
		c-98.4,81-240.4,153.6-410.5,210c-18.5,6.1-37.5,12.1-56.9,17.8c-25.8-81.6-57.2-166.9-93.9-255.2
		c-23.8-57.1-49.7-115.1-77.6-173.9c24.9-53.8,48.3-107.2,70-160.2c37.1-90.6,68.8-178.4,94.9-262.9c34.6,10,68.1,20.6,100.5,31.8
		c159,54.7,291.2,123.9,382.5,200.1c78.8,65.8,122.2,133.4,122.2,190.4C3355.8,1867.6,3309.2,1939.4,3224.5,2009.1z"/>
</g>
</svg>
