<?xml version="1.0" encoding="utf-8"?>
<!-- Generator: Adobe Illustrator 27.2.0, SVG Export Plug-In . SVG Version: 6.00 Build 0)  -->
<svg version="1.1" id="Layer_1" xmlns="http://www.w3.org/2000/svg" xmlns:xlink="http://www.w3.org/1999/xlink" x="0px" y="0px"
	 viewBox="0 0 382.3 382.3" style="enable-background:new 0 0 382.3 382.3;" xml:space="preserve">
<style type="text/css">
	.st0{fill:#CF649A;}
	.st1{fill:#FFFFFF;}
</style>
<circle class="st0" cx="191.1" cy="191.1" r="191.1"/>
<path class="st1" d="M314.7,196c-10.7,0.1-19.9,2.6-27.6,6.4c-2.9-5.7-5.7-10.6-6.2-14.3c-0.5-4.3-1.2-6.9-0.5-12
	c0.7-5.1,3.6-12.4,3.6-13c-0.1-0.5-0.7-3.2-6.8-3.2s-11.4,1.2-12,2.8c-0.6,1.6-1.8,5.3-2.6,9.1c-1.1,5.6-12.3,25.4-18.6,35.8
	c-2.1-4-3.9-7.6-4.2-10.5c-0.5-4.3-1.2-6.9-0.5-12c0.7-5.1,3.6-12.4,3.6-13c-0.1-0.5-0.7-3.2-6.8-3.2c-6.1-0.1-11.4,1.2-12,2.8
	s-1.3,5.4-2.6,9.1c-1.3,3.7-16.1,36.8-20,45.4c-2,4.4-3.7,7.9-4.9,10.3c-1.3,2.4-0.1,0.2-0.2,0.4c-1.1,2-1.7,3.2-1.7,3.2v0.1
	c-0.8,1.5-1.7,2.9-2.1,2.9c-0.3,0-0.9-4,0.1-9.5c2.2-11.5,7.6-29.4,7.5-30.1c0-0.3,1-3.5-3.5-5.1c-4.3-1.6-5.9,1.1-6.3,1.1
	c-0.4,0-0.7,1-0.7,1s4.8-20.2-9.2-20.2c-8.8,0-21,9.6-27,18.3c-3.8,2.1-11.9,6.5-20.5,11.2c-3.3,1.8-6.7,3.7-9.9,5.4l-0.7-0.7
	c-17-18.2-48.5-31-47.2-55.4c0.5-8.9,3.6-32.3,60.5-60.6c46.6-23.2,83.9-16.8,90.4-2.7c9.2,20.2-19.9,57.9-68.4,63.3
	c-18.5,2.1-28.2-5.1-30.6-7.7c-2.6-2.8-2.9-2.9-3.9-2.4c-1.5,0.8-0.6,3.3,0,4.8c1.4,3.8,7.4,10.4,17.5,13.8
	c8.9,2.9,30.5,4.5,56.7-5.6c29.3-11.4,52.3-42.9,45.5-69.3c-6.8-26.8-51.4-35.7-93.5-20.7C124.7,81,97.6,95,78,113.2
	c-23.2,21.7-26.9,40.6-25.4,48.5c5.4,28,44.1,46.3,59.5,59.8c-0.8,0.4-1.5,0.8-2.1,1.2c-7.7,3.8-37.2,19.2-44.6,35.5
	c-8.3,18.5,1.3,31.7,7.7,33.5c19.9,5.5,40.2-4.4,51.3-20.8c11-16.4,9.6-37.6,4.6-47.3l-0.2-0.4l6.1-3.6c3.9-2.3,7.8-4.5,11.2-6.3
	c-1.9,5.2-3.3,11.3-4,20.2c-0.8,10.5,3.5,24.1,9.1,29.4c2.5,2.3,5.5,2.4,7.3,2.4c6.5,0,9.5-5.4,12.8-11.9c4-7.9,7.6-17.1,7.6-17.1
	s-4.5,24.8,7.7,24.8c4.5,0,8.9-5.8,11-8.8v0.1c0,0,0.1-0.2,0.4-0.6c0.2-0.4,0.5-0.7,0.7-1.1v-0.1c1.8-3.1,5.8-10.2,11.7-21.9
	c7.7-15.1,15.1-34.1,15.1-34.1s0.7,4.6,2.9,12.3c1.3,4.5,4.2,9.5,6.4,14.3c-1.8,2.5-2.9,3.9-2.9,3.9l0.1,0.1c-1.4,1.9-3,3.9-4.7,6
	c-6.1,7.3-13.3,15.5-14.3,17.9c-1.1,2.8-0.9,4.9,1.3,6.5c1.6,1.2,4.5,1.4,7.5,1.2c5.5-0.4,9.3-1.7,11.2-2.6c3-1.1,6.4-2.7,9.6-5.1
	c6-4.4,9.6-10.7,9.2-19c-0.2-4.6-1.7-9.1-3.5-13.4c0.5-0.8,1.1-1.5,1.6-2.4c9.4-13.8,16.7-28.9,16.7-28.9s0.7,4.6,2.9,12.3
	c1.1,3.9,3.4,8.1,5.4,12.3c-8.8,7.2-14.3,15.5-16.3,21c-3.5,10.1-0.8,14.7,4.4,15.8c2.3,0.5,5.7-0.6,8.2-1.7c3.1-1,6.8-2.7,10.3-5.3
	c6-4.4,11.7-10.5,11.4-18.8c-0.2-3.8-1.2-7.6-2.6-11.1c7.5-3.1,17.2-4.9,29.5-3.4c26.5,3.1,31.7,19.6,30.7,26.6
	c-1,6.9-6.5,10.7-8.4,11.9c-1.8,1.1-2.4,1.5-2.3,2.4c0.2,1.3,1.1,1.2,2.7,1c2.2-0.4,13.9-5.7,14.4-18.4
	C357.8,213.7,342.3,195.9,314.7,196L314.7,196z M110.4,264.9c-8.8,9.6-21.1,13.2-26.3,10.1c-5.7-3.3-3.5-17.4,7.3-27.6
	c6.5-6.2,15.1-11.9,20.7-15.4c1.3-0.8,3.2-1.9,5.4-3.3c0.4-0.2,0.6-0.4,0.6-0.4c0.4-0.2,0.9-0.5,1.4-0.8
	C123.5,242.1,119.7,254.9,110.4,264.9L110.4,264.9z M174.4,221.4c-3,7.4-9.5,26.6-13.3,25.5c-3.3-0.9-5.4-15.4-0.7-29.6
	c2.4-7.2,7.4-15.8,10.4-19.1c4.8-5.4,10.1-7.1,11.4-4.9C183.8,196,176.3,216.8,174.4,221.4z M227.2,246.6c-1.3,0.7-2.5,1.1-3,0.8
	c-0.4-0.2,0.5-1.1,0.5-1.1s6.6-7.1,9.2-10.4c1.5-1.9,3.3-4.1,5.2-6.6v0.7C239.1,238.6,230.9,244.3,227.2,246.6L227.2,246.6z
	 M267.9,237.4c-1-0.7-0.8-2.9,2.4-9.8c1.3-2.7,4.1-7.3,9-11.7c0.6,1.8,1,3.5,0.9,5.1C280.2,231.7,272.6,235.7,267.9,237.4z"/>
</svg>
