<?xml version="1.0" encoding="utf-8"?>
<!-- Generator: Adobe Illustrator 27.3.1, SVG Export Plug-In . SVG Version: 6.00 Build 0)  -->
<svg version="1.1" id="Layer_1" xmlns="http://www.w3.org/2000/svg" xmlns:xlink="http://www.w3.org/1999/xlink" x="0px" y="0px"
	 viewBox="0 0 40.3 40.3" style="enable-background:new 0 0 40.3 40.3;" xml:space="preserve">
<style type="text/css">
	.st0{fill:#3EC6F3;}
</style>
<g>
	<g>
		<path class="st0" d="M32.3,40.3H8c-4.4,0-8-3.6-8-8V8c0-4.4,3.6-8,8-8h24.3c4.4,0,8,3.6,8,8v24.3C40.3,36.7,36.7,40.3,32.3,40.3z
			 M8,3C5.2,3,3,5.2,3,8v24.3c0,2.8,2.2,5,5,5h24.3c2.8,0,5-2.2,5-5V8c0-2.8-2.2-5-5-5H8z"/>
	</g>
	<g>
		<path class="st0" d="M27.6,12H12.7c-2,0-3.6,1.6-3.6,3.6v9.2c0,2,1.6,3.6,3.6,3.6h14.9c2,0,3.6-1.6,3.6-3.6v-9.2
			C31.2,13.6,29.6,12,27.6,12z M23,21.4l-2.1,1.2l-2.1,1.2c-1,0.6-2.2-0.1-2.2-1.3v-2.4v-2.4c0-1.1,1.2-1.8,2.2-1.3l2.1,1.2l2.1,1.2
			C23.9,19.4,23.9,20.9,23,21.4z"/>
	</g>
</g>
</svg>
