<?xml version="1.0" encoding="utf-8"?>
<!-- Generator: Adobe Illustrator 27.3.1, SVG Export Plug-In . SVG Version: 6.00 Build 0)  -->
<svg version="1.1" id="Layer_1" xmlns="http://www.w3.org/2000/svg" xmlns:xlink="http://www.w3.org/1999/xlink" x="0px" y="0px"
	 viewBox="0 0 40.3 40.3" style="enable-background:new 0 0 40.3 40.3;" xml:space="preserve">
<style type="text/css">
	.st0{fill:#3EC6F3;}
</style>
<g>
	<g>
		<path class="st0" d="M32.3,40.3H8c-4.4,0-8-3.6-8-8V8c0-4.4,3.6-8,8-8h24.3c4.4,0,8,3.6,8,8v24.3C40.3,36.7,36.7,40.3,32.3,40.3z
			 M8,3C5.2,3,3,5.2,3,8v24.3c0,2.8,2.2,5,5,5h24.3c2.8,0,5-2.2,5-5V8c0-2.8-2.2-5-5-5H8z"/>
	</g>
	<path class="st0" d="M35.4,11.1C35.3,11.1,35.3,11.1,35.4,11.1C35.3,11,35.3,11,35.4,11.1c-0.1-0.2-0.2-0.4-0.3-0.6
		c-1.3-2.7-3.6-4.7-6.4-5.5c-2.6-0.8-5.3-0.6-7.7,0.6c-1.4,0.7-2.6,1.6-3.6,2.8c0,0,0,0,0,0c0,0,0,0,0,0c-0.3,0.3-0.5,0.7-0.7,1
		c-1.5,2.4-2.1,5.4-1.4,8.2c0,0,0,0,0,0c0,0,0,0,0,0c0.2,0.7,0.4,1.5,0.8,2.1c1.3,2.6,3.6,4.6,6.3,5.5c1.1,0.3,2.2,0.5,3.3,0.5
		c1.6,0,3.1-0.4,4.6-1.1c1.3-0.6,2.4-1.5,3.3-2.5c0,0,0,0,0,0c0,0,0,0,0.1-0.1c0.2-0.2,0.3-0.4,0.5-0.6
		C36.3,18.5,36.8,14.6,35.4,11.1z M33.3,13.1c0.1,0.3,0.1,0.7,0.2,1c0,0.1,0,0.2,0,0.3c0,0.2,0,0.5,0,0.7c0,0.1,0,0.3,0,0.4
		c0,0.2,0,0.4-0.1,0.6c0,0.1,0,0.3-0.1,0.4c0,0.2-0.1,0.4-0.1,0.6c0,0.1-0.1,0.3-0.1,0.4c-0.1,0.2-0.1,0.4-0.2,0.6
		c-0.1,0.1-0.1,0.2-0.2,0.4c-0.1,0.1-0.1,0.2-0.2,0.3c-1-1.4-2-2.7-3.1-3.9c0.2-0.1,0.4-0.3,0.6-0.4C31.1,14,32.2,13.5,33.3,13.1z
		 M32.3,10.8c-1.3,0.4-2.5,1-3.7,1.8c-0.4,0.2-0.7,0.5-1.1,0.7c-0.1-0.1-0.2-0.2-0.4-0.3c1.2-1.5,2-3.2,2.3-4.8
		C30.6,8.7,31.6,9.7,32.3,10.8z M22,7.8c0.3-0.1,0.6-0.2,0.8-0.3c0.1,0,0.3-0.1,0.4-0.1c0.2,0,0.3-0.1,0.5-0.1
		C24.3,7.1,24.9,7,25.5,7c0.4,0,0.7,0,1.1,0.1c0.1,0,0.2,0,0.2,0c0.1,0,0.1,0,0.2,0.1c-0.1,1.4-0.7,2.8-1.8,4.1
		c-1.5-1.1-3-2-4.6-2.6C21,8.4,21.5,8.1,22,7.8z M17.5,15.8c0-0.2,0-0.4,0-0.5c0-0.1,0-0.1,0-0.2c0-0.3,0-0.6,0-0.9
		c0-0.1,0-0.1,0-0.2c0-0.2,0.1-0.4,0.1-0.7c0-0.1,0-0.2,0.1-0.3c0-0.2,0.1-0.4,0.2-0.5c0-0.1,0.1-0.2,0.1-0.3
		c0.1-0.2,0.1-0.3,0.2-0.5c0-0.1,0.1-0.2,0.1-0.3c0.1-0.2,0.2-0.3,0.3-0.5c0-0.1,0.1-0.1,0.1-0.2c1.6,0.6,3.1,1.4,4.6,2.4
		c-0.8,0.6-1.6,1.1-2.5,1.6C19.7,15.2,18.6,15.6,17.5,15.8z M18.2,18.6c0-0.1-0.1-0.2-0.1-0.3c1.3-0.3,2.6-0.7,3.8-1.3
		c1.3-0.6,2.4-1.4,3.5-2.3c0.1,0.1,0.1,0.1,0.2,0.2c-2.2,2.1-3.6,4.7-4.1,7.2C20.1,21.3,19,20.1,18.2,18.6z M29,22.4
		c-0.2,0.1-0.4,0.2-0.7,0.3c-0.1,0-0.2,0.1-0.2,0.1c-0.1,0.1-0.3,0.1-0.4,0.1c-0.1,0-0.2,0-0.3,0.1C27.3,23,27.1,23,27,23
		c-0.1,0-0.2,0-0.3,0c-0.2,0-0.3,0-0.5,0.1c-0.1,0-0.2,0-0.2,0c-0.2,0-0.4,0-0.6,0c0,0-0.1,0-0.1,0c-0.2,0-0.5,0-0.7-0.1
		c-0.1,0-0.1,0-0.2,0c-0.1,0-0.3,0-0.4-0.1c0.3-2.1,1.5-4.4,3.5-6.3c1.3,1.3,2.4,2.8,3.5,4.4C30.3,21.6,29.7,22,29,22.4z"/>
	<path class="st0" d="M25.3,30c-9.2,0-12.9-6.2-14.1-9.1c-0.9-2.2-1.8-5.8-0.3-6.9c0.6-0.4,1.3-0.3,1.7,0.3c0.3,0.5,0.3,1,0,1.5
		c-0.2,0.9,0.4,4.6,3.1,7.7c3,3.4,7.4,4.7,13.2,3.7c0.7-0.1,1.3,0.3,1.4,1c0.1,0.7-0.3,1.3-1,1.4C27.9,29.9,26.5,30,25.3,30z
		 M12.4,16.1C12.4,16.1,12.4,16.1,12.4,16.1C12.4,16.1,12.4,16.1,12.4,16.1z"/>
	<path class="st0" d="M22.3,33.8c-10,0-13.6-8-14-10c-0.1-0.6,0.2-1.3,0.8-1.5c0.6-0.2,1.3,0.1,1.6,0.7c0.1,0.2,0.1,0.4,0.1,0.6
		c0.4,1.2,3.2,8.1,12.1,7.8c0.7,0,1.3,0.5,1.3,1.2c0,0.7-0.5,1.3-1.2,1.3C22.7,33.8,22.5,33.8,22.3,33.8z"/>
	<path class="st0" d="M15,36.1c-5.1,0-6.9-4.2-7-5.3c-0.1-0.6,0.3-1.2,0.9-1.4c0.6-0.2,1.2,0.1,1.5,0.7c0.1,0.1,0.1,0.3,0.1,0.4
		c0.2,0.6,1.2,3,4.5,3c0,0,0,0,0,0h0c0.7,0,1.2,0.6,1.2,1.2C16.2,35.5,15.7,36.1,15,36.1C15,36.1,15,36.1,15,36.1z"/>
</g>
</svg>
