<?xml version="1.0" encoding="utf-8"?>
<!-- Generator: Adobe Illustrator 27.3.1, SVG Export Plug-In . SVG Version: 6.00 Build 0)  -->
<svg version="1.1" id="Layer_1" xmlns="http://www.w3.org/2000/svg" xmlns:xlink="http://www.w3.org/1999/xlink" x="0px" y="0px"
	 viewBox="0 0 40.3 40.3" style="enable-background:new 0 0 40.3 40.3;" xml:space="preserve">
<style type="text/css">
	.st0{fill:#3EC6F3;}
</style>
<g>
	<g>
		<path class="st0" d="M32.3,40.3H8c-4.4,0-8-3.6-8-8V8c0-4.4,3.6-8,8-8h24.3c4.4,0,8,3.6,8,8v24.3C40.3,36.7,36.7,40.3,32.3,40.3z
			 M8,3C5.2,3,3,5.2,3,8v24.3c0,2.8,2.2,5,5,5h24.3c2.8,0,5-2.2,5-5V8c0-2.8-2.2-5-5-5H8z"/>
	</g>
	<g>
		<path class="st0" d="M12.7,25.6l-5.1-2.7c-0.8-0.4-1.4-1-1.4-2c0-1,0.6-1.6,1.4-2l5.1-2.7c0,0,0.5-0.3,1-0.3
			c0.8,0,1.3,0.5,1.3,1.2c0,0.6-0.4,1-1,1.3l-4.8,2.4V21l4.8,2.4c0.6,0.3,1,0.7,1,1.3c0,0.7-0.5,1.2-1.3,1.2
			C13.2,25.9,12.7,25.6,12.7,25.6z"/>
		<path class="st0" d="M16,25.7c0-0.4,0.3-1,0.3-1L22,11.8c0.2-0.4,0.6-0.9,1.4-0.9c0.8,0,1.4,0.6,1.4,1.3c0,0.4-0.3,1-0.3,1
			l-5.7,12.9c-0.2,0.4-0.6,0.9-1.4,0.9C16.7,27,16,26.4,16,25.7z"/>
		<path class="st0" d="M25.9,24.7c0-0.6,0.4-1,1-1.3l4.8-2.4v-0.2l-4.8-2.4c-0.6-0.3-1-0.7-1-1.3c0-0.7,0.5-1.2,1.3-1.2
			c0.5,0,1,0.3,1,0.3l5.1,2.7c0.8,0.4,1.4,1,1.4,2c0,1-0.6,1.6-1.4,2l-5.1,2.7c0,0-0.5,0.3-1,0.3C26.4,25.9,25.9,25.4,25.9,24.7z"/>
	</g>
</g>
</svg>
