<?xml version="1.0" encoding="utf-8"?>
<!-- Generator: Adobe Illustrator 27.3.1, SVG Export Plug-In . SVG Version: 6.00 Build 0)  -->
<svg version="1.1" id="Layer_1" xmlns="http://www.w3.org/2000/svg" xmlns:xlink="http://www.w3.org/1999/xlink" x="0px" y="0px"
	 viewBox="0 0 56.2 49.7" style="enable-background:new 0 0 56.2 49.7;" xml:space="preserve">
<style type="text/css">
	.st0{fill:#3EC6F3;}
</style>
<g>
	<path class="st0" d="M46.1,12.4V8.5c0-1-0.8-1.8-1.8-1.8H11.2c-1,0-1.8,0.8-1.8,1.8v3.9c0,1,0.8,1.8,1.8,1.8h33.1
		C45.3,14.2,46.1,13.4,46.1,12.4z M10.9,8.5c0-0.2,0.1-0.3,0.3-0.3h33.1c0.2,0,0.3,0.1,0.3,0.3v3.9c0,0.2-0.1,0.3-0.3,0.3H11.2
		c-0.2,0-0.3-0.1-0.3-0.3V8.5z"/>
	<path class="st0" d="M26.2,20.4v-3.9c0-1-0.8-1.8-1.8-1.8H11.2c-1,0-1.8,0.8-1.8,1.8v3.9c0,0.7,0.4,1.2,0.9,1.5
		c-0.5,0.3-0.9,0.9-0.9,1.5v3.9c0,1,0.8,1.8,1.8,1.8h13.2c1,0,1.8-0.8,1.8-1.8v-3.9c0-0.7-0.4-1.2-0.9-1.5
		C25.8,21.6,26.2,21,26.2,20.4z M10.9,16.5c0-0.2,0.1-0.3,0.3-0.3h13.2c0.2,0,0.3,0.1,0.3,0.3v3.9c0,0.2-0.1,0.3-0.3,0.3H11.2
		c-0.2,0-0.3-0.1-0.3-0.3V16.5z M24.7,27.4c0,0.2-0.1,0.3-0.3,0.3H11.2c-0.2,0-0.3-0.1-0.3-0.3v-3.9c0-0.2,0.1-0.3,0.3-0.3h13.2
		c0.2,0,0.3,0.1,0.3,0.3V27.4z"/>
	<path class="st0" d="M34.8,41.7c-0.3-0.1-0.7-0.1-1-0.1l-29.2,0l-0.2,0c-0.1,0-0.3,0-0.4,0c-0.3,0-0.5-0.2-0.6-0.4
		c-0.1-0.2-0.2-0.5-0.1-0.7C3.5,40,4,39.9,4.5,39.9l4.9,0c5.1,0,10.2,0,15.2,0c0.1,0,0.2,0,0.4,0.2c0.3,0.4,0.8,0.6,1.3,0.7
		c0.5,0,1.1,0,1.6,0c0.4,0,0.7,0,1.1,0c0.4,0,1.4,0,1.9-0.9l1.6,0c0.6,0,1.3,0,1.9,0c0.8,0,1.5-0.5,1.6-1.3c0.2-0.8-0.2-1.6-1-1.8
		c-0.3-0.1-0.6-0.1-0.9-0.1l-1.3,0c-9.4,0-18.9,0-28.3,0c-0.7,0-1.4,0.2-2.1,0.4c-1.2,0.5-1.9,1.5-2.3,3.1l0,1.2l0,0.1
		c0.9,3,3,3.4,5,3.4c0,0,0,0,0.1,0c6.8,0,13.7,0,20.5,0l8.1,0c0.3,0,0.6,0,0.9-0.1c0.8-0.1,1.3-0.7,1.4-1.5
		C36,42.6,35.5,41.9,34.8,41.7z"/>
	<path class="st0" d="M34.7,31.7c-0.3-0.1-0.5-0.1-0.9-0.1c-8.1,0-16.2,0-24.2,0H6.6V3.3h42.3v3.5c0,4.4,0,8.7,0,13.1
		c0,0.3,0,0.7,0.1,1c0.2,0.7,0.8,1.1,1.5,1.1c0,0,0,0,0,0c0.7,0,1.4-0.5,1.5-1.2c0.1-0.2,0.1-0.5,0.1-0.8c0-6,0-11.9,0-17.9
		c0-1.4-0.6-2.1-2-2.1H5.3C3.9,0,3.3,0.6,3.3,2c0,10.3,0,20.5,0,30.8c0,1.5,0.6,2.1,2.1,2.1c3.3,0,6.6,0,9.9,0c6.2,0,12.4,0,18.6,0
		c0.3,0,0.6,0,0.8-0.1c0.8-0.2,1.2-0.8,1.2-1.6C35.9,32.5,35.4,31.9,34.7,31.7z"/>
	<path class="st0" d="M56.2,33.6c0-0.5,0-1-0.1-1.5c-0.5-4.3-4.3-7.6-8.7-7.7c-0.7,0-1.3,0-1.9,0.2c0.2-0.3,0.2-0.6,0.2-0.9v-7.2
		c0-1-0.8-1.8-1.8-1.8H30.8c-1,0-1.8,0.8-1.8,1.8v7.2c0,1,0.8,1.8,1.8,1.8h12.2c-2.4,1.3-4.1,3.5-4.5,6.2c-0.2,1.2-0.2,2.5-0.2,3.8
		c0,0.6,0,1.1-0.1,1.7l0.1,0.5l0,0c0,0.3,0,0.6,0,0.9c0,1,0,2.1,0,3.2c0.3,4.3,4.1,7.9,8.4,8.1c0.1,0,0.3,0,0.4,0
		c2.4,0,4.7-0.9,6.4-2.5c1.8-1.7,2.8-4,2.8-6.6C56.2,38.3,56.2,35.9,56.2,33.6z M52.8,38.3c0,0.9,0,1.9,0,2.8
		c-0.1,2.9-2.4,5.1-5.5,5.3c-2.7,0.2-5.3-1.9-5.7-4.6c-0.1-0.4-0.1-0.7-0.1-0.9l0-1.6c0-2,0-4,0-6c0-3.1,2.5-5.5,5.6-5.6
		c0,0,0.1,0,0.1,0c3,0,5.5,2.4,5.6,5.4c0,0.9,0,1.8,0,2.7c0,0.3,0,0.5,0,0.8l0,0.5C52.8,37.4,52.8,37.9,52.8,38.3z M30.5,16.5
		c0-0.2,0.1-0.3,0.3-0.3h13.2c0.2,0,0.3,0.1,0.3,0.3v7.2c0,0.2-0.1,0.3-0.3,0.3H30.8c-0.2,0-0.3-0.1-0.3-0.3V16.5z"/>
	<path class="st0" d="M47.2,29.4C47.2,29.4,47.2,29.4,47.2,29.4c-0.8,0-1.5,0.6-1.6,1.4c0,0.4-0.1,0.8-0.1,1.2c0,0.2,0,0.3,0,0.5
		l0,1.4c0,0.1,0,0.2,0,0.3c0.2,0.9,0.8,1.4,1.6,1.4c0,0,0,0,0,0c0.9,0,1.6-0.6,1.6-1.4c0.1-1.1,0.1-2.2,0-3.3
		C48.7,30,48.1,29.4,47.2,29.4z"/>
</g>
</svg>
