<?xml version="1.0" encoding="utf-8"?>
<!-- Generator: Adobe Illustrator 27.3.1, SVG Export Plug-In . SVG Version: 6.00 Build 0)  -->
<svg version="1.1" id="Layer_1" xmlns="http://www.w3.org/2000/svg" xmlns:xlink="http://www.w3.org/1999/xlink" x="0px" y="0px"
	 viewBox="0 0 135 135" style="enable-background:new 0 0 135 135;" xml:space="preserve">
<style type="text/css">
	.st0{fill-rule:evenodd;clip-rule:evenodd;fill:#FFFFFF;}
</style>
<g>
	<path class="st0" d="M69.7,29.5c-19.6,0-35.6,16-35.6,35.6c0,6.7,1.9,13.3,5.4,18.9l0.8,1.3l-3.6,13.1l13.5-3.5l1.3,0.8
		c5.5,3.2,11.7,5,18.1,5l0,0c19.6,0,35.6-16,35.6-35.6c0-9.5-3.7-18.4-10.4-25.2C88.1,33.2,79.2,29.5,69.7,29.5z M90.6,80.4
		c-0.9,2.5-5.2,4.8-7.2,5.1c-1.8,0.3-4.2,0.4-6.7-0.4c-1.6-0.5-3.5-1.2-6.1-2.3c-10.7-4.6-17.7-15.4-18.3-16.2
		c-0.5-0.7-4.4-5.8-4.4-11.1c0-5.3,2.8-7.9,3.7-8.9c1-1.1,2.1-1.3,2.9-1.3s1.4,0,2.1,0s1.5-0.2,2.4,1.8c0.9,2.1,3,7.4,3.3,7.9
		s0.4,1.2,0.1,1.9c-0.4,0.7-0.5,1.2-1.1,1.8c-0.5,0.6-1.1,1.4-1.6,1.9s-1.1,1.1-0.5,2.2s2.8,4.6,6,7.4c4.1,3.6,7.5,4.8,8.6,5.3
		s1.7,0.4,2.3-0.3c0.6-0.7,2.7-3.1,3.4-4.2c0.7-1.1,1.4-0.9,2.4-0.5s6.2,2.9,7.3,3.5c1.1,0.5,1.8,0.8,2.1,1.2
		C91.5,75.7,91.5,77.9,90.6,80.4z"/>
	<path class="st0" d="M67.5,0C30.2,0,0,30.2,0,67.5S30.2,135,67.5,135S135,104.8,135,67.5S104.8,0,67.5,0z M69.7,107.9L69.7,107.9
		L69.7,107.9c-7.2,0-14.2-1.8-20.5-5.2l-22.7,6l6.1-22.2c-3.7-6.5-5.7-13.9-5.7-21.4c0-23.6,19.2-42.8,42.8-42.8
		c11.5,0,22.2,4.5,30.3,12.6s12.5,18.8,12.5,30.3C112.5,88.7,93.3,107.9,69.7,107.9z"/>
</g>
</svg>
